<svg xmlns="http://www.w3.org/2000/svg" viewBox="0 0 63.14 82.689" preserveAspectRatio="xMinYmin">
  <path fill="#d49c00" d="M41.5 19.499v20.13l4.25-2.45v-20.13l-10.53-6.08z"/>
  <path fill="#f5b400" d="M30.96 13.419v19.34l10.54 6.08v-19.34l4.25-2.45-10.53-6.08z"/>
  <path fill="#808285" d="m32.58 22.149 2.07-1.2.01.02c.53-.31 1.26-.26 2.07.21 1.62.93 2.93 3.21 2.93 5.07 0 .93-.33 1.59-.86 1.9l-2.07 1.2z"/>
  <path fill="#a7a9ac" d="M37.59 27.449c0-1.87-1.31-4.14-2.93-5.07-1.62-.93-2.93-.18-2.93 1.69 0 1.87 1.31 4.14 2.93 5.07 1.62.94 2.93.18 2.93-1.69z"/>
  <path fill="#808285" d="M35.79 26.409c0-.72-.51-1.6-1.13-1.96-.63-.36-1.13-.07-1.13.65s.51 1.6 1.13 1.96c.63.37 1.13.08 1.13-.65zm-16.7 6.78 2.85-1.65c.17-.1.41-.08.67.07.52.3.95 1.04.95 1.64 0 .3-.11.51-.28.61l-2.84 1.65z"/>
  <path fill="#a7a9ac" d="M20.71 34.909c0-.6-.42-1.34-.95-1.64-.52-.3-.95-.06-.95.55 0 .6.42 1.34.95 1.64.53.29.95.05.95-.55z"/>
  <path fill="#808285" d="M20.13 34.569c0-.23-.16-.52-.37-.63-.2-.12-.37-.02-.37.21 0 .23.16.52.37.63.21.12.37.02.37-.21z"/>
  <path fill="#6d6e71" d="m15.61 33.689 2.67-1.54c.34-.2.8-.17 1.32.13 1.03.59 1.87 2.04 1.87 3.23 0 .6-.21 1.01-.55 1.21l-2.66 1.55z"/>
  <path fill="#a7a9ac" d="M18.8 37.069c0-1.19-.84-2.64-1.87-3.23-1.03-.59-1.87-.11-1.87 1.08 0 1.19.84 2.64 1.87 3.23 1.04.59 1.87.11 1.87-1.08z"/>
  <path fill="#808285" d="M17.66 36.409c0-.46-.32-1.02-.72-1.25-.4-.23-.72-.04-.72.42 0 .46.32 1.02.72 1.25.4.23.72.04.72-.42z"/>
  <path fill="#808285" d="m10.35 34.989 4.18-2.41c.53-.31 1.26-.26 2.07.21 1.62.93 2.93 3.21 2.93 5.07 0 .93-.33 1.59-.86 1.9l-4.17 2.43z"/>
  <path fill="#a7a9ac" d="M15.36 40.279c0-1.87-1.31-4.14-2.93-5.07-1.62-.93-2.93-.18-2.93 1.69 0 1.87 1.31 4.14 2.93 5.07 1.62.94 2.93.18 2.93-1.69z"/>
  <path fill="#808285" d="M13.57 39.249c0-.72-.51-1.6-1.13-1.96-.63-.36-1.13-.07-1.13.65s.51 1.6 1.13 1.96c.62.36 1.13.07 1.13-.65z"/>
  <path fill="#d49c00" d="M63.14 32.849v28.85l-12.23 7.06-10.31-43.48 12.23-7.07 3.43 1.98z"/>
  <path fill="#d63a3a" d="m50.17 36.109.7 1.29 8.46-4.89-.7-1.28zm-4.91-8.87.7 1.29 1.4-.81-.7-1.28zm1.23 2.27.7 1.28 1.4-.81-.7-1.28zm1.24 2.26.7 1.29 1.4-.81-.7-1.29zm1.15 2.09.7 1.29 1.4-.81-.7-1.28z"/>
  <path fill="#f5b400" d="m50.91 68.759-10.31-5.95v-37.53l3.42 1.98 6.89 12.66z"/>
  <path fill="#2565c4" d="m54.75 22.749 3.68 6.77 1.4-.81-3.68-6.77z"/>
  <path fill="#25a4c4" d="m52.32 24.149 3.68 6.77 1.4-.81-3.68-6.77z"/>
  <path fill="#0d0d0d" d="m47.89 26.709 2.95 5.42 1.13-.65-2.95-5.42z"/>
  <path fill="#d1d3d4" d="m48.32 27.489-.43-.78 6.29-3.63.42.78z"/>
  <path fill="#d63a3a" d="M55.44 23.489a.95.95 0 1 1-1.9 0 .95.95 0 0 1 1.9 0z"/>
  <path fill="#232323" d="m45.95 23.809-.69-.38v-3.8l.68.33z"/>
  <path fill="#0d0d0d" d="m51 20.889-5.05 2.92-.01-3.79 5.06-2.92z"/>
  <path fill="#454545" d="m40.09 10.039 17.32-10c.09-.05.17-.05.23-.01l1.35.73-.35.5-.1-.09v11.78c0 .2-.14.44-.31.54l-16.91 9.76-.11.55-1.33-.72c-.06-.03-.09-.1-.09-.2v-12.29a.66.66 0 0 1 .3-.55z"/>
  <path fill="#0d0d0d" d="m41.44 23.779 17.32-10c.17-.1.31-.34.31-.54V.949c0-.2-.14-.28-.31-.18l-17.32 10c-.17.1-.31.34-.31.54v12.29c-.01.2.13.28.31.18z"/>
  <path fill="#232323" d="m58 12.139-16.12 9.31v.31l16.4-9.47V1.919l-.28.16z"/>
  <path d="m58 12.139-16.12 9.31v-10.06L58 2.079z"/>
  <path fill="#75c425" d="M52.33 10.819v-2.27l3.87-2.23v2.26zm2.84-5.65v-.44l-12.53 7.23v.44zm-6.14 4.86v-.44l-6.39 3.69v.44zm0 1.26v-.45l-6.39 3.69v.44zm0 4.49v-.44l-6.39 3.69v.44zm4.46-3.83v-.44l-10.85 6.26v.44z"/>
  <path fill="#454545" d="M58.28 13.349v-.44l-4.01 2.31v.45z"/>
  <path fill="#f5b400" d="M0 72.409v-19.76l17.81 10.28v19.76z"/>
  <path fill="#808285" d="M17.81 62.929 0 52.649v-2.08l40.6-7.45 5.76 1.24v2.08z"/>
  <path fill="#a7a9ac" d="m0 50.569 30.96-17.81 10.54 6.08 4.86 5.52-28.55 16.49z"/>
  <path fill="#d49c00" d="M17.81 82.689v-19.76l28.55-16.49v19.77z"/>
  <path fill="#939598" d="m38.68 33.239-22.04 16.71-4.06-2.35v-3.97l22.04-12.74z"/>
  <path fill="#454545" d="m15.89 45.199-.53-.31 21.02-12.13.53.3zm-1.62-.94-.53-.3 21.02-12.14.53.31z"/>
  <path fill="#808285" d="M16.64 49.949v-3.98l22.04-12.73v3.97z"/>
  <path fill="#d49c00" d="M12.99 37.319v20.13l4.25-2.46v-20.12l-10.53-6.08z"/>
  <path fill="#f5b400" d="M2.46 31.239v20.13l10.53 6.08v-20.13l4.25-2.45-10.53-6.08zm43.9 6.86-22.32 19.15-4.07-2.35v-6.26l22.32-12.88z"/>
  <path fill="#d49c00" d="M24.04 57.249v-6.26l22.32-12.89v6.26z"/>
  <path fill="#232323" d="M21.84 49.389v-1.08l20.57-11.87 2.23 1.29-20.57 12.95z"/>
  <path fill="#0d0d0d" d="m44.64 38.819-20.57 11.86v-1.09l20.57-11.86z"/>
  <g opacity=".6">
    <path fill="#1c4b94" d="m23.99 48.899-.91-.52v-9.11l-4.16-10.17.78-.1 4.29 10.5z"/>
    <path fill="#2565c4" d="m43.13 37.849-19.14 11.05v-9.4l-4.29-10.5-.78.1 19.15-11.05.77-.1 4.29 10.49z"/>
    <path opacity=".35" d="m43.13 37.849-19.14 11.05v-9.4l19.14-11.06z"/>
  </g>
  <path fill="#808285" d="m4.92 39.139 1.65-.95.01.01c.42-.24 1-.21 1.65.16 1.29.74 2.33 2.55 2.33 4.04 0 .74-.26 1.27-.68 1.51l-1.65.95z"/>
  <path fill="#a7a9ac" d="M8.91 43.349c0-1.49-1.04-3.3-2.33-4.04-1.29-.74-2.33-.14-2.33 1.35 0 1.49 1.04 3.3 2.33 4.04 1.29.75 2.33.14 2.33-1.35z"/>
  <path fill="#808285" d="M7.48 42.529c0-.58-.4-1.28-.9-1.56-.5-.29-.9-.05-.9.52 0 .58.4 1.28.9 1.56.5.29.9.05.9-.52z"/>
</svg>
