<?xml version="1.0" encoding="UTF-8" standalone="no"?>
<!-- Generator: Adobe Illustrator 25.4.1, SVG Export Plug-In . SVG Version: 6.00 Build 0)  -->

<svg
   version="1.1"
   id="Layer_1"
   x="0px"
   y="0px"
   viewBox="0 0 89.020 94.630"
   sodipodi:docname="machine-4.svg"
   inkscape:version="1.1 (c68e22c387, 2021-05-23)"
   xmlns:inkscape="http://www.inkscape.org/namespaces/inkscape"
   xmlns:sodipodi="http://sodipodi.sourceforge.net/DTD/sodipodi-0.dtd"
   xmlns="http://www.w3.org/2000/svg"
   xmlns:svg="http://www.w3.org/2000/svg">
  <defs
     id="defs5764" />
  <sodipodi:namedview
     id="namedview5762"
     pagecolor="#ffffff"
     bordercolor="#999999"
     borderopacity="1"
     inkscape:pageshadow="0"
     inkscape:pageopacity="0"
     inkscape:pagecheckerboard="0"
     showgrid="false"
     inkscape:zoom="7.8939026"
     inkscape:cx="44.528039"
     inkscape:cy="47.315"
     inkscape:window-width="1680"
     inkscape:window-height="997"
     inkscape:window-x="-8"
     inkscape:window-y="-8"
     inkscape:window-maximized="1"
     inkscape:current-layer="g5755" />
  <g
     id="g5759">
    <g
       transform="translate(-320.33,-100.29)"
       id="g5757">
      <g
         id="g5755"
         inkscape:label="Layer2">
        <g
           id="g5609">
          <polygon
             fill="#a62626"
             points="383.74,100.29 392.26,124.95 392.26,172.73 409.35,162.87 409.35,115.08 "
             id="polygon5605" />
          <polygon
             fill="#d63a3a"
             points="392.26,172.73 392.26,124.95 409.35,115.08 383.74,100.29 366.65,110.16 366.65,157.94 "
             id="polygon5607" />
        </g>
        <g
           id="g5619">
          <polygon
             fill="#d63a3a"
             points="320.33,184.64 320.33,164.88 338.13,175.16 338.13,194.92 "
             id="polygon5611" />
          <polygon
             fill="#808285"
             points="320.33,162.8 376.3,146.47 384.41,146.36 384.41,148.44 338.13,175.16 320.33,164.88 "
             id="polygon5613" />
          <polygon
             fill="#a7a9ac"
             points="366.67,136.11 384.41,146.36 338.13,173.08 320.33,162.8 "
             id="polygon5615" />
          <polygon
             fill="#a62626"
             points="338.13,194.92 338.13,175.16 384.41,148.44 384.41,168.2 "
             id="polygon5617" />
        </g>
        <g
           id="g5627">
          <path
             fill="#6d6e71"
             d="m 335.94,145.92 2.66,-1.54 c 0.34,-0.2 0.8,-0.17 1.32,0.13 1.03,0.59 1.87,2.04 1.87,3.23 0,0.59 -0.21,1.01 -0.55,1.21 l -2.66,1.55 z"
             id="path5621" />
          <path
             fill="#a7a9ac"
             d="m 339.13,149.3 c 0,-1.19 -0.84,-2.64 -1.87,-3.23 -1.03,-0.59 -1.87,-0.11 -1.87,1.08 0,1.19 0.84,2.64 1.87,3.23 1.04,0.59 1.87,0.11 1.87,-1.08 z"
             id="path5623" />
          <path
             fill="#808285"
             d="m 337.99,148.64 c 0,-0.46 -0.32,-1.02 -0.72,-1.25 -0.4,-0.23 -0.72,-0.04 -0.72,0.42 0,0.46 0.32,1.02 0.72,1.25 0.4,0.23 0.72,0.04 0.72,-0.42 z"
             id="path5625" />
        </g>
        <g
           id="g5635">
          <path
             fill="#808285"
             d="m 330.68,147.22 4.18,-2.41 c 0.53,-0.31 1.26,-0.26 2.07,0.21 1.62,0.93 2.93,3.21 2.93,5.07 0,0.93 -0.33,1.59 -0.86,1.9 l -4.17,2.43 z"
             id="path5629" />
          <path
             fill="#a7a9ac"
             d="m 335.69,152.51 c 0,-1.87 -1.31,-4.14 -2.93,-5.07 -1.62,-0.93 -2.93,-0.18 -2.93,1.69 0,1.87 1.31,4.14 2.93,5.07 1.62,0.94 2.93,0.18 2.93,-1.69 z"
             id="path5631" />
          <path
             fill="#808285"
             d="m 333.9,151.48 c 0,-0.72 -0.51,-1.6 -1.13,-1.96 -0.62,-0.36 -1.13,-0.07 -1.13,0.65 0,0.72 0.51,1.6 1.13,1.96 0.62,0.36 1.13,0.07 1.13,-0.65 z"
             id="path5633" />
        </g>
        <g
           id="g5643">
          <path
             fill="#808285"
             d="m 367.42,124.43 5.45,-3.14 c 0.69,-0.4 1.64,-0.34 2.69,0.27 2.11,1.21 3.81,4.17 3.81,6.6 0,1.22 -0.43,2.07 -1.12,2.47 l -5.43,3.17 z"
             id="path5637" />
          <path
             fill="#a7a9ac"
             d="m 373.95,131.32 c 0,-2.43 -1.71,-5.39 -3.81,-6.6 -2.1,-1.21 -3.81,-0.23 -3.81,2.2 0,2.43 1.71,5.39 3.81,6.6 2.1,1.22 3.8,0.23 3.81,-2.2 z"
             id="path5639" />
          <path
             fill="#808285"
             d="m 371.61,129.97 c 0,-0.94 -0.66,-2.08 -1.48,-2.56 -0.81,-0.47 -1.47,-0.09 -1.47,0.85 0,0.94 0.66,2.09 1.47,2.56 0.82,0.48 1.48,0.09 1.48,-0.85 z"
             id="path5641" />
        </g>
        <g
           id="g5649">
          <polygon
             fill="#808285"
             points="370.53,136.95 371.95,137.77 334.43,160.82 333.01,160 333.01,158.62 "
             id="polygon5645" />
          <polygon
             fill="#6d6e71"
             points="334.43,160.82 334.43,159.44 371.95,137.77 371.95,139.16 "
             id="polygon5647" />
        </g>
        <g
           id="g5655">
          <polygon
             fill="#808285"
             points="377.03,140.71 378.45,141.53 337.29,166.67 335.87,165.85 335.87,164.46 "
             id="polygon5651" />
          <polygon
             fill="#6d6e71"
             points="337.29,166.67 337.29,165.28 378.45,141.53 378.45,142.91 "
             id="polygon5653" />
        </g>
        <g
           id="g5661">
          <polygon
             fill="#a62626"
             points="327.04,141.02 333.32,149.55 333.32,169.68 337.57,167.22 337.57,147.1 "
             id="polygon5657" />
          <polygon
             fill="#d63a3a"
             points="333.32,169.68 333.32,149.55 337.57,147.1 327.04,141.02 322.79,143.47 322.79,163.6 "
             id="polygon5659" />
        </g>
        <g
           id="g5675">
          <polygon
             fill="#5c5c5c"
             points="322.3,161.37 322.3,149.58 325.11,147.95 331.78,151.8 328.97,153.43 328.97,165.22 "
             id="polygon5663" />
          <polygon
             fill="#363636"
             points="328.97,165.22 328.97,153.43 331.78,151.8 331.78,163.59 "
             id="polygon5665" />
          <g
             id="g5673">
            <polygon
               fill="#f5b400"
               points="323,155.78 325.66,152.78 328.32,158.86 "
               id="polygon5667" />
            <path
               d="m 325.61,153.1 2.34,5.34 -4.69,-2.71 z m 0.05,-0.32 -2.66,3 5.33,3.07 z"
               id="path5669" />
            <polygon
               points="325.08,155.11 325.73,155.66 325.18,156.63 326.12,155.64 325.44,155.09 325.75,154.45 325.24,154.02 "
               id="polygon5671" />
          </g>
        </g>
        <g
           id="g5685">
          <polygon
             fill="#a62626"
             points="350.77,148.08 350.77,144.09 355.41,141.41 355.41,145.4 "
             id="polygon5677" />
          <polygon
             opacity="0.3"
             points="350.77,148.08 350.77,144.09 355.41,141.41 355.41,145.4 "
             id="polygon5679" />
          <polygon
             fill="#a62626"
             points="363.96,152.39 363.96,155.69 365.75,156.72 365.75,151.16 348.98,141.48 348.98,147.04 350.77,148.08 350.77,144.78 "
             id="polygon5681" />
          <polygon
             fill="#d63a3a"
             points="348.98,141.48 365.75,151.16 365.75,156.72 375.88,150.88 375.88,145.31 359.11,135.63 "
             id="polygon5683" />
        </g>
        <polygon
           fill="#1c4b94"
           points="408.48,125.7 408.48,127.75 403.93,130.38 403.93,128.33 "
           id="polygon5687" />
        <g
           id="g5693">
          <polygon
             fill="#2565c4"
             points="400.34,135.45 401.4,136.06 395.29,141.64 394.22,141.03 394.22,138.98 "
             id="polygon5689" />
          <polygon
             fill="#1c4b94"
             points="395.29,141.64 395.29,139.59 401.4,136.06 401.4,138.11 "
             id="polygon5691" />
        </g>
        <polygon
           fill="#f5b400"
           points="408.48,128.79 408.48,129.81 403.93,132.44 403.93,131.41 "
           id="polygon5695" />
        <g
           id="g5733">
          <g
             id="g5701">
            <path
               fill="#d49c00"
               d="m 404.45,124.96 -0.72,-0.42 v 0 c -0.11,-0.06 -0.26,-0.05 -0.42,0.04 -0.33,0.19 -0.6,0.65 -0.6,1.03 0,0.19 0.07,0.32 0.17,0.39 l 0.72,0.42 z"
               id="path5697" />
            <path
               fill="#f5b400"
               d="m 403.43,126.04 c 0,-0.38 0.27,-0.84 0.6,-1.03 0.33,-0.19 0.6,-0.04 0.6,0.34 0,0.38 -0.27,0.84 -0.6,1.03 -0.34,0.2 -0.6,0.04 -0.6,-0.34 z"
               id="path5699" />
          </g>
          <g
             id="g5707">
            <path
               fill="#d49c00"
               d="m 406.63,123.7 -0.72,-0.42 v 0 c -0.11,-0.06 -0.26,-0.05 -0.42,0.04 -0.33,0.19 -0.6,0.65 -0.6,1.03 0,0.19 0.07,0.33 0.17,0.39 l 0.72,0.42 z"
               id="path5703" />
            <path
               fill="#f5b400"
               d="m 405.61,124.78 c 0,-0.38 0.27,-0.84 0.6,-1.03 0.33,-0.19 0.6,-0.04 0.6,0.34 0,0.38 -0.27,0.84 -0.6,1.03 -0.33,0.2 -0.6,0.04 -0.6,-0.34 z"
               id="path5705" />
          </g>
          <g
             id="g5713">
            <path
               fill="#d49c00"
               d="m 408.7,122.51 -0.72,-0.42 v 0 c -0.11,-0.06 -0.26,-0.05 -0.42,0.04 -0.33,0.19 -0.6,0.65 -0.6,1.03 0,0.19 0.07,0.32 0.17,0.39 l 0.72,0.42 z"
               id="path5709" />
            <path
               fill="#f5b400"
               d="m 407.68,123.59 c 0,-0.38 0.27,-0.84 0.6,-1.03 0.33,-0.19 0.6,-0.04 0.6,0.34 0,0.38 -0.27,0.84 -0.6,1.03 -0.33,0.19 -0.6,0.04 -0.6,-0.34 z"
               id="path5711" />
          </g>
          <g
             id="g5719">
            <path
               fill="#d49c00"
               d="m 404.45,122.51 -0.72,-0.42 v 0 c -0.11,-0.06 -0.26,-0.05 -0.42,0.04 -0.33,0.19 -0.6,0.65 -0.6,1.03 0,0.19 0.07,0.32 0.17,0.39 l 0.72,0.42 z"
               id="path5715" />
            <path
               fill="#f5b400"
               d="m 403.43,123.59 c 0,-0.38 0.27,-0.84 0.6,-1.03 0.33,-0.19 0.6,-0.04 0.6,0.34 0,0.38 -0.27,0.84 -0.6,1.03 -0.34,0.19 -0.6,0.04 -0.6,-0.34 z"
               id="path5717" />
          </g>
          <g
             id="g5725">
            <path
               fill="#d49c00"
               d="m 406.63,121.25 -0.72,-0.42 v 0 c -0.11,-0.06 -0.26,-0.05 -0.42,0.04 -0.33,0.19 -0.6,0.65 -0.6,1.03 0,0.19 0.07,0.32 0.17,0.39 l 0.72,0.42 z"
               id="path5721" />
            <path
               fill="#f5b400"
               d="m 405.61,122.33 c 0,-0.38 0.27,-0.84 0.6,-1.03 0.33,-0.19 0.6,-0.04 0.6,0.34 0,0.38 -0.27,0.84 -0.6,1.03 -0.33,0.19 -0.6,0.04 -0.6,-0.34 z"
               id="path5723" />
          </g>
          <g
             id="g5731">
            <path
               fill="#d49c00"
               d="m 408.7,120.05 -0.72,-0.42 v 0 c -0.11,-0.06 -0.26,-0.05 -0.42,0.04 -0.33,0.19 -0.6,0.65 -0.6,1.03 0,0.19 0.07,0.32 0.17,0.39 l 0.72,0.42 z"
               id="path5727" />
            <path
               fill="#f5b400"
               d="m 407.68,121.13 c 0,-0.38 0.27,-0.84 0.6,-1.03 0.33,-0.19 0.6,-0.04 0.6,0.34 0,0.38 -0.27,0.84 -0.6,1.03 -0.33,0.2 -0.6,0.04 -0.6,-0.34 z"
               id="path5729" />
          </g>
        </g>
        <g
           id="g5747">
          <g
             id="g5739">
            <path
               fill="#2565c4"
               d="m 400.69,125.14 0.06,-0.13 -0.8,-0.46 v 0 c -0.85,-0.41 -1.93,-0.24 -3.01,0.38 -1.14,0.66 -2.27,1.81 -3.14,3.32 -1.7,2.95 -1.73,6.13 -0.09,7.2 l 0.88,0.51 0.07,-0.18 c 0.7,0.08 1.49,-0.13 2.28,-0.59 1.14,-0.66 2.68,-1.41 3.55,-2.91 1.5,-2.61 1.29,-5.79 0.2,-7.14 z m -3.75,0.78 c 0.81,-0.47 1.58,-0.6 2.2,-0.39 l -1.8,3.13 c -0.12,0.01 -0.26,0.06 -0.41,0.14 -0.14,0.08 -0.27,0.19 -0.39,0.31 l -1.47,-0.85 c 0.64,-0.92 1.06,-1.87 1.87,-2.34 z m -2.79,8.32 c -1.03,-0.89 -0.6,-2.76 0.42,-4.85 l 1.37,0.79 c -0.05,0.17 -0.07,0.33 -0.07,0.49 0,0.17 0.03,0.32 0.08,0.43 z m 2.79,-0.06 c -0.51,0.29 -1,0.45 -1.44,0.48 -0.26,0.02 0.35,-0.41 0.13,-0.48 l 1.32,-2.17 c 0.11,-0.02 -0.13,-0.64 0,-0.71 0.14,-0.08 0.27,-0.19 0.39,-0.31 l 1.81,1.04 c -0.64,0.93 -1.4,1.68 -2.21,2.15 z m 2.81,-3.21 -1.81,-1.04 c 0.05,-0.17 0.07,-0.33 0.07,-0.49 0,-0.15 0.46,-0.04 0.41,-0.15 l 1.47,-2.56 c 0.15,0.13 0.14,-0.54 0.24,-0.35 0.24,0.42 0.37,0.97 0.37,1.62 0.01,0.92 -0.25,1.96 -0.75,2.97 z"
               id="path5735" />
            <path
               fill="#1c4b94"
               d="m 400.83,125.04 c -0.87,-0.5 -2,-0.35 -3.14,0.31 -1.14,0.66 -2.27,1.81 -3.14,3.32 -1.73,3 -1.73,6.25 0,7.25 0.87,0.5 2,0.35 3.14,-0.31 1.14,-0.66 2.27,-1.81 3.14,-3.31 1.73,-3.01 1.73,-6.26 0,-7.26 z m -2.14,5.31 c 0.05,-0.17 0.07,-0.33 0.07,-0.49 0,-0.15 -0.02,-0.28 -0.07,-0.39 l 1.81,-3.15 c 0.49,0.44 0.76,1.17 0.76,2.1 0,0.93 -0.27,1.97 -0.76,2.98 z m 1.2,-4.39 -1.8,3.13 c -0.13,0.01 -0.26,0.06 -0.41,0.14 -0.14,0.08 -0.27,0.19 -0.39,0.31 l -1.81,-1.04 c 0.63,-0.93 1.39,-1.68 2.2,-2.15 0.81,-0.46 1.58,-0.6 2.21,-0.39 z m -5.02,3.6 1.81,1.05 c -0.05,0.17 -0.07,0.33 -0.07,0.49 0,0.17 0.03,0.31 0.08,0.43 l -1.8,3.13 c -1.03,-0.89 -1.03,-3.01 -0.02,-5.1 z m 0.64,5.45 1.81,-3.15 c 0.12,-0.02 0.24,-0.06 0.37,-0.14 0.14,-0.08 0.27,-0.19 0.39,-0.31 l 1.81,1.05 c -0.63,0.93 -1.39,1.68 -2.2,2.15 -0.8,0.46 -1.56,0.59 -2.18,0.4 z"
               id="path5737" />
          </g>
          <g
             id="g5745">
            <path
               fill="#d49c00"
               d="m 398.54,130.32 -0.49,-0.28 v 0 c -0.07,-0.04 -0.17,-0.04 -0.28,0.03 -0.22,0.13 -0.4,0.44 -0.4,0.69 0,0.13 0.04,0.22 0.12,0.26 l 0.49,0.28 z"
               id="path5741" />
            <path
               fill="#f5b400"
               d="m 397.85,131.04 c 0,-0.25 0.18,-0.57 0.4,-0.69 0.22,-0.13 0.4,-0.02 0.4,0.23 0,0.26 -0.18,0.57 -0.4,0.69 -0.22,0.13 -0.4,0.03 -0.4,-0.23 z"
               id="path5743" />
          </g>
        </g>
        <g
           id="g5753">
          <polygon
             fill="#808285"
             points="365.75,140.01 365.75,142.37 360.21,145.57 352.71,141.24 352.71,138.89 "
             id="polygon5749" />
          <polygon
             fill="#a7a9ac"
             points="360.21,143.21 352.71,138.89 358.25,135.69 365.75,140.01 "
             id="polygon5751" />
        </g>
      </g>
    </g>
  </g>
</svg>
