<svg viewBox="0 0 40.58 79.18" xmlns="http://www.w3.org/2000/svg">
  <path fill="#a62626" d="m28.03 58.04 3.99-8.25 8.56 4.94v9.09l-8.62 4.98z"/>
  <path fill="#d63a3a" d="m32.02 49.79 8.56 4.94-8.62 4.85v9.22l-8.56-4.94v-9.22z"/>
  <path fill="#a62626" d="m40.58 15.31-5.07 2.92-3.93-8.13.44-6.2 8.56 4.94z"/>
  <path fill="#d63a3a" d="M26.95 13.29V6.71l5.07-2.81 8.56 4.94-5.07 2.81v6.58z"/>
  <path fill="#808285" d="M35.51 9.79v47.8l-3.55 1.99-5.05-54.75z"/>
  <path fill="#a7a9ac" d="M23.37 54.62V6.87l3.54-2.04 8.6 4.96-3.55 2.05v47.74z"/>
  <path fill="#6d6e71" d="m26.38 52.92-1.73-1V9.84l.72.42v41.25l1.01.59z"/>
  <path fill="#808285" d="m25.37 10.26 1.01.58V52.1l-1.01-.59z"/>
  <path fill="#6d6e71" d="m30.54 55.3-1.74-1V12.22l.72.41v41.26l1.02.59z"/>
  <path fill="#808285" d="m29.52 12.63 1.02.59v41.26l-1.02-.59z"/>
  <path fill="#a62626" d="m31.96 68.8-14.05 8.18-3.93-26.42 9.42-11.38 8.56 4.94z"/>
  <path fill="#d63a3a" d="M9.35 72.04V47.17l14.05-7.99 8.56 4.94-14.05 7.99v24.87z"/>
  <path fill="#808285" d="M16.16 43.96v2.35h.02c0 .6.4 1.2 1.19 1.66 1.59.92 4.16.92 5.75 0 .79-.46 1.19-1.06 1.19-1.66v-2.35z"/>
  <path fill="#a7a9ac" d="M23.12 45.62c-1.59.92-4.16.92-5.75 0-1.59-.92-1.59-2.4 0-3.32 1.59-.92 4.16-.92 5.75 0 1.59.91 1.59 2.4 0 3.32z"/>
  <path fill="#808285" d="M21.36 44.6c-.61.36-1.61.36-2.22 0-.61-.35-.61-.93 0-1.29.61-.35 1.61-.35 2.23 0 .6.36.6.93-.01 1.29z"/>
  <path fill="#a62626" d="m17.91 76.98-3.93 2.2-4.33-29.1-.3-13.71 8.56 4.95z"/>
  <path fill="#d63a3a" d="M5.43 74.24V38.57l3.92-2.2 8.56 4.95-3.93 2.19v35.67zM1.9 49.61a.95.95 0 1 1-.95-.95c.53 0 .95.42.95.95z"/>
  <path fill="#d1d3d4" d="M7.84 46.17 1.56 49.8s-.35.19-.57-.16c-.23-.36.14-.62.14-.62l6.28-3.63z"/>
  <path fill="#d63a3a" d="M1.46 36.08a.95.95 0 0 0 .42 1.28.95.95 0 0 0 1.28-.42.95.95 0 0 0-.42-1.28.95.95 0 0 0-1.28.42z"/>
  <path fill="#d1d3d4" d="m7.12 42.8-4.01-6.04s-.23-.32-.58-.11c-.36.22-.15.62-.15.62l4.01 6.04zm2.57 5.56 3.83 5.81s.23.32.58.11c.36-.22.15-.62.15-.62l-3.79-5.75z"/>
  <path fill="#d63a3a" d="M13.29 53.85a.95.95 0 0 0 .42 1.28.95.95 0 0 0 1.28-.42.95.95 0 0 0-.42-1.28.95.95 0 0 0-1.28.42z"/>
  <path fill="#808285" d="m6.07 42.81 1.65-.95.01.01c.42-.24 1-.21 1.65.16 1.29.74 2.33 2.55 2.33 4.04 0 .74-.26 1.27-.68 1.51l-1.65.95z"/>
  <path fill="#a7a9ac" d="M10.06 47.03c0-1.49-1.04-3.3-2.33-4.04-1.29-.74-2.33-.14-2.33 1.35 0 1.49 1.05 3.3 2.33 4.04 1.29.74 2.33.14 2.33-1.35z"/>
  <path fill="#808285" d="M8.63 46.21c0-.58-.4-1.28-.9-1.56-.5-.29-.9-.05-.9.52 0 .58.4 1.28.9 1.56.5.29.9.05.9-.52z"/>
  <path fill="#d1d3d4" d="m16.64 41.03-6.28 3.63s-.35.19-.57-.16c-.23-.36.14-.62.14-.62l6.28-3.63z"/>
  <path fill="#d63a3a" d="M17.47 40.66a.95.95 0 1 1-.95-.95c.53 0 .95.42.95.95z"/>
  <path fill="#363636" d="M21.58 29.2v4.79h-.01c0 .2-.13.4-.4.56-.53.31-1.39.31-1.92 0-.27-.15-.4-.35-.4-.56V29.2z"/>
  <path fill="#5c5c5c" d="M19.25 29.76c.53.31 1.39.31 1.92 0s.53-.8 0-1.11c-.53-.31-1.39-.31-1.92 0-.53.3-.53.8 0 1.11z"/>
  <path fill="#363636" d="M22.84 23.29v5.7h-.01c0 .39-.26.77-.77 1.07-1.02.59-2.68.59-3.7 0-.51-.3-.77-.68-.77-1.07v-5.7z"/>
  <path fill="#5c5c5c" d="M18.36 24.36c1.02.59 2.68.59 3.7 0s1.02-1.55 0-2.14c-1.02-.59-2.68-.59-3.7 0-1.03.59-1.02 1.55 0 2.14z"/>
  <path fill="#a62626" d="m28.8 22.45-8.57 4.95-1.15-15L20.24 5l8.56 4.94z"/>
  <path fill="#d63a3a" d="M11.67 22.46V9.95L20.24 5l8.56 4.94-8.57 4.95V27.4z"/>
  <path fill="#808285" d="M25.44 21.55V25l5.79-3.34v-3.45z"/>
  <path fill="#a7a9ac" d="M25.44 25v-3.45l5.79-3.34-2.44-1.41-5.8 3.34v3.45z"/>
  <path fill="#808285" d="M25.44 15.81v3.45l5.79-3.35v-3.45z"/>
  <path fill="#a7a9ac" d="M25.44 19.26v-3.45l5.79-3.35-2.44-1.41-5.8 3.35v3.45z"/>
  <path fill="#363636" d="M23.38 7.95v1.86c0 .47-.31.94-.93 1.29-1.24.71-3.25.71-4.49 0-.62-.36-.93-.83-.93-1.29V7.95z"/>
  <path fill="#5c5c5c" d="M17.96 9.25c1.24.72 3.25.72 4.49 0 1.24-.72 1.24-1.88 0-2.59s-3.25-.71-4.49 0c-1.24.71-1.24 1.87 0 2.59z"/>
  <path fill="#363636" d="M23.03 1.64v6.15c0 .42-.28.84-.83 1.15-1.1.64-2.89.64-4 0-.55-.32-.83-.74-.83-1.15V1.64z"/>
  <path fill="#5c5c5c" d="M18.21 2.79c1.1.64 2.89.64 4 0 1.1-.64 1.1-1.67 0-2.31-1.1-.64-2.89-.64-4 0-1.1.64-1.1 1.68 0 2.31z"/>
</svg>
