<svg viewBox="0 0 80.13 98.88" xmlns="http://www.w3.org/2000/svg">
  <g style="display:inline">
    <path fill="#f80" d="m38.1 25.47 2.3 3.68 12.48 4.96.2-17.27z"/>
    <path fill="orange" d="M38.1 32.1v-6.63l8.63 2.39.17 9.3z"/>
    <path fill="#f80" d="m49.87 14.99-.2 17.27 6.63 35.52 5.38 4.37L80.13 61.5V7.12l-30.78 3.53z"/>
    <path fill="orange" d="m46.73 27.86 2.62-17.21L67.8 0l12.33 7.12-18.45 10.65v54.38l-15.32-8.84V36.85zM15.4 98.88 0 89.98V70.21l15.4 8.91z"/>
    <path fill="#808285" d="M0 70.21v-2.08l55.97-16.32 5.71-1.49v2.08L15.4 79.12z"/>
    <path fill="#a7a9ac" d="m0 68.13 46.33-26.68 15.35 8.87L15.4 77.03z"/>
    <path fill="#f80" d="M61.68 72.16 15.4 98.88V79.12L61.68 52.4z"/>
    <path fill="#939598" d="m12.93 66.14 40.13-23.17 4.06 2.35L17 70.88l-4.07-2.35z"/>
    <path fill="#454545" d="M55.35 45.14 16.24 67.71l-.52-.31 39.1-22.56zm-1.62-.93-39.1 22.56-.53-.3L53.2 43.9z"/>
    <path fill="#808285" d="M57.12 47.72 17 70.88v-2.4l40.12-23.16z"/>
    <path fill="#f80" d="m38.11 51.6-4.64 2.68v-3.02l4.64-2.68z"/>
    <path opacity=".3" d="m38.11 51.6-4.64 2.68v-3.02l4.64-2.68z"/>
    <path fill="orange" d="m32.4 54.89 1.07-.61v-2.33l7.46 4.26v3.56l1.79 1.03v-5.83l-11.04-6.32v5.83z"/>
    <path fill="#f80" d="m41.81 42.8-10.13 5.85 11.04 6.32v5.83l10.12-5.85v-5.82z"/>
    <path fill="#808285" d="M38.1 46.91v2.35h.02c0 .6.4 1.2 1.19 1.66 1.59.92 4.16.92 5.75 0 .79-.46 1.19-1.06 1.19-1.66v-2.35z"/>
    <path fill="#a7a9ac" d="M45.06 48.57c-1.59.92-4.16.92-5.75 0-1.59-.92-1.59-2.4 0-3.32 1.59-.92 4.16-.92 5.75 0 1.59.92 1.59 2.41 0 3.32z"/>
    <path fill="#808285" d="M43.3 47.56c-.62.36-1.61.36-2.23 0-.61-.35-.61-.93 0-1.29.61-.35 1.61-.35 2.23 0 .61.36.61.93 0 1.29z"/>
    <path fill="#d49c00" d="M18.02 50.34 7.49 44.26l6.28 8.54v22.32l4.25-2.45z"/>
    <path fill="#f5b400" d="m3.23 69.04 10.54 6.08V52.8l4.25-2.46-10.53-6.08-4.26 2.46z"/>
    <path fill="#808285" d="m61.68 21.36-8.01-4.61 4.77 6.48v5.61l3.24-1.87z"/>
    <path fill="#a7a9ac" d="m50.43 24.23 8.01 4.61v-5.61l3.24-1.87-8.01-4.61-3.24 1.86z"/>
    <path fill="#f80" d="m29.89 43.17-9.48-5.46 5.65 7.67v3.88l3.83-2.21z"/>
    <path fill="orange" d="m16.58 43.8 9.48 5.46v-3.88l3.83-2.21-9.48-5.46-3.83 2.21z"/>
    <path fill="#808285" d="m18.63 45.49 37.52-21.67 1.42.82L20.05 47.7l-1.42-.82z"/>
    <path fill="#6d6e71" d="M57.57 26.03 20.05 47.7v-1.39l37.52-21.67z"/>
    <path fill="#808285" d="M13.75 42.67 51.27 21l1.42.82-37.52 23.06-1.42-.82z"/>
    <path fill="#6d6e71" d="M52.69 23.21 15.17 44.88v-1.39l37.52-21.67z"/>
    <path fill="#808285" d="M21.77 46.06 6.64 37.33l9.02 12.25v6.91l6.11-3.53z"/>
    <path fill="#a7a9ac" d="m.54 47.75 15.12 8.74v-6.91l6.11-3.52-15.13-8.73-6.1 3.52z"/>
    <path fill="#363636" d="m69.97 38.89 9.61-5.55v-17l-9.61 5.55z"/>
    <path fill="#5c5c5c" d="m65.92 36.55 4.05 2.34v-17l9.61-5.55-4.05-2.33-9.61 5.54z"/>
    <path fill="#f5b400" d="m78.58 25.29-3.84-4.32-3.84 8.75z"/>
    <path d="m74.81 21.42 3.38 3.8-6.75 3.9zm-.07-.45-3.84 8.75 7.68-4.43z"/>
    <path d="m75.44 26.52-1.36-1.44.98-.79-.45-.93.73-.62.23 1.58-.93.79z"/>
  </g>
</svg>
