<?xml version="1.0" encoding="UTF-8" standalone="no"?>
<!-- Generator: Adobe Illustrator 25.4.1, SVG Export Plug-In . SVG Version: 6.00 Build 0)  -->

<svg
   version="1.1"
   id="Layer_1"
   x="0px"
   y="0px"
   viewBox="0 0 80.130 98.880"
   sodipodi:docname="machine-7.svg"
   inkscape:version="1.1 (c68e22c387, 2021-05-23)"
   xmlns:inkscape="http://www.inkscape.org/namespaces/inkscape"
   xmlns:sodipodi="http://sodipodi.sourceforge.net/DTD/sodipodi-0.dtd"
   xmlns="http://www.w3.org/2000/svg"
   xmlns:svg="http://www.w3.org/2000/svg">
  <defs
     id="defs7681" />
  <sodipodi:namedview
     id="namedview7679"
     pagecolor="#ffffff"
     bordercolor="#999999"
     borderopacity="1"
     inkscape:pageshadow="0"
     inkscape:pageopacity="0"
     inkscape:pagecheckerboard="0"
     showgrid="false"
     inkscape:zoom="7.5546117"
     inkscape:cx="40.041767"
     inkscape:cy="49.44"
     inkscape:window-width="1680"
     inkscape:window-height="997"
     inkscape:window-x="-8"
     inkscape:window-y="-8"
     inkscape:window-maximized="1"
     inkscape:current-layer="g7674" />
  <g
     id="g7676">
    <g
       transform="translate(-339.31,-220.14)"
       id="g7674"
       inkscape:label="Layer2">
      <g
         id="g7612">
        <polygon
           fill="#ff8800"
           points="392.19,254.25 392.39,236.98 377.41,245.61 379.71,249.29 "
           id="polygon7588" />
        <polygon
           fill="#ffa500"
           points="386.04,248 386.21,257.3 377.41,252.24 377.41,245.61 "
           id="polygon7590" />
        <polygon
           fill="#ff8800"
           points="395.61,287.92 400.99,292.29 419.44,281.64 419.44,227.26 388.66,230.79 389.18,235.13 388.98,252.4 "
           id="polygon7592" />
        <polygon
           fill="#ffa500"
           points="407.11,220.14 419.44,227.26 400.99,237.91 400.99,292.29 385.67,283.45 385.67,256.99 386.04,248 388.66,230.79 "
           id="polygon7594" />
        <polygon
           fill="#ffa500"
           points="339.31,290.35 354.71,299.26 354.71,319.02 339.31,310.12 "
           id="polygon7596" />
        <polygon
           fill="#808285"
           points="395.28,271.95 400.99,270.46 400.99,272.54 354.71,299.26 339.31,290.35 339.31,288.27 "
           id="polygon7598" />
        <polygon
           fill="#a7a9ac"
           points="400.99,270.46 354.71,297.17 339.31,288.27 385.64,261.59 "
           id="polygon7600" />
        <polygon
           fill="#ff8800"
           points="354.71,299.26 400.99,272.54 400.99,292.3 354.71,319.02 "
           id="polygon7602" />
        <polygon
           fill="#939598"
           points="396.43,265.46 356.31,291.02 352.24,288.67 352.24,286.28 392.37,263.11 "
           id="polygon7604" />
        <polygon
           fill="#454545"
           points="355.03,287.54 394.13,264.98 394.66,265.28 355.55,287.85 "
           id="polygon7606" />
        <polygon
           fill="#454545"
           points="353.41,286.61 392.51,264.04 393.04,264.35 353.94,286.91 "
           id="polygon7608" />
        <polygon
           fill="#808285"
           points="356.31,288.62 396.43,265.46 396.43,267.86 356.31,291.02 "
           id="polygon7610" />
      </g>
      <g
         id="g7622">
        <polygon
           fill="#ff8800"
           points="372.78,271.4 377.42,268.72 377.42,271.74 372.78,274.42 "
           id="polygon7614" />
        <polygon
           opacity="0.3"
           points="372.78,271.4 377.42,268.72 377.42,271.74 372.78,274.42 "
           id="polygon7616" />
        <polygon
           fill="#ffa500"
           points="372.78,272.09 380.24,276.35 380.24,279.91 382.03,280.94 382.03,275.11 370.99,268.79 370.99,274.62 371.71,275.03 372.78,274.42 "
           id="polygon7618" />
        <polygon
           fill="#ff8800"
           points="382.03,275.11 382.03,280.94 392.15,275.09 392.15,269.27 381.12,262.94 370.99,268.79 "
           id="polygon7620" />
      </g>
      <g
         id="g7630">
        <path
           fill="#808285"
           d="m 377.41,267.05 v 2.35 h 0.02 c 0,0.6 0.4,1.2 1.19,1.66 1.59,0.92 4.16,0.92 5.75,0 0.79,-0.46 1.19,-1.06 1.19,-1.66 v -2.35 z"
           id="path7624" />
        <path
           fill="#a7a9ac"
           d="m 384.37,268.71 c -1.59,0.92 -4.16,0.92 -5.75,0 -1.59,-0.92 -1.59,-2.4 0,-3.32 1.59,-0.92 4.16,-0.92 5.75,0 1.59,0.92 1.59,2.41 0,3.32 z"
           id="path7626" />
        <path
           fill="#808285"
           d="m 382.61,267.7 c -0.62,0.36 -1.61,0.36 -2.23,0 -0.61,-0.35 -0.61,-0.93 0,-1.29 0.61,-0.35 1.61,-0.35 2.23,0 0.61,0.36 0.61,0.93 0,1.29 z"
           id="path7628" />
      </g>
      <g
         id="g7636">
        <polygon
           fill="#d49c00"
           points="353.08,272.94 353.08,295.26 357.33,292.81 357.33,270.48 346.8,264.4 "
           id="polygon7632" />
        <polygon
           fill="#f5b400"
           points="353.08,272.94 357.33,270.48 346.8,264.4 342.54,266.86 342.54,289.18 353.08,295.26 "
           id="polygon7634" />
      </g>
      <g
         id="g7642">
        <polygon
           fill="#808285"
           points="397.75,243.37 397.75,248.98 400.99,247.11 400.99,241.5 392.98,236.89 "
           id="polygon7638" />
        <polygon
           fill="#a7a9ac"
           points="397.75,243.37 400.99,241.5 392.98,236.89 389.74,238.75 389.74,244.37 397.75,248.98 "
           id="polygon7640" />
      </g>
      <g
         id="g7672">
        <polygon
           fill="#ff8800"
           points="365.37,265.52 365.37,269.4 369.2,267.19 369.2,263.31 359.72,257.85 "
           id="polygon7644" />
        <polygon
           fill="#ffa500"
           points="365.37,265.52 369.2,263.31 359.72,257.85 355.89,260.06 355.89,263.94 365.37,269.4 "
           id="polygon7646" />
        <polygon
           fill="#808285"
           points="396.88,244.78 359.36,267.84 357.94,267.02 357.94,265.63 395.46,243.96 "
           id="polygon7648" />
        <polygon
           fill="#6d6e71"
           points="359.36,266.45 396.88,244.78 396.88,246.17 359.36,267.84 "
           id="polygon7650" />
        <polygon
           fill="#808285"
           points="392,241.96 354.48,265.02 353.06,264.2 353.06,262.81 390.58,241.14 "
           id="polygon7652" />
        <polygon
           fill="#6d6e71"
           points="354.48,263.63 392,241.96 392,243.35 354.48,265.02 "
           id="polygon7654" />
        <polygon
           fill="#808285"
           points="354.97,269.72 354.97,276.63 361.08,273.1 361.08,266.2 345.95,257.47 "
           id="polygon7656" />
        <polygon
           fill="#a7a9ac"
           points="354.97,269.72 361.08,266.2 345.95,257.47 339.85,260.99 339.85,267.89 354.97,276.63 "
           id="polygon7658" />
        <polygon
           fill="#363636"
           points="418.89,236.48 409.28,242.03 409.28,259.03 418.89,253.48 "
           id="polygon7660" />
        <polygon
           fill="#5c5c5c"
           points="409.28,242.03 418.89,236.48 414.84,234.15 405.23,239.69 405.23,256.69 409.28,259.03 "
           id="polygon7662" />
        <g
           id="g7670">
          <polygon
             fill="#f5b400"
             points="410.21,249.86 417.89,245.43 414.05,241.11 "
             id="polygon7664" />
          <path
             d="m 414.12,241.56 3.38,3.8 -6.75,3.9 z m -0.07,-0.45 -3.84,8.75 7.68,-4.43 z"
             id="path7666" />
          <polygon
             points="414.37,244.43 413.92,243.5 414.65,242.88 414.88,244.46 413.95,245.25 414.75,246.66 413.39,245.22 "
             id="polygon7668" />
        </g>
      </g>
    </g>
  </g>
</svg>
