<?xml version="1.0" encoding="UTF-8" standalone="no"?>
<!-- Generator: Adobe Illustrator 25.4.1, SVG Export Plug-In . SVG Version: 6.00 Build 0)  -->

<svg
   version="1.1"
   id="Layer_1"
   x="0px"
   y="0px"
   viewBox="0 0 63.250 97.190"
   sodipodi:docname="machine-5.svg"
   inkscape:version="1.1 (c68e22c387, 2021-05-23)"
   xmlns:inkscape="http://www.inkscape.org/namespaces/inkscape"
   xmlns:sodipodi="http://sodipodi.sourceforge.net/DTD/sodipodi-0.dtd"
   xmlns="http://www.w3.org/2000/svg"
   xmlns:svg="http://www.w3.org/2000/svg">
  <defs
     id="defs7060" />
  <sodipodi:namedview
     id="namedview7058"
     pagecolor="#ffffff"
     bordercolor="#999999"
     borderopacity="1"
     inkscape:pageshadow="0"
     inkscape:pageopacity="0"
     inkscape:pagecheckerboard="0"
     showgrid="false"
     inkscape:zoom="7.6859759"
     inkscape:cx="31.681078"
     inkscape:cy="48.595"
     inkscape:window-width="1680"
     inkscape:window-height="997"
     inkscape:window-x="-8"
     inkscape:window-y="-8"
     inkscape:window-maximized="1"
     inkscape:current-layer="g6926" />
  <g
     id="g7055">
    <g
       transform="translate(-41.93,-213.43)"
       id="g7053">
      <g
         id="g6660">
        <polygon
           fill="#ff8800"
           points="74.96,216.83 72.61,231.09 72.61,288.17 86.13,280.36 86.13,223.28 "
           id="polygon6538" />
        <polygon
           fill="#ffa500"
           points="55.55,221.24 55.55,278.32 72.61,288.17 72.61,231.09 86.13,223.28 69.07,213.43 "
           id="polygon6540" />
        <g
           id="g6546">
          <path
             fill="#a62626"
             d="m 65.79,239.8 1.37,-0.79 v 0.01 c 0.2,-0.12 0.49,-0.1 0.8,0.08 0.62,0.36 1.13,1.24 1.13,1.96 0,0.36 -0.13,0.62 -0.33,0.73 l -1.37,0.79 z"
             id="path6542" />
          <path
             fill="#d63a3a"
             d="m 67.72,241.84 c 0,-0.72 -0.51,-1.6 -1.13,-1.96 -0.62,-0.36 -1.13,-0.07 -1.13,0.65 0,0.72 0.51,1.6 1.13,1.96 0.63,0.37 1.13,0.08 1.13,-0.65 z"
             id="path6544" />
        </g>
        <g
           id="g6552">
          <path
             fill="#1c4b94"
             d="m 65.13,228.86 0.46,-0.26 v 0 c 0.07,-0.04 0.16,-0.03 0.27,0.03 0.21,0.12 0.38,0.41 0.38,0.66 0,0.12 -0.04,0.21 -0.11,0.25 l -0.46,0.27 z"
             id="path6548" />
          <path
             fill="#2565c4"
             d="m 65.77,229.54 c 0,-0.24 -0.17,-0.54 -0.38,-0.66 -0.21,-0.12 -0.38,-0.02 -0.38,0.22 0,0.24 0.17,0.53 0.38,0.65 0.21,0.13 0.38,0.03 0.38,-0.21 z"
             id="path6550" />
        </g>
        <g
           id="g6558">
          <path
             fill="#1c4b94"
             d="m 65.13,231.49 0.46,-0.27 v 0 c 0.07,-0.04 0.16,-0.03 0.27,0.03 0.21,0.12 0.38,0.41 0.38,0.65 0,0.12 -0.04,0.21 -0.11,0.25 l -0.46,0.27 z"
             id="path6554" />
          <path
             fill="#2565c4"
             d="m 65.77,232.17 c 0,-0.24 -0.17,-0.53 -0.38,-0.66 -0.21,-0.12 -0.38,-0.02 -0.38,0.22 0,0.24 0.17,0.53 0.38,0.65 0.21,0.13 0.38,0.03 0.38,-0.21 z"
             id="path6556" />
        </g>
        <g
           id="g6564">
          <path
             fill="#1c4b94"
             d="m 65.13,234.11 0.46,-0.27 v 0 c 0.07,-0.04 0.16,-0.03 0.27,0.03 0.21,0.12 0.38,0.41 0.38,0.66 0,0.12 -0.04,0.21 -0.11,0.25 l -0.46,0.26 z"
             id="path6560" />
          <path
             fill="#2565c4"
             d="m 65.77,234.79 c 0,-0.24 -0.17,-0.53 -0.38,-0.66 -0.21,-0.12 -0.38,-0.02 -0.38,0.22 0,0.24 0.17,0.53 0.38,0.65 0.21,0.13 0.38,0.04 0.38,-0.21 z"
             id="path6562" />
        </g>
        <g
           id="g6580">
          <polygon
             fill="#ff8800"
             points="57.35,232.29 64.28,236.29 64.28,236.93 56.81,232.62 56.81,223.43 57.35,223.74 "
             id="polygon6566" />
          <polygon
             fill="#0d0d0d"
             points="64.28,236.29 57.35,232.29 57.35,223.74 64.28,227.74 "
             id="polygon6568" />
          <polygon
             fill="#75c425"
             points="63.33,228.75 57.87,225.6 57.87,225.17 63.33,228.32 "
             id="polygon6570" />
          <polygon
             fill="#75c425"
             points="63.33,229.93 57.87,226.78 57.87,226.35 63.33,229.5 "
             id="polygon6572" />
          <polygon
             fill="#75c425"
             points="63.33,231 57.87,227.84 57.87,227.41 63.33,230.57 "
             id="polygon6574" />
          <polygon
             fill="#75c425"
             points="60.6,231.67 57.87,230.1 57.87,229.67 60.6,231.24 "
             id="polygon6576" />
          <polygon
             fill="#75c425"
             points="62.26,233.62 57.87,231.1 57.87,230.67 62.26,233.19 "
             id="polygon6578" />
        </g>
        <g
           id="g6586">
          <polygon
             fill="#1c4b94"
             points="71.01,232.6 70.55,232.88 67.28,229.39 67.75,229.11 71.01,231 "
             id="polygon6582" />
          <polygon
             fill="#2565c4"
             points="67.28,230.99 67.28,229.39 70.55,231.28 70.55,232.88 "
             id="polygon6584" />
        </g>
        <g
           id="g6592">
          <polygon
             fill="#a62626"
             points="71.01,235.23 70.55,235.51 67.28,232.02 67.75,231.74 71.01,233.63 "
             id="polygon6588" />
          <polygon
             fill="#d63a3a"
             points="67.28,233.62 67.28,232.02 70.55,233.9 70.55,235.51 "
             id="polygon6590" />
        </g>
        <g
           id="g6598">
          <polygon
             fill="#61a31f"
             points="71.01,237.86 70.55,238.13 67.28,234.64 67.75,234.37 71.01,236.25 "
             id="polygon6594" />
          <polygon
             fill="#75c425"
             points="67.28,236.24 67.28,234.64 70.55,236.53 70.55,238.13 "
             id="polygon6596" />
        </g>
        <g
           id="g6610">
          <path
             fill="#d63a3a"
             d="m 66.08,237.14 c 0.07,0.12 0.17,0.22 0.25,0.27 0.1,0.05 0.14,0.04 0.14,-0.03 0,-0.07 -0.06,-0.13 -0.15,-0.23 l -0.13,-0.14 c -0.11,-0.11 -0.21,-0.27 -0.21,-0.44 0,-0.2 0.15,-0.27 0.37,-0.14 0.12,0.07 0.24,0.19 0.33,0.35 l -0.12,0.1 c -0.07,-0.1 -0.13,-0.17 -0.21,-0.22 -0.08,-0.05 -0.13,-0.04 -0.13,0.03 0,0.07 0.07,0.14 0.16,0.23 l 0.13,0.14 c 0.12,0.13 0.2,0.27 0.2,0.44 0,0.2 -0.14,0.29 -0.39,0.14 -0.13,-0.08 -0.28,-0.22 -0.38,-0.39 z"
             id="path6600" />
          <path
             fill="#d63a3a"
             d="m 67.06,237.08 -0.28,-0.16 v -0.22 l 0.8,0.46 v 0.23 l -0.28,-0.16 v 0.96 l -0.23,-0.13 v -0.98 z"
             id="path6602" />
          <path
             fill="#d63a3a"
             d="m 68.15,238.38 -0.31,-0.18 -0.06,0.25 -0.24,-0.14 0.32,-1 0.28,0.16 0.32,1.37 -0.25,-0.14 z m -0.05,-0.23 -0.02,-0.12 C 68.05,237.9 68.02,237.74 68,237.6 h -0.01 c -0.02,0.11 -0.05,0.23 -0.08,0.33 l -0.02,0.09 z"
             id="path6604" />
          <path
             fill="#d63a3a"
             d="m 69.12,239.23 -0.2,-0.54 -0.13,-0.07 v 0.43 l -0.23,-0.13 v -1.18 l 0.37,0.21 c 0.22,0.13 0.39,0.32 0.39,0.6 0,0.17 -0.07,0.24 -0.18,0.24 l 0.23,0.61 z m -0.32,-0.83 0.12,0.07 c 0.12,0.07 0.19,0.05 0.19,-0.07 0,-0.12 -0.07,-0.19 -0.19,-0.26 l -0.12,-0.07 z"
             id="path6606" />
          <path
             fill="#d63a3a"
             d="m 69.71,238.61 -0.28,-0.16 v -0.23 l 0.8,0.46 v 0.22 l -0.28,-0.16 v 0.96 l -0.23,-0.13 v -0.96 z"
             id="path6608" />
        </g>
        <g
           id="g6630">
          <polygon
             fill="#d63a3a"
             points="58.17,236.7 58.17,235.21 56.87,234.46 56.87,235.96 "
             id="polygon6612" />
          <polygon
             fill="#d63a3a"
             points="58.17,238.68 58.17,237.19 56.87,236.44 56.87,237.93 "
             id="polygon6614" />
          <polygon
             fill="#75c425"
             points="58.17,240.66 58.17,239.17 56.87,238.42 56.87,239.91 "
             id="polygon6616" />
          <polygon
             fill="#d63a3a"
             points="59.88,237.69 59.88,236.2 58.59,235.45 58.59,236.95 "
             id="polygon6618" />
          <polygon
             fill="#2565c4"
             points="59.88,239.67 59.88,238.18 58.59,237.43 58.59,238.92 "
             id="polygon6620" />
          <polygon
             fill="#75c425"
             points="59.88,241.65 59.88,240.16 58.59,239.41 58.59,240.9 "
             id="polygon6622" />
          <polygon
             fill="#2565c4"
             points="60.3,237.93 61.59,238.68 61.59,237.19 60.3,236.44 "
             id="polygon6624" />
          <polygon
             fill="#d63a3a"
             points="61.59,240.66 61.59,239.17 60.3,238.42 60.3,239.91 "
             id="polygon6626" />
          <polygon
             fill="#d63a3a"
             points="61.59,242.64 61.59,241.15 60.3,240.4 60.3,241.89 "
             id="polygon6628" />
        </g>
        <g
           id="g6644">
          <path
             opacity="0.3"
             d="m 68.31,223.07 c 1.06,0.61 2.78,0.61 3.84,0 1.06,-0.61 1.06,-1.6 0,-2.21 -1.06,-0.61 -2.78,-0.61 -3.84,0 -1.06,0.61 -1.06,1.6 0,2.21 z"
             id="path6632" />
          <path
             fill="#0d0d0d"
             d="m 72.6,220.56 v 1.21 h -0.01 c 0,0.35 -0.23,0.7 -0.69,0.96 -0.92,0.53 -2.42,0.53 -3.34,0 -0.46,-0.27 -0.69,-0.62 -0.69,-0.96 v -1.21 z"
             id="path6634" />
          <path
             fill="#232323"
             d="m 68.56,221.52 c 0.92,0.53 2.42,0.53 3.34,0 0.92,-0.53 0.92,-1.4 0,-1.93 -0.92,-0.53 -2.42,-0.53 -3.34,0 -0.92,0.54 -0.92,1.4 0,1.93 z"
             id="path6636" />
          <path
             fill="#a62626"
             d="m 70.23,221.62 c -0.53,0 -1.03,-0.12 -1.41,-0.34 -0.43,-0.25 -0.66,-0.59 -0.66,-0.97 v -2.76 c 0,-1.14 0.93,-2.07 2.07,-2.07 1.14,0 2.07,0.93 2.07,2.07 v 2.76 c 0,0.38 -0.23,0.72 -0.66,0.97 -0.38,0.22 -0.88,0.34 -1.41,0.34 z m 0,-5.61 c -0.85,0 -1.55,0.69 -1.55,1.55 v 2.76 c 0,0.18 0.15,0.37 0.4,0.51 0.3,0.17 0.72,0.27 1.15,0.27 0.43,0 0.85,-0.1 1.15,-0.27 0.25,-0.15 0.4,-0.33 0.4,-0.51 v -2.76 c 0,-0.86 -0.7,-1.55 -1.55,-1.55 z"
             id="path6638" />
          <path
             fill="#d63a3a"
             d="m 70.23,216.01 c -0.85,0 -1.55,0.69 -1.55,1.55 v 2.76 c 0,0.18 0.15,0.37 0.4,0.51 0.3,0.17 0.72,0.27 1.15,0.27 0.43,0 0.85,-0.1 1.15,-0.27 0.25,-0.15 0.4,-0.33 0.4,-0.51 v -2.76 c 0,-0.86 -0.7,-1.55 -1.55,-1.55 z"
             id="path6640" />
          <path
             fill="#f5b400"
             d="m 70.81,218.74 c 0,0.66 -0.26,1.2 -0.58,1.2 -0.32,0 -0.58,-0.54 -0.58,-1.2 0,-0.66 0.26,-1.2 0.58,-1.2 0.32,0 0.58,0.53 0.58,1.2 z"
             id="path6642" />
        </g>
        <g
           id="g6658">
          <polygon
             fill="#5c5c5c"
             points="68.04,250.57 68.04,261.04 62.12,257.62 62.12,247.15 64.62,245.71 70.54,249.13 "
             id="polygon6646" />
          <polygon
             fill="#363636"
             points="68.04,261.04 68.04,250.57 70.54,249.13 70.54,259.6 "
             id="polygon6648" />
          <g
             id="g6656">
            <polygon
               fill="#f5b400"
               points="65.1,250 67.47,255.39 62.74,252.66 "
               id="polygon6650" />
            <path
               d="m 65.06,250.28 2.08,4.75 -4.16,-2.4 z m 0.04,-0.28 -2.36,2.66 4.73,2.73 z"
               id="path6652" />
            <polygon
               points="64.59,252.07 65.17,252.56 64.67,253.42 65.51,252.54 64.9,252.05 65.18,251.48 64.73,251.1 "
               id="polygon6654" />
          </g>
        </g>
      </g>
      <g
         id="g6926"
         inkscape:label="Layer2">
        <g
           id="g6670">
          <polygon
             fill="#ff8800"
             points="93.18,276.22 44.88,304.11 44.89,284.72 46.79,279.13 91.3,253.43 93.19,256.84 "
             id="polygon6662" />
          <polygon
             fill="#ffa500"
             points="43.88,284.14 45.78,278.54 46.79,279.13 44.89,284.72 "
             id="polygon6664" />
          <polygon
             fill="#ffb833"
             points="46.79,279.13 45.78,278.54 90.29,252.85 91.3,253.43 "
             id="polygon6666" />
          <polygon
             fill="#ffa500"
             points="43.87,303.53 43.88,284.14 56.17,291.23 56.16,310.62 "
             id="polygon6668" />
        </g>
        <g
           id="g6700">
          <polygon
             fill="#ffa500"
             points="59.11,273.22 58.72,273.44 58.72,276.05 54.02,278.77 54.02,279.34 59.11,276.4 "
             id="polygon6672" />
          <polygon
             fill="#eb7600"
             points="58.72,273.44 54.02,276.16 54.02,278.77 58.72,276.05 "
             id="polygon6674" />
          <polygon
             fill="#ffa500"
             points="52.48,277.05 52.48,279.65 47.18,282.71 46.9,283.45 52.87,280 52.87,276.82 "
             id="polygon6676" />
          <polygon
             fill="#eb7600"
             points="48.46,279.37 47.18,282.71 52.48,279.65 52.48,277.05 "
             id="polygon6678" />
          <polygon
             fill="#ffa500"
             points="89.66,255.58 89.55,255.64 90.83,257.51 85.26,260.73 85.26,261.3 91.22,257.86 "
             id="polygon6680" />
          <polygon
             fill="#eb7600"
             points="89.55,255.64 85.26,258.12 85.26,260.73 90.83,257.51 "
             id="polygon6682" />
          <polygon
             fill="#ffa500"
             points="65.35,269.61 64.97,269.84 64.97,272.45 60.26,275.16 60.26,275.74 65.35,272.8 "
             id="polygon6684" />
          <polygon
             fill="#eb7600"
             points="64.97,269.84 60.26,272.56 60.26,275.16 64.97,272.45 "
             id="polygon6686" />
          <polygon
             fill="#ffa500"
             points="71.59,266.01 71.21,266.24 71.21,268.84 66.5,271.56 66.5,272.14 71.59,269.19 "
             id="polygon6688" />
          <polygon
             fill="#eb7600"
             points="71.21,266.24 66.5,268.95 66.5,271.56 71.21,268.84 "
             id="polygon6690" />
          <polygon
             fill="#ffa500"
             points="77.83,262.41 77.45,262.63 77.45,265.24 72.74,267.96 72.74,268.53 77.83,265.59 "
             id="polygon6692" />
          <polygon
             fill="#eb7600"
             points="77.45,262.63 72.74,265.35 72.74,267.96 77.45,265.24 "
             id="polygon6694" />
          <polygon
             fill="#ffa500"
             points="84.07,258.8 83.69,259.03 83.69,261.64 78.98,264.35 78.98,264.93 84.07,261.99 "
             id="polygon6696" />
          <polygon
             fill="#eb7600"
             points="83.69,259.03 78.98,261.75 78.98,264.35 83.69,261.64 "
             id="polygon6698" />
        </g>
        <g
           id="g6886">
          <path
             fill="#5c5c5c"
             d="m 96.33,254.12 c -0.02,-0.01 -0.04,-0.02 -0.06,-0.03 v 0 0 c -0.25,-0.13 -0.59,-0.1 -0.97,0.12 v 0 l -17.26,9.97 -34.7,20.02 c -0.05,0.03 -0.1,0.06 -0.14,0.09 v 0 c -0.71,0.5 -1.27,1.52 -1.27,2.36 v 0.13 c 0,0.45 0.16,0.76 0.41,0.91 v 0 c 0,0 0.01,0 0.01,0.01 l 8.51,4.91 53.91,-33.62 z"
             id="path6702" />
          <path
             fill="#212121"
             d="m 104.89,260.07 v 0.13 c 0,0.72 -0.51,1.6 -1.13,1.96 l -51.96,30 c -0.36,0.21 -0.69,0.2 -0.9,0.01 0.16,0.01 0.34,-0.04 0.54,-0.15 l 51.96,-30 c 0.62,-0.36 1.13,-1.24 1.13,-1.96 v -0.13 c 0,-0.3 -0.09,-0.52 -0.23,-0.66 0.35,0.01 0.59,0.31 0.59,0.8 z"
             id="path6704" />
          <path
             fill="#878787"
             d="m 104.53,259.92 v 0.13 c 0,0.72 -0.51,1.6 -1.13,1.96 l -51.96,30 c -0.19,0.11 -0.38,0.16 -0.54,0.15 -0.15,-0.14 -0.24,-0.36 -0.24,-0.66 v -0.13 c 0,-0.72 0.51,-1.6 1.13,-1.96 l 51.96,-30 c 0.19,-0.11 0.38,-0.16 0.54,-0.16 0.15,0.15 0.24,0.37 0.24,0.67 z"
             id="path6706" />
          <path
             fill="#363636"
             d="m 103.76,259.42 c 0.62,-0.36 1.13,-0.07 1.13,0.65 v 0.13 c 0,0.72 -0.51,1.6 -1.13,1.96 l -51.96,30 c -0.62,0.36 -1.13,0.07 -1.13,-0.65 v -0.13 c 0,-0.72 0.51,-1.6 1.13,-1.96 z m 0,-0.33 -51.96,30 c -0.78,0.45 -1.42,1.55 -1.42,2.45 v 0.13 c 0,0.9 0.64,1.27 1.42,0.82 l 51.96,-30 c 0.78,-0.45 1.42,-1.55 1.42,-2.45 v -0.13 c -0.01,-0.91 -0.64,-1.27 -1.42,-0.82 z"
             id="path6708" />
          <polygon
             fill="#363636"
             points="85.62,269.56 77.16,264.68 77.72,264.35 86.18,269.24 "
             id="polygon6710" />
          <polygon
             fill="#363636"
             points="83.36,270.87 74.89,265.99 75.45,265.66 83.91,270.55 "
             id="polygon6712" />
          <polygon
             fill="#363636"
             points="81.09,272.18 72.63,267.29 73.19,266.97 81.65,271.85 "
             id="polygon6714" />
          <polygon
             fill="#363636"
             points="78.83,273.48 70.36,268.6 70.92,268.28 79.39,273.16 "
             id="polygon6716" />
          <polygon
             fill="#363636"
             points="76.56,274.79 68.1,269.91 68.66,269.58 77.12,274.47 "
             id="polygon6718" />
          <polygon
             fill="#363636"
             points="74.3,276.1 65.84,271.22 66.4,270.89 74.86,275.78 "
             id="polygon6720" />
          <polygon
             fill="#363636"
             points="72.03,277.41 63.57,272.52 64.13,272.2 72.59,277.08 "
             id="polygon6722" />
          <polygon
             fill="#363636"
             points="69.77,278.71 61.31,273.83 61.87,273.51 70.33,278.39 "
             id="polygon6724" />
          <polygon
             fill="#363636"
             points="67.5,280.02 59.04,275.14 59.6,274.81 68.06,279.7 "
             id="polygon6726" />
          <polygon
             fill="#363636"
             points="101.47,260.41 93.01,255.53 93.57,255.2 102.03,260.09 "
             id="polygon6728" />
          <polygon
             fill="#363636"
             points="99.21,261.72 90.75,256.83 91.31,256.51 99.77,261.39 "
             id="polygon6730" />
          <polygon
             fill="#363636"
             points="96.94,263.03 88.48,258.14 89.04,257.82 97.5,262.7 "
             id="polygon6732" />
          <polygon
             fill="#363636"
             points="94.68,264.33 86.22,259.45 86.78,259.12 95.24,264.01 "
             id="polygon6734" />
          <polygon
             fill="#363636"
             points="92.41,265.64 83.95,260.76 84.51,260.43 92.97,265.32 "
             id="polygon6736" />
          <polygon
             fill="#363636"
             points="90.15,266.95 81.69,262.06 82.25,261.74 90.71,266.62 "
             id="polygon6738" />
          <polygon
             fill="#363636"
             points="87.88,268.25 79.42,263.37 79.98,263.05 88.44,267.93 "
             id="polygon6740" />
          <polygon
             fill="#363636"
             points="65.24,281.33 56.78,276.45 57.34,276.12 65.8,281.01 "
             id="polygon6742" />
          <polygon
             fill="#363636"
             points="62.97,282.64 54.51,277.75 55.07,277.43 63.53,282.31 "
             id="polygon6744" />
          <polygon
             fill="#363636"
             points="60.71,283.95 52.25,279.06 52.81,278.74 61.27,283.62 "
             id="polygon6746" />
          <polygon
             fill="#363636"
             points="58.44,285.25 49.98,280.37 50.54,280.04 59,284.93 "
             id="polygon6748" />
          <polygon
             fill="#363636"
             points="56.18,286.56 47.72,281.67 48.28,281.35 56.74,286.24 "
             id="polygon6750" />
          <polygon
             fill="#363636"
             points="53.91,287.87 45.45,282.98 46.01,282.66 54.47,287.54 "
             id="polygon6752" />
          <polygon
             fill="#363636"
             points="51.65,289.17 43.2,284.29 43.75,283.97 52.21,288.85 "
             id="polygon6754" />
          <g
             id="g6764">
            <path
               fill="#a6a6a6"
               d="m 55,288.5 -0.33,-0.17 v 0 c -0.14,-0.06 -0.32,-0.04 -0.51,0.07 -0.43,0.25 -0.78,0.85 -0.78,1.35 0,0.26 0.1,0.44 0.26,0.52 l 0.23,0.11 0.05,-0.08 c 0.08,-0.02 0.16,-0.05 0.25,-0.1 0.43,-0.25 0.78,-0.85 0.78,-1.35 0,-0.07 -0.01,-0.14 -0.02,-0.2 z"
               id="path6756" />
            <path
               fill="#5c5c5c"
               d="m 55.19,288.98 c 0,0.5 -0.35,1.1 -0.78,1.35 -0.43,0.25 -0.78,0.05 -0.78,-0.45 0,-0.5 0.35,-1.1 0.78,-1.35 0.43,-0.25 0.78,-0.05 0.78,0.45 z"
               id="path6758" />
            <path
               fill="#a6a6a6"
               d="m 54.8,289.2 c 0,0.25 -0.17,0.55 -0.39,0.67 -0.15,0.08 -0.28,0.06 -0.34,-0.04 0.05,0 0.1,-0.02 0.16,-0.05 0.22,-0.12 0.39,-0.43 0.39,-0.67 0,-0.08 -0.02,-0.14 -0.05,-0.19 0.14,0 0.23,0.1 0.23,0.28 z"
               id="path6760" />
            <path
               fill="#4a4a4a"
               d="m 54.62,289.11 c 0,0.25 -0.17,0.55 -0.39,0.67 -0.06,0.03 -0.11,0.05 -0.16,0.05 -0.03,-0.05 -0.05,-0.11 -0.05,-0.19 0,-0.25 0.17,-0.55 0.39,-0.67 0.06,-0.03 0.11,-0.05 0.16,-0.05 0.03,0.05 0.05,0.12 0.05,0.19 z"
               id="path6762" />
          </g>
          <g
             id="g6774">
            <path
               fill="#a6a6a6"
               d="m 59.53,285.89 -0.33,-0.17 v 0 c -0.14,-0.06 -0.32,-0.04 -0.51,0.07 -0.43,0.25 -0.78,0.85 -0.78,1.35 0,0.26 0.1,0.44 0.25,0.52 l 0.23,0.11 0.05,-0.08 c 0.08,-0.02 0.16,-0.05 0.25,-0.1 0.43,-0.25 0.78,-0.85 0.78,-1.35 0,-0.07 -0.01,-0.14 -0.02,-0.2 z"
               id="path6766" />
            <path
               fill="#5c5c5c"
               d="m 59.72,286.36 c 0,0.5 -0.35,1.1 -0.78,1.35 -0.43,0.25 -0.78,0.05 -0.78,-0.45 0,-0.49 0.35,-1.1 0.78,-1.35 0.43,-0.24 0.78,-0.04 0.78,0.45 z"
               id="path6768" />
            <path
               fill="#a6a6a6"
               d="m 59.33,286.59 c 0,0.25 -0.17,0.55 -0.39,0.67 -0.15,0.08 -0.28,0.06 -0.34,-0.04 0.05,0 0.1,-0.02 0.16,-0.05 0.21,-0.12 0.39,-0.42 0.39,-0.67 0,-0.08 -0.02,-0.14 -0.05,-0.19 0.14,-0.01 0.23,0.1 0.23,0.28 z"
               id="path6770" />
            <path
               fill="#4a4a4a"
               d="m 59.15,286.5 c 0,0.25 -0.17,0.55 -0.39,0.67 -0.06,0.03 -0.11,0.05 -0.16,0.05 -0.03,-0.05 -0.05,-0.11 -0.05,-0.19 0,-0.25 0.18,-0.55 0.39,-0.67 0.06,-0.03 0.11,-0.05 0.16,-0.05 0.03,0.05 0.05,0.11 0.05,0.19 z"
               id="path6772" />
          </g>
          <g
             id="g6784">
            <path
               fill="#a6a6a6"
               d="m 63.49,283.6 -0.33,-0.17 v 0 c -0.14,-0.06 -0.32,-0.04 -0.51,0.07 -0.43,0.25 -0.78,0.85 -0.78,1.35 0,0.26 0.1,0.44 0.26,0.52 l 0.23,0.11 0.05,-0.08 c 0.08,-0.01 0.16,-0.05 0.25,-0.09 0.43,-0.25 0.78,-0.85 0.78,-1.35 0,-0.07 -0.01,-0.14 -0.02,-0.2 z"
               id="path6776" />
            <path
               fill="#5c5c5c"
               d="m 63.68,284.08 c 0,0.5 -0.35,1.1 -0.78,1.35 -0.43,0.25 -0.78,0.05 -0.78,-0.45 0,-0.5 0.35,-1.1 0.78,-1.35 0.43,-0.25 0.78,-0.05 0.78,0.45 z"
               id="path6778" />
            <path
               fill="#a6a6a6"
               d="m 63.29,284.3 c 0,0.25 -0.17,0.55 -0.39,0.67 -0.15,0.08 -0.28,0.06 -0.34,-0.04 0.05,0 0.1,-0.02 0.16,-0.05 0.22,-0.12 0.39,-0.42 0.39,-0.67 0,-0.08 -0.02,-0.14 -0.05,-0.19 0.14,0 0.23,0.1 0.23,0.28 z"
               id="path6780" />
            <path
               fill="#4a4a4a"
               d="m 63.11,284.21 c 0,0.25 -0.17,0.55 -0.39,0.67 -0.06,0.03 -0.11,0.05 -0.16,0.05 -0.03,-0.05 -0.05,-0.11 -0.05,-0.19 0,-0.25 0.17,-0.55 0.39,-0.67 0.06,-0.03 0.11,-0.05 0.16,-0.05 0.04,0.05 0.05,0.11 0.05,0.19 z"
               id="path6782" />
          </g>
          <g
             id="g6794">
            <path
               fill="#a6a6a6"
               d="m 67.46,281.31 -0.33,-0.17 v 0 c -0.14,-0.06 -0.32,-0.04 -0.51,0.07 -0.43,0.25 -0.78,0.85 -0.78,1.35 0,0.26 0.1,0.44 0.25,0.52 l 0.23,0.11 0.05,-0.08 c 0.08,-0.01 0.16,-0.05 0.25,-0.09 0.43,-0.25 0.78,-0.85 0.78,-1.35 0,-0.07 -0.01,-0.14 -0.02,-0.2 z"
               id="path6786" />
            <path
               fill="#5c5c5c"
               d="m 67.64,281.79 c 0,0.5 -0.35,1.1 -0.78,1.35 -0.43,0.25 -0.78,0.05 -0.78,-0.45 0,-0.5 0.35,-1.1 0.78,-1.35 0.44,-0.25 0.78,-0.05 0.78,0.45 z"
               id="path6788" />
            <path
               fill="#a6a6a6"
               d="m 67.25,282.01 c 0,0.25 -0.17,0.55 -0.39,0.67 -0.15,0.09 -0.28,0.06 -0.34,-0.04 0.05,0 0.1,-0.02 0.16,-0.05 0.21,-0.12 0.39,-0.43 0.39,-0.67 0,-0.08 -0.02,-0.14 -0.05,-0.19 0.14,0 0.23,0.1 0.23,0.28 z"
               id="path6790" />
            <path
               fill="#4a4a4a"
               d="m 67.08,281.92 c 0,0.25 -0.17,0.55 -0.39,0.67 -0.06,0.03 -0.11,0.05 -0.16,0.05 -0.03,-0.05 -0.05,-0.11 -0.05,-0.19 0,-0.25 0.17,-0.55 0.39,-0.67 0.06,-0.03 0.11,-0.05 0.16,-0.05 0.03,0.05 0.05,0.12 0.05,0.19 z"
               id="path6792" />
          </g>
          <g
             id="g6804">
            <path
               fill="#a6a6a6"
               d="m 71.42,279.02 -0.33,-0.17 v 0 c -0.14,-0.06 -0.32,-0.04 -0.51,0.07 -0.43,0.25 -0.78,0.85 -0.78,1.35 0,0.26 0.1,0.44 0.26,0.52 l 0.23,0.11 0.05,-0.08 c 0.08,-0.01 0.16,-0.04 0.25,-0.1 0.43,-0.25 0.78,-0.85 0.78,-1.35 0,-0.07 -0.01,-0.14 -0.02,-0.2 z"
               id="path6796" />
            <path
               fill="#5c5c5c"
               d="m 71.61,279.5 c 0,0.5 -0.35,1.1 -0.78,1.35 -0.43,0.25 -0.78,0.05 -0.78,-0.45 0,-0.5 0.35,-1.1 0.78,-1.35 0.43,-0.25 0.78,-0.05 0.78,0.45 z"
               id="path6798" />
            <path
               fill="#a6a6a6"
               d="m 71.22,279.72 c 0,0.25 -0.17,0.55 -0.39,0.67 -0.15,0.08 -0.28,0.06 -0.34,-0.04 0.05,0 0.11,-0.02 0.16,-0.05 0.22,-0.12 0.39,-0.43 0.39,-0.67 0,-0.08 -0.02,-0.14 -0.05,-0.19 0.14,0 0.23,0.1 0.23,0.28 z"
               id="path6800" />
            <path
               fill="#4a4a4a"
               d="m 71.04,279.64 c 0,0.25 -0.17,0.55 -0.39,0.67 -0.06,0.03 -0.11,0.05 -0.16,0.05 -0.03,-0.05 -0.05,-0.11 -0.05,-0.19 0,-0.25 0.17,-0.55 0.39,-0.68 0.06,-0.03 0.11,-0.05 0.16,-0.05 0.03,0.05 0.05,0.12 0.05,0.2 z"
               id="path6802" />
          </g>
          <g
             id="g6814">
            <path
               fill="#a6a6a6"
               d="m 75.38,276.74 -0.33,-0.17 v 0 c -0.14,-0.06 -0.32,-0.04 -0.51,0.07 -0.43,0.25 -0.78,0.85 -0.78,1.35 0,0.26 0.1,0.44 0.26,0.52 l 0.23,0.11 0.05,-0.08 c 0.08,-0.01 0.16,-0.05 0.25,-0.09 0.43,-0.25 0.78,-0.85 0.78,-1.35 0,-0.08 -0.01,-0.14 -0.02,-0.2 z"
               id="path6806" />
            <path
               fill="#5c5c5c"
               d="m 75.57,277.21 c 0,0.5 -0.35,1.1 -0.78,1.35 -0.43,0.25 -0.78,0.04 -0.78,-0.45 0,-0.5 0.35,-1.1 0.78,-1.35 0.43,-0.25 0.78,-0.05 0.78,0.45 z"
               id="path6808" />
            <path
               fill="#a6a6a6"
               d="m 75.18,277.44 c 0,0.25 -0.17,0.55 -0.39,0.68 -0.15,0.08 -0.28,0.06 -0.34,-0.04 0.05,0 0.1,-0.02 0.16,-0.05 0.21,-0.12 0.39,-0.43 0.39,-0.67 0,-0.08 -0.02,-0.14 -0.05,-0.19 0.14,-0.02 0.23,0.09 0.23,0.27 z"
               id="path6810" />
            <path
               fill="#4a4a4a"
               d="m 75,277.35 c 0,0.25 -0.18,0.55 -0.39,0.67 -0.06,0.03 -0.11,0.05 -0.16,0.05 -0.03,-0.05 -0.05,-0.11 -0.05,-0.19 0,-0.25 0.17,-0.55 0.39,-0.68 0.06,-0.03 0.11,-0.05 0.16,-0.05 0.03,0.06 0.05,0.12 0.05,0.2 z"
               id="path6812" />
          </g>
          <g
             id="g6824">
            <path
               fill="#a6a6a6"
               d="m 79.35,274.45 -0.33,-0.17 v 0 c -0.14,-0.06 -0.32,-0.04 -0.51,0.07 -0.43,0.25 -0.78,0.85 -0.78,1.35 0,0.26 0.1,0.44 0.26,0.52 l 0.23,0.11 0.05,-0.08 c 0.08,-0.01 0.16,-0.05 0.25,-0.1 0.43,-0.25 0.78,-0.85 0.78,-1.35 0,-0.07 -0.01,-0.14 -0.02,-0.2 z"
               id="path6816" />
            <path
               fill="#5c5c5c"
               d="m 79.54,274.92 c 0,0.5 -0.35,1.1 -0.78,1.35 -0.43,0.25 -0.78,0.05 -0.78,-0.45 0,-0.5 0.35,-1.1 0.78,-1.35 0.43,-0.25 0.78,-0.04 0.78,0.45 z"
               id="path6818" />
            <path
               fill="#a6a6a6"
               d="m 79.15,275.15 c 0,0.25 -0.17,0.55 -0.39,0.67 -0.15,0.08 -0.28,0.06 -0.34,-0.04 0.05,0 0.1,-0.02 0.16,-0.05 0.22,-0.12 0.39,-0.42 0.39,-0.67 0,-0.08 -0.02,-0.14 -0.05,-0.19 0.13,-0.01 0.23,0.1 0.23,0.28 z"
               id="path6820" />
            <path
               fill="#4a4a4a"
               d="m 78.97,275.06 c 0,0.25 -0.17,0.55 -0.39,0.67 -0.06,0.03 -0.11,0.05 -0.16,0.05 -0.03,-0.05 -0.05,-0.11 -0.05,-0.19 0,-0.25 0.17,-0.55 0.39,-0.67 0.06,-0.03 0.11,-0.05 0.16,-0.05 0.03,0.05 0.05,0.11 0.05,0.19 z"
               id="path6822" />
          </g>
          <g
             id="g6834">
            <path
               fill="#a6a6a6"
               d="m 83.31,272.16 -0.33,-0.17 v 0 c -0.14,-0.06 -0.32,-0.04 -0.51,0.07 -0.43,0.25 -0.78,0.85 -0.78,1.35 0,0.26 0.1,0.44 0.26,0.52 l 0.23,0.11 0.05,-0.08 c 0.08,-0.01 0.16,-0.04 0.25,-0.1 0.43,-0.25 0.78,-0.85 0.78,-1.35 0,-0.07 -0.01,-0.14 -0.02,-0.2 z"
               id="path6826" />
            <path
               fill="#5c5c5c"
               d="m 83.5,272.63 c 0,0.5 -0.35,1.1 -0.78,1.35 -0.43,0.25 -0.78,0.05 -0.78,-0.45 0,-0.5 0.35,-1.1 0.78,-1.35 0.43,-0.24 0.78,-0.04 0.78,0.45 z"
               id="path6828" />
            <path
               fill="#a6a6a6"
               d="m 83.11,272.86 c 0,0.25 -0.17,0.55 -0.39,0.67 -0.15,0.08 -0.28,0.06 -0.34,-0.04 0.05,0 0.11,-0.02 0.16,-0.05 0.22,-0.12 0.39,-0.42 0.39,-0.67 0,-0.08 -0.02,-0.14 -0.05,-0.19 0.14,0 0.23,0.1 0.23,0.28 z"
               id="path6830" />
            <path
               fill="#4a4a4a"
               d="m 82.93,272.77 c 0,0.25 -0.17,0.55 -0.39,0.67 -0.06,0.03 -0.11,0.05 -0.16,0.05 -0.03,-0.05 -0.05,-0.11 -0.05,-0.19 0,-0.25 0.17,-0.55 0.39,-0.67 0.06,-0.03 0.11,-0.05 0.16,-0.05 0.03,0.05 0.05,0.11 0.05,0.19 z"
               id="path6832" />
          </g>
          <g
             id="g6844">
            <path
               fill="#a6a6a6"
               d="m 87.27,269.87 -0.33,-0.17 v 0 c -0.14,-0.06 -0.32,-0.04 -0.51,0.07 -0.43,0.25 -0.78,0.85 -0.78,1.35 0,0.26 0.1,0.44 0.26,0.52 l 0.23,0.11 0.05,-0.08 c 0.08,-0.01 0.16,-0.05 0.25,-0.09 0.43,-0.25 0.78,-0.85 0.78,-1.35 0,-0.07 -0.01,-0.14 -0.02,-0.2 z"
               id="path6836" />
            <path
               fill="#5c5c5c"
               d="m 87.46,270.35 c 0,0.5 -0.35,1.1 -0.78,1.35 -0.43,0.25 -0.78,0.05 -0.78,-0.45 0,-0.5 0.35,-1.1 0.78,-1.35 0.43,-0.25 0.78,-0.05 0.78,0.45 z"
               id="path6838" />
            <path
               fill="#a6a6a6"
               d="m 87.07,270.57 c 0,0.25 -0.17,0.55 -0.39,0.67 -0.15,0.08 -0.28,0.06 -0.34,-0.04 0.05,0 0.1,-0.02 0.16,-0.05 0.21,-0.12 0.39,-0.42 0.39,-0.67 0,-0.08 -0.02,-0.14 -0.05,-0.19 0.14,0 0.23,0.1 0.23,0.28 z"
               id="path6840" />
            <path
               fill="#4a4a4a"
               d="m 86.89,270.48 c 0,0.25 -0.17,0.55 -0.39,0.67 -0.06,0.03 -0.11,0.05 -0.16,0.05 -0.03,-0.05 -0.05,-0.11 -0.05,-0.19 0,-0.25 0.18,-0.55 0.39,-0.67 0.06,-0.03 0.11,-0.05 0.16,-0.05 0.04,0.05 0.05,0.11 0.05,0.19 z"
               id="path6842" />
          </g>
          <g
             id="g6854">
            <path
               fill="#a6a6a6"
               d="m 91.24,267.58 -0.33,-0.17 v 0 c -0.14,-0.06 -0.32,-0.04 -0.51,0.07 -0.43,0.25 -0.78,0.85 -0.78,1.35 0,0.26 0.1,0.44 0.26,0.52 l 0.23,0.11 0.05,-0.08 c 0.08,-0.02 0.16,-0.05 0.25,-0.1 0.43,-0.25 0.78,-0.85 0.78,-1.35 0,-0.08 -0.01,-0.14 -0.02,-0.2 z"
               id="path6846" />
            <path
               fill="#5c5c5c"
               d="m 91.43,268.06 c 0,0.5 -0.35,1.1 -0.78,1.35 -0.43,0.25 -0.78,0.05 -0.78,-0.45 0,-0.5 0.35,-1.1 0.78,-1.35 0.43,-0.25 0.78,-0.05 0.78,0.45 z"
               id="path6848" />
            <path
               fill="#a6a6a6"
               d="m 91.04,268.28 c 0,0.25 -0.17,0.55 -0.39,0.67 -0.15,0.08 -0.28,0.06 -0.34,-0.04 0.05,0 0.1,-0.02 0.16,-0.05 0.22,-0.12 0.39,-0.43 0.39,-0.67 0,-0.08 -0.02,-0.14 -0.05,-0.19 0.14,0 0.23,0.1 0.23,0.28 z"
               id="path6850" />
            <path
               fill="#4a4a4a"
               d="m 90.86,268.19 c 0,0.25 -0.17,0.55 -0.39,0.67 -0.06,0.03 -0.11,0.05 -0.16,0.05 -0.03,-0.05 -0.05,-0.11 -0.05,-0.19 0,-0.25 0.17,-0.55 0.39,-0.67 0.06,-0.04 0.11,-0.05 0.16,-0.05 0.03,0.05 0.05,0.11 0.05,0.19 z"
               id="path6852" />
          </g>
          <g
             id="g6864">
            <path
               fill="#a6a6a6"
               d="m 95.2,265.29 -0.33,-0.17 v 0 c -0.14,-0.06 -0.32,-0.04 -0.51,0.07 -0.43,0.25 -0.78,0.85 -0.78,1.35 0,0.26 0.1,0.44 0.26,0.52 l 0.23,0.11 0.05,-0.08 c 0.08,-0.01 0.16,-0.04 0.25,-0.09 0.43,-0.25 0.78,-0.85 0.78,-1.35 0,-0.07 -0.01,-0.14 -0.02,-0.2 z"
               id="path6856" />
            <path
               fill="#5c5c5c"
               d="m 95.39,265.77 c 0,0.5 -0.35,1.1 -0.78,1.35 -0.43,0.25 -0.78,0.05 -0.78,-0.45 0,-0.5 0.35,-1.1 0.78,-1.35 0.43,-0.25 0.78,-0.05 0.78,0.45 z"
               id="path6858" />
            <path
               fill="#a6a6a6"
               d="m 95,265.99 c 0,0.25 -0.17,0.55 -0.39,0.67 -0.15,0.08 -0.28,0.06 -0.34,-0.04 0.05,0 0.1,-0.02 0.16,-0.05 0.22,-0.12 0.39,-0.42 0.39,-0.67 0,-0.08 -0.02,-0.14 -0.05,-0.19 0.14,0 0.23,0.1 0.23,0.28 z"
               id="path6860" />
            <path
               fill="#4a4a4a"
               d="m 94.82,265.9 c 0,0.25 -0.17,0.55 -0.39,0.67 -0.06,0.03 -0.11,0.05 -0.16,0.05 -0.03,-0.05 -0.05,-0.11 -0.05,-0.19 0,-0.25 0.17,-0.55 0.39,-0.67 0.06,-0.03 0.11,-0.05 0.16,-0.05 0.04,0.05 0.05,0.12 0.05,0.19 z"
               id="path6862" />
          </g>
          <g
             id="g6874">
            <path
               fill="#a6a6a6"
               d="m 99.17,263 -0.33,-0.17 v 0 c -0.14,-0.06 -0.32,-0.04 -0.51,0.07 -0.43,0.25 -0.78,0.85 -0.78,1.35 0,0.26 0.1,0.44 0.26,0.52 l 0.23,0.11 0.05,-0.08 c 0.08,-0.01 0.16,-0.05 0.25,-0.09 0.43,-0.25 0.78,-0.85 0.78,-1.35 0,-0.07 -0.01,-0.14 -0.02,-0.2 z"
               id="path6866" />
            <path
               fill="#5c5c5c"
               d="m 99.36,263.48 c 0,0.5 -0.35,1.1 -0.78,1.35 -0.43,0.25 -0.78,0.05 -0.78,-0.45 0,-0.5 0.35,-1.1 0.78,-1.35 0.43,-0.25 0.78,-0.05 0.78,0.45 z"
               id="path6868" />
            <path
               fill="#a6a6a6"
               d="m 98.97,263.71 c 0,0.25 -0.17,0.55 -0.39,0.67 -0.15,0.08 -0.28,0.06 -0.34,-0.04 0.05,0 0.1,-0.02 0.16,-0.05 0.21,-0.12 0.39,-0.42 0.39,-0.67 0,-0.08 -0.02,-0.14 -0.05,-0.19 0.13,-0.01 0.23,0.09 0.23,0.28 z"
               id="path6870" />
            <path
               fill="#4a4a4a"
               d="m 98.79,263.62 c 0,0.25 -0.17,0.55 -0.39,0.67 -0.06,0.04 -0.11,0.05 -0.16,0.05 -0.03,-0.05 -0.05,-0.11 -0.05,-0.19 0,-0.25 0.18,-0.55 0.39,-0.67 0.06,-0.04 0.11,-0.05 0.16,-0.05 0.03,0.04 0.05,0.11 0.05,0.19 z"
               id="path6872" />
          </g>
          <g
             id="g6884">
            <path
               fill="#a6a6a6"
               d="m 103.13,260.72 -0.33,-0.17 v 0 c -0.14,-0.06 -0.32,-0.04 -0.51,0.07 -0.43,0.25 -0.78,0.85 -0.78,1.35 0,0.26 0.1,0.44 0.26,0.52 l 0.23,0.11 0.05,-0.08 c 0.08,-0.01 0.16,-0.05 0.25,-0.09 0.43,-0.25 0.78,-0.85 0.78,-1.35 0,-0.07 -0.01,-0.14 -0.02,-0.2 z"
               id="path6876" />
            <path
               fill="#5c5c5c"
               d="m 103.32,261.19 c 0,0.5 -0.35,1.1 -0.78,1.35 -0.43,0.25 -0.78,0.05 -0.78,-0.45 0,-0.5 0.35,-1.1 0.78,-1.35 0.43,-0.24 0.78,-0.04 0.78,0.45 z"
               id="path6878" />
            <path
               fill="#a6a6a6"
               d="m 102.93,261.42 c 0,0.25 -0.17,0.55 -0.39,0.67 -0.15,0.08 -0.28,0.06 -0.34,-0.04 0.05,0 0.1,-0.02 0.16,-0.05 0.21,-0.12 0.39,-0.42 0.39,-0.67 0,-0.08 -0.02,-0.14 -0.05,-0.19 0.14,-0.01 0.23,0.1 0.23,0.28 z"
               id="path6880" />
            <path
               fill="#4a4a4a"
               d="m 102.75,261.33 c 0,0.25 -0.17,0.55 -0.39,0.67 -0.06,0.03 -0.11,0.05 -0.16,0.05 -0.03,-0.05 -0.05,-0.11 -0.05,-0.19 0,-0.25 0.18,-0.55 0.39,-0.67 0.06,-0.03 0.11,-0.05 0.16,-0.05 0.03,0.05 0.05,0.11 0.05,0.19 z"
               id="path6882" />
          </g>
        </g>
        <g
           id="g6924">
          <polygon
             fill="#ff8800"
             points="104.47,282.73 56.16,310.62 56.17,291.23 58.06,285.64 102.57,259.94 104.47,263.35 "
             id="polygon6888" />
          <g
             id="g6918">
            <polygon
               fill="#ffa500"
               points="70.51,283 70.51,279.82 70.11,280.04 70.11,282.65 65.41,285.37 65.41,285.94 "
               id="polygon6890" />
            <polygon
               fill="#eb7600"
               points="65.41,282.76 65.41,285.37 70.11,282.65 70.11,280.04 "
               id="polygon6892" />
            <polygon
               fill="#ffa500"
               points="64.26,283.42 63.87,283.65 63.87,286.25 58.57,289.31 58.29,290.05 64.26,286.6 "
               id="polygon6894" />
            <polygon
               fill="#eb7600"
               points="58.57,289.31 63.87,286.25 63.87,283.65 59.85,285.97 "
               id="polygon6896" />
            <polygon
               fill="#ffa500"
               points="102.61,264.46 101.05,262.18 100.94,262.24 102.22,264.11 96.65,267.33 96.65,267.9 "
               id="polygon6898" />
            <polygon
               fill="#eb7600"
               points="96.65,264.72 96.65,267.33 102.22,264.11 100.94,262.24 "
               id="polygon6900" />
            <polygon
               fill="#ffa500"
               points="76.75,279.4 76.75,276.21 76.36,276.44 76.36,279.05 71.65,281.76 71.65,282.34 "
               id="polygon6902" />
            <polygon
               fill="#eb7600"
               points="71.65,279.16 71.65,281.76 76.36,279.05 76.36,276.44 "
               id="polygon6904" />
            <polygon
               fill="#ffa500"
               points="82.99,275.79 82.99,272.61 82.6,272.84 82.6,275.45 77.89,278.16 77.89,278.74 "
               id="polygon6906" />
            <polygon
               fill="#eb7600"
               points="77.89,275.55 77.89,278.16 82.6,275.45 82.6,272.84 "
               id="polygon6908" />
            <polygon
               fill="#ffa500"
               points="89.23,272.19 89.23,269.01 88.84,269.23 88.84,271.84 84.13,274.56 84.13,275.13 "
               id="polygon6910" />
            <polygon
               fill="#eb7600"
               points="84.13,271.95 84.13,274.56 88.84,271.84 88.84,269.23 "
               id="polygon6912" />
            <polygon
               fill="#ffa500"
               points="95.47,268.59 95.47,265.4 95.08,265.63 95.08,268.24 90.37,270.95 90.37,271.53 "
               id="polygon6914" />
            <polygon
               fill="#eb7600"
               points="90.37,268.35 90.37,270.95 95.08,268.24 95.08,265.63 "
               id="polygon6916" />
          </g>
          <polygon
             fill="#ffa500"
             points="55.16,290.65 57.05,285.05 58.06,285.64 56.17,291.23 "
             id="polygon6920" />
          <polygon
             fill="#ffb833"
             points="58.06,285.64 57.05,285.05 101.56,259.36 102.57,259.94 "
             id="polygon6922" />
        </g>
      </g>
      <g
         id="g7051">
        <g
           id="g6932">
          <polygon
             fill="#ff8800"
             points="94.03,239.15 94.03,231.12 84.91,225.86 83,237.49 83,245.52 "
             id="polygon6928" />
          <polygon
             fill="#ffa500"
             points="83,237.49 94.03,231.12 84.91,225.86 73.88,232.23 73.88,251.25 83,245.52 "
             id="polygon6930" />
        </g>
        <g
           id="g6952">
          <g
             id="g6938">
            <polygon
               fill="#ff9800"
               points="78.05,231.46 78.05,224.89 84.41,221.21 90.1,224.5 83.74,228.17 83.74,234.75 "
               id="polygon6934" />
            <polygon
               fill="#cf7c00"
               points="90.1,224.5 90.1,231.07 83.74,234.75 83.74,228.17 "
               id="polygon6936" />
          </g>
          <g
             id="g6944">
            <path
               fill="#363636"
               d="m 87.18,222.54 v 1.83 c 0,0.46 -0.31,0.92 -0.91,1.27 -1.22,0.7 -3.19,0.7 -4.41,0 -0.61,-0.35 -0.91,-0.81 -0.91,-1.27 v -1.83 z"
               id="path6940" />
            <path
               fill="#5c5c5c"
               d="m 81.86,223.81 c 1.22,0.7 3.19,0.7 4.41,0 1.22,-0.7 1.22,-1.84 0,-2.54 -1.22,-0.7 -3.19,-0.7 -4.41,0 -1.21,0.7 -1.21,1.83 0,2.54 z"
               id="path6942" />
          </g>
          <g
             id="g6950">
            <path
               fill="#363636"
               d="m 86.84,216.34 v 6.03 c 0,0.41 -0.27,0.82 -0.81,1.13 -1.08,0.62 -2.84,0.62 -3.92,0 -0.54,-0.31 -0.81,-0.72 -0.81,-1.13 v -6.03 z"
               id="path6946" />
            <path
               fill="#5c5c5c"
               d="m 82.11,217.47 c 1.08,0.62 2.84,0.62 3.92,0 1.08,-0.62 1.08,-1.64 0,-2.26 -1.08,-0.62 -2.84,-0.62 -3.92,0 -1.09,0.63 -1.09,1.64 0,2.26 z"
               id="path6948" />
          </g>
        </g>
        <g
           id="g6967">
          <polygon
             fill="#f5b400"
             points="83.75,226.23 96.23,219.02 97.7,221.56 85.22,228.76 "
             id="polygon6954" />
          <polygon
             fill="#232323"
             points="92.76,221.02 94.28,220.14 94.65,223.32 93.13,224.2 "
             id="polygon6956" />
          <polygon
             fill="#232323"
             points="89.68,222.8 91.2,221.92 91.57,225.1 90.05,225.98 "
             id="polygon6958" />
          <polygon
             fill="#232323"
             points="86.61,224.58 88.13,223.7 88.49,226.88 86.97,227.75 "
             id="polygon6960" />
          <path
             fill="#363636"
             d="m 85.92,227.22 c 0,0.31 -0.22,0.44 -0.49,0.28 -0.27,-0.16 -0.49,-0.53 -0.49,-0.85 0,-0.31 0.22,-0.44 0.49,-0.28 0.28,0.16 0.49,0.54 0.49,0.85 z"
             id="path6962" />
          <path
             fill="#363636"
             d="m 96.41,221.17 c 0,0.31 -0.22,0.44 -0.49,0.28 -0.27,-0.16 -0.49,-0.53 -0.49,-0.85 0,-0.31 0.22,-0.44 0.49,-0.28 0.27,0.16 0.49,0.54 0.49,0.85 z"
             id="path6964" />
          <rect
             x="96.879997"
             y="218.49001"
             transform="matrix(0.8658,-0.5004,0.5004,0.8658,-96.9729,78.3275)"
             fill="#d49c00"
             width="1.3200001"
             height="2.9300001"
             id="rect31974" />
        </g>
        <g
           id="g7029">
          <g
             id="g6973">
            <path
               fill="#363636"
               d="m 94.84,249.44 v 3.78 0 c 0,0.11 -0.07,0.21 -0.21,0.3 -0.28,0.16 -0.74,0.16 -1.02,0 -0.14,-0.08 -0.21,-0.19 -0.21,-0.3 v -3.78 z"
               id="path6969" />
            <path
               fill="#5c5c5c"
               d="m 93.61,249.73 c 0.28,0.16 0.74,0.16 1.02,0 0.28,-0.16 0.28,-0.43 0,-0.59 -0.28,-0.16 -0.74,-0.16 -1.02,0 -0.29,0.16 -0.29,0.43 0,0.59 z"
               id="path6971" />
          </g>
          <g
             id="g6979">
            <path
               fill="#d49c00"
               d="m 96.24,248.73 v 0.61 h -0.01 c 0,0.31 -0.21,0.63 -0.62,0.87 -0.83,0.48 -2.17,0.48 -3,0 -0.41,-0.24 -0.62,-0.55 -0.62,-0.87 v -0.61 z"
               id="path6975" />
            <path
               fill="#f5b400"
               d="m 92.61,249.6 c 0.83,0.48 2.17,0.48 3,0 0.83,-0.48 0.83,-1.25 0,-1.73 -0.83,-0.48 -2.17,-0.48 -3,0 -0.82,0.48 -0.82,1.25 0,1.73 z"
               id="path6977" />
          </g>
          <g
             id="g6985">
            <path
               fill="#363636"
               d="m 95.66,243.92 v 4.68 h -0.01 c 0,0.23 -0.15,0.46 -0.45,0.63 -0.6,0.35 -1.57,0.35 -2.17,0 -0.3,-0.17 -0.45,-0.4 -0.45,-0.63 v -4.68 z"
               id="path6981" />
            <path
               fill="#5c5c5c"
               d="m 93.03,244.54 c 0.6,0.35 1.57,0.35 2.17,0 0.6,-0.35 0.6,-0.91 0,-1.25 -0.6,-0.35 -1.57,-0.35 -2.17,0 -0.6,0.34 -0.6,0.91 0,1.25 z"
               id="path6983" />
          </g>
          <g
             id="g6991">
            <path
               fill="#d49c00"
               d="m 97.4,243.7 v 0.95 h -0.02 c 0,0.48 -0.32,0.96 -0.96,1.33 -1.28,0.74 -3.35,0.74 -4.62,0 -0.64,-0.37 -0.96,-0.85 -0.96,-1.33 v -0.95 z"
               id="path6987" />
            <path
               fill="#f5b400"
               d="m 91.8,245.04 c 1.28,0.74 3.35,0.74 4.62,0 1.28,-0.74 1.28,-1.93 0,-2.67 -1.28,-0.74 -3.35,-0.74 -4.62,0 -1.28,0.73 -1.28,1.93 0,2.67 z"
               id="path6989" />
          </g>
          <g
             id="g6997">
            <path
               fill="#363636"
               d="m 96.58,238.12 v 5.34 h -0.01 c 0,0.36 -0.24,0.73 -0.72,1 -0.96,0.55 -2.51,0.55 -3.47,0 -0.48,-0.28 -0.72,-0.64 -0.72,-1 v -5.34 z"
               id="path6993" />
            <path
               fill="#5c5c5c"
               d="m 92.38,239.12 c 0.96,0.55 2.51,0.55 3.47,0 0.96,-0.55 0.96,-1.45 0,-2 -0.96,-0.55 -2.51,-0.55 -3.47,0 -0.96,0.55 -0.96,1.45 0,2 z"
               id="path6995" />
          </g>
          <g
             id="g7003">
            <path
               fill="#d49c00"
               d="m 98.26,236.45 v 1.2 h -0.02 c 0,0.61 -0.4,1.22 -1.21,1.69 -1.61,0.93 -4.23,0.93 -5.85,0 -0.81,-0.47 -1.21,-1.08 -1.21,-1.69 v -1.2 z"
               id="path6999" />
            <path
               fill="#f5b400"
               d="m 91.18,238.13 c 1.61,0.93 4.23,0.93 5.85,0 1.61,-0.93 1.61,-2.44 0,-3.38 -1.61,-0.93 -4.23,-0.93 -5.85,0 -1.61,0.94 -1.61,2.45 0,3.38 z"
               id="path7001" />
          </g>
          <g
             id="g7009">
            <path
               fill="#d49c00"
               d="m 97.33,229.15 v 6.98 h -0.02 c 0,0.47 -0.31,0.95 -0.94,1.31 -1.25,0.72 -3.28,0.72 -4.54,0 -0.63,-0.36 -0.94,-0.83 -0.94,-1.31 v -6.98 z"
               id="path7005" />
            <path
               fill="#f5b400"
               d="m 91.84,230.46 c 1.25,0.72 3.28,0.72 4.54,0 1.25,-0.72 1.25,-1.9 0,-2.62 -1.25,-0.72 -3.28,-0.72 -4.54,0 -1.25,0.73 -1.25,1.9 0,2.62 z"
               id="path7007" />
          </g>
          <g
             id="g7015">
            <path
               fill="#d49c00"
               d="M 96.83,228.21 V 229 h -0.01 c 0,0.4 -0.26,0.8 -0.79,1.1 -1.06,0.61 -2.77,0.61 -3.83,0 -0.53,-0.31 -0.79,-0.71 -0.79,-1.1 v -0.78 z"
               id="path7011" />
            <path
               fill="#f5b400"
               d="m 92.2,229.32 c 1.06,0.61 2.77,0.61 3.83,0 1.06,-0.61 1.06,-1.6 0,-2.21 -1.06,-0.61 -2.77,-0.61 -3.83,0 -1.06,0.61 -1.06,1.6 0,2.21 z"
               id="path7013" />
          </g>
          <g
             id="g7021">
            <path
               fill="#363636"
               d="m 95.64,223.7 v 4.42 c 0,0.22 -0.15,0.45 -0.45,0.62 -0.59,0.34 -1.56,0.34 -2.15,0 -0.3,-0.17 -0.45,-0.4 -0.45,-0.62 v -4.42 z"
               id="path7017" />
            <path
               fill="#5c5c5c"
               d="m 93.04,224.32 c 0.59,0.34 1.56,0.34 2.15,0 0.59,-0.34 0.59,-0.9 0,-1.24 -0.59,-0.34 -1.56,-0.34 -2.15,0 -0.6,0.34 -0.59,0.9 0,1.24 z"
               id="path7019" />
          </g>
          <g
             id="g7027">
            <path
               fill="#d49c00"
               d="m 97.4,223.61 v 0.95 h -0.02 c 0,0.48 -0.32,0.96 -0.96,1.33 -1.28,0.74 -3.35,0.74 -4.62,0 -0.64,-0.37 -0.96,-0.85 -0.96,-1.33 v -0.95 z"
               id="path7023" />
            <path
               fill="#f5b400"
               d="m 91.8,224.95 c 1.28,0.74 3.35,0.74 4.62,0 1.28,-0.74 1.28,-1.93 0,-2.67 -1.28,-0.74 -3.35,-0.74 -4.62,0 -1.28,0.74 -1.28,1.93 0,2.67 z"
               id="path7025" />
          </g>
        </g>
        <g
           id="g7035">
          <polygon
             fill="#ffa500"
             points="90.01,219.89 94.28,217.42 98.1,219.63 93.83,222.1 93.83,226.51 90.01,224.3 "
             id="polygon7031" />
          <polygon
             fill="#ff8800"
             points="93.83,222.1 98.1,219.63 98.1,224.04 93.83,226.51 "
             id="polygon7033" />
        </g>
        <g
           id="g7049">
          <rect
             x="79.129997"
             y="224.95"
             transform="matrix(0.866,-0.5,0.5,0.866,-101.6421,73.5051)"
             fill="#f5b400"
             width="14.41"
             height="2.9300001"
             id="rect32046" />
          <polygon
             fill="#232323"
             points="88.38,223.55 89.9,222.67 90.27,225.85 88.75,226.73 "
             id="polygon7038" />
          <polygon
             fill="#232323"
             points="85.31,225.33 86.83,224.45 87.19,227.63 85.67,228.5 "
             id="polygon7040" />
          <polygon
             fill="#232323"
             points="82.23,227.1 83.75,226.23 84.11,229.4 82.59,230.28 "
             id="polygon7042" />
          <path
             fill="#363636"
             d="m 81.55,229.75 c 0,0.31 -0.22,0.44 -0.49,0.28 -0.27,-0.16 -0.49,-0.53 -0.49,-0.85 0,-0.31 0.22,-0.44 0.49,-0.28 0.27,0.16 0.49,0.54 0.49,0.85 z"
             id="path7044" />
          <path
             fill="#363636"
             d="m 92.03,223.7 c 0,0.31 -0.22,0.44 -0.49,0.28 -0.27,-0.16 -0.49,-0.53 -0.49,-0.85 0,-0.31 0.22,-0.44 0.49,-0.28 0.27,0.16 0.49,0.54 0.49,0.85 z"
             id="path7046" />
          <rect
             x="92.5"
             y="221.00999"
             transform="matrix(0.8659,-0.5002,0.5002,0.8659,-98.7899,76.4333)"
             fill="#d49c00"
             width="1.3200001"
             height="2.9300001"
             id="rect32058" />
        </g>
      </g>
    </g>
  </g>
</svg>
