<svg viewBox="0 0 89.02 94.63" xmlns="http://www.w3.org/2000/svg">
  <path fill="#a62626" d="m71.93 72.44 17.09-9.86V14.79L63.41 0l8.52 24.66z"/>
  <path fill="#d63a3a" d="M63.41 0 46.32 9.87v47.78l25.61 14.79V24.66l17.09-9.87zM0 64.59l17.8 10.28v19.76L0 84.35z"/>
  <path fill="#808285" d="M64.08 48.15 17.8 74.87 0 64.59v-2.08l55.97-16.33 8.11-.11z"/>
  <path fill="#a7a9ac" d="M64.08 46.07 17.8 72.79 0 62.51l46.34-26.69z"/>
  <path fill="#a62626" d="m17.8 74.87 46.28-26.72v19.76L17.8 94.63z"/>
  <path fill="#6d6e71" d="m15.61 45.63 2.66-1.54c.34-.2.8-.17 1.32.13 1.03.59 1.87 2.04 1.87 3.23 0 .59-.21 1.01-.55 1.21l-2.66 1.55z"/>
  <path fill="#a7a9ac" d="M18.8 49.01c0-1.19-.84-2.64-1.87-3.23-1.03-.59-1.87-.11-1.87 1.08 0 1.19.84 2.64 1.87 3.23 1.04.59 1.87.11 1.87-1.08z"/>
  <path fill="#808285" d="M17.66 48.35c0-.46-.32-1.02-.72-1.25-.4-.23-.72-.04-.72.42 0 .46.32 1.02.72 1.25.4.23.72.04.72-.42z"/>
  <path fill="#808285" d="m10.35 46.93 4.18-2.41c.53-.31 1.26-.26 2.07.21 1.62.93 2.93 3.21 2.93 5.07 0 .93-.33 1.59-.86 1.9l-4.17 2.43z"/>
  <path fill="#a7a9ac" d="M15.36 52.22c0-1.87-1.31-4.14-2.93-5.07-1.62-.93-2.93-.18-2.93 1.69 0 1.87 1.31 4.14 2.93 5.07 1.62.94 2.93.18 2.93-1.69z"/>
  <path fill="#808285" d="M13.57 51.19c0-.72-.51-1.6-1.13-1.96-.62-.36-1.13-.07-1.13.65s.51 1.6 1.13 1.96c.62.36 1.13.07 1.13-.65zm33.52-27.05L52.54 21c.69-.4 1.64-.34 2.69.27 2.11 1.21 3.81 4.17 3.81 6.6 0 1.22-.43 2.07-1.12 2.47l-5.43 3.17z"/>
  <path fill="#a7a9ac" d="M53.62 31.03c0-2.43-1.71-5.39-3.81-6.6S46 24.2 46 26.63s1.71 5.39 3.81 6.6c2.1 1.22 3.8.23 3.81-2.2z"/>
  <path fill="#808285" d="M51.28 29.68c0-.94-.66-2.08-1.48-2.56-.81-.47-1.47-.09-1.47.85s.66 2.09 1.47 2.56c.82.48 1.48.09 1.48-.85zM14.1 60.53l-1.42-.82v-1.38L50.2 36.66l1.42.82z"/>
  <path fill="#6d6e71" d="m14.1 59.15 37.52-21.67v1.39L14.1 60.53z"/>
  <path fill="#808285" d="m16.96 66.38-1.42-.82v-1.39L56.7 40.42l1.42.82z"/>
  <path fill="#6d6e71" d="m16.96 64.99 41.16-23.75v1.38L16.96 66.38z"/>
  <path fill="#a62626" d="m12.99 69.39 4.25-2.46V46.81L6.71 40.73l6.28 8.53z"/>
  <path fill="#d63a3a" d="m6.71 40.73-4.25 2.45v20.13l10.53 6.08V49.26l4.25-2.45z"/>
  <path fill="#5c5c5c" d="m11.45 51.51-2.81 1.63v11.79l-6.67-3.85V49.29l2.81-1.63z"/>
  <path fill="#363636" d="m8.64 53.14 2.81-1.63V63.3l-2.81 1.63z"/>
  <path fill="#f5b400" d="m2.67 55.49 2.66-3 2.66 6.08z"/>
  <path d="m5.28 52.81 2.34 5.34-4.69-2.71zm.05-.32-2.66 3L8 58.56z"/>
  <path d="m5.11 54.8.31-.64-.51-.43-.16 1.09.65.55-.55.97.94-.99z"/>
  <path fill="#a62626" d="m30.44 43.8 4.64-2.68v3.99l-4.64 2.68z"/>
  <path opacity=".3" d="m30.44 43.8 4.64-2.68v3.99l-4.64 2.68z"/>
  <path fill="#a62626" d="m28.65 46.75 1.79 1.04v-3.3l13.19 7.61v3.3l1.79 1.03v-5.56l-16.77-9.68z"/>
  <path fill="#d63a3a" d="M55.55 50.59v-5.57l-16.77-9.68-10.13 5.85 16.77 9.68v5.56z"/>
  <path fill="#1c4b94" d="m88.15 27.46-4.55 2.63v-2.05l4.55-2.63z"/>
  <path fill="#2565c4" d="m74.96 41.35-1.07-.61v-2.05l6.12-3.53 1.06.61z"/>
  <path fill="#1c4b94" d="m74.96 39.3 6.11-3.53v2.05l-6.11 3.53z"/>
  <path fill="#f5b400" d="m88.15 29.52-4.55 2.63v-1.03l4.55-2.62z"/>
  <path fill="#d49c00" d="m84.12 24.67-.72-.42c-.11-.06-.26-.05-.42.04-.33.19-.6.65-.6 1.03 0 .19.07.32.17.39l.72.42z"/>
  <path fill="#f5b400" d="M83.1 25.75c0-.38.27-.84.6-1.03.33-.19.6-.04.6.34s-.27.84-.6 1.03c-.34.2-.6.04-.6-.34z"/>
  <path fill="#d49c00" d="m86.3 23.41-.72-.42c-.11-.06-.26-.05-.42.04-.33.19-.6.65-.6 1.03 0 .19.07.33.17.39l.72.42z"/>
  <path fill="#f5b400" d="M85.28 24.49c0-.38.27-.84.6-1.03.33-.19.6-.04.6.34s-.27.84-.6 1.03c-.33.2-.6.04-.6-.34z"/>
  <path fill="#d49c00" d="m88.37 22.22-.72-.42c-.11-.06-.26-.05-.42.04-.33.19-.6.65-.6 1.03 0 .19.07.32.17.39l.72.42z"/>
  <path fill="#f5b400" d="M87.35 23.3c0-.38.27-.84.6-1.03.33-.19.6-.04.6.34s-.27.84-.6 1.03c-.33.19-.6.04-.6-.34z"/>
  <path fill="#d49c00" d="m84.12 22.22-.72-.42c-.11-.06-.26-.05-.42.04-.33.19-.6.65-.6 1.03 0 .19.07.32.17.39l.72.42z"/>
  <path fill="#f5b400" d="M83.1 23.3c0-.38.27-.84.6-1.03.33-.19.6-.04.6.34s-.27.84-.6 1.03c-.34.19-.6.04-.6-.34z"/>
  <path fill="#d49c00" d="m86.3 20.96-.72-.42c-.11-.06-.26-.05-.42.04-.33.19-.6.65-.6 1.03 0 .19.07.32.17.39l.72.42z"/>
  <path fill="#f5b400" d="M85.28 22.04c0-.38.27-.84.6-1.03.33-.19.6-.04.6.34s-.27.84-.6 1.03c-.33.19-.6.04-.6-.34z"/>
  <path fill="#d49c00" d="m88.37 19.76-.72-.42c-.11-.06-.26-.05-.42.04-.33.19-.6.65-.6 1.03 0 .19.07.32.17.39l.72.42z"/>
  <path fill="#f5b400" d="M87.35 20.84c0-.38.27-.84.6-1.03.33-.19.6-.04.6.34s-.27.84-.6 1.03c-.33.2-.6.04-.6-.34z"/>
  <path fill="#2565c4" d="m80.36 24.85.06-.13-.8-.46c-.85-.41-1.93-.24-3.01.38-1.14.66-2.27 1.81-3.14 3.32-1.7 2.95-1.73 6.13-.09 7.2l.88.51.07-.18c.7.08 1.49-.13 2.28-.59 1.14-.66 2.68-1.41 3.55-2.91 1.5-2.61 1.29-5.79.2-7.14zm-3.75.78c.81-.47 1.58-.6 2.2-.39l-1.8 3.13c-.12.01-.26.06-.41.14-.14.08-.27.19-.39.31l-1.47-.85c.64-.92 1.06-1.87 1.87-2.34zm-2.79 8.32c-1.03-.89-.6-2.76.42-4.85l1.37.79c-.05.17-.07.33-.07.49 0 .17.03.32.08.43zm2.79-.06c-.51.29-1 .45-1.44.48-.26.02.35-.41.13-.48l1.32-2.17c.11-.02-.13-.64 0-.71.14-.08.27-.19.39-.31l1.81 1.04c-.64.93-1.4 1.68-2.21 2.15zm2.81-3.21-1.81-1.04c.05-.17.07-.33.07-.49 0-.15.46-.04.41-.15l1.47-2.56c.15.13.14-.54.24-.35.24.42.37.97.37 1.62.01.92-.25 1.96-.75 2.97z"/>
  <path fill="#1c4b94" d="M80.5 24.75c-.87-.5-2-.35-3.14.31-1.14.66-2.27 1.81-3.14 3.32-1.73 3-1.73 6.25 0 7.25.87.5 2 .35 3.14-.31 1.14-.66 2.27-1.81 3.14-3.31 1.73-3.01 1.73-6.26 0-7.26zm-2.14 5.31c.05-.17.07-.33.07-.49 0-.15-.02-.28-.07-.39l1.81-3.15c.49.44.76 1.17.76 2.1 0 .93-.27 1.97-.76 2.98zm1.2-4.39-1.8 3.13c-.13.01-.26.06-.41.14-.14.08-.27.19-.39.31l-1.81-1.04c.63-.93 1.39-1.68 2.2-2.15.81-.46 1.58-.6 2.21-.39zm-5.02 3.6 1.81 1.05c-.05.17-.07.33-.07.49 0 .17.03.31.08.43l-1.8 3.13c-1.03-.89-1.03-3.01-.02-5.1zm.64 5.45 1.81-3.15c.12-.02.24-.06.37-.14.14-.08.27-.19.39-.31l1.81 1.05c-.63.93-1.39 1.68-2.2 2.15-.8.46-1.56.59-2.18.4z"/>
  <path fill="#d49c00" d="m78.21 30.03-.49-.28c-.07-.04-.17-.04-.28.03-.22.13-.4.44-.4.69 0 .13.04.22.12.26l.49.28z"/>
  <path fill="#f5b400" d="M77.52 30.75c0-.25.18-.57.4-.69.22-.13.4-.02.4.23 0 .26-.18.57-.4.69-.22.13-.4.03-.4-.23z"/>
  <path fill="#808285" d="m39.88 45.28-7.5-4.33V38.6l13.04 1.12v2.36z"/>
  <path fill="#a7a9ac" d="m32.38 38.6 5.54-3.2 7.5 4.32-5.54 3.2z"/>
</svg>
