<svg viewBox="0 0 78.78 85.51" xmlns="http://www.w3.org/2000/svg">
  <g style="display:inline">
    <path fill="#f80" d="m2.3 39.82 12.47 4.96.21-17.26L0 36.14z"/>
    <path fill="orange" d="m0 36.14 8.62 2.4.18 6.04L0 39.52z"/>
    <path fill="#ff9800" d="m44.57 63.13-7.61-4.4V33.82l11.65-6.72 7.61 4.39-11.65 6.73z"/>
    <path fill="#cf7c00" d="m56.22 56.4-11.65 6.73V38.22l11.65-6.73z"/>
    <path fill="orange" d="m44.9 36.63-5.58-3.22V19.35l6.24-3.6 5.58 3.22-6.24 3.6z"/>
    <path fill="#f80" d="m51.14 33.03-6.24 3.6V22.57l6.24-3.6z"/>
    <path fill="#363636" d="M47.9 17.7v1.83c0 .46-.31.92-.92 1.28-1.22.71-3.2.71-4.43 0-.61-.35-.92-.81-.92-1.28V17.7z"/>
    <path fill="#5c5c5c" d="M42.56 18.98c1.22.71 3.2.71 4.43 0 1.22-.71 1.22-1.85 0-2.55-1.22-.71-3.2-.71-4.43 0-1.22.7-1.22 1.85 0 2.55z"/>
    <path fill="#363636" d="M47.56 11.48v6.06c0 .41-.27.82-.82 1.14-1.09.63-2.85.63-3.94 0-.54-.31-.82-.72-.82-1.14v-6.06z"/>
    <path fill="#5c5c5c" d="M42.81 12.62c1.09.63 2.85.63 3.94 0 1.09-.63 1.09-1.65 0-2.27-1.09-.63-2.85-.63-3.94 0-1.09.62-1.09 1.64 0 2.27z"/>
    <path fill="#f80" d="m11.77 25.67-.2 17.26 6.63 28.08 5.38 4.37 18.45-10.65V17.79l-30.79 3.54z"/>
    <path fill="orange" d="m8.62 38.54 2.62-17.21 18.45-10.66 12.34 7.12-18.45 10.66v46.93L8.26 66.54V47.52z"/>
    <path fill="#5c5c5c" d="m17.95 45.58-6.67-3.85V29.94l2.81-1.62 6.67 3.85-2.81 1.62z"/>
    <path fill="#363636" d="m20.76 43.96-2.81 1.62V33.79l2.81-1.62z"/>
    <path fill="#f5b400" d="m17.3 39.22-5.32-3.07 2.66-3z"/>
    <path d="m14.59 33.46 2.34 5.34-4.69-2.71zm.05-.31-2.66 3 5.33 3.07z"/>
    <path d="m14.71 36.02-.55.98.94-1-.69-.55.32-.64-.51-.43-.16 1.09z"/>
    <path fill="#f80" d="M66.79 51.12 18.49 79l.01-19.38 1.89-5.6 44.51-25.7 1.9 3.41z"/>
    <path fill="orange" d="m17.49 59.04 1.9-5.6 1 .58-1.89 5.6z"/>
    <path fill="#ffb833" d="m20.39 54.02-1-.58 44.51-25.7 1 .58z"/>
    <path fill="orange" d="m17.48 78.42.01-19.38 12.28 7.09-.01 19.38zm15.24-30.31-.39.23v2.61l-4.71 2.71v.58l5.1-2.95z"/>
    <path fill="#eb7600" d="m32.33 48.34-4.71 2.71v2.61l4.71-2.71z"/>
    <path fill="orange" d="M26.09 51.94v2.61l-5.3 3.05-.28.74 5.97-3.44v-3.19z"/>
    <path fill="#eb7600" d="m22.07 54.26-1.28 3.34 5.3-3.05v-2.61z"/>
    <path fill="orange" d="m63.27 30.47-.11.06 1.28 1.87-5.58 3.22v.58l5.97-3.45z"/>
    <path fill="#eb7600" d="m63.16 30.53-4.3 2.48v2.61l5.58-3.22z"/>
    <path fill="orange" d="m38.96 44.51-.39.22v2.61l-4.71 2.72v.57l5.1-2.94z"/>
    <path fill="#eb7600" d="m38.57 44.73-4.71 2.72v2.61l4.71-2.72z"/>
    <path fill="orange" d="m45.2 40.9-.39.23v2.61l-4.71 2.71v.58l5.1-2.94z"/>
    <path fill="#eb7600" d="m44.81 41.13-4.71 2.72v2.6l4.71-2.71z"/>
    <path fill="orange" d="m51.44 37.3-.39.23v2.6l-4.71 2.72v.58l5.1-2.95z"/>
    <path fill="#eb7600" d="m51.05 37.53-4.71 2.71v2.61l4.71-2.72z"/>
    <path fill="orange" d="m57.68 33.7-.39.22v2.61l-4.71 2.72v.57l5.1-2.94z"/>
    <path fill="#eb7600" d="m57.29 33.92-4.71 2.72v2.61l4.71-2.72z"/>
    <path fill="#5c5c5c" d="m69.93 29.02-.06-.03h-.01c-.25-.13-.59-.1-.97.12l-17.26 9.97-34.69 20.03c-.05.03-.1.06-.14.09-.71.5-1.27 1.52-1.27 2.36v.13c0 .45.16.76.41.91 0 0 .01 0 .01.01l8.51 4.91L78.37 33.9z"/>
    <path fill="#212121" d="M78.5 34.96v.13c0 .72-.51 1.6-1.13 1.96l-51.96 30c-.36.21-.69.2-.9.01.16.01.34-.04.54-.15l51.96-30c.62-.36 1.13-1.24 1.13-1.96v-.13c0-.3-.09-.52-.23-.66.35.02.59.31.59.8z"/>
    <path fill="#878787" d="M78.14 34.82v.13c0 .72-.51 1.6-1.13 1.96l-51.96 30c-.19.11-.38.16-.54.15-.15-.14-.24-.36-.24-.66v-.13c0-.72.51-1.6 1.13-1.96l51.96-30c.19-.11.38-.16.54-.15.15.13.24.36.24.66z"/>
    <path fill="#363636" d="M77.37 34.31c.62-.36 1.13-.07 1.13.65v.13c0 .72-.51 1.6-1.13 1.96l-51.96 30c-.62.36-1.13.07-1.13-.65v-.13c0-.72.51-1.6 1.13-1.96zm0-.33-51.96 30c-.78.45-1.42 1.55-1.42 2.45v.13c0 .9.64 1.27 1.42.82l51.96-30c.78-.45 1.41-1.55 1.41-2.45v-.13c0-.9-.63-1.27-1.41-.82z"/>
    <path fill="#363636" d="m59.23 44.46-8.46-4.89.56-.32 8.46 4.88zm-2.27 1.3-8.46-4.88.56-.33 8.46 4.89zm-2.26 1.31-8.46-4.88.56-.33 8.46 4.89zm-2.27 1.31-8.46-4.89.56-.32 8.46 4.88zm-2.26 1.31-8.46-4.89.56-.32 8.46 4.88zm-2.27 1.3-8.46-4.88.56-.33 8.46 4.89zm-2.26 1.31-8.46-4.88.56-.33 8.46 4.89zm-2.27 1.31-8.46-4.89.56-.32 8.46 4.88zm-2.26 1.3-8.46-4.88.56-.32 8.46 4.88zM75.08 35.3l-8.46-4.88.56-.33 8.46 4.89zm-2.27 1.31-8.46-4.88.57-.33 8.45 4.89zm-2.26 1.31-8.46-4.89.56-.32 8.46 4.89zm-2.26 1.31-8.47-4.89.56-.32 8.47 4.88zm-2.27 1.3-8.46-4.88.56-.33 8.46 4.89zm-2.26 1.31-8.46-4.88.56-.33 8.46 4.89zm-2.27 1.31-8.46-4.89.56-.32 8.46 4.88zM38.84 56.22l-8.46-4.88.56-.33 8.46 4.89zm-2.26 1.31-8.46-4.88.56-.33 8.46 4.89zm-2.27 1.31-8.46-4.89.56-.32 8.46 4.88zm-2.26 1.31-8.46-4.89.56-.32 8.46 4.88zm-2.26 1.3-8.46-4.88.56-.33 8.46 4.89zm-2.27 1.31-8.46-4.88.56-.33 8.46 4.89zm-2.26 1.31-8.46-4.88.56-.33 8.46 4.88z"/>
    <path fill="#a6a6a6" d="m28.61 63.39-.33-.17c-.14-.06-.32-.04-.51.07-.43.25-.78.85-.78 1.35 0 .26.1.44.26.52l.23.11.05-.08c.08-.02.16-.05.25-.1.43-.25.78-.85.78-1.35 0-.07-.01-.14-.02-.2z"/>
    <path fill="#5c5c5c" d="M28.8 63.87c0 .5-.35 1.1-.78 1.35-.43.25-.78.05-.78-.45s.35-1.1.78-1.35c.43-.25.78-.05.78.45z"/>
    <path fill="#a6a6a6" d="M28.41 64.1c0 .25-.17.55-.39.67-.15.08-.28.06-.34-.04.05 0 .1-.02.16-.05.22-.12.39-.43.39-.67 0-.08-.02-.14-.05-.19.14-.01.23.09.23.28z"/>
    <path fill="#4a4a4a" d="M28.23 64.01c0 .25-.17.55-.39.67-.06.03-.11.05-.16.05a.356.356 0 0 1-.05-.19c0-.25.17-.55.39-.67.06-.03.11-.05.16-.05.03.05.05.11.05.19z"/>
    <path fill="#a6a6a6" d="m33.14 60.78-.33-.17c-.14-.06-.32-.04-.51.07-.43.25-.78.85-.78 1.35 0 .26.1.44.25.52l.23.11.05-.08c.08-.02.16-.05.25-.1.43-.25.78-.85.78-1.35 0-.07-.01-.14-.02-.2z"/>
    <path fill="#5c5c5c" d="M33.33 61.26c0 .5-.35 1.1-.78 1.35-.43.25-.78.05-.78-.45 0-.49.35-1.1.78-1.35.43-.25.78-.05.78.45z"/>
    <path fill="#a6a6a6" d="M32.94 61.48c0 .25-.17.55-.39.67-.15.09-.28.06-.34-.04.05 0 .1-.02.16-.05.21-.12.39-.42.39-.67 0-.08-.02-.14-.05-.19.13 0 .23.1.23.28z"/>
    <path fill="#4a4a4a" d="M32.76 61.39c0 .25-.17.55-.39.67-.06.03-.11.05-.16.05a.356.356 0 0 1-.05-.19c0-.25.18-.55.39-.67.06-.03.11-.05.16-.05.03.05.05.11.05.19z"/>
    <path fill="#a6a6a6" d="m37.1 58.49-.33-.17c-.14-.06-.32-.04-.51.07-.43.25-.78.85-.78 1.35 0 .26.1.44.26.52l.23.11.05-.08c.08-.01.16-.05.25-.09.43-.25.78-.85.78-1.35 0-.07-.01-.14-.02-.2z"/>
    <path fill="#5c5c5c" d="M37.29 58.97c0 .5-.35 1.1-.78 1.35-.43.25-.78.05-.78-.45s.35-1.1.78-1.35c.43-.25.78-.05.78.45z"/>
    <path fill="#a6a6a6" d="M36.9 59.19c0 .25-.17.55-.39.67-.15.08-.28.06-.34-.04.05 0 .1-.02.16-.05.22-.12.39-.42.39-.67 0-.08-.02-.14-.05-.19.14 0 .23.1.23.28z"/>
    <path fill="#4a4a4a" d="M36.72 59.1c0 .25-.17.55-.39.67-.06.03-.11.05-.16.05a.356.356 0 0 1-.05-.19c0-.25.17-.55.39-.67.06-.03.11-.05.16-.05.03.05.05.12.05.19z"/>
    <path fill="#a6a6a6" d="m41.06 56.2-.33-.17c-.14-.06-.32-.04-.51.07-.43.25-.78.85-.78 1.35 0 .26.1.44.25.52l.23.11.05-.08c.08-.02.16-.05.25-.09.43-.25.78-.85.78-1.35 0-.08-.01-.14-.02-.2z"/>
    <path fill="#5c5c5c" d="M41.25 56.68c0 .5-.35 1.1-.78 1.35-.43.25-.78.05-.78-.45s.35-1.1.78-1.35c.43-.25.78-.04.78.45z"/>
    <path fill="#a6a6a6" d="M40.86 56.91c0 .25-.17.55-.39.67-.15.09-.28.06-.34-.04.05 0 .1-.02.16-.05.21-.12.39-.43.39-.67 0-.08-.02-.14-.05-.19.14-.01.23.1.23.28z"/>
    <path fill="#4a4a4a" d="M40.68 56.82c0 .25-.17.55-.39.67-.06.03-.11.05-.16.05a.356.356 0 0 1-.05-.19c0-.25.18-.55.39-.68.06-.03.11-.05.16-.05.04.06.05.12.05.2z"/>
    <path fill="#a6a6a6" d="m45.03 53.92-.33-.17c-.14-.06-.32-.04-.51.07-.43.25-.78.85-.78 1.35 0 .26.1.44.26.52l.23.11.05-.08c.08-.01.16-.05.25-.1.43-.25.78-.85.78-1.35 0-.07-.01-.14-.02-.2z"/>
    <path fill="#5c5c5c" d="M45.22 54.39c0 .5-.35 1.1-.78 1.35-.43.25-.78.05-.78-.45s.35-1.1.78-1.35c.43-.24.78-.04.78.45z"/>
    <path fill="#a6a6a6" d="M44.83 54.62c0 .25-.17.55-.39.67-.15.08-.28.06-.34-.04.05 0 .11-.02.16-.05.22-.12.39-.43.39-.67 0-.08-.02-.14-.05-.19.13-.01.23.1.23.28z"/>
    <path fill="#4a4a4a" d="M44.65 54.53c0 .25-.17.55-.39.67-.06.03-.11.05-.16.05a.356.356 0 0 1-.05-.19c0-.25.17-.55.39-.68.06-.03.11-.05.16-.05.03.06.05.12.05.2z"/>
    <path fill="#a6a6a6" d="m48.99 51.63-.33-.17c-.14-.06-.32-.04-.51.07-.43.25-.78.85-.78 1.35 0 .26.1.44.26.52l.23.11.05-.08c.08-.01.16-.05.25-.1.43-.25.78-.85.78-1.35 0-.08-.01-.14-.02-.2z"/>
    <path fill="#5c5c5c" d="M49.18 52.11c0 .5-.35 1.1-.78 1.35-.43.25-.78.04-.78-.45 0-.5.35-1.1.78-1.35.43-.25.78-.05.78.45z"/>
    <path fill="#a6a6a6" d="M48.79 52.33c0 .25-.17.55-.39.68-.15.08-.28.06-.34-.04.05 0 .1-.02.16-.05.21-.12.39-.43.39-.67 0-.08-.02-.14-.05-.19.14-.01.23.09.23.27z"/>
    <path fill="#4a4a4a" d="M48.61 52.24c0 .25-.17.55-.39.67-.06.03-.11.05-.16.05a.356.356 0 0 1-.05-.19c0-.25.17-.55.39-.68.06-.03.11-.05.16-.05.03.06.05.12.05.2z"/>
    <path fill="#a6a6a6" d="m52.96 49.34-.33-.17c-.14-.06-.32-.04-.51.07-.43.25-.78.85-.78 1.35 0 .26.1.44.26.52l.23.11.05-.08c.08-.01.16-.05.25-.1.43-.25.78-.85.78-1.35 0-.07-.01-.14-.02-.2z"/>
    <path fill="#5c5c5c" d="M53.14 49.82c0 .5-.35 1.1-.78 1.35-.43.25-.78.05-.78-.45s.35-1.1.78-1.35c.43-.25.78-.05.78.45z"/>
    <path fill="#a6a6a6" d="M52.75 50.04c0 .25-.17.55-.39.67-.15.08-.28.06-.34-.04.05 0 .1-.02.16-.05.22-.12.39-.42.39-.67 0-.08-.02-.14-.05-.19.14 0 .23.1.23.28z"/>
    <path fill="#4a4a4a" d="M52.57 49.95c0 .25-.17.55-.39.67-.06.03-.11.05-.16.05a.356.356 0 0 1-.05-.19c0-.25.17-.55.39-.67.06-.03.11-.05.16-.05.04.05.05.11.05.19z"/>
    <path fill="#a6a6a6" d="m56.92 47.05-.33-.17c-.14-.06-.32-.04-.51.07-.43.25-.78.85-.78 1.35 0 .26.1.44.26.52l.23.11.05-.09a.69.69 0 0 0 .25-.09c.43-.25.78-.85.78-1.35 0-.07-.01-.14-.02-.2z"/>
    <path fill="#5c5c5c" d="M57.11 47.53c0 .5-.35 1.1-.78 1.35-.43.25-.78.05-.78-.45s.35-1.1.78-1.35c.43-.25.78-.05.78.45z"/>
    <path fill="#a6a6a6" d="M56.72 47.75c0 .25-.17.55-.39.67-.15.09-.28.06-.34-.04.05 0 .11-.02.16-.05.22-.12.39-.42.39-.67 0-.08-.02-.14-.05-.19.13 0 .23.1.23.28z"/>
    <path fill="#4a4a4a" d="M56.54 47.66c0 .25-.17.55-.39.67-.06.03-.11.05-.16.05a.356.356 0 0 1-.05-.19c0-.25.17-.55.39-.67.06-.03.11-.05.16-.05.03.05.05.11.05.19z"/>
    <path fill="#a6a6a6" d="m60.88 44.76-.33-.17c-.14-.06-.32-.04-.51.07-.43.25-.78.85-.78 1.35 0 .26.1.44.26.52l.23.11.05-.08c.08-.01.16-.05.25-.09.43-.25.78-.85.78-1.35 0-.07-.01-.14-.02-.2z"/>
    <path fill="#5c5c5c" d="M61.07 45.24c0 .5-.35 1.1-.78 1.35-.43.25-.78.05-.78-.45s.35-1.1.78-1.35c.43-.25.78-.05.78.45z"/>
    <path fill="#a6a6a6" d="M60.68 45.46c0 .25-.17.55-.39.67-.15.08-.28.06-.34-.04.05 0 .1-.02.16-.05.21-.12.39-.42.39-.67 0-.08-.02-.14-.05-.19.14 0 .23.1.23.28z"/>
    <path fill="#4a4a4a" d="M60.5 45.37c0 .25-.17.55-.39.67-.06.03-.11.05-.16.05a.356.356 0 0 1-.05-.19c0-.25.18-.55.39-.67.06-.03.11-.05.16-.05.03.05.05.12.05.19z"/>
    <path fill="#a6a6a6" d="m64.85 42.47-.33-.17c-.14-.06-.32-.04-.51.07-.43.25-.78.85-.78 1.35 0 .26.1.44.26.52l.23.11.05-.08c.08-.01.16-.05.25-.1.43-.25.78-.85.78-1.35 0-.07-.01-.14-.02-.2z"/>
    <path fill="#5c5c5c" d="M65.04 42.95c0 .5-.35 1.1-.78 1.35-.43.25-.78.05-.78-.45s.35-1.1.78-1.35c.43-.25.78-.05.78.45z"/>
    <path fill="#a6a6a6" d="M64.65 43.17c0 .25-.17.55-.39.67-.15.08-.28.06-.34-.04.05 0 .1-.02.16-.05.22-.12.39-.42.39-.67 0-.08-.02-.14-.05-.19.13 0 .23.1.23.28z"/>
    <path fill="#4a4a4a" d="M64.47 43.09c0 .25-.17.55-.39.67-.06.03-.11.05-.16.05a.356.356 0 0 1-.05-.19c0-.25.17-.55.39-.67.06-.03.11-.05.16-.05.03.04.05.11.05.19z"/>
    <path fill="#a6a6a6" d="m68.81 40.19-.33-.17c-.14-.06-.32-.04-.51.07-.43.25-.78.85-.78 1.35 0 .26.1.44.26.52l.23.11.05-.08a.57.57 0 0 0 .25-.1c.43-.25.78-.85.78-1.35 0-.07-.01-.14-.02-.2z"/>
    <path fill="#5c5c5c" d="M69 40.66c0 .5-.35 1.1-.78 1.35-.43.25-.78.05-.78-.45s.35-1.1.78-1.35c.43-.25.78-.04.78.45z"/>
    <path fill="#a6a6a6" d="M68.61 40.89c0 .25-.17.55-.39.67-.15.08-.28.06-.34-.04.05 0 .11-.02.16-.05.22-.12.39-.42.39-.67 0-.08-.02-.14-.05-.19.14-.01.23.09.23.28z"/>
    <path fill="#4a4a4a" d="M68.43 40.8c0 .25-.17.55-.39.67-.06.03-.11.05-.16.05a.356.356 0 0 1-.05-.19c0-.25.17-.55.39-.67a.27.27 0 0 1 .16-.05c.03.05.05.11.05.19z"/>
    <path fill="#a6a6a6" d="m72.77 37.9-.33-.17c-.14-.06-.32-.04-.51.07-.43.25-.78.85-.78 1.35 0 .26.1.44.26.52l.23.11.05-.08c.08-.01.16-.05.25-.09.43-.25.78-.85.78-1.35 0-.07-.01-.14-.02-.2z"/>
    <path fill="#5c5c5c" d="M72.96 38.37c0 .5-.35 1.1-.78 1.35-.43.25-.78.05-.78-.45s.35-1.1.78-1.35c.43-.24.78-.04.78.45z"/>
    <path fill="#a6a6a6" d="M72.57 38.6c0 .25-.17.55-.39.67-.15.08-.28.06-.34-.04.05 0 .1-.02.16-.05.21-.12.39-.42.39-.67 0-.08-.02-.14-.05-.19.14-.01.23.1.23.28z"/>
    <path fill="#4a4a4a" d="M72.39 38.51c0 .25-.17.55-.39.67-.06.03-.11.05-.16.05a.356.356 0 0 1-.05-.19c0-.25.18-.55.39-.67.06-.03.11-.05.16-.05.04.05.05.11.05.19z"/>
    <path fill="#a6a6a6" d="m76.74 35.61-.33-.17c-.14-.06-.32-.04-.51.07-.43.25-.78.85-.78 1.35 0 .26.1.44.26.52l.23.11.05-.08c.08-.01.16-.05.25-.09.43-.25.78-.85.78-1.35 0-.07-.01-.14-.02-.2z"/>
    <path fill="#5c5c5c" d="M76.93 36.09c0 .5-.35 1.1-.78 1.35-.43.25-.78.05-.78-.45s.35-1.1.78-1.35c.43-.25.78-.05.78.45z"/>
    <path fill="#a6a6a6" d="M76.54 36.31c0 .25-.17.55-.39.67-.15.08-.28.06-.34-.04.05 0 .1-.02.16-.05.21-.12.39-.42.39-.67 0-.08-.02-.14-.05-.19.13 0 .23.1.23.28z"/>
    <path fill="#4a4a4a" d="M76.36 36.22c0 .25-.17.55-.39.67-.06.03-.11.05-.16.05a.356.356 0 0 1-.05-.19c0-.25.18-.55.39-.67.06-.03.11-.05.16-.05.03.05.05.11.05.19z"/>
    <path fill="#f80" d="M78.07 57.63 29.76 85.51l.01-19.38 1.9-5.6 44.51-25.7 1.89 3.41z"/>
    <path fill="orange" d="M39.02 60.26v.58l5.09-2.95v-3.18l-.39.23v2.61z"/>
    <path fill="#eb7600" d="M43.72 57.55v-2.61l-4.7 2.71v2.61z"/>
    <path fill="orange" d="m31.9 64.94 5.97-3.44v-3.19l-.39.23v2.61l-5.3 3.05z"/>
    <path fill="#eb7600" d="m37.48 58.54-4.02 2.32-1.28 3.34 5.3-3.05z"/>
    <path fill="orange" d="M70.25 42.22v.58l5.97-3.45-1.56-2.28-.11.06L75.83 39z"/>
    <path fill="#eb7600" d="m75.83 39-1.28-1.87-4.3 2.48v2.61z"/>
    <path fill="orange" d="M45.26 56.66v.57l5.09-2.94v-3.18l-.39.22v2.61z"/>
    <path fill="#eb7600" d="M49.96 53.94v-2.61l-4.7 2.72v2.61z"/>
    <path fill="orange" d="M51.5 53.05v.58l5.09-2.94V47.5l-.39.23v2.61z"/>
    <path fill="#eb7600" d="M56.2 50.34v-2.61l-4.7 2.72v2.6z"/>
    <path fill="orange" d="M57.74 49.45v.58l5.09-2.95V43.9l-.39.23v2.61z"/>
    <path fill="#eb7600" d="M62.44 46.74v-2.61l-4.7 2.71v2.61z"/>
    <path fill="orange" d="M63.98 45.85v.57l5.09-2.94V40.3l-.39.22v2.61z"/>
    <path fill="#eb7600" d="M68.68 43.13v-2.61l-4.7 2.72v2.61z"/>
    <path fill="orange" d="m28.76 65.55 1.9-5.6 1.01.58-1.9 5.6z"/>
    <path fill="#ffb833" d="m31.67 60.53-1.01-.58 44.51-25.7 1.01.58z"/>
    <path fill="orange" d="m68.34 30.81 1.35.98-.25-2.69 1.34-4.1-1.34-.98-1.81 1.04-1.07 3.7z"/>
    <path fill="#f80" d="m70.78 31.16-.56-2.63.56-3.53-1.8 1.04-1.07 3.7 1.78 2.05z"/>
    <path fill="orange" d="m71.39 29.05.56-3.28-.56-2.88 1.81-1.04 1.34.98-1.8 7.2z"/>
    <path fill="#f80" d="m72.74 30.03.56-3.28-.56-2.88 1.8-1.04 1.07 2.46-1.77 4.1z"/>
    <path fill="#5c5c5c" d="M66.17 23.53v1.76l2.58 1.49 6.64-5.6-2.57-1.48z"/>
    <path fill="#363636" d="M75.39 22.94v-1.76l-6.64 3.84v1.76z"/>
    <path fill="orange" d="m70.67 24.54-3.82-2.21V20.3l4.27-2.46 3.82 2.2-4.27 2.47z"/>
    <path fill="#f80" d="m74.94 22.07-4.27 2.47v-2.03l4.27-2.47z"/>
    <path fill="#363636" d="M73.12 18.87v1.27c0 .32-.21.64-.64.89-.85.49-2.22.49-3.07 0-.42-.25-.64-.57-.64-.89v-1.27z"/>
    <path fill="#5c5c5c" d="M69.42 19.75c.85.49 2.22.49 3.07 0 .85-.49.85-1.28 0-1.77s-2.22-.49-3.07 0c-.85.49-.85 1.28 0 1.77z"/>
    <path fill="#363636" d="M72.89 14.55v4.21c0 .29-.19.57-.57.79-.75.44-1.98.44-2.73 0-.38-.22-.57-.5-.57-.79v-4.21z"/>
    <path fill="#5c5c5c" d="M69.59 15.34c.75.44 1.98.44 2.73 0s.75-1.14 0-1.58c-.75-.44-1.98-.44-2.73 0-.76.44-.76 1.14 0 1.58z"/>
    <path fill="#d49c00" d="m57.73.08 17.78 10.26v2.94l-1.04.6L56.69.68z"/>
    <path fill="#f5b400" d="M74.47 13.88 56.69 3.61V.68l17.78 10.26z"/>
    <path fill="#363636" d="M58.35 3.19c0 .31-.22.44-.49.28-.27-.16-.49-.54-.49-.85 0-.31.22-.44.49-.28.27.15.49.53.49.85zm15.37 8.87c0 .31-.22.44-.49.28-.27-.16-.49-.54-.49-.85 0-.31.22-.44.49-.28.27.16.49.54.49.85z"/>
    <path fill="#232323" d="m70.8 11.76-1.6-.92 1.81-1.89 1.58.91zm-3.49-2.02-1.6-.92 1.81-1.89 1.58.91zm-3.49-2.01-1.6-.92 1.81-1.89 1.58.91zm-3.49-2.02-1.6-.92 1.81-1.89 1.58.91z"/>
    <path fill="#f5b400" d="m58.82 4.18-12.48 7.21-1.47-2.54 12.48-7.21z"/>
    <path fill="#232323" d="m55.76 5.94-1.51.88-.37-3.18 1.52-.87zm-3.07 1.78-1.52.88-.37-3.18 1.52-.88zM49.61 9.5l-1.52.87-.37-3.17 1.52-.88z"/>
    <path fill="#363636" d="M47.04 9.85c0 .31-.22.44-.49.28-.27-.16-.49-.54-.49-.85 0-.31.22-.44.49-.28.27.16.49.53.49.85zm10.49-6.06c0 .31-.22.44-.49.28-.27-.16-.49-.54-.49-.85 0-.31.22-.44.49-.28.27.16.49.54.49.85z"/>
    <path fill="#d49c00" d="m57.364 1.637 1.143-.661 1.466 2.537-1.143.66z"/>
    <path fill="orange" d="m44.6 16.25-5.03-2.91V7.53l5.62-3.25 5.03 2.91-5.62 3.25z"/>
    <path fill="#f80" d="m50.22 13-5.62 3.25v-5.81l5.62-3.25z"/>
    <path fill="orange" d="m54.91 9.09-3.82-2.21V2.47L55.36 0l3.82 2.21-4.27 2.46z"/>
    <path fill="#f80" d="m59.18 6.62-4.27 2.47V4.67l4.27-2.46z"/>
    <path fill="orange" d="m70.6 18.99-4.91-2.84v-5.68l5.49-3.17 4.92 2.84-5.5 3.17z"/>
    <path fill="#f80" d="m76.1 15.81-5.5 3.18v-5.68l5.5-3.17z"/>
    <path fill="#f5b400" d="m40.485 11.361 12.48-7.205 1.464 2.538-12.479 7.205z"/>
    <path fill="#232323" d="m51.39 8.47-1.52.88-.37-3.18 1.52-.88zm-3.08 1.78-1.52.88-.37-3.18 1.52-.88zm-3.08 1.78-1.52.87-.36-3.17 1.51-.88z"/>
    <path fill="#363636" d="M42.66 12.37c0 .31-.22.44-.49.28-.27-.16-.49-.53-.49-.85 0-.31.22-.44.49-.28.27.16.49.54.49.85zm10.49-6.05c0 .31-.22.44-.49.28-.27-.16-.49-.53-.49-.85 0-.31.22-.44.49-.28.27.16.49.54.49.85z"/>
    <path fill="#d49c00" d="m52.98 4.169 1.142-.66 1.466 2.536-1.143.66z"/>
    <path fill="#d49c00" d="m51.84 3.48 17.78 10.26v2.93l-1.04.61L50.8 4.08z"/>
    <path fill="#f5b400" d="M68.58 17.28 50.8 7.01V4.08l17.78 10.26z"/>
    <path fill="#363636" d="M52.46 6.58c0 .31-.22.44-.49.28-.27-.16-.49-.53-.49-.85 0-.31.22-.44.49-.28.27.16.49.54.49.85zm15.37 8.88c0 .31-.22.44-.49.28-.27-.16-.49-.53-.49-.85 0-.31.22-.44.49-.28.27.16.49.54.49.85z"/>
    <path fill="#232323" d="m64.91 15.16-1.6-.93 1.82-1.88 1.57.91zm-3.49-2.02-1.6-.92 1.82-1.89 1.57.91zm-3.49-2.01-1.6-.93 1.82-1.88 1.57.91zm-3.49-2.02-1.6-.92 1.82-1.89 1.57.91z"/>
  </g>
</svg>
