<svg xmlns="http://www.w3.org/2000/svg" viewbox="0 0 200 200">
<defs>
<symbol id="bee" viewBox="0 0 510 510" preserveAspectRatio="xMidYMid">
	<g>
        <g>
            <path d="M335.543,132.618c-2.781,-0.054 -5.377,-1.412 -7.008,-3.666c-1.631,-2.255 -2.107,-5.144 -1.287,-7.803l25.494,-82.166c0.793,-3.023 0.352,-6.237 -1.225,-8.936c-1.508,-2.507 -3.969,-4.294 -6.82,-4.951l-28.728,-4.998c-3.116,-0.539 -5.707,-2.7 -6.796,-5.67c-1.088,-2.97 -0.507,-6.294 1.523,-8.719c2.03,-2.424 5.201,-3.58 8.315,-3.032l29.275,5.11c7.701,1.674 14.369,6.453 18.427,13.209c4.072,6.903 5.162,15.164 3.022,22.887l-25.596,82.51c-1.165,3.753 -4.666,6.289 -8.596,6.225Z" style="fill:#2c2f38;fill-rule:nonzero;"/>
            <path d="M497.305,215.837c-4.35,-0.082 -7.994,-3.317 -8.591,-7.626l-4.086,-29.435c-0.644,-2.665 -2.304,-4.971 -4.625,-6.429c-2.734,-1.7 -6.047,-2.2 -9.162,-1.383l-82.645,22.454c-3.05,0.831 -6.313,-0.03 -8.557,-2.258c-2.243,-2.227 -3.127,-5.483 -2.317,-8.54c0.809,-3.056 3.188,-5.448 6.24,-6.274l82.918,-22.523c7.852,-2.009 16.183,-0.703 23.043,3.612c6.507,4.151 11.034,10.781 12.528,18.353l4.18,29.99c0.353,2.562 -0.432,5.15 -2.148,7.084c-1.716,1.935 -4.192,3.021 -6.778,2.975Z" style="fill:#2c2f38;fill-rule:nonzero;"/>
        </g>
        <g>
            <path d="M480.43,418.096c-1.672,34.997 -23.253,60.271 -51.133,76.501c-24.156,15.575 -54.148,19.132 -81.277,9.637c18.849,-7.551 33.803,-22.463 41.408,-41.291c2.521,-6.199 4.325,-12.667 5.379,-19.276c12.632,-75.139 -46.978,-151.451 -102.727,-185.417c-7.592,-5.241 -15.585,-9.876 -23.905,-13.861c10.121,0.66 20.179,2.077 30.088,4.24c6.527,1.087 13.224,2.442 20.004,4.241c8.623,2.087 17.113,4.687 25.427,7.785c3.339,1.209 6.767,2.506 10.104,3.892c57.697,23.739 113.332,69.377 125.072,131.586c1.308,7.243 1.832,14.606 1.56,21.963Z" style="fill:#d1d4d1;fill-rule:nonzero;"/>
            <path d="M394.807,443.667c-1.053,6.61 -2.858,13.077 -5.379,19.276c-7.605,18.828 -22.559,33.74 -41.408,41.291c-7.682,3.276 -15.745,5.572 -24,6.835c-62.979,10.222 -91.215,-39.273 -102.685,-71.315c-3.082,-8.285 -5.449,-16.819 -7.072,-25.508c-0,-0 -26.167,-81.92 21.793,-143.883l0.181,-0.174c10.122,-7.412 19.173,-16.183 26.901,-26.066c0.179,-0.085 0.27,-0.261 0.448,-0.346c0.716,-0.518 2.303,-0.225 4.324,0.607c0.089,-0.087 0.088,0.001 0.177,0.003l0.088,0.002c8.32,3.985 16.313,8.62 23.905,13.861c55.749,33.966 115.359,110.278 102.727,185.417Z" style="fill:#bdc3c7;fill-rule:nonzero;"/>
            <path d="M263.137,244.124c-7.728,9.883 -16.78,18.654 -26.901,26.066c7.701,-9.906 16.757,-18.681 26.901,-26.066Z" style="fill:#bdc3c7;fill-rule:nonzero;"/>
            <path d="M263.498,243.688c-0.091,0.175 -0.27,0.261 -0.361,0.435c-10.144,7.385 -19.201,16.16 -26.901,26.066l-0.181,0.174c-63.51,45.77 -144.555,16.759 -144.555,16.759c-8.561,-1.919 -16.948,-4.55 -25.071,-7.867c-31.534,-12.579 -80.278,-42.531 -67.861,-105.291c1.549,-8.178 4.125,-16.127 7.666,-23.659l0.002,-0.088c8.257,-18.537 23.663,-32.944 42.711,-39.942c6.283,-2.304 12.811,-3.882 19.452,-4.703c75.535,-10.003 149.72,52.235 181.629,109.134c4.974,7.77 9.327,15.92 13.02,24.374l-0.004,0.177c0.76,2.136 0.997,3.733 0.454,4.431Z" style="fill:#bdc3c7;fill-rule:nonzero;"/>
            <path d="M263.049,239.081c-3.693,-8.454 -8.046,-16.604 -13.02,-24.374c-31.91,-56.9 -106.095,-119.138 -181.63,-109.135c-6.642,0.821 -13.169,2.399 -19.452,4.703c-19.048,6.998 -34.454,21.405 -42.711,39.942c-8.554,-27.444 -3.953,-57.298 12.468,-80.892c17.106,-27.386 43.206,-48.07 78.152,-48.522c7.396,0.042 14.765,0.882 21.981,2.507c61.851,13.816 105.518,71.098 127.051,129.675l-0.002,0.088c1.268,3.383 2.449,6.677 3.54,10.057l0.086,0.089c2.806,8.417 5.108,16.993 6.894,25.683c1.511,6.586 2.665,13.251 3.455,19.962c1.898,9.966 2.964,20.074 3.188,30.217Z" style="fill:#d1d4d1;fill-rule:nonzero;"/>
        </g>
        <g>
            <path d="M59.931,470.222c-25.136,4.309 -48.311,16.321 -66.322,34.376c18.671,-17.376 31.482,-40.122 36.665,-65.095l29.657,30.719Z" style="fill:#2c2f38;fill-rule:nonzero;"/>
            <path d="M189.574,460.428l-0.002,0.088c-20.32,11.536 -42.484,19.467 -65.509,23.446c-2.922,-27.291 -14.902,-52.817 -34.026,-72.504c-18.984,-19.832 -44.087,-32.701 -71.272,-36.536c4.816,-22.916 13.578,-44.821 25.896,-64.735c37.113,6.06 71.253,24.007 97.287,51.141c26.238,26.971 42.959,61.764 47.626,99.1Z" style="fill:#2c2f38;fill-rule:nonzero;"/>
            <path d="M318.266,252.87c-6.779,-1.799 -13.477,-3.154 -20.004,-4.241c-9.909,-2.162 -19.967,-3.579 -30.088,-4.24l-0.088,-0.002c-0.088,-0.002 -0.087,-0.09 -0.177,-0.003c-2.02,-0.831 -3.607,-1.124 -4.324,-0.607c-0.179,0.085 -0.27,0.261 -0.448,0.346c0.091,-0.176 0.27,-0.261 0.361,-0.435c0.543,-0.698 0.306,-2.295 -0.454,-4.431l0.004,-0.177c-0.224,-10.143 -1.29,-20.251 -3.188,-30.217c-0.79,-6.711 -1.944,-13.376 -3.455,-19.962l0.088,0.002c32.272,5.692 57.21,31.516 61.773,63.967Z" style="fill:#2c2f38;fill-rule:nonzero;"/>
        </g>
        <g>
            <path d="M397.726,185.178c-1.406,24.83 -6.625,50.212 -20.391,63.505c-6.834,6.654 -14.806,12.027 -23.539,15.864c-3.336,-1.385 -6.764,-2.683 -10.104,-3.892c-8.314,-3.098 -16.804,-5.698 -25.427,-7.785c-4.561,-32.452 -29.5,-58.275 -61.771,-63.966l-0.088,-0.002c-1.786,-8.69 -4.088,-17.266 -6.894,-25.683l-0.086,-0.089c-1.091,-3.38 -2.271,-6.674 -3.54,-10.057l0.002,-0.088c4.246,-8.6 9.948,-16.401 16.853,-23.057c13.765,-13.292 39.315,-17.623 64.177,-18.074c17.096,-0.062 34.169,1.241 51.056,3.898c9.429,0.972 16.934,8.333 18.087,17.741c1.842,17.163 2.398,34.439 1.665,51.685Z" style="fill:#f0c419;fill-rule:nonzero;"/>
            <path d="M124.063,483.962c-34.593,5.587 -65.694,-1.412 -85.937,-22.374c-20.242,-20.962 -26.154,-52.2 -19.361,-86.666c27.185,3.835 52.288,16.704 71.272,36.536c19.125,19.688 31.104,45.213 34.026,72.504Z" style="fill:#f0c419;fill-rule:nonzero;"/>
            <path d="M214.262,414.246c1.624,8.689 3.99,17.223 7.072,25.508l-0.088,-0.001c-10.063,7.647 -20.647,14.586 -31.674,20.763l0.002,-0.088c-4.668,-37.336 -21.389,-72.13 -47.626,-99.1c-26.034,-27.135 -60.175,-45.082 -97.287,-51.141c6.475,-10.838 13.752,-21.178 21.768,-30.932c8.123,3.317 16.509,5.949 25.071,7.867c0,0 81.045,29.011 144.555,-16.759c-47.96,61.963 -21.793,143.883 -21.793,143.883Z" style="fill:#f0c419;fill-rule:nonzero;"/>
        </g>
    </g>
</symbol>
</defs>
<path fill="none" stroke="lightgrey"
  d="M20,50 C20,-50 180,150 180,50 C180-50 20,150 20,50 z" />
<use href="#bee" width="30" height="30" transform="translate(-15 -15)">
  <animateMotion dur="10s"
    repeatCount="indefinite"
    rotate="auto"
    path="M20,50 C20,-50 180,150 180,50 C180-50 20,150 20,50 z" />
</use>
</svg>
