<?xml version="1.0" encoding="UTF-8" standalone="no"?>
<!-- Generator: Adobe Illustrator 25.4.1, SVG Export Plug-In . SVG Version: 6.00 Build 0)  -->

<svg
   version="1.1"
   viewBox="0 0 63.140 82.689"
   preserveAspectRatio="xMinYmin"
   id="svg4192"
   sodipodi:docname="machine-2.svg"
   inkscape:version="1.1 (c68e22c387, 2021-05-23)"
   xmlns:inkscape="http://www.inkscape.org/namespaces/inkscape"
   xmlns:sodipodi="http://sodipodi.sourceforge.net/DTD/sodipodi-0.dtd"
   xmlns="http://www.w3.org/2000/svg"
   xmlns:svg="http://www.w3.org/2000/svg">
  <defs
     id="defs4196" />
  <sodipodi:namedview
     id="namedview4194"
     pagecolor="#ffffff"
     bordercolor="#999999"
     borderopacity="1"
     inkscape:pageshadow="0"
     inkscape:pageopacity="0"
     inkscape:pagecheckerboard="0"
     showgrid="false"
     inkscape:zoom="9.0338497"
     inkscape:cx="29.721548"
     inkscape:cy="41.3445"
     inkscape:window-width="1680"
     inkscape:window-height="997"
     inkscape:window-x="-8"
     inkscape:window-y="-8"
     inkscape:window-maximized="1"
     inkscape:current-layer="g4100" />
  <g
     id="g4190">
    <g
       transform="translate(-36.09,-116.90115)"
       id="g4188">
      <g
         id="g4186">
        <g
           id="g4042">
          <polygon
             fill="#d49c00"
             points="77.59,136.4 77.59,156.53 81.84,154.08 81.84,133.95 71.31,127.87 "
             id="polygon4038" />
          <polygon
             fill="#f5b400"
             points="71.31,127.87 67.05,130.32 67.05,149.66 77.59,155.74 77.59,136.4 81.84,133.95 "
             id="polygon4040" />
        </g>
        <g
           id="g4050">
          <path
             fill="#808285"
             d="m 68.67,139.05 2.07,-1.2 0.01,0.02 c 0.53,-0.31 1.26,-0.26 2.07,0.21 1.62,0.93 2.93,3.21 2.93,5.07 0,0.93 -0.33,1.59 -0.86,1.9 l -2.07,1.2 z"
             id="path4044" />
          <path
             fill="#a7a9ac"
             d="m 73.68,144.35 c 0,-1.87 -1.31,-4.14 -2.93,-5.07 -1.62,-0.93 -2.93,-0.18 -2.93,1.69 0,1.87 1.31,4.14 2.93,5.07 1.62,0.94 2.93,0.18 2.93,-1.69 z"
             id="path4046" />
          <path
             fill="#808285"
             d="m 71.88,143.31 c 0,-0.72 -0.51,-1.6 -1.13,-1.96 -0.63,-0.36 -1.13,-0.07 -1.13,0.65 0,0.72 0.51,1.6 1.13,1.96 0.63,0.37 1.13,0.08 1.13,-0.65 z"
             id="path4048"
             style="display:inline" />
        </g>
        <g
           id="g4058">
          <path
             fill="#808285"
             d="m 55.18,150.09 2.85,-1.65 c 0.17,-0.1 0.41,-0.08 0.67,0.07 0.52,0.3 0.95,1.04 0.95,1.64 0,0.3 -0.11,0.51 -0.28,0.61 l -2.84,1.65 z"
             id="path4052" />
          <path
             fill="#a7a9ac"
             d="m 56.8,151.81 c 0,-0.6 -0.42,-1.34 -0.95,-1.64 -0.52,-0.3 -0.95,-0.06 -0.95,0.55 0,0.6 0.42,1.34 0.95,1.64 0.53,0.29 0.95,0.05 0.95,-0.55 z"
             id="path4054" />
          <path
             fill="#808285"
             d="m 56.22,151.47 c 0,-0.23 -0.16,-0.52 -0.37,-0.63 -0.2,-0.12 -0.37,-0.02 -0.37,0.21 0,0.23 0.16,0.52 0.37,0.63 0.21,0.12 0.37,0.02 0.37,-0.21 z"
             id="path4056" />
        </g>
        <g
           id="g4066">
          <path
             fill="#6d6e71"
             d="m 51.7,150.59 2.67,-1.54 c 0.34,-0.2 0.8,-0.17 1.32,0.13 1.03,0.59 1.87,2.04 1.87,3.23 0,0.6 -0.21,1.01 -0.55,1.21 l -2.66,1.55 z"
             id="path4060" />
          <path
             fill="#a7a9ac"
             d="m 54.89,153.97 c 0,-1.19 -0.84,-2.64 -1.87,-3.23 -1.03,-0.59 -1.87,-0.11 -1.87,1.08 0,1.19 0.84,2.64 1.87,3.23 1.04,0.59 1.87,0.11 1.87,-1.08 z"
             id="path4062" />
          <path
             fill="#808285"
             d="m 53.75,153.31 c 0,-0.46 -0.32,-1.02 -0.72,-1.25 -0.4,-0.23 -0.72,-0.04 -0.72,0.42 0,0.46 0.32,1.02 0.72,1.25 0.4,0.23 0.72,0.04 0.72,-0.42 z"
             id="path4064" />
        </g>
        <g
           id="g4074">
          <path
             fill="#808285"
             d="m 46.44,151.89 4.18,-2.41 c 0.53,-0.31 1.26,-0.26 2.07,0.21 1.62,0.93 2.93,3.21 2.93,5.07 0,0.93 -0.33,1.59 -0.86,1.9 l -4.17,2.43 z"
             id="path4068" />
          <path
             fill="#a7a9ac"
             d="m 51.45,157.18 c 0,-1.87 -1.31,-4.14 -2.93,-5.07 -1.62,-0.93 -2.93,-0.18 -2.93,1.69 0,1.87 1.31,4.14 2.93,5.07 1.62,0.94 2.93,0.18 2.93,-1.69 z"
             id="path4070" />
          <path
             fill="#808285"
             d="m 49.66,156.15 c 0,-0.72 -0.51,-1.6 -1.13,-1.96 -0.63,-0.36 -1.13,-0.07 -1.13,0.65 0,0.72 0.51,1.6 1.13,1.96 0.62,0.36 1.13,0.07 1.13,-0.65 z"
             id="path4072" />
        </g>
        <g
           id="g4100"
           style="display:inline"
           inkscape:label="Layer2">
          <polygon
             fill="#d49c00"
             points="87,185.66 76.69,142.18 88.92,135.11 92.35,137.09 99.23,149.75 99.23,178.6 "
             id="polygon4076" />
          <polygon
             fill="#d63a3a"
             points="95.42,149.41 94.72,148.13 86.26,153.01 86.96,154.3 "
             id="polygon4078" />
          <polygon
             fill="#d63a3a"
             points="83.45,144.62 82.75,143.34 81.35,144.14 82.05,145.43 "
             id="polygon4080" />
          <polygon
             fill="#d63a3a"
             points="84.68,146.88 83.98,145.6 82.58,146.41 83.28,147.69 "
             id="polygon4082" />
          <polygon
             fill="#d63a3a"
             points="85.92,149.15 85.22,147.86 83.82,148.67 84.52,149.96 "
             id="polygon4084" />
          <polygon
             fill="#d63a3a"
             points="87.07,151.24 86.37,149.96 84.97,150.76 85.67,152.05 "
             id="polygon4086" />
          <polygon
             fill="#f5b400"
             points="87,156.82 87,185.66 76.69,179.71 76.69,142.18 80.11,144.16 "
             id="polygon4088" />
          <polygon
             fill="#2565c4"
             points="95.92,145.61 92.24,138.84 90.84,139.65 94.52,146.42 "
             id="polygon4090" />
          <polygon
             fill="#25a4c4"
             points="93.49,147.01 89.81,140.24 88.41,141.05 92.09,147.82 "
             id="polygon4092" />
          <polygon
             fill="#0d0d0d"
             points="88.06,148.38 85.11,142.96 83.98,143.61 86.93,149.03 "
             id="polygon4094" />
          <polygon
             fill="#d1d3d4"
             points="90.27,139.98 90.69,140.76 84.41,144.39 83.98,143.61 "
             id="polygon4096" />
          <path
             fill="#d63a3a"
             d="m 91.53,140.39 c 0,0.53 -0.43,0.95 -0.95,0.95 -0.53,0 -0.95,-0.43 -0.95,-0.95 0,-0.53 0.43,-0.95 0.95,-0.95 0.52,0 0.95,0.42 0.95,0.95 z"
             id="path4098" />
        </g>
        <g
           id="g4128">
          <polygon
             fill="#232323"
             points="82.03,136.86 82.04,140.71 81.35,140.33 81.35,136.53 "
             id="polygon4102" />
          <polygon
             fill="#0d0d0d"
             points="87.09,134 87.09,137.79 82.04,140.71 82.03,136.92 "
             id="polygon4104" />
          <path
             fill="#454545"
             d="m 76.18,126.94 17.32,-10 c 0.09,-0.05 0.17,-0.05 0.23,-0.01 v 0 l 1.35,0.73 -0.35,0.5 -0.1,-0.09 v 11.78 c 0,0.2 -0.14,0.44 -0.31,0.54 l -16.91,9.76 -0.11,0.55 -1.33,-0.72 v 0 0 0 c -0.06,-0.03 -0.09,-0.1 -0.09,-0.2 v -12.29 c -0.01,-0.21 0.13,-0.45 0.3,-0.55 z"
             id="path4106" />
          <path
             fill="#0d0d0d"
             d="m 77.53,140.68 17.32,-10 c 0.17,-0.1 0.31,-0.34 0.31,-0.54 v -12.29 c 0,-0.2 -0.14,-0.28 -0.31,-0.18 l -17.32,10 c -0.17,0.1 -0.31,0.34 -0.31,0.54 v 12.29 c -0.01,0.2 0.13,0.28 0.31,0.18 z"
             id="path4108" />
          <polygon
             fill="#232323"
             points="94.37,129.19 94.37,118.82 94.09,118.98 94.09,129.04 77.97,138.35 77.97,138.66 "
             id="polygon4110" />
          <polygon
             points="94.09,118.98 94.09,129.04 77.97,138.35 77.97,128.29 "
             id="polygon4112" />
          <polygon
             fill="#75c425"
             points="92.29,125.48 88.42,127.72 88.42,125.45 92.29,123.22 "
             id="polygon4114" />
          <polygon
             fill="#75c425"
             points="78.73,129.3 91.26,122.07 91.26,121.63 78.73,128.86 "
             id="polygon4116" />
          <polygon
             fill="#75c425"
             points="78.73,130.62 85.12,126.93 85.12,126.49 78.73,130.18 "
             id="polygon4118" />
          <polygon
             fill="#75c425"
             points="78.73,131.87 85.12,128.19 85.12,127.74 78.73,131.43 "
             id="polygon4120" />
          <polygon
             fill="#75c425"
             points="78.73,136.37 85.12,132.68 85.12,132.24 78.73,135.93 "
             id="polygon4122" />
          <polygon
             fill="#75c425"
             points="78.73,135.11 89.58,128.85 89.58,128.41 78.73,134.67 "
             id="polygon4124" />
          <polygon
             fill="#454545"
             points="90.36,132.57 94.37,130.25 94.37,129.81 90.36,132.12 "
             id="polygon4126" />
        </g>
        <g
           id="g4138">
          <polygon
             fill="#f5b400"
             points="53.9,199.59 36.09,189.31 36.09,169.55 53.9,179.83 "
             id="polygon4130" />
          <polygon
             fill="#808285"
             points="76.69,160.02 82.45,161.26 82.45,163.34 53.9,179.83 36.09,169.55 36.09,167.47 "
             id="polygon4132" />
          <polygon
             fill="#a7a9ac"
             points="82.45,161.26 53.9,177.75 36.09,167.47 67.05,149.66 77.59,155.74 "
             id="polygon4134" />
          <polygon
             fill="#d49c00"
             points="82.45,183.11 53.9,199.59 53.9,179.83 82.45,163.34 "
             id="polygon4136" />
        </g>
        <g
           id="g4148"
           style="display:inline">
          <polygon
             fill="#939598"
             points="48.67,164.5 48.67,160.53 70.71,147.79 74.77,150.14 52.73,166.85 "
             id="polygon4140" />
          <polygon
             fill="#454545"
             points="73,149.96 51.98,162.1 51.45,161.79 72.47,149.66 "
             id="polygon4142" />
          <polygon
             fill="#454545"
             points="71.38,149.03 50.36,161.16 49.83,160.86 70.85,148.72 "
             id="polygon4144" />
          <polygon
             fill="#808285"
             points="74.77,154.11 52.73,166.85 52.73,162.87 74.77,150.14 "
             id="polygon4146" />
        </g>
        <g
           id="g4154">
          <polygon
             fill="#d49c00"
             points="53.33,151.77 42.8,145.69 49.08,154.22 49.08,174.35 53.33,171.89 "
             id="polygon4150" />
          <polygon
             fill="#f5b400"
             points="49.08,154.22 53.33,151.77 42.8,145.69 38.55,148.14 38.55,168.27 49.08,174.35 "
             id="polygon4152" />
        </g>
        <g
           id="g4160"
           style="display:inline">
          <polygon
             fill="#f5b400"
             points="56.06,171.8 56.06,165.54 78.38,152.66 82.45,155 60.13,174.15 "
             id="polygon4156" />
          <polygon
             fill="#d49c00"
             points="82.45,161.26 60.13,174.15 60.13,167.89 82.45,155 "
             id="polygon4158" />
        </g>
        <g
           id="g4176"
           style="display:inline">
          <g
             id="g4166">
            <polygon
               fill="#232323"
               points="57.93,165.21 78.5,153.34 80.73,154.63 60.16,167.58 57.93,166.29 "
               id="polygon4162" />
            <polygon
               fill="#0d0d0d"
               points="80.73,154.63 80.73,155.72 60.16,167.58 60.16,166.49 "
               id="polygon4164" />
          </g>
          <g
             opacity="0.6"
             id="g4174">
            <polygon
               fill="#1c4b94"
               points="60.08,156.4 60.08,165.8 59.17,165.28 59.17,156.17 55.01,146 55.79,145.9 "
               id="polygon4168" />
            <polygon
               fill="#2565c4"
               points="55.79,145.9 55.01,146 74.16,134.95 74.93,134.85 79.22,145.34 79.22,154.75 60.08,165.8 60.08,156.4 "
               id="polygon4170" />
            <polygon
               opacity="0.35"
               points="79.22,145.34 79.22,154.75 60.08,165.8 60.08,156.4 "
               id="polygon4172" />
          </g>
        </g>
        <g
           id="g4184"
           style="display:inline">
          <path
             fill="#808285"
             d="m 41.01,156.04 1.65,-0.95 0.01,0.01 c 0.42,-0.24 1,-0.21 1.65,0.16 1.29,0.74 2.33,2.55 2.33,4.04 0,0.74 -0.26,1.27 -0.68,1.51 l -1.65,0.95 z"
             id="path4178" />
          <path
             fill="#a7a9ac"
             d="m 45,160.25 c 0,-1.49 -1.04,-3.3 -2.33,-4.04 -1.29,-0.74 -2.33,-0.14 -2.33,1.35 0,1.49 1.04,3.3 2.33,4.04 1.29,0.75 2.33,0.14 2.33,-1.35 z"
             id="path4180" />
          <path
             fill="#808285"
             d="m 43.57,159.43 c 0,-0.58 -0.4,-1.28 -0.9,-1.56 -0.5,-0.29 -0.9,-0.05 -0.9,0.52 0,0.58 0.4,1.28 0.9,1.56 0.5,0.29 0.9,0.05 0.9,-0.52 z"
             id="path4182" />
        </g>
      </g>
    </g>
  </g>
</svg>
