<?xml version="1.0" encoding="UTF-8" standalone="no"?>
<!-- Generator: Adobe Illustrator 25.4.1, SVG Export Plug-In . SVG Version: 6.00 Build 0)  -->

<svg
   version="1.1"
   id="Layer_1"
   x="0px"
   y="0px"
   viewBox="0 0 78.780 85.510"
   sodipodi:docname="machine-6.svg"
   inkscape:version="1.1 (c68e22c387, 2021-05-23)"
   xmlns:inkscape="http://www.inkscape.org/namespaces/inkscape"
   xmlns:sodipodi="http://sodipodi.sourceforge.net/DTD/sodipodi-0.dtd"
   xmlns="http://www.w3.org/2000/svg"
   xmlns:svg="http://www.w3.org/2000/svg">
  <defs
     id="defs8788" />
  <sodipodi:namedview
     id="namedview8786"
     pagecolor="#ffffff"
     bordercolor="#999999"
     borderopacity="1"
     inkscape:pageshadow="0"
     inkscape:pageopacity="0"
     inkscape:pagecheckerboard="0"
     showgrid="false"
     inkscape:zoom="8.7358204"
     inkscape:cx="39.435335"
     inkscape:cy="42.755"
     inkscape:window-width="1680"
     inkscape:window-height="997"
     inkscape:window-x="-8"
     inkscape:window-y="-8"
     inkscape:window-maximized="1"
     inkscape:current-layer="g8779" />
  <g
     transform="translate(-35.27,-338.76)"
     id="g8783">
    <g
       id="g8781">
      <g
         id="g8348"
         style="display:inline">
        <polygon
           fill="#ff8800"
           points="35.27,374.9 37.57,378.58 50.04,383.54 50.25,366.28 "
           id="polygon8344" />
        <polygon
           fill="#ffa500"
           points="35.27,378.28 35.27,374.9 43.89,377.3 44.07,383.34 "
           id="polygon8346" />
      </g>
      <g
         id="g8779"
         style="display:inline"
         inkscape:label="Layer2">
        <g
           id="g8358">
          <polygon
             fill="#ff9800"
             points="79.84,376.98 79.84,401.89 72.23,397.49 72.23,372.58 83.88,365.86 91.49,370.25 "
             id="polygon8350" />
          <polygon
             fill="#cf7c00"
             points="79.84,401.89 79.84,376.98 91.49,370.25 91.49,395.16 "
             id="polygon8352" />
          <polygon
             fill="#ffa500"
             points="80.17,361.33 80.17,375.39 74.59,372.17 74.59,358.11 80.83,354.51 86.41,357.73 "
             id="polygon8354" />
          <polygon
             fill="#ff8800"
             points="80.17,375.39 80.17,361.33 86.41,357.73 86.41,371.79 "
             id="polygon8356" />
        </g>
        <g
           id="g8370">
          <g
             id="g8368">
            <path
               fill="#363636"
               d="m 83.17,356.46 v 1.83 c 0,0.46 -0.31,0.92 -0.92,1.28 -1.22,0.71 -3.2,0.71 -4.43,0 -0.61,-0.35 -0.92,-0.81 -0.92,-1.28 v -1.83 z"
               id="path8360" />
            <path
               fill="#5c5c5c"
               d="m 77.83,357.74 c 1.22,0.71 3.2,0.71 4.43,0 1.22,-0.71 1.22,-1.85 0,-2.55 -1.22,-0.71 -3.2,-0.71 -4.43,0 -1.22,0.7 -1.22,1.85 0,2.55 z"
               id="path8362" />
            <path
               fill="#363636"
               d="m 82.83,350.24 v 6.06 c 0,0.41 -0.27,0.82 -0.82,1.14 -1.09,0.63 -2.85,0.63 -3.94,0 -0.54,-0.31 -0.82,-0.72 -0.82,-1.14 v -6.06 z"
               id="path8364" />
            <path
               fill="#5c5c5c"
               d="m 78.08,351.38 c 1.09,0.63 2.85,0.63 3.94,0 1.09,-0.63 1.09,-1.65 0,-2.27 -1.09,-0.63 -2.85,-0.63 -3.94,0 -1.09,0.62 -1.09,1.64 0,2.27 z"
               id="path8366" />
          </g>
        </g>
        <g
           id="g8376">
          <polygon
             fill="#ff8800"
             points="58.85,414.14 77.3,403.49 77.3,356.55 46.51,360.09 47.04,364.43 46.84,381.69 53.47,409.77 "
             id="polygon8372" />
          <polygon
             fill="#ffa500"
             points="46.51,360.09 64.96,349.43 77.3,356.55 58.85,367.21 58.85,414.14 43.53,405.3 43.53,386.28 43.89,377.3 "
             id="polygon8374" />
        </g>
        <g
           id="g8390">
          <polygon
             fill="#5c5c5c"
             points="53.22,372.55 53.22,384.34 46.55,380.49 46.55,368.7 49.36,367.08 56.03,370.93 "
             id="polygon8378" />
          <polygon
             fill="#363636"
             points="53.22,384.34 53.22,372.55 56.03,370.93 56.03,382.72 "
             id="polygon8380" />
          <g
             id="g8388">
            <polygon
               fill="#f5b400"
               points="47.25,374.91 49.91,371.91 52.57,377.98 "
               id="polygon8382" />
            <path
               d="m 49.86,372.22 2.34,5.34 -4.69,-2.71 z m 0.05,-0.31 -2.66,3 5.33,3.07 z"
               id="path8384" />
            <polygon
               points="49.49,373.14 49.33,374.23 49.98,374.78 49.43,375.76 50.37,374.76 49.68,374.21 50,373.57 "
               id="polygon8386" />
          </g>
        </g>
        <g
           id="g8656">
          <g
             id="g8400">
            <polygon
               fill="#ff8800"
               points="53.76,417.76 53.77,398.38 55.66,392.78 100.17,367.08 102.07,370.49 102.06,389.88 "
               id="polygon8392" />
            <polygon
               fill="#ffa500"
               points="53.77,398.38 52.76,397.8 54.66,392.2 55.66,392.78 "
               id="polygon8394" />
            <polygon
               fill="#ffb833"
               points="100.17,367.08 55.66,392.78 54.66,392.2 99.17,366.5 "
               id="polygon8396" />
            <polygon
               fill="#ffa500"
               points="65.03,424.27 52.75,417.18 52.76,397.8 65.04,404.89 "
               id="polygon8398" />
          </g>
          <g
             id="g8430">
            <polygon
               fill="#ffa500"
               points="67.6,387.1 67.6,389.71 62.89,392.42 62.89,393 67.99,390.05 67.99,386.87 "
               id="polygon8402" />
            <polygon
               fill="#eb7600"
               points="67.6,389.71 67.6,387.1 62.89,389.81 62.89,392.42 "
               id="polygon8404" />
            <polygon
               fill="#ffa500"
               points="61.36,393.31 56.06,396.36 55.78,397.1 61.75,393.66 61.75,390.47 61.36,390.7 "
               id="polygon8406" />
            <polygon
               fill="#eb7600"
               points="61.36,390.7 57.34,393.02 56.06,396.36 61.36,393.31 "
               id="polygon8408" />
            <polygon
               fill="#ffa500"
               points="98.43,369.29 99.71,371.16 94.13,374.38 94.13,374.96 100.1,371.51 98.54,369.23 "
               id="polygon8410" />
            <polygon
               fill="#eb7600"
               points="99.71,371.16 98.43,369.29 94.13,371.77 94.13,374.38 "
               id="polygon8412" />
            <polygon
               fill="#ffa500"
               points="73.84,383.49 73.84,386.1 69.13,388.82 69.13,389.39 74.23,386.45 74.23,383.27 "
               id="polygon8414" />
            <polygon
               fill="#eb7600"
               points="73.84,386.1 73.84,383.49 69.13,386.21 69.13,388.82 "
               id="polygon8416" />
            <polygon
               fill="#ffa500"
               points="80.08,379.89 80.08,382.5 75.37,385.21 75.37,385.79 80.47,382.85 80.47,379.66 "
               id="polygon8418" />
            <polygon
               fill="#eb7600"
               points="80.08,382.5 80.08,379.89 75.37,382.61 75.37,385.21 "
               id="polygon8420" />
            <polygon
               fill="#ffa500"
               points="86.32,376.29 86.32,378.89 81.61,381.61 81.61,382.19 86.71,379.24 86.71,376.06 "
               id="polygon8422" />
            <polygon
               fill="#eb7600"
               points="86.32,378.89 86.32,376.29 81.61,379 81.61,381.61 "
               id="polygon8424" />
            <polygon
               fill="#ffa500"
               points="92.56,372.68 92.56,375.29 87.85,378.01 87.85,378.58 92.95,375.64 92.95,372.46 "
               id="polygon8426" />
            <polygon
               fill="#eb7600"
               points="92.56,375.29 92.56,372.68 87.85,375.4 87.85,378.01 "
               id="polygon8428" />
          </g>
          <g
             id="g8616">
            <path
               fill="#5c5c5c"
               d="m 105.2,367.78 c -0.02,-0.01 -0.04,-0.02 -0.06,-0.03 h -0.01 v 0 c -0.25,-0.13 -0.59,-0.1 -0.97,0.12 v 0 l -17.26,9.97 -34.69,20.03 c -0.05,0.03 -0.1,0.06 -0.14,0.09 v 0 c -0.71,0.5 -1.27,1.52 -1.27,2.36 v 0.13 c 0,0.45 0.16,0.76 0.41,0.91 v 0 c 0,0 0.01,0 0.01,0.01 l 8.51,4.91 53.91,-33.62 z"
               id="path8432" />
            <path
               fill="#212121"
               d="m 113.77,373.72 v 0.13 c 0,0.72 -0.51,1.6 -1.13,1.96 l -51.96,30 c -0.36,0.21 -0.69,0.2 -0.9,0.01 0.16,0.01 0.34,-0.04 0.54,-0.15 l 51.96,-30 c 0.62,-0.36 1.13,-1.24 1.13,-1.96 v -0.13 c 0,-0.3 -0.09,-0.52 -0.23,-0.66 0.35,0.02 0.59,0.31 0.59,0.8 z"
               id="path8434" />
            <path
               fill="#878787"
               d="m 113.41,373.58 v 0.13 c 0,0.72 -0.51,1.6 -1.13,1.96 l -51.96,30 c -0.19,0.11 -0.38,0.16 -0.54,0.15 -0.15,-0.14 -0.24,-0.36 -0.24,-0.66 v -0.13 c 0,-0.72 0.51,-1.6 1.13,-1.96 l 51.96,-30 c 0.19,-0.11 0.38,-0.16 0.54,-0.15 0.15,0.13 0.24,0.36 0.24,0.66 z"
               id="path8436" />
            <path
               fill="#363636"
               d="m 112.64,373.07 c 0.62,-0.36 1.13,-0.07 1.13,0.65 v 0.13 c 0,0.72 -0.51,1.6 -1.13,1.96 l -51.96,30 c -0.62,0.36 -1.13,0.07 -1.13,-0.65 v -0.13 c 0,-0.72 0.51,-1.6 1.13,-1.96 z m 0,-0.33 -51.96,30 c -0.78,0.45 -1.42,1.55 -1.42,2.45 v 0.13 c 0,0.9 0.64,1.27 1.42,0.82 l 51.96,-30 c 0.78,-0.45 1.41,-1.55 1.41,-2.45 v -0.13 c 0,-0.9 -0.63,-1.27 -1.41,-0.82 z"
               id="path8438" />
            <polygon
               fill="#363636"
               points="95.06,382.89 94.5,383.22 86.04,378.33 86.6,378.01 "
               id="polygon8440" />
            <polygon
               fill="#363636"
               points="92.79,384.2 92.23,384.52 83.77,379.64 84.33,379.31 "
               id="polygon8442" />
            <polygon
               fill="#363636"
               points="90.53,385.51 89.97,385.83 81.51,380.95 82.07,380.62 "
               id="polygon8444" />
            <polygon
               fill="#363636"
               points="88.26,386.81 87.7,387.14 79.24,382.25 79.8,381.93 "
               id="polygon8446" />
            <polygon
               fill="#363636"
               points="86,388.12 85.44,388.45 76.98,383.56 77.54,383.24 "
               id="polygon8448" />
            <polygon
               fill="#363636"
               points="83.73,389.43 83.17,389.75 74.71,384.87 75.27,384.54 "
               id="polygon8450" />
            <polygon
               fill="#363636"
               points="81.47,390.74 80.91,391.06 72.45,386.18 73.01,385.85 "
               id="polygon8452" />
            <polygon
               fill="#363636"
               points="79.2,392.04 78.64,392.37 70.18,387.48 70.74,387.16 "
               id="polygon8454" />
            <polygon
               fill="#363636"
               points="76.94,393.35 76.38,393.67 67.92,388.79 68.48,388.47 "
               id="polygon8456" />
            <polygon
               fill="#363636"
               points="110.91,373.74 110.35,374.06 101.89,369.18 102.45,368.85 "
               id="polygon8458" />
            <polygon
               fill="#363636"
               points="108.64,375.05 108.08,375.37 99.62,370.49 100.19,370.16 "
               id="polygon8460" />
            <polygon
               fill="#363636"
               points="106.38,376.36 105.82,376.68 97.36,371.79 97.92,371.47 "
               id="polygon8462" />
            <polygon
               fill="#363636"
               points="104.12,377.66 103.56,377.99 95.09,373.1 95.65,372.78 "
               id="polygon8464" />
            <polygon
               fill="#363636"
               points="101.85,378.97 101.29,379.29 92.83,374.41 93.39,374.08 "
               id="polygon8466" />
            <polygon
               fill="#363636"
               points="99.59,380.28 99.03,380.6 90.57,375.72 91.13,375.39 "
               id="polygon8468" />
            <polygon
               fill="#363636"
               points="97.32,381.58 96.76,381.91 88.3,377.02 88.86,376.7 "
               id="polygon8470" />
            <polygon
               fill="#363636"
               points="74.67,394.66 74.11,394.98 65.65,390.1 66.21,389.77 "
               id="polygon8472" />
            <polygon
               fill="#363636"
               points="72.41,395.97 71.85,396.29 63.39,391.41 63.95,391.08 "
               id="polygon8474" />
            <polygon
               fill="#363636"
               points="70.14,397.27 69.58,397.6 61.12,392.71 61.68,392.39 "
               id="polygon8476" />
            <polygon
               fill="#363636"
               points="67.88,398.58 67.32,398.91 58.86,394.02 59.42,393.7 "
               id="polygon8478" />
            <polygon
               fill="#363636"
               points="65.62,399.89 65.06,400.21 56.6,395.33 57.16,395 "
               id="polygon8480" />
            <polygon
               fill="#363636"
               points="63.35,401.2 62.79,401.52 54.33,396.64 54.89,396.31 "
               id="polygon8482" />
            <polygon
               fill="#363636"
               points="61.09,402.5 60.53,402.83 52.07,397.95 52.63,397.62 "
               id="polygon8484" />
            <g
               id="g8494">
              <path
                 fill="#a6a6a6"
                 d="m 63.88,402.15 -0.33,-0.17 v 0 c -0.14,-0.06 -0.32,-0.04 -0.51,0.07 -0.43,0.25 -0.78,0.85 -0.78,1.35 0,0.26 0.1,0.44 0.26,0.52 l 0.23,0.11 0.05,-0.08 c 0.08,-0.02 0.16,-0.05 0.25,-0.1 0.43,-0.25 0.78,-0.85 0.78,-1.35 0,-0.07 -0.01,-0.14 -0.02,-0.2 z"
                 id="path8486" />
              <path
                 fill="#5c5c5c"
                 d="m 64.07,402.63 c 0,0.5 -0.35,1.1 -0.78,1.35 -0.43,0.25 -0.78,0.05 -0.78,-0.45 0,-0.5 0.35,-1.1 0.78,-1.35 0.43,-0.25 0.78,-0.05 0.78,0.45 z"
                 id="path8488" />
              <path
                 fill="#a6a6a6"
                 d="m 63.68,402.86 c 0,0.25 -0.17,0.55 -0.39,0.67 -0.15,0.08 -0.28,0.06 -0.34,-0.04 0.05,0 0.1,-0.02 0.16,-0.05 0.22,-0.12 0.39,-0.43 0.39,-0.67 0,-0.08 -0.02,-0.14 -0.05,-0.19 0.14,-0.01 0.23,0.09 0.23,0.28 z"
                 id="path8490" />
              <path
                 fill="#4a4a4a"
                 d="m 63.5,402.77 c 0,0.25 -0.17,0.55 -0.39,0.67 -0.06,0.03 -0.11,0.05 -0.16,0.05 -0.03,-0.05 -0.05,-0.11 -0.05,-0.19 0,-0.25 0.17,-0.55 0.39,-0.67 0.06,-0.03 0.11,-0.05 0.16,-0.05 0.03,0.05 0.05,0.11 0.05,0.19 z"
                 id="path8492" />
            </g>
            <g
               id="g8504">
              <path
                 fill="#a6a6a6"
                 d="m 68.41,399.54 -0.33,-0.17 v 0 c -0.14,-0.06 -0.32,-0.04 -0.51,0.07 -0.43,0.25 -0.78,0.85 -0.78,1.35 0,0.26 0.1,0.44 0.25,0.52 l 0.23,0.11 0.05,-0.08 c 0.08,-0.02 0.16,-0.05 0.25,-0.1 0.43,-0.25 0.78,-0.85 0.78,-1.35 0,-0.07 -0.01,-0.14 -0.02,-0.2 z"
                 id="path8496" />
              <path
                 fill="#5c5c5c"
                 d="m 68.6,400.02 c 0,0.5 -0.35,1.1 -0.78,1.35 -0.43,0.25 -0.78,0.05 -0.78,-0.45 0,-0.49 0.35,-1.1 0.78,-1.35 0.43,-0.25 0.78,-0.05 0.78,0.45 z"
                 id="path8498" />
              <path
                 fill="#a6a6a6"
                 d="m 68.21,400.24 c 0,0.25 -0.17,0.55 -0.39,0.67 -0.15,0.09 -0.28,0.06 -0.34,-0.04 0.05,0 0.1,-0.02 0.16,-0.05 0.21,-0.12 0.39,-0.42 0.39,-0.67 0,-0.08 -0.02,-0.14 -0.05,-0.19 0.13,0 0.23,0.1 0.23,0.28 z"
                 id="path8500" />
              <path
                 fill="#4a4a4a"
                 d="m 68.03,400.15 c 0,0.25 -0.17,0.55 -0.39,0.67 -0.06,0.03 -0.11,0.05 -0.16,0.05 -0.03,-0.05 -0.05,-0.11 -0.05,-0.19 0,-0.25 0.18,-0.55 0.39,-0.67 0.06,-0.03 0.11,-0.05 0.16,-0.05 0.03,0.05 0.05,0.11 0.05,0.19 z"
                 id="path8502" />
            </g>
            <g
               id="g8514">
              <path
                 fill="#a6a6a6"
                 d="m 72.37,397.25 -0.33,-0.17 v 0 c -0.14,-0.06 -0.32,-0.04 -0.51,0.07 -0.43,0.25 -0.78,0.85 -0.78,1.35 0,0.26 0.1,0.44 0.26,0.52 l 0.23,0.11 0.05,-0.08 c 0.08,-0.01 0.16,-0.05 0.25,-0.09 0.43,-0.25 0.78,-0.85 0.78,-1.35 0,-0.07 -0.01,-0.14 -0.02,-0.2 z"
                 id="path8506" />
              <path
                 fill="#5c5c5c"
                 d="m 72.56,397.73 c 0,0.5 -0.35,1.1 -0.78,1.35 -0.43,0.25 -0.78,0.05 -0.78,-0.45 0,-0.5 0.35,-1.1 0.78,-1.35 0.43,-0.25 0.78,-0.05 0.78,0.45 z"
                 id="path8508" />
              <path
                 fill="#a6a6a6"
                 d="m 72.17,397.95 c 0,0.25 -0.17,0.55 -0.39,0.67 -0.15,0.08 -0.28,0.06 -0.34,-0.04 0.05,0 0.1,-0.02 0.16,-0.05 0.22,-0.12 0.39,-0.42 0.39,-0.67 0,-0.08 -0.02,-0.14 -0.05,-0.19 0.14,0 0.23,0.1 0.23,0.28 z"
                 id="path8510" />
              <path
                 fill="#4a4a4a"
                 d="m 71.99,397.86 c 0,0.25 -0.17,0.55 -0.39,0.67 -0.06,0.03 -0.11,0.05 -0.16,0.05 -0.03,-0.05 -0.05,-0.11 -0.05,-0.19 0,-0.25 0.17,-0.55 0.39,-0.67 0.06,-0.03 0.11,-0.05 0.16,-0.05 0.03,0.05 0.05,0.12 0.05,0.19 z"
                 id="path8512" />
            </g>
            <g
               id="g8524">
              <path
                 fill="#a6a6a6"
                 d="M 76.33,394.96 76,394.79 v 0 c -0.14,-0.06 -0.32,-0.04 -0.51,0.07 -0.43,0.25 -0.78,0.85 -0.78,1.35 0,0.26 0.1,0.44 0.25,0.52 l 0.23,0.11 0.05,-0.08 c 0.08,-0.02 0.16,-0.05 0.25,-0.09 0.43,-0.25 0.78,-0.85 0.78,-1.35 0,-0.08 -0.01,-0.14 -0.02,-0.2 z"
                 id="path8516" />
              <path
                 fill="#5c5c5c"
                 d="m 76.52,395.44 c 0,0.5 -0.35,1.1 -0.78,1.35 -0.43,0.25 -0.78,0.05 -0.78,-0.45 0,-0.5 0.35,-1.1 0.78,-1.35 0.43,-0.25 0.78,-0.04 0.78,0.45 z"
                 id="path8518" />
              <path
                 fill="#a6a6a6"
                 d="m 76.13,395.67 c 0,0.25 -0.17,0.55 -0.39,0.67 -0.15,0.09 -0.28,0.06 -0.34,-0.04 0.05,0 0.1,-0.02 0.16,-0.05 0.21,-0.12 0.39,-0.43 0.39,-0.67 0,-0.08 -0.02,-0.14 -0.05,-0.19 0.14,-0.01 0.23,0.1 0.23,0.28 z"
                 id="path8520" />
              <path
                 fill="#4a4a4a"
                 d="m 75.95,395.58 c 0,0.25 -0.17,0.55 -0.39,0.67 -0.06,0.03 -0.11,0.05 -0.16,0.05 -0.03,-0.05 -0.05,-0.11 -0.05,-0.19 0,-0.25 0.18,-0.55 0.39,-0.68 0.06,-0.03 0.11,-0.05 0.16,-0.05 0.04,0.06 0.05,0.12 0.05,0.2 z"
                 id="path8522" />
            </g>
            <g
               id="g8534">
              <path
                 fill="#a6a6a6"
                 d="m 80.3,392.68 -0.33,-0.17 v 0 c -0.14,-0.06 -0.32,-0.04 -0.51,0.07 -0.43,0.25 -0.78,0.85 -0.78,1.35 0,0.26 0.1,0.44 0.26,0.52 l 0.23,0.11 0.05,-0.08 c 0.08,-0.01 0.16,-0.05 0.25,-0.1 0.43,-0.25 0.78,-0.85 0.78,-1.35 0,-0.07 -0.01,-0.14 -0.02,-0.2 z"
                 id="path8526" />
              <path
                 fill="#5c5c5c"
                 d="m 80.49,393.15 c 0,0.5 -0.35,1.1 -0.78,1.35 -0.43,0.25 -0.78,0.05 -0.78,-0.45 0,-0.5 0.35,-1.1 0.78,-1.35 0.43,-0.24 0.78,-0.04 0.78,0.45 z"
                 id="path8528" />
              <path
                 fill="#a6a6a6"
                 d="m 80.1,393.38 c 0,0.25 -0.17,0.55 -0.39,0.67 -0.15,0.08 -0.28,0.06 -0.34,-0.04 0.05,0 0.11,-0.02 0.16,-0.05 0.22,-0.12 0.39,-0.43 0.39,-0.67 0,-0.08 -0.02,-0.14 -0.05,-0.19 0.13,-0.01 0.23,0.1 0.23,0.28 z"
                 id="path8530" />
              <path
                 fill="#4a4a4a"
                 d="m 79.92,393.29 c 0,0.25 -0.17,0.55 -0.39,0.67 -0.06,0.03 -0.11,0.05 -0.16,0.05 -0.03,-0.05 -0.05,-0.11 -0.05,-0.19 0,-0.25 0.17,-0.55 0.39,-0.68 0.06,-0.03 0.11,-0.05 0.16,-0.05 0.03,0.06 0.05,0.12 0.05,0.2 z"
                 id="path8532" />
            </g>
            <g
               id="g8544">
              <path
                 fill="#a6a6a6"
                 d="m 84.26,390.39 -0.33,-0.17 v 0 c -0.14,-0.06 -0.32,-0.04 -0.51,0.07 -0.43,0.25 -0.78,0.85 -0.78,1.35 0,0.26 0.1,0.44 0.26,0.52 l 0.23,0.11 0.05,-0.08 c 0.08,-0.01 0.16,-0.05 0.25,-0.1 0.43,-0.25 0.78,-0.85 0.78,-1.35 0,-0.08 -0.01,-0.14 -0.02,-0.2 z"
                 id="path8536" />
              <path
                 fill="#5c5c5c"
                 d="m 84.45,390.87 c 0,0.5 -0.35,1.1 -0.78,1.35 -0.43,0.25 -0.78,0.04 -0.78,-0.45 0,-0.5 0.35,-1.1 0.78,-1.35 0.43,-0.25 0.78,-0.05 0.78,0.45 z"
                 id="path8538" />
              <path
                 fill="#a6a6a6"
                 d="m 84.06,391.09 c 0,0.25 -0.17,0.55 -0.39,0.68 -0.15,0.08 -0.28,0.06 -0.34,-0.04 0.05,0 0.1,-0.02 0.16,-0.05 0.21,-0.12 0.39,-0.43 0.39,-0.67 0,-0.08 -0.02,-0.14 -0.05,-0.19 0.14,-0.01 0.23,0.09 0.23,0.27 z"
                 id="path8540" />
              <path
                 fill="#4a4a4a"
                 d="m 83.88,391 c 0,0.25 -0.17,0.55 -0.39,0.67 -0.06,0.03 -0.11,0.05 -0.16,0.05 -0.03,-0.05 -0.05,-0.11 -0.05,-0.19 0,-0.25 0.17,-0.55 0.39,-0.68 0.06,-0.03 0.11,-0.05 0.16,-0.05 0.03,0.06 0.05,0.12 0.05,0.2 z"
                 id="path8542" />
            </g>
            <g
               id="g8554">
              <path
                 fill="#a6a6a6"
                 d="m 88.23,388.1 -0.33,-0.17 v 0 c -0.14,-0.06 -0.32,-0.04 -0.51,0.07 -0.43,0.25 -0.78,0.85 -0.78,1.35 0,0.26 0.1,0.44 0.26,0.52 l 0.23,0.11 0.05,-0.08 c 0.08,-0.01 0.16,-0.05 0.25,-0.1 0.43,-0.25 0.78,-0.85 0.78,-1.35 0,-0.07 -0.01,-0.14 -0.02,-0.2 z"
                 id="path8546" />
              <path
                 fill="#5c5c5c"
                 d="m 88.41,388.58 c 0,0.5 -0.35,1.1 -0.78,1.35 -0.43,0.25 -0.78,0.05 -0.78,-0.45 0,-0.5 0.35,-1.1 0.78,-1.35 0.43,-0.25 0.78,-0.05 0.78,0.45 z"
                 id="path8548" />
              <path
                 fill="#a6a6a6"
                 d="m 88.02,388.8 c 0,0.25 -0.17,0.55 -0.39,0.67 -0.15,0.08 -0.28,0.06 -0.34,-0.04 0.05,0 0.1,-0.02 0.16,-0.05 0.22,-0.12 0.39,-0.42 0.39,-0.67 0,-0.08 -0.02,-0.14 -0.05,-0.19 0.14,0 0.23,0.1 0.23,0.28 z"
                 id="path8550" />
              <path
                 fill="#4a4a4a"
                 d="m 87.84,388.71 c 0,0.25 -0.17,0.55 -0.39,0.67 -0.06,0.03 -0.11,0.05 -0.16,0.05 -0.03,-0.05 -0.05,-0.11 -0.05,-0.19 0,-0.25 0.17,-0.55 0.39,-0.67 0.06,-0.03 0.11,-0.05 0.16,-0.05 0.04,0.05 0.05,0.11 0.05,0.19 z"
                 id="path8552" />
            </g>
            <g
               id="g8564">
              <path
                 fill="#a6a6a6"
                 d="m 92.19,385.81 -0.33,-0.17 v 0 c -0.14,-0.06 -0.32,-0.04 -0.51,0.07 -0.43,0.25 -0.78,0.85 -0.78,1.35 0,0.26 0.1,0.44 0.26,0.52 l 0.23,0.11 0.05,-0.09 c 0.08,-0.01 0.16,-0.04 0.25,-0.09 0.43,-0.25 0.78,-0.85 0.78,-1.35 0,-0.07 -0.01,-0.14 -0.02,-0.2 z"
                 id="path8556" />
              <path
                 fill="#5c5c5c"
                 d="m 92.38,386.29 c 0,0.5 -0.35,1.1 -0.78,1.35 -0.43,0.25 -0.78,0.05 -0.78,-0.45 0,-0.5 0.35,-1.1 0.78,-1.35 0.43,-0.25 0.78,-0.05 0.78,0.45 z"
                 id="path8558" />
              <path
                 fill="#a6a6a6"
                 d="m 91.99,386.51 c 0,0.25 -0.17,0.55 -0.39,0.67 -0.15,0.09 -0.28,0.06 -0.34,-0.04 0.05,0 0.11,-0.02 0.16,-0.05 0.22,-0.12 0.39,-0.42 0.39,-0.67 0,-0.08 -0.02,-0.14 -0.05,-0.19 0.13,0 0.23,0.1 0.23,0.28 z"
                 id="path8560" />
              <path
                 fill="#4a4a4a"
                 d="m 91.81,386.42 c 0,0.25 -0.17,0.55 -0.39,0.67 -0.06,0.03 -0.11,0.05 -0.16,0.05 -0.03,-0.05 -0.05,-0.11 -0.05,-0.19 0,-0.25 0.17,-0.55 0.39,-0.67 0.06,-0.03 0.11,-0.05 0.16,-0.05 0.03,0.05 0.05,0.11 0.05,0.19 z"
                 id="path8562" />
            </g>
            <g
               id="g8574">
              <path
                 fill="#a6a6a6"
                 d="m 96.15,383.52 -0.33,-0.17 v 0 c -0.14,-0.06 -0.32,-0.04 -0.51,0.07 -0.43,0.25 -0.78,0.85 -0.78,1.35 0,0.26 0.1,0.44 0.26,0.52 l 0.23,0.11 0.05,-0.08 c 0.08,-0.01 0.16,-0.05 0.25,-0.09 0.43,-0.25 0.78,-0.85 0.78,-1.35 0,-0.07 -0.01,-0.14 -0.02,-0.2 z"
                 id="path8566" />
              <path
                 fill="#5c5c5c"
                 d="m 96.34,384 c 0,0.5 -0.35,1.1 -0.78,1.35 -0.43,0.25 -0.78,0.05 -0.78,-0.45 0,-0.5 0.35,-1.1 0.78,-1.35 0.43,-0.25 0.78,-0.05 0.78,0.45 z"
                 id="path8568" />
              <path
                 fill="#a6a6a6"
                 d="m 95.95,384.22 c 0,0.25 -0.17,0.55 -0.39,0.67 -0.15,0.08 -0.28,0.06 -0.34,-0.04 0.05,0 0.1,-0.02 0.16,-0.05 0.21,-0.12 0.39,-0.42 0.39,-0.67 0,-0.08 -0.02,-0.14 -0.05,-0.19 0.14,0 0.23,0.1 0.23,0.28 z"
                 id="path8570" />
              <path
                 fill="#4a4a4a"
                 d="m 95.77,384.13 c 0,0.25 -0.17,0.55 -0.39,0.67 -0.06,0.03 -0.11,0.05 -0.16,0.05 -0.03,-0.05 -0.05,-0.11 -0.05,-0.19 0,-0.25 0.18,-0.55 0.39,-0.67 0.06,-0.03 0.11,-0.05 0.16,-0.05 0.03,0.05 0.05,0.12 0.05,0.19 z"
                 id="path8572" />
            </g>
            <g
               id="g8584">
              <path
                 fill="#a6a6a6"
                 d="m 100.12,381.23 -0.33,-0.17 v 0 c -0.14,-0.06 -0.32,-0.04 -0.51,0.07 -0.43,0.25 -0.78,0.85 -0.78,1.35 0,0.26 0.1,0.44 0.26,0.52 l 0.23,0.11 0.05,-0.08 c 0.08,-0.01 0.16,-0.05 0.25,-0.1 0.43,-0.25 0.78,-0.85 0.78,-1.35 0,-0.07 -0.01,-0.14 -0.02,-0.2 z"
                 id="path8576" />
              <path
                 fill="#5c5c5c"
                 d="m 100.31,381.71 c 0,0.5 -0.35,1.1 -0.78,1.35 -0.43,0.25 -0.78,0.05 -0.78,-0.45 0,-0.5 0.35,-1.1 0.78,-1.35 0.43,-0.25 0.78,-0.05 0.78,0.45 z"
                 id="path8578" />
              <path
                 fill="#a6a6a6"
                 d="m 99.92,381.93 c 0,0.25 -0.17,0.55 -0.39,0.67 -0.15,0.08 -0.28,0.06 -0.34,-0.04 0.05,0 0.1,-0.02 0.16,-0.05 0.22,-0.12 0.39,-0.42 0.39,-0.67 0,-0.08 -0.02,-0.14 -0.05,-0.19 0.13,0 0.23,0.1 0.23,0.28 z"
                 id="path8580" />
              <path
                 fill="#4a4a4a"
                 d="m 99.74,381.85 c 0,0.25 -0.17,0.55 -0.39,0.67 -0.06,0.03 -0.11,0.05 -0.16,0.05 -0.03,-0.05 -0.05,-0.11 -0.05,-0.19 0,-0.25 0.17,-0.55 0.39,-0.67 0.06,-0.03 0.11,-0.05 0.16,-0.05 0.03,0.04 0.05,0.11 0.05,0.19 z"
                 id="path8582" />
            </g>
            <g
               id="g8594">
              <path
                 fill="#a6a6a6"
                 d="m 104.08,378.95 -0.33,-0.17 v 0 c -0.14,-0.06 -0.32,-0.04 -0.51,0.07 -0.43,0.25 -0.78,0.85 -0.78,1.35 0,0.26 0.1,0.44 0.26,0.52 l 0.23,0.11 0.05,-0.08 c 0.08,-0.01 0.16,-0.04 0.25,-0.1 0.43,-0.25 0.78,-0.85 0.78,-1.35 0,-0.07 -0.01,-0.14 -0.02,-0.2 z"
                 id="path8586" />
              <path
                 fill="#5c5c5c"
                 d="m 104.27,379.42 c 0,0.5 -0.35,1.1 -0.78,1.35 -0.43,0.25 -0.78,0.05 -0.78,-0.45 0,-0.5 0.35,-1.1 0.78,-1.35 0.43,-0.25 0.78,-0.04 0.78,0.45 z"
                 id="path8588" />
              <path
                 fill="#a6a6a6"
                 d="m 103.88,379.65 c 0,0.25 -0.17,0.55 -0.39,0.67 -0.15,0.08 -0.28,0.06 -0.34,-0.04 0.05,0 0.11,-0.02 0.16,-0.05 0.22,-0.12 0.39,-0.42 0.39,-0.67 0,-0.08 -0.02,-0.14 -0.05,-0.19 0.14,-0.01 0.23,0.09 0.23,0.28 z"
                 id="path8590" />
              <path
                 fill="#4a4a4a"
                 d="m 103.7,379.56 c 0,0.25 -0.17,0.55 -0.39,0.67 -0.06,0.03 -0.11,0.05 -0.16,0.05 -0.03,-0.05 -0.05,-0.11 -0.05,-0.19 0,-0.25 0.17,-0.55 0.39,-0.67 0.06,-0.04 0.11,-0.05 0.16,-0.05 0.03,0.05 0.05,0.11 0.05,0.19 z"
                 id="path8592" />
            </g>
            <g
               id="g8604">
              <path
                 fill="#a6a6a6"
                 d="m 108.04,376.66 -0.33,-0.17 v 0 c -0.14,-0.06 -0.32,-0.04 -0.51,0.07 -0.43,0.25 -0.78,0.85 -0.78,1.35 0,0.26 0.1,0.44 0.26,0.52 l 0.23,0.11 0.05,-0.08 c 0.08,-0.01 0.16,-0.05 0.25,-0.09 0.43,-0.25 0.78,-0.85 0.78,-1.35 0,-0.07 -0.01,-0.14 -0.02,-0.2 z"
                 id="path8596" />
              <path
                 fill="#5c5c5c"
                 d="m 108.23,377.13 c 0,0.5 -0.35,1.1 -0.78,1.35 -0.43,0.25 -0.78,0.05 -0.78,-0.45 0,-0.5 0.35,-1.1 0.78,-1.35 0.43,-0.24 0.78,-0.04 0.78,0.45 z"
                 id="path8598" />
              <path
                 fill="#a6a6a6"
                 d="m 107.84,377.36 c 0,0.25 -0.17,0.55 -0.39,0.67 -0.15,0.08 -0.28,0.06 -0.34,-0.04 0.05,0 0.1,-0.02 0.16,-0.05 0.21,-0.12 0.39,-0.42 0.39,-0.67 0,-0.08 -0.02,-0.14 -0.05,-0.19 0.14,-0.01 0.23,0.1 0.23,0.28 z"
                 id="path8600" />
              <path
                 fill="#4a4a4a"
                 d="m 107.66,377.27 c 0,0.25 -0.17,0.55 -0.39,0.67 -0.06,0.03 -0.11,0.05 -0.16,0.05 -0.03,-0.05 -0.05,-0.11 -0.05,-0.19 0,-0.25 0.18,-0.55 0.39,-0.67 0.06,-0.03 0.11,-0.05 0.16,-0.05 0.04,0.05 0.05,0.11 0.05,0.19 z"
                 id="path8602" />
            </g>
            <g
               id="g8614">
              <path
                 fill="#a6a6a6"
                 d="m 112.01,374.37 -0.33,-0.17 v 0 c -0.14,-0.06 -0.32,-0.04 -0.51,0.07 -0.43,0.25 -0.78,0.85 -0.78,1.35 0,0.26 0.1,0.44 0.26,0.52 l 0.23,0.11 0.05,-0.08 c 0.08,-0.01 0.16,-0.05 0.25,-0.09 0.43,-0.25 0.78,-0.85 0.78,-1.35 0,-0.07 -0.01,-0.14 -0.02,-0.2 z"
                 id="path8606" />
              <path
                 fill="#5c5c5c"
                 d="m 112.2,374.85 c 0,0.5 -0.35,1.1 -0.78,1.35 -0.43,0.25 -0.78,0.05 -0.78,-0.45 0,-0.5 0.35,-1.1 0.78,-1.35 0.43,-0.25 0.78,-0.05 0.78,0.45 z"
                 id="path8608" />
              <path
                 fill="#a6a6a6"
                 d="m 111.81,375.07 c 0,0.25 -0.17,0.55 -0.39,0.67 -0.15,0.08 -0.28,0.06 -0.34,-0.04 0.05,0 0.1,-0.02 0.16,-0.05 0.21,-0.12 0.39,-0.42 0.39,-0.67 0,-0.08 -0.02,-0.14 -0.05,-0.19 0.13,0 0.23,0.1 0.23,0.28 z"
                 id="path8610" />
              <path
                 fill="#4a4a4a"
                 d="m 111.63,374.98 c 0,0.25 -0.17,0.55 -0.39,0.67 -0.06,0.03 -0.11,0.05 -0.16,0.05 -0.03,-0.05 -0.05,-0.11 -0.05,-0.19 0,-0.25 0.18,-0.55 0.39,-0.67 0.06,-0.03 0.11,-0.05 0.16,-0.05 0.03,0.05 0.05,0.11 0.05,0.19 z"
                 id="path8612" />
            </g>
          </g>
          <g
             id="g8654">
            <polygon
               fill="#ff8800"
               points="65.03,424.27 65.04,404.89 66.94,399.29 111.45,373.59 113.34,377 113.34,396.39 "
               id="polygon8618" />
            <g
               id="g8648">
              <polygon
                 fill="#ffa500"
                 points="79.38,393.47 78.99,393.7 78.99,396.31 74.29,399.02 74.29,399.6 79.38,396.65 "
                 id="polygon8620" />
              <polygon
                 fill="#eb7600"
                 points="78.99,393.7 74.29,396.41 74.29,399.02 78.99,396.31 "
                 id="polygon8622" />
              <polygon
                 fill="#ffa500"
                 points="72.75,397.3 72.75,399.91 67.45,402.96 67.17,403.7 73.14,400.26 73.14,397.07 "
                 id="polygon8624" />
              <polygon
                 fill="#eb7600"
                 points="68.73,399.62 67.45,402.96 72.75,399.91 72.75,397.3 "
                 id="polygon8626" />
              <polygon
                 fill="#ffa500"
                 points="109.93,375.83 109.82,375.89 111.1,377.76 105.52,380.98 105.52,381.56 111.49,378.11 "
                 id="polygon8628" />
              <polygon
                 fill="#eb7600"
                 points="109.82,375.89 105.52,378.37 105.52,380.98 111.1,377.76 "
                 id="polygon8630" />
              <polygon
                 fill="#ffa500"
                 points="85.62,389.87 85.23,390.09 85.23,392.7 80.53,395.42 80.53,395.99 85.62,393.05 "
                 id="polygon8632" />
              <polygon
                 fill="#eb7600"
                 points="85.23,390.09 80.53,392.81 80.53,395.42 85.23,392.7 "
                 id="polygon8634" />
              <polygon
                 fill="#ffa500"
                 points="91.86,386.26 91.47,386.49 91.47,389.1 86.77,391.81 86.77,392.39 91.86,389.45 "
                 id="polygon8636" />
              <polygon
                 fill="#eb7600"
                 points="91.47,386.49 86.77,389.21 86.77,391.81 91.47,389.1 "
                 id="polygon8638" />
              <polygon
                 fill="#ffa500"
                 points="98.1,382.66 97.71,382.89 97.71,385.5 93.01,388.21 93.01,388.79 98.1,385.84 "
                 id="polygon8640" />
              <polygon
                 fill="#eb7600"
                 points="97.71,382.89 93.01,385.6 93.01,388.21 97.71,385.5 "
                 id="polygon8642" />
              <polygon
                 fill="#ffa500"
                 points="104.34,379.06 103.95,379.28 103.95,381.89 99.25,384.61 99.25,385.18 104.34,382.24 "
                 id="polygon8644" />
              <polygon
                 fill="#eb7600"
                 points="103.95,379.28 99.25,382 99.25,384.61 103.95,381.89 "
                 id="polygon8646" />
            </g>
            <polygon
               fill="#ffa500"
               points="65.04,404.89 64.03,404.31 65.93,398.71 66.94,399.29 "
               id="polygon8650" />
            <polygon
               fill="#ffb833"
               points="111.45,373.59 66.94,399.29 65.93,398.71 110.44,373.01 "
               id="polygon8652" />
          </g>
        </g>
        <g
           id="g8674">
          <g
             id="g8666">
            <polygon
               fill="#ffa500"
               points="102.9,363.82 101.83,367.52 103.61,369.57 104.96,370.55 104.71,367.86 106.05,363.76 104.71,362.78 "
               id="polygon8658" />
            <polygon
               fill="#ff8800"
               points="105.49,367.29 106.05,363.76 104.25,364.8 103.18,368.5 104.96,370.55 106.05,369.92 "
               id="polygon8660" />
            <polygon
               fill="#ffa500"
               points="107.22,364.53 106.66,361.65 108.47,360.61 109.81,361.59 108.01,368.79 106.66,367.81 "
               id="polygon8662" />
            <polygon
               fill="#ff8800"
               points="108.57,365.51 108.01,362.63 109.81,361.59 110.88,364.05 109.11,368.15 108.01,368.79 "
               id="polygon8664" />
          </g>
          <g
             id="g8672">
            <polygon
               fill="#5c5c5c"
               points="108.09,358.46 101.44,362.29 101.44,364.05 104.02,365.54 110.66,359.94 "
               id="polygon8668" />
            <polygon
               fill="#363636"
               points="104.02,365.54 110.66,361.7 110.66,359.94 104.02,363.78 "
               id="polygon8670" />
          </g>
        </g>
        <g
           id="g8680">
          <polygon
             fill="#ffa500"
             points="105.94,361.27 105.94,363.3 102.12,361.09 102.12,359.06 106.39,356.6 110.21,358.8 "
             id="polygon8676" />
          <polygon
             fill="#ff8800"
             points="105.94,363.3 105.94,361.27 110.21,358.8 110.21,360.83 "
             id="polygon8678" />
        </g>
        <g
           id="g8694">
          <g
             id="g8686">
            <path
               fill="#363636"
               d="m 108.39,357.63 v 1.27 c 0,0.32 -0.21,0.64 -0.64,0.89 -0.85,0.49 -2.22,0.49 -3.07,0 -0.42,-0.25 -0.64,-0.57 -0.64,-0.89 v -1.27 z"
               id="path8682" />
            <path
               fill="#5c5c5c"
               d="m 104.69,358.51 c 0.85,0.49 2.22,0.49 3.07,0 0.85,-0.49 0.85,-1.28 0,-1.77 -0.85,-0.49 -2.22,-0.49 -3.07,0 -0.85,0.49 -0.85,1.28 0,1.77 z"
               id="path8684" />
          </g>
          <g
             id="g8692">
            <path
               fill="#363636"
               d="m 108.16,353.31 v 4.21 c 0,0.29 -0.19,0.57 -0.57,0.79 -0.75,0.44 -1.98,0.44 -2.73,0 -0.38,-0.22 -0.57,-0.5 -0.57,-0.79 v -4.21 z"
               id="path8688" />
            <path
               fill="#5c5c5c"
               d="m 104.86,354.1 c 0.75,0.44 1.98,0.44 2.73,0 0.75,-0.44 0.75,-1.14 0,-1.58 -0.75,-0.44 -1.98,-0.44 -2.73,0 -0.76,0.44 -0.76,1.14 0,1.58 z"
               id="path8690" />
          </g>
        </g>
        <g
           id="g8712">
          <polygon
             fill="#d49c00"
             points="110.78,352.04 109.74,352.64 91.96,339.44 93,338.84 110.78,349.1 "
             id="polygon8696" />
          <polygon
             fill="#f5b400"
             points="91.96,342.37 91.96,339.44 109.74,349.7 109.74,352.64 "
             id="polygon8698" />
          <path
             fill="#363636"
             d="m 93.62,341.95 c 0,0.31 -0.22,0.44 -0.49,0.28 -0.27,-0.16 -0.49,-0.54 -0.49,-0.85 0,-0.31 0.22,-0.44 0.49,-0.28 0.27,0.15 0.49,0.53 0.49,0.85 z"
             id="path8700" />
          <path
             fill="#363636"
             d="m 108.99,350.82 c 0,0.31 -0.22,0.44 -0.49,0.28 -0.27,-0.16 -0.49,-0.54 -0.49,-0.85 0,-0.31 0.22,-0.44 0.49,-0.28 0.27,0.16 0.49,0.54 0.49,0.85 z"
             id="path8702" />
          <polygon
             fill="#232323"
             points="104.47,349.6 106.28,347.71 107.86,348.62 106.07,350.52 "
             id="polygon8704" />
          <polygon
             fill="#232323"
             points="100.98,347.58 102.79,345.69 104.37,346.6 102.58,348.5 "
             id="polygon8706" />
          <polygon
             fill="#232323"
             points="97.49,345.57 99.3,343.68 100.88,344.59 99.09,346.49 "
             id="polygon8708" />
          <polygon
             fill="#232323"
             points="94,343.55 95.81,341.66 97.39,342.57 95.6,344.47 "
             id="polygon8710" />
        </g>
        <g
           id="g8727">
          <polygon
             fill="#f5b400"
             points="81.61,350.15 80.14,347.61 92.62,340.4 94.09,342.94 "
             id="polygon8714" />
          <polygon
             fill="#232323"
             points="89.52,345.58 89.15,342.4 90.67,341.53 91.03,344.7 "
             id="polygon8716" />
          <polygon
             fill="#232323"
             points="86.44,347.36 86.07,344.18 87.59,343.3 87.96,346.48 "
             id="polygon8718" />
          <polygon
             fill="#232323"
             points="83.36,349.13 82.99,345.96 84.51,345.08 84.88,348.26 "
             id="polygon8720" />
          <path
             fill="#363636"
             d="m 82.31,348.61 c 0,0.31 -0.22,0.44 -0.49,0.28 -0.27,-0.16 -0.49,-0.54 -0.49,-0.85 0,-0.31 0.22,-0.44 0.49,-0.28 0.27,0.16 0.49,0.53 0.49,0.85 z"
             id="path8722" />
          <path
             fill="#363636"
             d="m 92.8,342.55 c 0,0.31 -0.22,0.44 -0.49,0.28 -0.27,-0.16 -0.49,-0.54 -0.49,-0.85 0,-0.31 0.22,-0.44 0.49,-0.28 0.27,0.16 0.49,0.54 0.49,0.85 z"
             id="path8724" />
          <rect
             x="93.279999"
             y="339.87"
             transform="matrix(0.8658,-0.5004,0.5004,0.8658,-158.1985,92.8144)"
             fill="#d49c00"
             width="1.3200001"
             height="2.9300001"
             id="rect33482" />
        </g>
        <g
           id="g8733">
          <polygon
             fill="#ffa500"
             points="79.87,349.2 79.87,355.01 74.84,352.1 74.84,346.29 80.46,343.04 85.49,345.95 "
             id="polygon8729" />
          <polygon
             fill="#ff8800"
             points="79.87,355.01 79.87,349.2 85.49,345.95 85.49,351.76 "
             id="polygon8731" />
        </g>
        <g
           id="g8739"
           style="display:inline">
          <polygon
             fill="#ffa500"
             points="86.36,345.64 86.36,341.23 90.63,338.76 94.45,340.97 90.18,343.43 90.18,347.85 "
             id="polygon8735" />
          <polygon
             fill="#ff8800"
             points="90.18,347.85 90.18,343.43 94.45,340.97 94.45,345.38 "
             id="polygon8737" />
        </g>
        <g
           id="g8745">
          <polygon
             fill="#ffa500"
             points="105.87,352.07 105.87,357.75 100.96,354.91 100.96,349.23 106.45,346.06 111.37,348.9 "
             id="polygon8741" />
          <polygon
             fill="#ff8800"
             points="105.87,357.75 105.87,352.07 111.37,348.9 111.37,354.57 "
             id="polygon8743" />
        </g>
        <g
           id="g8759"
           style="display:inline">
          <rect
             x="75.529999"
             y="346.32999"
             transform="matrix(0.866,-0.5,0.5,0.866,-162.8188,87.9646)"
             fill="#f5b400"
             width="14.41"
             height="2.9300001"
             id="rect33504" />
          <polygon
             fill="#232323"
             points="85.14,348.11 84.77,344.93 86.29,344.05 86.66,347.23 "
             id="polygon8748" />
          <polygon
             fill="#232323"
             points="82.06,349.89 81.69,346.71 83.21,345.83 83.58,349.01 "
             id="polygon8750" />
          <polygon
             fill="#232323"
             points="78.98,351.66 78.62,348.49 80.13,347.61 80.5,350.79 "
             id="polygon8752" />
          <path
             fill="#363636"
             d="m 77.93,351.13 c 0,0.31 -0.22,0.44 -0.49,0.28 -0.27,-0.16 -0.49,-0.53 -0.49,-0.85 0,-0.31 0.22,-0.44 0.49,-0.28 0.27,0.16 0.49,0.54 0.49,0.85 z"
             id="path8754" />
          <path
             fill="#363636"
             d="m 88.42,345.08 c 0,0.31 -0.22,0.44 -0.49,0.28 -0.27,-0.16 -0.49,-0.53 -0.49,-0.85 0,-0.31 0.22,-0.44 0.49,-0.28 0.27,0.16 0.49,0.54 0.49,0.85 z"
             id="path8756" />
          <rect
             x="88.889999"
             y="342.39999"
             transform="matrix(0.8658,-0.5004,0.5004,0.8658,-160.0488,90.9593)"
             fill="#d49c00"
             width="1.3200001"
             height="2.9300001"
             id="rect33516" />
        </g>
        <g
           id="g8777">
          <polygon
             fill="#d49c00"
             points="104.89,355.43 103.85,356.04 86.07,342.84 87.11,342.24 104.89,352.5 "
             id="polygon8761" />
          <polygon
             fill="#f5b400"
             points="86.07,345.77 86.07,342.84 103.85,353.1 103.85,356.04 "
             id="polygon8763" />
          <path
             fill="#363636"
             d="m 87.73,345.34 c 0,0.31 -0.22,0.44 -0.49,0.28 -0.27,-0.16 -0.49,-0.53 -0.49,-0.85 0,-0.31 0.22,-0.44 0.49,-0.28 0.27,0.16 0.49,0.54 0.49,0.85 z"
             id="path8765" />
          <path
             fill="#363636"
             d="m 103.1,354.22 c 0,0.31 -0.22,0.44 -0.49,0.28 -0.27,-0.16 -0.49,-0.53 -0.49,-0.85 0,-0.31 0.22,-0.44 0.49,-0.28 0.27,0.16 0.49,0.54 0.49,0.85 z"
             id="path8767" />
          <polygon
             fill="#232323"
             points="98.58,352.99 100.4,351.11 101.97,352.02 100.18,353.92 "
             id="polygon8769" />
          <polygon
             fill="#232323"
             points="95.09,350.98 96.91,349.09 98.48,350 96.69,351.9 "
             id="polygon8771" />
          <polygon
             fill="#232323"
             points="91.6,348.96 93.42,347.08 94.99,347.99 93.2,349.89 "
             id="polygon8773" />
          <polygon
             fill="#232323"
             points="88.11,346.95 89.93,345.06 91.5,345.97 89.71,347.87 "
             id="polygon8775" />
        </g>
      </g>
    </g>
  </g>
</svg>
