<svg viewBox="0 0 63.25 97.19" xmlns="http://www.w3.org/2000/svg">
  <path fill="#f80" d="M44.2 66.93V9.85L33.03 3.4l-2.35 14.26v57.08z"/>
  <path fill="orange" d="M44.2 9.85 27.14 0 13.62 7.81v57.08l17.06 9.85V17.66z"/>
  <path fill="#a62626" d="m23.86 26.37 1.37-.79v.01c.2-.12.49-.1.8.08.62.36 1.13 1.24 1.13 1.96 0 .36-.13.62-.33.73l-1.37.79z"/>
  <path fill="#d63a3a" d="M25.79 28.41c0-.72-.51-1.6-1.13-1.96-.62-.36-1.13-.07-1.13.65s.51 1.6 1.13 1.96c.63.37 1.13.08 1.13-.65z"/>
  <path fill="#1c4b94" d="m23.2 15.43.46-.26c.07-.04.16-.03.27.03.21.12.38.41.38.66 0 .12-.04.21-.11.25l-.46.27z"/>
  <path fill="#2565c4" d="M23.84 16.11c0-.24-.17-.54-.38-.66s-.38-.02-.38.22.17.53.38.65c.21.13.38.03.38-.21z"/>
  <path fill="#1c4b94" d="m23.2 18.06.46-.27c.07-.04.16-.03.27.03.21.12.38.41.38.65 0 .12-.04.21-.11.25l-.46.27z"/>
  <path fill="#2565c4" d="M23.84 18.74c0-.24-.17-.53-.38-.66-.21-.12-.38-.02-.38.22s.17.53.38.65c.21.13.38.03.38-.21z"/>
  <path fill="#1c4b94" d="m23.2 20.68.46-.27c.07-.04.16-.03.27.03.21.12.38.41.38.66 0 .12-.04.21-.11.25l-.46.26z"/>
  <path fill="#2565c4" d="M23.84 21.36c0-.24-.17-.53-.38-.66-.21-.12-.38-.02-.38.22s.17.53.38.65c.21.13.38.04.38-.21z"/>
  <path fill="#f80" d="m14.88 10 .54.31v8.55l6.93 4v.64l-7.47-4.31z"/>
  <path fill="#0d0d0d" d="m15.42 10.31 6.93 4v8.55l-6.93-4z"/>
  <path fill="#75c425" d="m15.94 11.74 5.46 3.15v.43l-5.46-3.15zm0 1.18 5.46 3.15v.43l-5.46-3.15zm0 1.06 5.46 3.16v.43l-5.46-3.16zm0 2.26 2.73 1.57v.43l-2.73-1.57zm0 1 4.39 2.52v.43l-4.39-2.52z"/>
  <path fill="#1c4b94" d="m25.82 15.68 3.26 1.89v1.6l-.46.28-3.27-3.49z"/>
  <path fill="#2565c4" d="M28.62 17.85v1.6l-3.27-1.89v-1.6z"/>
  <path fill="#a62626" d="m25.82 18.31 3.26 1.89v1.6l-.46.28-3.27-3.49z"/>
  <path fill="#d63a3a" d="M28.62 20.47v1.61l-3.27-1.89v-1.6z"/>
  <path fill="#61a31f" d="m25.82 20.94 3.26 1.88v1.61l-.46.27-3.27-3.49z"/>
  <path fill="#75c425" d="M28.62 23.1v1.6l-3.27-1.89v-1.6z"/>
  <path d="M24.15 23.71c.07.12.17.22.25.27.1.05.14.04.14-.03s-.06-.13-.15-.23l-.13-.14c-.11-.11-.21-.27-.21-.44 0-.2.15-.27.37-.14.12.07.24.19.33.35l-.12.1a.742.742 0 0 0-.21-.22c-.08-.05-.13-.04-.13.03s.07.14.16.23l.13.14c.12.13.2.27.2.44 0 .2-.14.29-.39.14-.13-.08-.28-.22-.38-.39zm.98-.06-.28-.16v-.22l.8.46v.23l-.28-.16v.96l-.23-.13v-.98zm1.09 1.3-.31-.18-.06.25-.24-.14.32-1 .28.16.32 1.37-.25-.14zm-.05-.23-.02-.12a5.47 5.47 0 0 1-.08-.43h-.01c-.02.11-.05.23-.08.33l-.02.09zm1.02 1.08-.2-.54-.13-.07v.43l-.23-.13v-1.18l.37.21c.22.13.39.32.39.6 0 .17-.07.24-.18.24l.23.61zm-.32-.83.12.07c.12.07.19.05.19-.07 0-.12-.07-.19-.19-.26l-.12-.07zm.91.21-.28-.16v-.23l.8.46v.22l-.28-.16v.96l-.23-.13v-.96zm-12.84-4.15v1.5l1.3.74v-1.49zm0 1.98v1.49l1.3.75v-1.49z" fill="#d63a3a"/>
  <path fill="#75c425" d="M14.94 24.99v1.49l1.3.75v-1.49z"/>
  <path fill="#d63a3a" d="M16.66 22.02v1.5l1.29.74v-1.49z"/>
  <path fill="#2565c4" d="M16.66 24v1.49l1.29.75v-1.49z"/>
  <path fill="#75c425" d="M16.66 25.98v1.49l1.29.75v-1.49z"/>
  <path fill="#2565c4" d="m19.66 23.76-1.29-.75v1.49l1.29.75z"/>
  <path fill="#d63a3a" d="M18.37 24.99v1.49l1.29.75v-1.49zm0 1.98v1.49l1.29.75v-1.49z"/>
  <path opacity=".3" d="M26.38 9.64c1.06.61 2.78.61 3.84 0s1.06-1.6 0-2.21c-1.06-.61-2.78-.61-3.84 0s-1.06 1.6 0 2.21z"/>
  <path fill="#0d0d0d" d="M30.67 7.13v1.21h-.01c0 .35-.23.7-.69.96-.92.53-2.42.53-3.34 0-.46-.27-.69-.62-.69-.96V7.13z"/>
  <path fill="#232323" d="M26.63 8.09c.92.53 2.42.53 3.34 0 .92-.53.92-1.4 0-1.93s-2.42-.53-3.34 0c-.92.54-.92 1.4 0 1.93z"/>
  <path fill="#a62626" d="M28.3 8.19c-.53 0-1.03-.12-1.41-.34-.43-.25-.66-.59-.66-.97V4.12c0-1.14.93-2.07 2.07-2.07 1.14 0 2.07.93 2.07 2.07v2.76c0 .38-.23.72-.66.97-.38.22-.88.34-1.41.34zm0-5.61c-.85 0-1.55.69-1.55 1.55v2.76c0 .18.15.37.4.51.3.17.72.27 1.15.27.43 0 .85-.1 1.15-.27.25-.15.4-.33.4-.51V4.13c0-.86-.7-1.55-1.55-1.55z"/>
  <path fill="#d63a3a" d="M28.3 2.58c-.85 0-1.55.69-1.55 1.55v2.76c0 .18.15.37.4.51.3.17.72.27 1.15.27.43 0 .85-.1 1.15-.27.25-.15.4-.33.4-.51V4.13c0-.86-.7-1.55-1.55-1.55z"/>
  <path fill="#f5b400" d="M28.88 5.31c0 .66-.26 1.2-.58 1.2-.32 0-.58-.54-.58-1.2 0-.66.26-1.2.58-1.2.32 0 .58.53.58 1.2z"/>
  <path fill="#5c5c5c" d="m22.69 32.28 5.92 3.42-2.5 1.44v10.47l-5.92-3.42V33.72z"/>
  <path fill="#363636" d="M28.61 35.7v10.47l-2.5 1.44V37.14z"/>
  <path fill="#f5b400" d="m25.54 41.96-4.73-2.73 2.36-2.66z"/>
  <path d="m23.13 36.85 2.08 4.75-4.16-2.4zm.04-.28-2.36 2.66 4.73 2.73z"/>
  <path d="m23.25 38.05-.45-.38-.14.97.58.49-.5.86.84-.88-.61-.49z"/>
  <path fill="#f80" d="M4.86 65.7 49.37 40l1.89 3.41-.01 19.38-48.3 27.89.01-19.39z"/>
  <path fill="orange" d="m3.85 65.11 1.01.59-1.9 5.59-1.01-.58z"/>
  <path fill="#ffb833" d="m3.85 65.11 44.51-25.69 1.01.58L4.86 65.7z"/>
  <path fill="orange" d="m1.95 70.71 12.29 7.09-.01 19.39L1.94 90.1zm10.14-5.37v.57l5.09-2.94v-3.18l-.39.22v2.61z"/>
  <path fill="#eb7600" d="M12.09 62.73v2.61l4.7-2.72v-2.61z"/>
  <path fill="orange" d="m4.97 70.02 5.97-3.45v-3.18l-.39.23v2.6l-5.3 3.06z"/>
  <path fill="#eb7600" d="m5.25 69.28 5.3-3.06v-2.6l-4.02 2.32z"/>
  <path fill="orange" d="M43.33 47.3v.57l5.96-3.44-1.56-2.28-.11.06 1.28 1.87z"/>
  <path fill="#eb7600" d="M43.33 44.69v2.61l5.57-3.22-1.28-1.87z"/>
  <path fill="orange" d="M18.33 61.73v.58l5.09-2.94v-3.19l-.38.23v2.61z"/>
  <path fill="#eb7600" d="M18.33 59.13v2.6l4.71-2.71v-2.61z"/>
  <path fill="orange" d="M24.57 58.13v.58l5.09-2.95v-3.18l-.38.23v2.6z"/>
  <path fill="#eb7600" d="M24.57 55.52v2.61l4.71-2.72v-2.6z"/>
  <path fill="orange" d="M30.81 54.53v.57l5.09-2.94v-3.18l-.38.22v2.61z"/>
  <path fill="#eb7600" d="M30.81 51.92v2.61l4.71-2.72V49.2z"/>
  <path fill="orange" d="M37.05 50.92v.58l5.09-2.94v-3.19l-.38.23v2.61z"/>
  <path fill="#eb7600" d="M37.05 48.32v2.6l4.71-2.71V45.6z"/>
  <path fill="#5c5c5c" d="m54.4 40.69-.06-.03c-.25-.13-.59-.1-.97.12l-17.26 9.97-34.7 20.02c-.05.03-.1.06-.14.09-.71.5-1.27 1.52-1.27 2.36v.13c0 .45.16.76.41.91 0 0 .01 0 .01.01l8.51 4.91 53.91-33.62z"/>
  <path fill="#212121" d="M62.96 46.64v.13c0 .72-.51 1.6-1.13 1.96l-51.96 30c-.36.21-.69.2-.9.01.16.01.34-.04.54-.15l51.96-30c.62-.36 1.13-1.24 1.13-1.96v-.13c0-.3-.09-.52-.23-.66.35.01.59.31.59.8z"/>
  <path fill="#878787" d="M62.6 46.49v.13c0 .72-.51 1.6-1.13 1.96l-51.96 30c-.19.11-.38.16-.54.15-.15-.14-.24-.36-.24-.66v-.13c0-.72.51-1.6 1.13-1.96l51.96-30c.19-.11.38-.16.54-.16.15.15.24.37.24.67z"/>
  <path fill="#363636" d="M61.83 45.99c.62-.36 1.13-.07 1.13.65v.13c0 .72-.51 1.6-1.13 1.96l-51.96 30c-.62.36-1.13.07-1.13-.65v-.13c0-.72.51-1.6 1.13-1.96zm0-.33-51.96 30c-.78.45-1.42 1.55-1.42 2.45v.13c0 .9.64 1.27 1.42.82l51.96-30c.78-.45 1.42-1.55 1.42-2.45v-.13c-.01-.91-.64-1.27-1.42-.82zm-26.6 5.59.56-.33 8.46 4.89-.56.32z"/>
  <path fill="#363636" d="m32.96 52.56.56-.33 8.46 4.89-.55.32zm-2.26 1.3.56-.32 8.46 4.88-.56.33zm-2.27 1.31.56-.32 8.47 4.88-.56.32zm-2.26 1.31.56-.33 8.46 4.89-.56.32zm-2.26 1.31.56-.33 8.46 4.89-.56.32zm-2.27 1.3.56-.32 8.46 4.88-.56.33zm-2.26 1.31.56-.32 8.46 4.88-.56.32zm-2.27 1.31.56-.33 8.46 4.89-.56.32zM51.08 42.1l.56-.33 8.46 4.89-.56.32zm-2.26 1.3.56-.32 8.46 4.88-.56.33zm-2.27 1.31.56-.32 8.46 4.88-.56.33zm-2.26 1.31.56-.33 8.46 4.89-.56.32zm-2.27 1.31.56-.33 8.46 4.89-.56.32zm-2.26 1.3.56-.32 8.46 4.88-.56.33zm-2.27 1.31.56-.32 8.46 4.88-.56.32zM14.85 63.02l.56-.33 8.46 4.89-.56.32zm-2.27 1.3.56-.32 8.46 4.88-.56.33zm-2.26 1.31.56-.32 8.46 4.88-.56.33zm-2.27 1.31.56-.33 8.46 4.89-.56.32zm-2.26 1.3.56-.32 8.46 4.89-.56.32zm-2.27 1.31.56-.32 8.46 4.88-.56.33zm-2.25 1.31.55-.32 8.46 4.88-.56.32z"/>
  <path fill="#a6a6a6" d="m13.07 75.07-.33-.17c-.14-.06-.32-.04-.51.07-.43.25-.78.85-.78 1.35 0 .26.1.44.26.52l.23.11.05-.08c.08-.02.16-.05.25-.1.43-.25.78-.85.78-1.35 0-.07-.01-.14-.02-.2z"/>
  <path fill="#5c5c5c" d="M13.26 75.55c0 .5-.35 1.1-.78 1.35-.43.25-.78.05-.78-.45s.35-1.1.78-1.35c.43-.25.78-.05.78.45z"/>
  <path fill="#a6a6a6" d="M12.87 75.77c0 .25-.17.55-.39.67-.15.08-.28.06-.34-.04.05 0 .1-.02.16-.05.22-.12.39-.43.39-.67 0-.08-.02-.14-.05-.19.14 0 .23.1.23.28z"/>
  <path fill="#4a4a4a" d="M12.69 75.68c0 .25-.17.55-.39.67-.06.03-.11.05-.16.05a.356.356 0 0 1-.05-.19c0-.25.17-.55.39-.67.06-.03.11-.05.16-.05.03.05.05.12.05.19z"/>
  <path fill="#a6a6a6" d="m17.6 72.46-.33-.17c-.14-.06-.32-.04-.51.07-.43.25-.78.85-.78 1.35 0 .26.1.44.25.52l.23.11.05-.08c.08-.02.16-.05.25-.1.43-.25.78-.85.78-1.35 0-.07-.01-.14-.02-.2z"/>
  <path fill="#5c5c5c" d="M17.79 72.93c0 .5-.35 1.1-.78 1.35-.43.25-.78.05-.78-.45 0-.49.35-1.1.78-1.35.43-.24.78-.04.78.45z"/>
  <path fill="#a6a6a6" d="M17.4 73.16c0 .25-.17.55-.39.67-.15.08-.28.06-.34-.04.05 0 .1-.02.16-.05.21-.12.39-.42.39-.67 0-.08-.02-.14-.05-.19.14-.01.23.1.23.28z"/>
  <path fill="#4a4a4a" d="M17.22 73.07c0 .25-.17.55-.39.67-.06.03-.11.05-.16.05a.356.356 0 0 1-.05-.19c0-.25.18-.55.39-.67.06-.03.11-.05.16-.05.03.05.05.11.05.19z"/>
  <path fill="#a6a6a6" d="m21.56 70.17-.33-.17c-.14-.06-.32-.04-.51.07-.43.25-.78.85-.78 1.35 0 .26.1.44.26.52l.23.11.05-.08c.08-.01.16-.05.25-.09.43-.25.78-.85.78-1.35 0-.07-.01-.14-.02-.2z"/>
  <path fill="#5c5c5c" d="M21.75 70.65c0 .5-.35 1.1-.78 1.35-.43.25-.78.05-.78-.45s.35-1.1.78-1.35c.43-.25.78-.05.78.45z"/>
  <path fill="#a6a6a6" d="M21.36 70.87c0 .25-.17.55-.39.67-.15.08-.28.06-.34-.04.05 0 .1-.02.16-.05.22-.12.39-.42.39-.67 0-.08-.02-.14-.05-.19.14 0 .23.1.23.28z"/>
  <path fill="#4a4a4a" d="M21.18 70.78c0 .25-.17.55-.39.67-.06.03-.11.05-.16.05a.356.356 0 0 1-.05-.19c0-.25.17-.55.39-.67.06-.03.11-.05.16-.05.04.05.05.11.05.19z"/>
  <path fill="#a6a6a6" d="m25.53 67.88-.33-.17c-.14-.06-.32-.04-.51.07-.43.25-.78.85-.78 1.35 0 .26.1.44.25.52l.23.11.05-.08c.08-.01.16-.05.25-.09.43-.25.78-.85.78-1.35 0-.07-.01-.14-.02-.2z"/>
  <path fill="#5c5c5c" d="M25.71 68.36c0 .5-.35 1.1-.78 1.35-.43.25-.78.05-.78-.45s.35-1.1.78-1.35c.44-.25.78-.05.78.45z"/>
  <path fill="#a6a6a6" d="M25.32 68.58c0 .25-.17.55-.39.67-.15.09-.28.06-.34-.04.05 0 .1-.02.16-.05.21-.12.39-.43.39-.67 0-.08-.02-.14-.05-.19.14 0 .23.1.23.28z"/>
  <path fill="#4a4a4a" d="M25.15 68.49c0 .25-.17.55-.39.67-.06.03-.11.05-.16.05a.356.356 0 0 1-.05-.19c0-.25.17-.55.39-.67.06-.03.11-.05.16-.05.03.05.05.12.05.19z"/>
  <path fill="#a6a6a6" d="m29.49 65.59-.33-.17c-.14-.06-.32-.04-.51.07-.43.25-.78.85-.78 1.35 0 .26.1.44.26.52l.23.11.05-.08a.57.57 0 0 0 .25-.1c.43-.25.78-.85.78-1.35 0-.07-.01-.14-.02-.2z"/>
  <path fill="#5c5c5c" d="M29.68 66.07c0 .5-.35 1.1-.78 1.35-.43.25-.78.05-.78-.45s.35-1.1.78-1.35c.43-.25.78-.05.78.45z"/>
  <path fill="#a6a6a6" d="M29.29 66.29c0 .25-.17.55-.39.67-.15.08-.28.06-.34-.04.05 0 .11-.02.16-.05.22-.12.39-.43.39-.67 0-.08-.02-.14-.05-.19.14 0 .23.1.23.28z"/>
  <path fill="#4a4a4a" d="M29.11 66.21c0 .25-.17.55-.39.67-.06.03-.11.05-.16.05a.356.356 0 0 1-.05-.19c0-.25.17-.55.39-.68.06-.03.11-.05.16-.05.03.05.05.12.05.2z"/>
  <path fill="#a6a6a6" d="m33.45 63.31-.33-.17c-.14-.06-.32-.04-.51.07-.43.25-.78.85-.78 1.35 0 .26.1.44.26.52l.23.11.05-.08c.08-.01.16-.05.25-.09.43-.25.78-.85.78-1.35 0-.08-.01-.14-.02-.2z"/>
  <path fill="#5c5c5c" d="M33.64 63.78c0 .5-.35 1.1-.78 1.35-.43.25-.78.04-.78-.45 0-.5.35-1.1.78-1.35.43-.25.78-.05.78.45z"/>
  <path fill="#a6a6a6" d="M33.25 64.01c0 .25-.17.55-.39.68-.15.08-.28.06-.34-.04.05 0 .1-.02.16-.05.21-.12.39-.43.39-.67 0-.08-.02-.14-.05-.19.14-.02.23.09.23.27z"/>
  <path fill="#4a4a4a" d="M33.07 63.92c0 .25-.18.55-.39.67-.06.03-.11.05-.16.05a.356.356 0 0 1-.05-.19c0-.25.17-.55.39-.68.06-.03.11-.05.16-.05.03.06.05.12.05.2z"/>
  <path fill="#a6a6a6" d="m37.42 61.02-.33-.17c-.14-.06-.32-.04-.51.07-.43.25-.78.85-.78 1.35 0 .26.1.44.26.52l.23.11.05-.08c.08-.01.16-.05.25-.1.43-.25.78-.85.78-1.35 0-.07-.01-.14-.02-.2z"/>
  <path fill="#5c5c5c" d="M37.61 61.49c0 .5-.35 1.1-.78 1.35-.43.25-.78.05-.78-.45s.35-1.1.78-1.35c.43-.25.78-.04.78.45z"/>
  <path fill="#a6a6a6" d="M37.22 61.72c0 .25-.17.55-.39.67-.15.08-.28.06-.34-.04.05 0 .1-.02.16-.05.22-.12.39-.42.39-.67 0-.08-.02-.14-.05-.19.13-.01.23.1.23.28z"/>
  <path fill="#4a4a4a" d="M37.04 61.63c0 .25-.17.55-.39.67-.06.03-.11.05-.16.05a.356.356 0 0 1-.05-.19c0-.25.17-.55.39-.67.06-.03.11-.05.16-.05.03.05.05.11.05.19z"/>
  <path fill="#a6a6a6" d="m41.38 58.73-.33-.17c-.14-.06-.32-.04-.51.07-.43.25-.78.85-.78 1.35 0 .26.1.44.26.52l.23.11.05-.08a.57.57 0 0 0 .25-.1c.43-.25.78-.85.78-1.35 0-.07-.01-.14-.02-.2z"/>
  <path fill="#5c5c5c" d="M41.57 59.2c0 .5-.35 1.1-.78 1.35-.43.25-.78.05-.78-.45s.35-1.1.78-1.35c.43-.24.78-.04.78.45z"/>
  <path fill="#a6a6a6" d="M41.18 59.43c0 .25-.17.55-.39.67-.15.08-.28.06-.34-.04.05 0 .11-.02.16-.05.22-.12.39-.42.39-.67 0-.08-.02-.14-.05-.19.14 0 .23.1.23.28z"/>
  <path fill="#4a4a4a" d="M41 59.34c0 .25-.17.55-.39.67-.06.03-.11.05-.16.05a.356.356 0 0 1-.05-.19c0-.25.17-.55.39-.67.06-.03.11-.05.16-.05.03.05.05.11.05.19z"/>
  <path fill="#a6a6a6" d="m45.34 56.44-.33-.17c-.14-.06-.32-.04-.51.07-.43.25-.78.85-.78 1.35 0 .26.1.44.26.52l.23.11.05-.08c.08-.01.16-.05.25-.09.43-.25.78-.85.78-1.35 0-.07-.01-.14-.02-.2z"/>
  <path fill="#5c5c5c" d="M45.53 56.92c0 .5-.35 1.1-.78 1.35-.43.25-.78.05-.78-.45s.35-1.1.78-1.35c.43-.25.78-.05.78.45z"/>
  <path fill="#a6a6a6" d="M45.14 57.14c0 .25-.17.55-.39.67-.15.08-.28.06-.34-.04.05 0 .1-.02.16-.05.21-.12.39-.42.39-.67 0-.08-.02-.14-.05-.19.14 0 .23.1.23.28z"/>
  <path fill="#4a4a4a" d="M44.96 57.05c0 .25-.17.55-.39.67-.06.03-.11.05-.16.05a.356.356 0 0 1-.05-.19c0-.25.18-.55.39-.67.06-.03.11-.05.16-.05.04.05.05.11.05.19z"/>
  <path fill="#a6a6a6" d="m49.31 54.15-.33-.17c-.14-.06-.32-.04-.51.07-.43.25-.78.85-.78 1.35 0 .26.1.44.26.52l.23.11.05-.08c.08-.02.16-.05.25-.1.43-.25.78-.85.78-1.35 0-.08-.01-.14-.02-.2z"/>
  <path fill="#5c5c5c" d="M49.5 54.63c0 .5-.35 1.1-.78 1.35-.43.25-.78.05-.78-.45s.35-1.1.78-1.35c.43-.25.78-.05.78.45z"/>
  <path fill="#a6a6a6" d="M49.11 54.85c0 .25-.17.55-.39.67-.15.08-.28.06-.34-.04.05 0 .1-.02.16-.05.22-.12.39-.43.39-.67 0-.08-.02-.14-.05-.19.14 0 .23.1.23.28z"/>
  <path fill="#4a4a4a" d="M48.93 54.76c0 .25-.17.55-.39.67-.06.03-.11.05-.16.05a.356.356 0 0 1-.05-.19c0-.25.17-.55.39-.67a.27.27 0 0 1 .16-.05c.03.05.05.11.05.19z"/>
  <path fill="#a6a6a6" d="m53.27 51.86-.33-.17c-.14-.06-.32-.04-.51.07-.43.25-.78.85-.78 1.35 0 .26.1.44.26.52l.23.11.05-.08a.69.69 0 0 0 .25-.09c.43-.25.78-.85.78-1.35 0-.07-.01-.14-.02-.2z"/>
  <path fill="#5c5c5c" d="M53.46 52.34c0 .5-.35 1.1-.78 1.35-.43.25-.78.05-.78-.45s.35-1.1.78-1.35c.43-.25.78-.05.78.45z"/>
  <path fill="#a6a6a6" d="M53.07 52.56c0 .25-.17.55-.39.67-.15.08-.28.06-.34-.04.05 0 .1-.02.16-.05.22-.12.39-.42.39-.67 0-.08-.02-.14-.05-.19.14 0 .23.1.23.28z"/>
  <path fill="#4a4a4a" d="M52.89 52.47c0 .25-.17.55-.39.67-.06.03-.11.05-.16.05a.356.356 0 0 1-.05-.19c0-.25.17-.55.39-.67.06-.03.11-.05.16-.05.04.05.05.12.05.19z"/>
  <path fill="#a6a6a6" d="m57.24 49.57-.33-.17c-.14-.06-.32-.04-.51.07-.43.25-.78.85-.78 1.35 0 .26.1.44.26.52l.23.11.05-.08c.08-.01.16-.05.25-.09.43-.25.78-.85.78-1.35 0-.07-.01-.14-.02-.2z"/>
  <path fill="#5c5c5c" d="M57.43 50.05c0 .5-.35 1.1-.78 1.35-.43.25-.78.05-.78-.45s.35-1.1.78-1.35c.43-.25.78-.05.78.45z"/>
  <path fill="#a6a6a6" d="M57.04 50.28c0 .25-.17.55-.39.67-.15.08-.28.06-.34-.04.05 0 .1-.02.16-.05.21-.12.39-.42.39-.67 0-.08-.02-.14-.05-.19.13-.01.23.09.23.28z"/>
  <path fill="#4a4a4a" d="M56.86 50.19c0 .25-.17.55-.39.67a.27.27 0 0 1-.16.05.356.356 0 0 1-.05-.19c0-.25.18-.55.39-.67a.27.27 0 0 1 .16-.05c.03.04.05.11.05.19z"/>
  <path fill="#a6a6a6" d="m61.2 47.29-.33-.17c-.14-.06-.32-.04-.51.07-.43.25-.78.85-.78 1.35 0 .26.1.44.26.52l.23.11.05-.08c.08-.01.16-.05.25-.09.43-.25.78-.85.78-1.35 0-.07-.01-.14-.02-.2z"/>
  <path fill="#5c5c5c" d="M61.39 47.76c0 .5-.35 1.1-.78 1.35-.43.25-.78.05-.78-.45s.35-1.1.78-1.35c.43-.24.78-.04.78.45z"/>
  <path fill="#a6a6a6" d="M61 47.99c0 .25-.17.55-.39.67-.15.08-.28.06-.34-.04.05 0 .1-.02.16-.05.21-.12.39-.42.39-.67 0-.08-.02-.14-.05-.19.14-.01.23.1.23.28z"/>
  <path fill="#4a4a4a" d="M60.82 47.9c0 .25-.17.55-.39.67-.06.03-.11.05-.16.05a.356.356 0 0 1-.05-.19c0-.25.18-.55.39-.67.06-.03.11-.05.16-.05.03.05.05.11.05.19z"/>
  <path fill="#f80" d="m16.13 72.21 44.51-25.7 1.9 3.41V69.3L14.23 97.19l.01-19.39z"/>
  <path fill="orange" d="m28.18 69.22-4.7 2.72v.57l5.1-2.94v-3.18l-.4.22z"/>
  <path fill="#eb7600" d="m23.48 71.94 4.7-2.72v-2.61l-4.7 2.72z"/>
  <path fill="orange" d="m16.64 75.88-.28.74 5.97-3.45v-3.18l-.39.23v2.6z"/>
  <path fill="#eb7600" d="M21.94 72.82v-2.6l-4.02 2.32-1.28 3.34z"/>
  <path fill="orange" d="m60.29 50.68-5.57 3.22v.57l5.96-3.44-1.56-2.28-.11.06z"/>
  <path fill="#eb7600" d="m54.72 53.9 5.57-3.22-1.28-1.87-4.29 2.48z"/>
  <path fill="orange" d="m34.43 65.62-4.71 2.71v.58l5.1-2.94v-3.19l-.39.23z"/>
  <path fill="#eb7600" d="m29.72 68.33 4.71-2.71v-2.61l-4.71 2.72z"/>
  <path fill="orange" d="m40.67 62.02-4.71 2.71v.58l5.1-2.95v-3.18l-.39.23z"/>
  <path fill="#eb7600" d="m35.96 64.73 4.71-2.71v-2.61l-4.71 2.71z"/>
  <path fill="orange" d="m46.91 58.41-4.71 2.72v.57l5.1-2.94v-3.18l-.39.22z"/>
  <path fill="#eb7600" d="m42.2 61.13 4.71-2.72V55.8l-4.71 2.72z"/>
  <path fill="orange" d="m53.15 54.81-4.71 2.71v.58l5.1-2.94v-3.19l-.39.23z"/>
  <path fill="#eb7600" d="m48.44 57.52 4.71-2.71V52.2l-4.71 2.72z"/>
  <path fill="orange" d="m15.12 71.62 1.01.59-1.89 5.59-1.01-.58z"/>
  <path fill="#ffb833" d="m15.12 71.62 44.51-25.69 1.01.58-44.51 25.7z"/>
  <path fill="#f80" d="M41.07 24.06v8.03l11.03-6.37v-8.03l-9.12-5.26z"/>
  <path fill="orange" d="m31.95 37.82 9.12-5.73v-8.03l11.03-6.37-9.12-5.26-11.03 6.37z"/>
  <path fill="#ff9800" d="M41.81 14.74v6.58l-5.69-3.29v-6.57l6.36-3.68 5.69 3.29z"/>
  <path fill="#cf7c00" d="M41.81 21.32v-6.58l6.36-3.67v6.57z"/>
  <path fill="#363636" d="M45.25 9.11v1.83c0 .46-.31.92-.91 1.27-1.22.7-3.19.7-4.41 0-.61-.35-.91-.81-.91-1.27V9.11z"/>
  <path fill="#5c5c5c" d="M39.93 10.38c1.22.7 3.19.7 4.41 0 1.22-.7 1.22-1.84 0-2.54s-3.19-.7-4.41 0c-1.21.7-1.21 1.83 0 2.54z"/>
  <path fill="#363636" d="M44.91 2.91v6.03c0 .41-.27.82-.81 1.13-1.08.62-2.84.62-3.92 0-.54-.31-.81-.72-.81-1.13V2.91z"/>
  <path fill="#5c5c5c" d="M40.18 4.04c1.08.62 2.84.62 3.92 0s1.08-1.64 0-2.26c-1.08-.62-2.84-.62-3.92 0-1.09.63-1.09 1.64 0 2.26z"/>
  <path fill="#f5b400" d="m55.77 8.13-12.48 7.2-1.47-2.53L54.3 5.59z"/>
  <path fill="#232323" d="m52.72 9.89-1.52.88-.37-3.18 1.52-.88zm-3.08 1.78-1.52.88-.37-3.18 1.52-.88zm-3.08 1.78-1.52.87-.36-3.17 1.52-.88z"/>
  <path fill="#363636" d="M43.99 13.79c0 .31-.22.44-.49.28-.27-.16-.49-.53-.49-.85 0-.31.22-.44.49-.28.28.16.49.54.49.85zm10.49-6.05c0 .31-.22.44-.49.28-.27-.16-.49-.53-.49-.85 0-.31.22-.44.49-.28.27.16.49.54.49.85z"/>
  <path fill="#d49c00" d="m54.308 5.587 1.143-.66 1.466 2.537-1.143.66z"/>
  <path fill="#363636" d="M52.91 36.01v3.78c0 .11-.07.21-.21.3-.28.16-.74.16-1.02 0-.14-.08-.21-.19-.21-.3v-3.78z"/>
  <path fill="#5c5c5c" d="M51.68 36.3c.28.16.74.16 1.02 0s.28-.43 0-.59c-.28-.16-.74-.16-1.02 0-.29.16-.29.43 0 .59z"/>
  <path fill="#d49c00" d="M54.31 35.3v.61h-.01c0 .31-.21.63-.62.87-.83.48-2.17.48-3 0-.41-.24-.62-.55-.62-.87v-.61z"/>
  <path fill="#f5b400" d="M50.68 36.17c.83.48 2.17.48 3 0 .83-.48.83-1.25 0-1.73s-2.17-.48-3 0c-.82.48-.82 1.25 0 1.73z"/>
  <path fill="#363636" d="M53.73 30.49v4.68h-.01c0 .23-.15.46-.45.63-.6.35-1.57.35-2.17 0-.3-.17-.45-.4-.45-.63v-4.68z"/>
  <path fill="#5c5c5c" d="M51.1 31.11c.6.35 1.57.35 2.17 0 .6-.35.6-.91 0-1.25-.6-.35-1.57-.35-2.17 0-.6.34-.6.91 0 1.25z"/>
  <path fill="#d49c00" d="M55.47 30.27v.95h-.02c0 .48-.32.96-.96 1.33-1.28.74-3.35.74-4.62 0-.64-.37-.96-.85-.96-1.33v-.95z"/>
  <path fill="#f5b400" d="M49.87 31.61c1.28.74 3.35.74 4.62 0 1.28-.74 1.28-1.93 0-2.67s-3.35-.74-4.62 0c-1.28.73-1.28 1.93 0 2.67z"/>
  <path fill="#363636" d="M54.65 24.69v5.34h-.01c0 .36-.24.73-.72 1-.96.55-2.51.55-3.47 0-.48-.28-.72-.64-.72-1v-5.34z"/>
  <path fill="#5c5c5c" d="M50.45 25.69c.96.55 2.51.55 3.47 0 .96-.55.96-1.45 0-2s-2.51-.55-3.47 0c-.96.55-.96 1.45 0 2z"/>
  <path fill="#d49c00" d="M56.33 23.02v1.2h-.02c0 .61-.4 1.22-1.21 1.69-1.61.93-4.23.93-5.85 0-.81-.47-1.21-1.08-1.21-1.69v-1.2z"/>
  <path fill="#f5b400" d="M49.25 24.7c1.61.93 4.23.93 5.85 0 1.61-.93 1.61-2.44 0-3.38-1.61-.93-4.23-.93-5.85 0-1.61.94-1.61 2.45 0 3.38z"/>
  <path fill="#d49c00" d="M55.4 15.72v6.98h-.02c0 .47-.31.95-.94 1.31-1.25.72-3.28.72-4.54 0-.63-.36-.94-.83-.94-1.31v-6.98z"/>
  <path fill="#f5b400" d="M49.91 17.03c1.25.72 3.28.72 4.54 0 1.25-.72 1.25-1.9 0-2.62-1.25-.72-3.28-.72-4.54 0-1.25.73-1.25 1.9 0 2.62z"/>
  <path fill="#d49c00" d="M54.9 14.78v.79h-.01c0 .4-.26.8-.79 1.1-1.06.61-2.77.61-3.83 0-.53-.31-.79-.71-.79-1.1v-.78z"/>
  <path fill="#f5b400" d="M50.27 15.89c1.06.61 2.77.61 3.83 0s1.06-1.6 0-2.21c-1.06-.61-2.77-.61-3.83 0s-1.06 1.6 0 2.21z"/>
  <path fill="#363636" d="M53.71 10.27v4.42c0 .22-.15.45-.45.62-.59.34-1.56.34-2.15 0-.3-.17-.45-.4-.45-.62v-4.42z"/>
  <path fill="#5c5c5c" d="M51.11 10.89c.59.34 1.56.34 2.15 0 .59-.34.59-.9 0-1.24-.59-.34-1.56-.34-2.15 0-.6.34-.59.9 0 1.24z"/>
  <path fill="#d49c00" d="M55.47 10.18v.95h-.02c0 .48-.32.96-.96 1.33-1.28.74-3.35.74-4.62 0-.64-.37-.96-.85-.96-1.33v-.95z"/>
  <path fill="#f5b400" d="M49.87 11.52c1.28.74 3.35.74 4.62 0 1.28-.74 1.28-1.93 0-2.67s-3.35-.74-4.62 0c-1.28.74-1.28 1.93 0 2.67z"/>
  <path fill="orange" d="m51.9 13.08-3.82-2.21V6.46l4.27-2.47 3.82 2.21-4.27 2.47z"/>
  <path fill="#f80" d="m56.17 10.61-4.27 2.47V8.67l4.27-2.47z"/>
  <path fill="#f5b400" d="m37.43 15.317 12.479-7.205 1.465 2.537-12.48 7.205z"/>
  <path fill="#232323" d="m48.34 12.42-1.52.88-.37-3.18 1.52-.88zm-3.08 1.78-1.52.87-.36-3.17 1.52-.88zm-3.08 1.77-1.52.88-.36-3.18 1.52-.87z"/>
  <path fill="#363636" d="M39.62 16.32c0 .31-.22.44-.49.28-.27-.16-.49-.53-.49-.85 0-.31.22-.44.49-.28.27.16.49.54.49.85zm10.48-6.05c0 .31-.22.44-.49.28-.27-.16-.49-.53-.49-.85 0-.31.22-.44.49-.28.27.16.49.54.49.85z"/>
  <path fill="#d49c00" d="m49.925 8.107 1.143-.66 1.466 2.537-1.143.66z"/>
</svg>
