<?xml version="1.0" encoding="UTF-8" standalone="no"?>
<!-- Generator: Adobe Illustrator 25.4.1, SVG Export Plug-In . SVG Version: 6.00 Build 0)  -->

<svg
   version="1.1"
   id="Layer_1"
   x="0px"
   y="0px"
   viewBox="0 0 40.580 79.180"
   sodipodi:docname="machine-3.svg"
   inkscape:version="1.1 (c68e22c387, 2021-05-23)"
   xmlns:inkscape="http://www.inkscape.org/namespaces/inkscape"
   xmlns:sodipodi="http://sodipodi.sourceforge.net/DTD/sodipodi-0.dtd"
   xmlns="http://www.w3.org/2000/svg"
   xmlns:svg="http://www.w3.org/2000/svg">
  <defs
     id="defs4689" />
  <sodipodi:namedview
     id="namedview4687"
     pagecolor="#ffffff"
     bordercolor="#999999"
     borderopacity="1"
     inkscape:pageshadow="0"
     inkscape:pageopacity="0"
     inkscape:pagecheckerboard="0"
     showgrid="false"
     inkscape:zoom="9.4342006"
     inkscape:cx="20.298487"
     inkscape:cy="39.59"
     inkscape:window-width="1680"
     inkscape:window-height="997"
     inkscape:window-x="-8"
     inkscape:window-y="-8"
     inkscape:window-maximized="1"
     inkscape:current-layer="g4682" />
  <g
     id="g4684">
    <g
       transform="translate(-175.47,-336.3)"
       id="g4682"
       inkscape:label="Layer2">
      <g
         id="g4572">
        <polygon
           fill="#a62626"
           points="216.05,391.03 216.05,400.12 207.43,405.1 203.5,394.34 207.49,386.09 "
           id="polygon4568" />
        <polygon
           fill="#d63a3a"
           points="207.43,395.88 207.43,405.1 198.87,400.16 198.87,390.94 207.49,386.09 216.05,391.03 "
           id="polygon4570" />
      </g>
      <g
         id="g4578">
        <polygon
           fill="#a62626"
           points="207.05,346.4 207.49,340.2 216.05,345.14 216.05,351.61 210.98,354.53 "
           id="polygon4574" />
        <polygon
           fill="#d63a3a"
           points="207.49,340.2 216.05,345.14 210.98,347.95 210.98,354.53 202.42,349.59 202.42,343.01 "
           id="polygon4576" />
      </g>
      <g
         id="g4592">
        <polygon
           fill="#808285"
           points="202.38,341.13 210.98,346.09 210.98,393.89 207.43,395.88 "
           id="polygon4580" />
        <polygon
           fill="#a7a9ac"
           points="210.98,346.09 207.43,348.14 207.43,395.88 198.84,390.92 198.84,343.17 202.38,341.13 "
           id="polygon4582" />
        <polygon
           fill="#6d6e71"
           points="200.84,346.56 200.84,387.81 201.85,388.4 201.85,389.22 200.12,388.22 200.12,346.14 "
           id="polygon4584" />
        <polygon
           fill="#808285"
           points="200.84,387.81 200.84,346.56 201.85,347.14 201.85,388.4 "
           id="polygon4586" />
        <polygon
           fill="#6d6e71"
           points="204.99,348.93 204.99,390.19 206.01,390.78 206.01,391.6 204.27,390.6 204.27,348.52 "
           id="polygon4588" />
        <polygon
           fill="#808285"
           points="204.99,390.19 204.99,348.93 206.01,349.52 206.01,390.78 "
           id="polygon4590" />
      </g>
      <g
         id="g4598">
        <polygon
           fill="#a62626"
           points="189.45,386.86 198.87,375.48 207.43,380.42 207.43,405.1 193.38,413.28 "
           id="polygon4594" />
        <polygon
           fill="#d63a3a"
           points="198.87,375.48 207.43,380.42 193.38,388.41 193.38,413.28 184.82,408.34 184.82,383.47 "
           id="polygon4596" />
      </g>
      <g
         id="g4606">
        <path
           fill="#808285"
           d="m 191.63,380.26 v 2.35 h 0.02 c 0,0.6 0.4,1.2 1.19,1.66 1.59,0.92 4.16,0.92 5.75,0 0.79,-0.46 1.19,-1.06 1.19,-1.66 v -2.35 z"
           id="path4600" />
        <path
           fill="#a7a9ac"
           d="m 198.59,381.92 c -1.59,0.92 -4.16,0.92 -5.75,0 -1.59,-0.92 -1.59,-2.4 0,-3.32 1.59,-0.92 4.16,-0.92 5.75,0 1.59,0.91 1.59,2.4 0,3.32 z"
           id="path4602" />
        <path
           fill="#808285"
           d="m 196.83,380.9 c -0.61,0.36 -1.61,0.36 -2.22,0 -0.61,-0.35 -0.61,-0.93 0,-1.29 0.61,-0.35 1.61,-0.35 2.23,0 0.6,0.36 0.6,0.93 -0.01,1.29 z"
           id="path4604" />
      </g>
      <g
         id="g4612">
        <polygon
           fill="#a62626"
           points="185.12,386.38 184.82,372.67 193.38,377.62 193.38,413.28 189.45,415.48 "
           id="polygon4608" />
        <polygon
           fill="#d63a3a"
           points="184.82,372.67 193.38,377.62 189.45,379.81 189.45,415.48 180.9,410.54 180.9,374.87 "
           id="polygon4610" />
      </g>
      <g
         id="g4636">
        <path
           fill="#d63a3a"
           d="m 177.37,385.91 c 0,0.53 -0.43,0.95 -0.95,0.95 -0.53,0 -0.95,-0.43 -0.95,-0.95 0,-0.53 0.43,-0.95 0.95,-0.95 0.53,0 0.95,0.42 0.95,0.95 z"
           id="path4614" />
        <path
           fill="#d1d3d4"
           d="m 183.31,382.47 -6.28,3.63 c 0,0 -0.35,0.19 -0.57,-0.16 -0.23,-0.36 0.14,-0.62 0.14,-0.62 l 6.28,-3.63 z"
           id="path4616" />
        <path
           fill="#d63a3a"
           d="m 176.93,372.38 c -0.24,0.47 -0.05,1.04 0.42,1.28 0.47,0.24 1.04,0.05 1.28,-0.42 0.24,-0.47 0.05,-1.04 -0.42,-1.28 -0.47,-0.24 -1.04,-0.05 -1.28,0.42 z"
           id="path4618" />
        <path
           fill="#d1d3d4"
           d="m 182.59,379.1 -4.01,-6.04 c 0,0 -0.23,-0.32 -0.58,-0.11 -0.36,0.22 -0.15,0.62 -0.15,0.62 l 4.01,6.04 z"
           id="path4620" />
        <path
           fill="#d1d3d4"
           d="m 185.16,384.66 3.83,5.81 c 0,0 0.23,0.32 0.58,0.11 0.36,-0.22 0.15,-0.62 0.15,-0.62 l -3.79,-5.75 z"
           id="path4622" />
        <path
           fill="#d63a3a"
           d="m 188.76,390.15 c -0.24,0.47 -0.05,1.04 0.42,1.28 0.47,0.24 1.04,0.05 1.28,-0.42 0.24,-0.47 0.05,-1.04 -0.42,-1.28 -0.47,-0.24 -1.04,-0.05 -1.28,0.42 z"
           id="path4624" />
        <path
           fill="#808285"
           d="m 181.54,379.11 1.65,-0.95 0.01,0.01 c 0.42,-0.24 1,-0.21 1.65,0.16 1.29,0.74 2.33,2.55 2.33,4.04 0,0.74 -0.26,1.27 -0.68,1.51 l -1.65,0.95 z"
           id="path4626" />
        <path
           fill="#a7a9ac"
           d="m 185.53,383.33 c 0,-1.49 -1.04,-3.3 -2.33,-4.04 -1.29,-0.74 -2.33,-0.14 -2.33,1.35 0,1.49 1.05,3.3 2.33,4.04 1.29,0.74 2.33,0.14 2.33,-1.35 z"
           id="path4628" />
        <path
           fill="#808285"
           d="m 184.1,382.51 c 0,-0.58 -0.4,-1.28 -0.9,-1.56 -0.5,-0.29 -0.9,-0.05 -0.9,0.52 0,0.58 0.4,1.28 0.9,1.56 0.5,0.29 0.9,0.05 0.9,-0.52 z"
           id="path4630" />
        <path
           fill="#d1d3d4"
           d="m 192.11,377.33 -6.28,3.63 c 0,0 -0.35,0.19 -0.57,-0.16 -0.23,-0.36 0.14,-0.62 0.14,-0.62 l 6.28,-3.63 z"
           id="path4632" />
        <path
           fill="#d63a3a"
           d="m 192.94,376.96 c 0,0.53 -0.43,0.95 -0.95,0.95 -0.53,0 -0.95,-0.43 -0.95,-0.95 0,-0.53 0.43,-0.95 0.95,-0.95 0.53,0 0.95,0.42 0.95,0.95 z"
           id="path4634" />
      </g>
      <g
         id="g4642">
        <path
           fill="#363636"
           d="m 197.05,365.5 v 4.79 h -0.01 c 0,0.2 -0.13,0.4 -0.4,0.56 -0.53,0.31 -1.39,0.31 -1.92,0 -0.27,-0.15 -0.4,-0.35 -0.4,-0.56 v -4.79 z"
           id="path4638" />
        <path
           fill="#5c5c5c"
           d="m 194.72,366.06 c 0.53,0.31 1.39,0.31 1.92,0 0.53,-0.31 0.53,-0.8 0,-1.11 -0.53,-0.31 -1.39,-0.31 -1.92,0 -0.53,0.3 -0.53,0.8 0,1.11 z"
           id="path4640" />
      </g>
      <g
         id="g4648">
        <path
           fill="#363636"
           d="m 198.31,359.59 v 5.7 h -0.01 c 0,0.39 -0.26,0.77 -0.77,1.07 -1.02,0.59 -2.68,0.59 -3.7,0 -0.51,-0.3 -0.77,-0.68 -0.77,-1.07 v -5.7 z"
           id="path4644" />
        <path
           fill="#5c5c5c"
           d="m 193.83,360.66 c 1.02,0.59 2.68,0.59 3.7,0 1.02,-0.59 1.02,-1.55 0,-2.14 -1.02,-0.59 -2.68,-0.59 -3.7,0 -1.03,0.59 -1.02,1.55 0,2.14 z"
           id="path4646" />
      </g>
      <g
         id="g4654">
        <polygon
           fill="#a62626"
           points="194.55,348.7 195.71,341.3 204.27,346.24 204.27,358.75 195.7,363.7 "
           id="polygon4650" />
        <polygon
           fill="#d63a3a"
           points="195.71,341.3 204.27,346.24 195.7,351.19 195.7,363.7 187.14,358.76 187.14,346.25 "
           id="polygon4652" />
      </g>
      <g
         id="g4660">
        <polygon
           fill="#808285"
           points="206.7,357.96 206.7,354.51 200.91,357.85 200.91,361.3 "
           id="polygon4656" />
        <polygon
           fill="#a7a9ac"
           points="206.7,354.51 204.26,353.1 198.46,356.44 198.46,359.89 200.91,361.3 200.91,357.85 "
           id="polygon4658" />
      </g>
      <g
         id="g4666">
        <polygon
           fill="#808285"
           points="206.7,352.21 206.7,348.76 200.91,352.11 200.91,355.56 "
           id="polygon4662" />
        <polygon
           fill="#a7a9ac"
           points="206.7,348.76 204.26,347.35 198.46,350.7 198.46,354.15 200.91,355.56 200.91,352.11 "
           id="polygon4664" />
      </g>
      <g
         id="g4680">
        <g
           id="g4672">
          <path
             fill="#363636"
             d="m 198.85,344.25 v 1.86 c 0,0.47 -0.31,0.94 -0.93,1.29 -1.24,0.71 -3.25,0.71 -4.49,0 -0.62,-0.36 -0.93,-0.83 -0.93,-1.29 v -1.86 z"
             id="path4668" />
          <path
             fill="#5c5c5c"
             d="m 193.43,345.55 c 1.24,0.72 3.25,0.72 4.49,0 1.24,-0.72 1.24,-1.88 0,-2.59 -1.24,-0.71 -3.25,-0.71 -4.49,0 -1.24,0.71 -1.24,1.87 0,2.59 z"
             id="path4670" />
        </g>
        <g
           id="g4678">
          <path
             fill="#363636"
             d="m 198.5,337.94 v 6.15 c 0,0.42 -0.28,0.84 -0.83,1.15 -1.1,0.64 -2.89,0.64 -4,0 -0.55,-0.32 -0.83,-0.74 -0.83,-1.15 v -6.15 z"
             id="path4674" />
          <path
             fill="#5c5c5c"
             d="m 193.68,339.09 c 1.1,0.64 2.89,0.64 4,0 1.1,-0.64 1.1,-1.67 0,-2.31 -1.1,-0.64 -2.89,-0.64 -4,0 -1.1,0.64 -1.1,1.68 0,2.31 z"
             id="path4676" />
        </g>
      </g>
    </g>
  </g>
</svg>
