<svg xmlns="http://www.w3.org/2000/svg" viewBox="0 0 66.86 69.7" preserveAspectRatio="xMinYmin">
  <path fill="#f80" d="M51.25 35.3 2.94 63.19l.01-19.38 1.9-5.6 44.51-25.7 1.9 3.41z"/>
  <path fill="orange" d="m1.95 43.22 1.89-5.59 1.01.58-1.9 5.6z"/>
  <path fill="#ffb833" d="m4.85 38.21-1.01-.58 44.51-25.7 1.01.58z"/>
  <path fill="orange" d="m1.94 62.61.01-19.39 12.28 7.1-.01 19.38zm10.14-24.19 5.1-2.94V32.3l-.39.22v2.61l-4.71 2.72z"/>
  <path fill="#eb7600" d="m12.08 37.85 4.71-2.72v-2.61l-4.71 2.72z"/>
  <path fill="orange" d="M10.94 39.08V35.9l-.39.23v2.61l-5.3 3.05-.28.74z"/>
  <path fill="#eb7600" d="M10.55 38.74v-2.61l-4.02 2.32-1.28 3.34z"/>
  <path fill="orange" d="m43.32 20.38 5.97-3.44-1.56-2.28-.11.06 1.28 1.87-5.58 3.22z"/>
  <path fill="#eb7600" d="m43.32 19.81 5.58-3.22-1.28-1.87-4.3 2.48z"/>
  <path fill="orange" d="m18.32 34.82 5.1-2.94V28.7l-.39.22v2.61l-4.71 2.71z"/>
  <path fill="#eb7600" d="m18.32 34.24 4.71-2.71v-2.61l-4.71 2.72z"/>
  <path fill="orange" d="m24.56 31.22 5.1-2.94v-3.19l-.39.23v2.61l-4.71 2.71z"/>
  <path fill="#eb7600" d="m24.56 30.64 4.71-2.71v-2.61l-4.71 2.71z"/>
  <path fill="orange" d="m30.8 27.61 5.1-2.94v-3.18l-.39.22v2.61l-4.71 2.72z"/>
  <path fill="#eb7600" d="m30.8 27.04 4.71-2.72v-2.61l-4.71 2.72z"/>
  <path fill="orange" d="m37.04 24.01 5.1-2.94v-3.19l-.39.23v2.61l-4.71 2.71z"/>
  <path fill="#eb7600" d="m37.04 23.43 4.71-2.71v-2.61l-4.71 2.72z"/>
  <path fill="#5c5c5c" d="m54.39 13.2-.06-.03c-.25-.13-.59-.1-.97.12L36.1 23.26 1.41 43.28c-.05.03-.1.06-.14.09-.71.5-1.27 1.51-1.27 2.36v.13c0 .45.16.76.41.91 0 0 .01 0 .01.01l8.51 4.91 53.89-33.62z"/>
  <path fill="#212121" d="M62.96 19.15v.13c0 .72-.51 1.6-1.13 1.96l-51.96 30c-.36.21-.69.2-.9.01.16.01.34-.04.54-.15l51.96-30c.62-.36 1.13-1.24 1.13-1.96v-.13c0-.3-.09-.52-.24-.66.35.01.6.31.6.8z"/>
  <path fill="#878787" d="M62.6 19v.13c0 .72-.51 1.6-1.13 1.96l-51.96 30c-.2.11-.38.16-.54.15-.15-.14-.23-.36-.23-.66v-.12c0-.72.51-1.6 1.13-1.96l51.96-30c.2-.11.38-.16.54-.15.14.13.23.36.23.65z"/>
  <path fill="#363636" d="M61.83 18.5c.62-.36 1.13-.07 1.13.65v.13c0 .72-.51 1.6-1.13 1.96l-51.96 30c-.62.36-1.13.07-1.13-.65v-.13c0-.72.51-1.6 1.13-1.96zm0-.33-51.96 30c-.78.45-1.42 1.55-1.42 2.45v.13c0 .9.63 1.27 1.42.82l51.96-30c.78-.45 1.41-1.55 1.41-2.45v-.13c0-.9-.63-1.27-1.41-.82z"/>
  <path d="m35.78 23.44 8.46 4.88-.55.32-8.47-4.88zm-2.26 1.3 8.46 4.89-.56.32-8.46-4.88zm-2.26 1.31 8.46 4.88-.57.33-8.46-4.89zm-2.27 1.31 8.46 4.88-.56.33-8.46-4.89zm-2.26 1.3 8.46 4.89-.56.32-8.47-4.88zm-2.27 1.31 8.46 4.89-.56.32-8.46-4.88zm-2.26 1.31 8.46 4.88-.56.33-8.46-4.89zm-2.27 1.31 8.46 4.88-.56.33-8.46-4.89zm-2.26 1.31 8.46 4.88-.56.32-8.46-4.88zm33.97-19.62 8.46 4.89-.56.32-8.46-4.88zm-2.27 1.31 8.46 4.89-.56.32-8.46-4.89zm-2.26 1.31 8.46 4.88-.56.33-8.46-4.89zm-2.27 1.3 8.46 4.89-.56.32-8.46-4.88zm-2.26 1.31 8.46 4.89-.56.32-8.46-4.88zm-2.27 1.31 8.46 4.88-.56.33-8.46-4.89zm-2.26 1.31 8.46 4.88-.56.33-8.46-4.89zM15.4 35.2l8.46 4.89-.56.32-8.46-4.88zm-2.26 1.31 8.46 4.89-.56.32-8.46-4.89zm-2.27 1.31 8.46 4.88-.56.33-8.46-4.89zm-2.26 1.31 8.46 4.88-.56.32-8.46-4.88zm-2.27 1.3 8.46 4.89-.56.32-8.46-4.88zm-2.26 1.31 8.46 4.88-.56.33-8.46-4.89zm-2.27 1.31 8.46 4.88-.56.33-8.45-4.88z" fill="#363636"/>
  <path fill="#a6a6a6" d="m13.07 47.58-.33-.17c-.14-.06-.32-.04-.51.07-.43.25-.78.85-.78 1.35 0 .26.1.44.25.52l.23.11.05-.08c.08-.02.16-.05.25-.1.43-.25.78-.85.78-1.35 0-.07-.01-.14-.02-.2z"/>
  <path fill="#5c5c5c" d="M13.26 48.06c0 .5-.35 1.1-.78 1.35-.43.25-.78.05-.78-.45s.35-1.1.78-1.35c.43-.25.78-.05.78.45z"/>
  <path fill="#a6a6a6" d="M12.87 48.28c0 .25-.17.55-.39.67-.15.09-.28.06-.34-.04.05 0 .1-.02.16-.05.21-.12.39-.43.39-.67 0-.08-.02-.14-.05-.19.13 0 .23.1.23.28z"/>
  <path fill="#4a4a4a" d="M12.69 48.2c0 .25-.17.55-.39.67-.06.03-.11.05-.16.05a.356.356 0 0 1-.05-.19c0-.25.17-.55.39-.67.06-.03.11-.05.16-.05.03.04.05.11.05.19z"/>
  <path fill="#a6a6a6" d="m17.6 44.97-.33-.17c-.14-.06-.32-.04-.51.07-.43.25-.78.85-.78 1.35 0 .26.1.44.25.52l.23.11.05-.08c.08-.02.16-.05.25-.1.43-.25.78-.85.78-1.35 0-.07-.01-.14-.02-.2z"/>
  <path fill="#5c5c5c" d="M17.78 45.45c0 .5-.35 1.1-.78 1.35-.43.25-.78.05-.78-.45 0-.49.35-1.1.78-1.35.44-.25.78-.05.78.45z"/>
  <path fill="#a6a6a6" d="M17.39 45.67c0 .25-.17.55-.39.67-.15.08-.28.06-.34-.04.05 0 .1-.02.16-.05.21-.12.39-.42.39-.67 0-.08-.02-.14-.05-.19.14 0 .23.1.23.28z"/>
  <path fill="#4a4a4a" d="M17.21 45.58c0 .25-.17.55-.39.67-.06.03-.11.05-.16.05a.356.356 0 0 1-.05-.19c0-.25.17-.55.39-.67.06-.03.11-.05.16-.05.04.05.05.11.05.19z"/>
  <path fill="#a6a6a6" d="m21.56 42.68-.33-.17c-.14-.06-.32-.04-.51.07-.43.25-.78.85-.78 1.35 0 .26.1.44.25.52l.23.11.05-.08a.69.69 0 0 0 .25-.09c.43-.25.78-.85.78-1.35 0-.08-.01-.14-.02-.2z"/>
  <path fill="#5c5c5c" d="M21.75 43.16c0 .5-.35 1.1-.78 1.35-.43.25-.78.05-.78-.45s.35-1.1.78-1.35c.43-.25.78-.05.78.45z"/>
  <path fill="#a6a6a6" d="M21.36 43.38c0 .25-.17.55-.39.67-.15.08-.28.06-.34-.04.05 0 .11-.02.16-.05.22-.12.39-.43.39-.67 0-.08-.02-.14-.05-.19.14 0 .23.1.23.28z"/>
  <path fill="#4a4a4a" d="M21.18 43.29c0 .25-.17.55-.39.67-.06.03-.11.05-.16.05a.356.356 0 0 1-.05-.19c0-.25.17-.55.39-.67.06-.03.11-.05.16-.05.03.05.05.11.05.19z"/>
  <path fill="#a6a6a6" d="m25.52 40.39-.33-.17c-.14-.06-.32-.04-.51.07-.43.25-.78.85-.78 1.35 0 .26.1.44.25.52l.23.11.05-.08c.08-.01.16-.05.25-.09.43-.25.78-.85.78-1.35 0-.07-.01-.14-.02-.2z"/>
  <path fill="#5c5c5c" d="M25.71 40.87c0 .5-.35 1.1-.78 1.35-.43.25-.78.05-.78-.45s.35-1.1.78-1.35c.43-.25.78-.05.78.45z"/>
  <path fill="#a6a6a6" d="M25.32 41.09c0 .25-.17.55-.39.67-.15.09-.28.06-.34-.04.05 0 .1-.02.16-.05.21-.12.39-.43.39-.67 0-.08-.02-.14-.05-.19.14 0 .23.1.23.28z"/>
  <path fill="#4a4a4a" d="M25.14 41c0 .25-.17.55-.39.67-.06.03-.11.05-.16.05a.356.356 0 0 1-.05-.19c0-.25.18-.55.39-.67.06-.03.11-.05.16-.05.03.05.05.12.05.19z"/>
  <path fill="#a6a6a6" d="m29.48 38.11-.33-.17c-.14-.06-.32-.04-.51.07-.43.25-.78.85-.78 1.35 0 .26.1.44.26.52l.23.11.05-.08c.08-.02.16-.05.25-.1.42-.26.77-.86.77-1.35 0-.08-.01-.14-.02-.2Z"/>
  <path fill="#5c5c5c" d="M29.67 38.58c0 .5-.35 1.1-.78 1.35-.43.25-.78.05-.78-.45s.35-1.1.78-1.35c.43-.25.78-.04.78.45z"/>
  <path fill="#a6a6a6" d="M29.28 38.81c0 .25-.17.55-.39.67-.15.08-.28.06-.34-.04.05 0 .11-.02.16-.05.21-.12.39-.43.39-.67 0-.08-.02-.14-.05-.19.14-.01.23.09.23.28z"/>
  <path fill="#4a4a4a" d="M29.1 38.72c0 .25-.17.55-.39.67-.06.03-.11.05-.16.05a.356.356 0 0 1-.05-.19c0-.25.17-.55.39-.68.06-.03.11-.05.16-.05.04.06.05.12.05.2z"/>
  <path fill="#a6a6a6" d="m33.45 35.82-.33-.17c-.14-.06-.32-.04-.52.07-.43.25-.78.85-.78 1.35 0 .26.1.44.26.52l.23.11.05-.08c.08-.01.16-.05.25-.09.43-.25.78-.85.78-1.35 0-.07-.01-.14-.02-.2z"/>
  <path fill="#5c5c5c" d="M33.64 36.29c0 .5-.35 1.1-.78 1.35-.43.25-.78.05-.78-.45s.35-1.1.78-1.35c.43-.24.78-.04.78.45z"/>
  <path fill="#a6a6a6" d="M33.25 36.52c0 .25-.17.55-.39.68-.15.08-.28.06-.34-.04.05 0 .1-.02.16-.05.21-.12.39-.43.39-.67 0-.08-.02-.14-.05-.19.13-.02.23.09.23.27z"/>
  <path fill="#4a4a4a" d="M33.07 36.43c0 .25-.17.55-.39.67-.06.03-.11.05-.16.05a.356.356 0 0 1-.05-.19c0-.25.17-.55.39-.68.06-.03.11-.05.16-.05.03.06.05.12.05.2z"/>
  <path fill="#a6a6a6" d="m37.41 33.53-.33-.17c-.14-.06-.32-.04-.51.07-.43.25-.78.85-.78 1.35 0 .26.1.44.26.52l.23.11.05-.08c.08-.02.16-.05.25-.1.43-.25.78-.85.78-1.35 0-.08-.01-.14-.02-.2z"/>
  <path fill="#5c5c5c" d="M37.6 34c0 .5-.35 1.1-.78 1.35-.43.25-.78.05-.78-.45s.35-1.1.78-1.35c.43-.24.78-.04.78.45z"/>
  <path fill="#a6a6a6" d="M37.21 34.23c0 .25-.17.55-.39.67-.15.08-.28.06-.34-.04.05 0 .1-.02.16-.05.21-.12.39-.43.39-.67 0-.08-.02-.14-.05-.19.14 0 .23.1.23.28z"/>
  <path fill="#4a4a4a" d="M37.03 34.14c0 .25-.17.55-.39.67-.06.03-.11.05-.16.05a.356.356 0 0 1-.05-.19c0-.25.17-.55.39-.67a.27.27 0 0 1 .16-.05c.04.05.05.11.05.19z"/>
  <path fill="#a6a6a6" d="m41.38 31.24-.33-.17c-.14-.06-.32-.04-.51.07-.43.25-.78.85-.78 1.35 0 .26.1.44.26.52l.23.11.05-.08a.69.69 0 0 0 .25-.09c.43-.25.78-.85.78-1.35 0-.07-.01-.14-.02-.2z"/>
  <path fill="#5c5c5c" d="M41.56 31.72c0 .5-.35 1.1-.78 1.35-.43.25-.78.05-.78-.45s.35-1.1.78-1.35c.43-.25.78-.05.78.45z"/>
  <path fill="#a6a6a6" d="M41.17 31.94c0 .25-.17.55-.39.67-.15.08-.28.06-.34-.04.05 0 .11-.02.16-.05.22-.12.39-.42.39-.67 0-.08-.02-.14-.05-.19.14 0 .23.1.23.28z"/>
  <path fill="#4a4a4a" d="M41 31.85c0 .25-.17.55-.39.67-.06.03-.11.05-.16.05a.356.356 0 0 1-.05-.19c0-.25.17-.55.39-.67.06-.03.11-.05.16-.05.03.05.05.11.05.19z"/>
  <path fill="#a6a6a6" d="m45.34 28.95-.33-.17c-.14-.06-.32-.04-.51.07-.43.25-.78.85-.78 1.35 0 .26.1.44.26.52l.22.11.05-.08a.69.69 0 0 0 .25-.09c.43-.25.78-.85.78-1.35 0-.07-.01-.14-.02-.2z"/>
  <path fill="#5c5c5c" d="M45.53 29.43c0 .5-.35 1.1-.78 1.35-.43.25-.78.05-.78-.45s.35-1.1.78-1.35c.43-.25.78-.05.78.45z"/>
  <path fill="#a6a6a6" d="M45.14 29.65c0 .25-.17.55-.39.67-.15.08-.28.06-.34-.04.05 0 .1-.02.16-.05.21-.12.39-.42.39-.67 0-.08-.02-.14-.05-.19.14 0 .23.1.23.28z"/>
  <path fill="#4a4a4a" d="M44.96 29.56c0 .25-.17.55-.39.67a.27.27 0 0 1-.16.05.356.356 0 0 1-.05-.19c0-.25.18-.55.39-.67a.27.27 0 0 1 .16-.05c.03.05.05.12.05.19z"/>
  <path fill="#a6a6a6" d="m49.31 26.66-.33-.17c-.14-.06-.32-.04-.51.07-.43.25-.78.85-.78 1.35 0 .26.1.44.25.52l.23.11.05-.08c.08-.02.16-.05.25-.1.43-.25.78-.85.78-1.35 0-.07-.01-.14-.02-.2z"/>
  <path fill="#5c5c5c" d="M49.49 27.14c0 .5-.35 1.1-.78 1.35-.43.25-.78.05-.78-.45s.35-1.1.78-1.35c.44-.25.78-.05.78.45z"/>
  <path fill="#a6a6a6" d="M49.11 27.36c0 .25-.17.55-.39.67-.15.08-.28.06-.34-.04.05 0 .1-.02.16-.05.22-.12.39-.42.39-.67 0-.08-.02-.14-.05-.19.13 0 .23.1.23.28z"/>
  <path fill="#4a4a4a" d="M48.93 27.27c0 .25-.17.55-.39.67-.06.03-.11.05-.16.05a.356.356 0 0 1-.05-.19c0-.25.17-.55.39-.67.06-.03.11-.05.16-.05.03.05.05.11.05.19z"/>
  <path fill="#a6a6a6" d="m53.27 24.37-.33-.17c-.14-.06-.32-.04-.51.07-.43.25-.78.85-.78 1.35 0 .26.1.44.26.52l.22.11.05-.08a.69.69 0 0 0 .25-.09c.43-.25.78-.85.78-1.35 0-.07-.01-.14-.02-.2z"/>
  <path fill="#5c5c5c" d="M53.46 24.85c0 .5-.35 1.1-.78 1.35-.43.25-.78.05-.78-.45s.35-1.1.78-1.35c.43-.25.78-.05.78.45z"/>
  <path fill="#a6a6a6" d="M53.07 25.08c0 .25-.17.55-.39.67-.15.08-.28.06-.34-.04.05 0 .11-.02.16-.05.22-.12.39-.42.39-.67 0-.08-.02-.14-.05-.19.13-.01.23.09.23.28z"/>
  <path fill="#4a4a4a" d="M52.89 24.99c0 .25-.17.55-.39.67-.06.03-.11.05-.16.05a.356.356 0 0 1-.05-.19c0-.25.17-.55.39-.67.06-.03.11-.05.16-.05.03.04.05.11.05.19z"/>
  <path fill="#a6a6a6" d="m57.23 22.09-.33-.17c-.14-.06-.32-.04-.51.07-.43.25-.78.85-.78 1.35 0 .26.1.44.26.52l.22.11.05-.08c.08-.02.16-.05.25-.1.43-.25.78-.85.78-1.35 0-.08-.01-.14-.02-.2z"/>
  <path fill="#5c5c5c" d="M57.42 22.56c0 .5-.35 1.1-.78 1.35-.43.25-.78.05-.78-.45s.35-1.1.78-1.35c.43-.25.78-.04.78.45Z"/>
  <path fill="#a6a6a6" d="M57.03 22.79c0 .25-.17.55-.39.67-.15.08-.28.06-.34-.04.05 0 .1-.02.16-.05.21-.12.39-.42.39-.67 0-.08-.02-.14-.05-.19.14-.01.23.1.23.28z"/>
  <path fill="#4a4a4a" d="M56.85 22.7c0 .25-.17.55-.39.67-.06.03-.11.05-.16.05a.356.356 0 0 1-.05-.19c0-.25.18-.55.39-.67.06-.03.11-.05.16-.05.03.05.05.11.05.19z"/>
  <path fill="#a6a6a6" d="m61.2 19.8-.33-.17c-.14-.06-.32-.04-.51.07-.43.25-.78.85-.78 1.35 0 .26.1.44.25.52l.23.11.05-.08a.69.69 0 0 0 .25-.09c.43-.25.78-.85.78-1.35 0-.07-.01-.14-.02-.2z"/>
  <path fill="#5c5c5c" d="M61.38 20.27c0 .5-.35 1.1-.78 1.35-.43.25-.78.05-.78-.45s.35-1.1.78-1.35c.43-.24.78-.04.78.45z"/>
  <path fill="#a6a6a6" d="M60.99 20.5c0 .25-.17.55-.39.67-.15.08-.28.06-.34-.04.05 0 .1-.02.16-.05.21-.12.39-.42.39-.67 0-.08-.02-.14-.05-.19.14 0 .23.1.23.28z"/>
  <path fill="#4a4a4a" d="M60.81 20.41c0 .25-.17.55-.39.67-.06.03-.11.05-.16.05a.356.356 0 0 1-.05-.19c0-.25.18-.55.39-.67.06-.03.11-.05.16-.05.04.05.05.11.05.19z"/>
  <path fill="#f80" d="m14.22 69.7.01-19.38 1.9-5.6 44.5-25.7 1.9 3.41v19.39z"/>
  <path fill="orange" d="M23.47 44.45v.57l5.1-2.94V38.9l-.39.22v2.61z"/>
  <path fill="#eb7600" d="M28.18 41.73v-2.61l-4.71 2.72v2.61z"/>
  <path fill="orange" d="m16.36 49.13 5.97-3.44V42.5l-.39.23v2.61l-5.3 3.05z"/>
  <path fill="#eb7600" d="m21.94 42.73-4.02 2.32-1.28 3.34 5.3-3.05z"/>
  <path fill="orange" d="M54.71 26.41v.58l5.97-3.45-1.56-2.28-.11.06 1.28 1.87z"/>
  <path fill="#eb7600" d="m60.29 23.19-1.28-1.87-4.3 2.48v2.61z"/>
  <path fill="orange" d="M29.71 40.85v.57l5.1-2.94V35.3l-.39.22v2.61z"/>
  <path fill="#eb7600" d="M34.42 38.13v-2.61l-4.71 2.72v2.61z"/>
  <path fill="orange" d="M35.95 37.24v.58l5.1-2.94v-3.19l-.39.23v2.61z"/>
  <path fill="#eb7600" d="M40.66 34.53v-2.61l-4.71 2.71v2.61z"/>
  <path fill="orange" d="M42.19 33.64v.57l5.1-2.94v-3.18l-.39.22v2.61z"/>
  <path fill="#eb7600" d="M46.9 30.92v-2.61l-4.71 2.72v2.61z"/>
  <path fill="orange" d="M48.43 30.04v.57l5.1-2.94v-3.18l-.39.22v2.61z"/>
  <path fill="#eb7600" d="M53.14 27.32v-2.61l-4.71 2.72v2.61z"/>
  <path fill="orange" d="m13.22 49.73 1.9-5.59 1.01.58-1.9 5.6z"/>
  <path fill="#ffb833" d="m16.13 44.72-1.01-.58 44.51-25.7 1 .58z"/>
  <path fill="#f80" d="M44.18 3.56v15.68l-13.85 7.99V11.56z"/>
  <path opacity=".2" d="M44.18 3.56v15.68l-13.85 7.99V11.56z"/>
  <path fill="#f80" d="M47.49 32.41v22.95l14.07-8.12V30.8l5.3-.51v-2.93l-5.3-3.07L58.29 8.9 42.81 0 28.74 8.13l13.88 9.39z"/>
  <path fill="orange" d="m49.45 27.5 8.36-4.82-1.96-9.24.76-.44 2.12 9.98-9.12 5.27z"/>
  <path fill="#0d0d0d" d="M57.81 22.68c-2.09 2.68-8.36 4.83-8.36 4.83l-1.96-9.24 8.36-4.83s2.16 4.24 1.96 9.24z"/>
  <path fill="#75c425" d="m54.51 16.16-5.98 3.45-.12-.55 5.98-3.46zm.3 1.37-5.98 3.46-.12-.56 5.98-3.45zm1.16 5.58-5.99 3.45-.11-.55 5.98-3.46zm-.18-1.19-5.99 3.45-.48-2.51 5.98-3.45zm-2.87-1.86-3.78 2.18-.12-.55 3.79-2.18z"/>
  <path fill="orange" d="m61.56 24.29 5.3 3.07-14.06 8.12-5.31-3.07z"/>
  <path d="m58.98 26.18 2.84 1.64.78-.45-2.84-1.64zm1.1-.64 2.84 1.64.78-.45-2.84-1.64z"/>
  <path fill="#a62626" d="m62.32 25.83-2.06 1.19-.78-.45v-.46l2.84-.74z"/>
  <path fill="#d63a3a" d="m62.32 25.37-2.06 1.19-.78-.45 2.06-1.19z"/>
  <path fill="#1c4b94" d="m50.56 32.66-.79-.46.79-.46.8.46z"/>
  <path fill="#d63a3a" d="m51.93 31.87-.79-.46.79-.46.79.46z"/>
  <path fill="#1c4b94" d="m53.28 31.09-.79-.46.79-.46.79.46z"/>
  <path fill="#d63a3a" d="m51.89 33.42-.79-.45.79-.46.8.46z"/>
  <path fill="#1c4b94" d="m53.26 32.63-.79-.45.79-.46.79.46z"/>
  <path fill="#d63a3a" d="m54.61 31.86-.79-.46.79-.46.79.46zm-1.36 2.35-.79-.46.79-.46.79.46z"/>
  <path fill="#25a4c4" d="m54.62 33.42-.79-.46.79-.46.79.46z"/>
  <path fill="#1c4b94" d="m55.96 32.64-.79-.46.79-.45.8.45zm-.52-2.8-.8-.46.8-.46.79.46z"/>
  <path fill="#d63a3a" d="m56.8 29.05-.79-.46.79-.46.8.46z"/>
  <path fill="#1c4b94" d="m58.15 28.27-.79-.45.79-.46.79.46z"/>
  <path fill="#d63a3a" d="m56.77 30.61-.8-.46.8-.46.79.46z"/>
  <path fill="#1c4b94" d="m58.13 29.82-.79-.46.79-.46.8.46z"/>
  <path fill="#d63a3a" d="m59.48 29.04-.79-.46.79-.45.79.45zm-1.36 2.35-.79-.46.79-.45.79.45z"/>
  <path fill="#25a4c4" d="m59.49 30.6-.79-.46.79-.45.79.45z"/>
  <path fill="#1c4b94" d="m60.84 29.82-.8-.45.8-.46.79.46z"/>
  <path fill="orange" d="m28.74 23.24 1.02.59v3.08l.57.32V12.01l9.07 5.24v12.86l.65-.37 1.13.65v21.33l6.31 3.64V38.92l5.31-.51v-2.93l-5.31-3.07-3.27-15.38-15.48-8.9z"/>
  <path fill="#f80" d="M66.86 27.36v2.93L52.8 38.41v-2.93z"/>
  <path opacity=".3" d="M41.02 8.68c1.06.61 2.78.61 3.84 0s1.06-1.6 0-2.21c-1.06-.61-2.78-.61-3.84 0-1.06.6-1.06 1.6 0 2.21z"/>
  <path fill="#0d0d0d" d="M45.31 6.16v1.21h-.01c0 .35-.23.7-.69.96-.92.53-2.42.53-3.34 0-.46-.27-.69-.62-.69-.96V6.16Z"/>
  <path fill="#232323" d="M41.27 7.13c.92.53 2.42.53 3.34 0 .92-.53.92-1.4 0-1.93s-2.42-.53-3.34 0c-.92.53-.92 1.4 0 1.93z"/>
  <path fill="#a62626" d="M42.94 7.23c-.53 0-1.03-.12-1.41-.34-.43-.25-.66-.59-.66-.97V3.16c0-1.14.93-2.07 2.07-2.07 1.14 0 2.07.93 2.07 2.07v2.76c0 .38-.23.72-.66.97-.38.22-.88.34-1.41.34zm0-5.62c-.85 0-1.55.69-1.55 1.55v2.76c0 .18.15.37.4.51.3.17.72.27 1.15.27.43 0 .85-.1 1.15-.27.25-.15.4-.33.4-.51V3.16c0-.85-.7-1.55-1.55-1.55z"/>
  <path fill="#d63a3a" d="M42.94 1.61c-.85 0-1.55.69-1.55 1.55v2.76c0 .18.15.37.4.51.3.17.72.27 1.15.27.43 0 .85-.1 1.15-.27.25-.15.4-.33.4-.51V3.16c0-.85-.7-1.55-1.55-1.55z"/>
  <path fill="#f5b400" d="M43.52 4.34c0 .66-.26 1.2-.58 1.2-.32 0-.58-.54-.58-1.2 0-.66.26-1.2.58-1.2.32 0 .58.54.58 1.2z"/>
  <path fill="#ffdaab" d="m27.63 23.35 5.78 3.31 5.6-3.23-5.77-3.32z"/>
  <path fill="#9c805f" d="m35.79 25.28.85-.49-5.78-3.32-.85.5z"/>
  <path fill="#f5cb95" d="M27.63 23.35v6.12l5.78 3.32v-6.13z"/>
  <path fill="#d1ad7f" d="M39.01 29.56v-6.13l-5.6 3.23v6.13z"/>
  <path fill="#705c44" d="M35.79 25.28v1.87l.85-.5v-1.86z"/>
  <path fill="#ebebeb" d="m37.01 27 1.6-.93v-1.72l-1.6.93z"/>
  <path fill="#9e9e9e" d="m37.24 25.52 1.22-.7v-.16l-1.22.7zm0 .43 1.22-.71v-.16l-1.22.71zm0 .42 1.22-.71v-.16l-1.22.71zm0 .36.69-.4v-.16l-.69.4z"/>
  <path fill="#9c8469" d="m33.94 30.98 2.27-1.31v-.21l-2.27 1.31zm0 .72 2.27-1.31v-.21l-2.27 1.31zm0 .36 2.27-1.31v-.21l-2.27 1.31zm0-.71 1.14-.66v-.21l-1.14.65z"/>
  <path fill="#ebebeb" d="m37.01 28.13 1.6-.93v-.82l-1.6.93z"/>
  <path d="M38.03 27.25v-.39l-.04.03v.38zm.38-.23v-.38l-.03.02v.38zm-.91.53v-.38l-.04.02v.38zm-.1.06v-.38l-.04.02v.38zm1.15-.66v-.39l-.07.04v.38zm-.42.23v-.38l-.06.04v.38zm-.24.15v-.38h-.02v.39zm.37-.22v-.38l-.01.01v.38zm-.44.26v-.39l-.01.01v.38zm-.06.03v-.38l-.01.01v.38zm.56-.32v-.38h-.02v.39zm-.75.43v-.38h-.01v.39zm-.27.15v-.38l-.01.01v.38zm.65-.37v-.38l-.02.01v.38zm.25-.14v-.39l-.02.01v.39zm-.5.29v-.39l-.07.04v.38zm-.49.28v-.39l-.06.04v.38z" fill="#424242"/>
  <path fill="#ffdaab" d="m19.53 28.3 5.78 3.32 5.6-3.23-5.78-3.32z"/>
  <path fill="#9c805f" d="m27.68 30.24.86-.49-5.78-3.32-.85.5z"/>
  <path fill="#f5cb95" d="M19.53 28.3v6.13l5.78 3.32v-6.13z"/>
  <path fill="#d1ad7f" d="M30.91 34.51v-6.12l-5.6 3.23v6.13z"/>
  <path fill="#705c44" d="M27.68 30.24v1.86l.86-.49v-1.86z"/>
  <path fill="#ebebeb" d="m28.91 31.96 1.6-.93v-1.72l-1.6.92z"/>
  <path fill="#9e9e9e" d="m29.13 30.48 1.22-.7v-.16l-1.22.7zm0 .42 1.22-.7v-.16l-1.22.7zm0 .43 1.22-.71v-.16l-1.22.71zm0 .36.7-.4v-.16l-.7.4z"/>
  <path fill="#9c8469" d="m25.84 35.94 2.27-1.31v-.21l-2.27 1.31zm0 .71 2.27-1.3v-.21l-2.27 1.3zm0 .37 2.27-1.31v-.21l-2.27 1.31zm0-.72 1.13-.65v-.21l-1.13.65z"/>
  <path fill="#ebebeb" d="m28.91 33.09 1.6-.93v-.82l-1.6.93z"/>
  <path d="M29.92 32.21v-.39l-.04.03v.38zm.39-.23v-.38l-.04.02V32zm-.92.53v-.38l-.03.02v.38zm-.1.06v-.38l-.04.02v.38zm1.15-.67v-.38l-.06.04v.38zm-.41.24v-.38l-.06.04v.38zm-.25.15v-.39l-.01.01v.38zm.38-.22v-.38l-.02.01v.38zm-.44.25v-.38l-.02.01v.38zm-.06.04v-.39l-.01.01v.38zm.56-.32v-.39l-.02.01v.39zm-.75.43v-.39l-.02.01v.38zm-.27.15v-.38l-.02.01v.38zm.65-.37v-.38l-.02.01v.38zm.25-.15v-.38l-.02.01v.39zm-.5.29v-.38l-.07.04v.38zm-.49.29v-.39l-.07.04v.38z" fill="#424242"/>
  <path fill="#ffdaab" d="m9.8 33.33 5.78 3.32 5.6-3.23-5.78-3.32z"/>
  <path fill="#9c805f" d="m17.95 35.27.86-.49-5.78-3.32-.85.49z"/>
  <path fill="#f5cb95" d="M9.8 33.33v6.13l5.78 3.32v-6.13z"/>
  <path fill="#d1ad7f" d="M21.18 39.54v-6.12l-5.6 3.23v6.13z"/>
  <path fill="#705c44" d="M17.95 35.27v1.86l.86-.49v-1.86z"/>
  <path fill="#ebebeb" d="m19.18 36.99 1.6-.93v-1.72l-1.6.92z"/>
  <path fill="#9e9e9e" d="m19.4 35.51 1.22-.71v-.16l-1.22.71zm0 .42 1.22-.7v-.16l-1.22.7zm0 .42 1.22-.7v-.16l-1.22.71zm0 .36.7-.4v-.15l-.7.4z"/>
  <path fill="#9c8469" d="m16.11 40.97 2.27-1.31v-.21l-2.27 1.31zm0 .71 2.27-1.31v-.21l-2.27 1.31zm0 .37 2.27-1.31v-.21l-2.27 1.31zm0-.72 1.13-.65v-.21l-1.13.65z"/>
  <path fill="#ebebeb" d="m19.18 38.12 1.6-.93v-.82l-1.6.93z"/>
  <path d="M20.19 37.23v-.38l-.04.02v.39zm.39-.22v-.38l-.04.02v.38zm-.92.53v-.38l-.04.02v.38zm-.1.06v-.39l-.04.03v.38zm1.15-.67v-.38l-.06.04v.38zm-.41.24v-.38l-.06.03v.39zm-.25.14v-.38l-.01.01v.38zm.38-.21v-.39l-.02.01v.39zm-.44.25v-.38l-.02.01v.38zm-.06.03V37l-.02.01v.38zm.55-.32v-.38l-.01.01v.38zm-.74.43v-.38l-.02.01v.38zm-.27.16v-.38l-.02.01v.38zm.65-.37v-.39l-.02.02v.38zm.25-.15v-.38l-.02.01v.38zm-.51.29v-.38l-.06.04v.38zm-.48.28v-.38l-.07.04v.38z" fill="#424242"/>
</svg>
