<?xml version="1.0" encoding="UTF-8" standalone="no"?>
<!-- Generator: Adobe Illustrator 25.4.1, SVG Export Plug-In . SVG Version: 6.00 Build 0)  -->
<svg
   version="1.1"
   viewBox="0 0 66.860 69.7"
   preserveAspectRatio="xMinYmin"
   id="svg3388"
   sodipodi:docname="machine-1.svg"
   inkscape:version="1.1 (c68e22c387, 2021-05-23)"
   xmlns:inkscape="http://www.inkscape.org/namespaces/inkscape"
   xmlns:sodipodi="http://sodipodi.sourceforge.net/DTD/sodipodi-0.dtd"
   xmlns="http://www.w3.org/2000/svg"
   xmlns:svg="http://www.w3.org/2000/svg">
  <defs
     id="defs3392" />
  <sodipodi:namedview
     id="namedview3390"
     pagecolor="#ffffff"
     bordercolor="#999999"
     borderopacity="1"
     inkscape:pageshadow="0"
     inkscape:pageopacity="0"
     inkscape:pagecheckerboard="0"
     showgrid="false"
     inkscape:zoom="10.71736"
     inkscape:cx="33.450402"
     inkscape:cy="34.85"
     inkscape:window-width="1680"
     inkscape:window-height="997"
     inkscape:window-x="-8"
     inkscape:window-y="-8"
     inkscape:window-maximized="1"
     inkscape:current-layer="g3384" />
  <g
     id="g3386">
    <g
       transform="translate(-36.58,-38.34)"
       id="g3384">
      <g
         id="g3494">
        <polygon
           fill="#ff8800"
           points="39.52,101.53 39.53,82.15 41.43,76.55 85.94,50.85 87.84,54.26 87.83,73.64 "
           id="polygon2808"
           style="display:inline" />
        <polygon
           fill="#ffa500"
           points="39.53,82.15 38.53,81.56 40.42,75.97 41.43,76.55 "
           id="polygon2810"
           style="display:inline" />
        <polygon
           fill="#ffb833"
           points="85.94,50.85 41.43,76.55 40.42,75.97 84.93,50.27 "
           id="polygon2812"
           style="display:inline" />
        <polygon
           fill="#ffa500"
           points="50.8,108.04 38.52,100.95 38.53,81.56 50.81,88.66 "
           id="polygon2814"
           style="display:inline" />
      </g>
      <g
         id="g3488">
        <polygon
           fill="#ffa500"
           points="53.76,70.64 53.37,70.86 53.37,73.47 48.66,76.19 48.66,76.76 53.76,73.82 "
           id="polygon2816"
           style="display:inline" />
        <polygon
           fill="#eb7600"
           points="48.66,76.19 53.37,73.47 53.37,70.86 48.66,73.58 "
           id="polygon2818"
           style="display:inline" />
        <polygon
           fill="#ffa500"
           points="47.13,74.47 47.13,77.08 41.83,80.13 41.55,80.87 47.52,77.42 47.52,74.24 "
           id="polygon2820"
           style="display:inline" />
        <polygon
           fill="#eb7600"
           points="47.13,77.08 47.13,74.47 43.11,76.79 41.83,80.13 "
           id="polygon2822"
           style="display:inline" />
        <polygon
           fill="#ffa500"
           points="84.31,53 84.2,53.06 85.48,54.93 79.9,58.15 79.9,58.72 85.87,55.28 "
           id="polygon2824"
           style="display:inline" />
        <polygon
           fill="#eb7600"
           points="79.9,58.15 85.48,54.93 84.2,53.06 79.9,55.54 "
           id="polygon2826"
           style="display:inline" />
        <polygon
           fill="#ffa500"
           points="60,67.04 59.61,67.26 59.61,69.87 54.9,72.58 54.9,73.16 60,70.22 "
           id="polygon2828"
           style="display:inline" />
        <polygon
           fill="#eb7600"
           points="54.9,72.58 59.61,69.87 59.61,67.26 54.9,69.98 "
           id="polygon2830"
           style="display:inline" />
        <polygon
           fill="#ffa500"
           points="66.24,63.43 65.85,63.66 65.85,66.27 61.14,68.98 61.14,69.56 66.24,66.62 "
           id="polygon2832"
           style="display:inline" />
        <polygon
           fill="#eb7600"
           points="61.14,68.98 65.85,66.27 65.85,63.66 61.14,66.37 "
           id="polygon2834"
           style="display:inline" />
        <polygon
           fill="#ffa500"
           points="72.48,59.83 72.09,60.05 72.09,62.66 67.38,65.38 67.38,65.95 72.48,63.01 "
           id="polygon2836"
           style="display:inline" />
        <polygon
           fill="#eb7600"
           points="67.38,65.38 72.09,62.66 72.09,60.05 67.38,62.77 "
           id="polygon2838"
           style="display:inline" />
        <polygon
           fill="#ffa500"
           points="78.72,56.22 78.33,56.45 78.33,59.06 73.62,61.77 73.62,62.35 78.72,59.41 "
           id="polygon2840"
           style="display:inline" />
        <polygon
           fill="#eb7600"
           points="73.62,61.77 78.33,59.06 78.33,56.45 73.62,59.17 "
           id="polygon2842"
           style="display:inline" />
      </g>
      <path
         fill="#5c5c5c"
         d="m 90.97,51.54 c -0.02,-0.01 -0.04,-0.02 -0.06,-0.03 v 0 0 c -0.25,-0.13 -0.59,-0.1 -0.97,0.12 v 0 L 72.68,61.6 37.99,81.62 c -0.05,0.03 -0.1,0.06 -0.14,0.09 v 0 c -0.71,0.5 -1.27,1.51 -1.27,2.36 v 0.13 c 0,0.45 0.16,0.76 0.41,0.91 v 0 c 0,0 0.01,0 0.01,0.01 l 8.51,4.91 53.89,-33.62 z"
         id="path2844" />
      <path
         fill="#212121"
         d="m 99.54,57.49 v 0.13 c 0,0.72 -0.51,1.6 -1.13,1.96 l -51.96,30 c -0.36,0.21 -0.69,0.2 -0.9,0.01 0.16,0.01 0.34,-0.04 0.54,-0.15 l 51.96,-30 c 0.62,-0.36 1.13,-1.24 1.13,-1.96 v -0.13 c 0,-0.3 -0.09,-0.52 -0.24,-0.66 0.35,0.01 0.6,0.31 0.6,0.8 z"
         id="path2846" />
      <path
         fill="#878787"
         d="m 99.18,57.34 v 0.13 c 0,0.72 -0.51,1.6 -1.13,1.96 l -51.96,30 c -0.2,0.11 -0.38,0.16 -0.54,0.15 -0.15,-0.14 -0.23,-0.36 -0.23,-0.66 V 88.8 c 0,-0.72 0.51,-1.6 1.13,-1.96 l 51.96,-30 c 0.2,-0.11 0.38,-0.16 0.54,-0.15 0.14,0.13 0.23,0.36 0.23,0.65 z"
         id="path2848"
         style="display:inline" />
      <path
         fill="#363636"
         d="m 98.41,56.84 c 0.62,-0.36 1.13,-0.07 1.13,0.65 v 0.13 c 0,0.72 -0.51,1.6 -1.13,1.96 l -51.96,30 c -0.62,0.36 -1.13,0.07 -1.13,-0.65 V 88.8 c 0,-0.72 0.51,-1.6 1.13,-1.96 z m 0,-0.33 -51.96,30 c -0.78,0.45 -1.42,1.55 -1.42,2.45 v 0.13 c 0,0.9 0.63,1.27 1.42,0.82 l 51.96,-30 c 0.78,-0.45 1.41,-1.55 1.41,-2.45 v -0.13 c 0,-0.9 -0.63,-1.27 -1.41,-0.82 z"
         id="path2850"
         style="display:inline" />
      <g
         id="g3382"
         style="display:inline">
        <g
           id="g3066">
          <g
             fill="#363636"
             id="g2898">
            <polygon
               points="72.36,61.78 80.82,66.66 80.27,66.98 71.8,62.1 "
               id="polygon2852" />
            <polygon
               points="70.1,63.08 78.56,67.97 78,68.29 69.54,63.41 "
               id="polygon2854" />
            <polygon
               points="67.84,64.39 76.3,69.27 75.73,69.6 67.27,64.71 "
               id="polygon2856" />
            <polygon
               points="65.57,65.7 74.03,70.58 73.47,70.91 65.01,66.02 "
               id="polygon2858" />
            <polygon
               points="63.31,67 71.77,71.89 71.21,72.21 62.74,67.33 "
               id="polygon2860" />
            <polygon
               points="61.04,68.31 69.5,73.2 68.94,73.52 60.48,68.64 "
               id="polygon2862" />
            <polygon
               points="58.78,69.62 67.24,74.5 66.68,74.83 58.22,69.94 "
               id="polygon2864" />
            <polygon
               points="56.51,70.93 64.97,75.81 64.41,76.14 55.95,71.25 "
               id="polygon2866" />
            <polygon
               points="54.25,72.24 62.71,77.12 62.15,77.44 53.69,72.56 "
               id="polygon2868" />
            <polygon
               points="88.22,52.62 96.68,57.51 96.12,57.83 87.66,52.95 "
               id="polygon2870" />
            <polygon
               points="85.95,53.93 94.41,58.82 93.85,59.14 85.39,54.25 "
               id="polygon2872" />
            <polygon
               points="83.69,55.24 92.15,60.12 91.59,60.45 83.13,55.56 "
               id="polygon2874" />
            <polygon
               points="81.42,56.54 89.88,61.43 89.32,61.75 80.86,56.87 "
               id="polygon2876" />
            <polygon
               points="79.16,57.85 87.62,62.74 87.06,63.06 78.6,58.18 "
               id="polygon2878" />
            <polygon
               points="76.89,59.16 85.35,64.04 84.79,64.37 76.33,59.48 "
               id="polygon2880" />
            <polygon
               points="74.63,60.47 83.09,65.35 82.53,65.68 74.07,60.79 "
               id="polygon2882" />
            <polygon
               points="51.98,73.54 60.44,78.43 59.88,78.75 51.42,73.87 "
               id="polygon2884" />
            <polygon
               points="49.72,74.85 58.18,79.74 57.62,80.06 49.16,75.17 "
               id="polygon2886" />
            <polygon
               points="47.45,76.16 55.91,81.04 55.35,81.37 46.89,76.48 "
               id="polygon2888" />
            <polygon
               points="45.19,77.47 53.65,82.35 53.09,82.67 44.63,77.79 "
               id="polygon2890" />
            <polygon
               points="42.92,78.77 51.38,83.66 50.82,83.98 42.36,79.1 "
               id="polygon2892" />
            <polygon
               points="40.66,80.08 49.12,84.96 48.56,85.29 40.1,80.4 "
               id="polygon2894" />
            <polygon
               points="38.39,81.39 46.85,86.27 46.29,86.6 37.84,81.72 "
               id="polygon2896" />
          </g>
          <g
             id="g2908">
            <path
               fill="#a6a6a6"
               d="m 49.65,85.92 -0.33,-0.17 v 0 c -0.14,-0.06 -0.32,-0.04 -0.51,0.07 -0.43,0.25 -0.78,0.85 -0.78,1.35 0,0.26 0.1,0.44 0.25,0.52 l 0.23,0.11 0.05,-0.08 c 0.08,-0.02 0.16,-0.05 0.25,-0.1 0.43,-0.25 0.78,-0.85 0.78,-1.35 0,-0.07 -0.01,-0.14 -0.02,-0.2 z"
               id="path2900" />
            <path
               fill="#5c5c5c"
               d="m 49.84,86.4 c 0,0.5 -0.35,1.1 -0.78,1.35 -0.43,0.25 -0.78,0.05 -0.78,-0.45 0,-0.5 0.35,-1.1 0.78,-1.35 0.43,-0.25 0.78,-0.05 0.78,0.45 z"
               id="path2902" />
            <path
               fill="#a6a6a6"
               d="m 49.45,86.62 c 0,0.25 -0.17,0.55 -0.39,0.67 -0.15,0.09 -0.28,0.06 -0.34,-0.04 0.05,0 0.1,-0.02 0.16,-0.05 0.21,-0.12 0.39,-0.43 0.39,-0.67 0,-0.08 -0.02,-0.14 -0.05,-0.19 0.13,0 0.23,0.1 0.23,0.28 z"
               id="path2904" />
            <path
               fill="#4a4a4a"
               d="m 49.27,86.54 c 0,0.25 -0.17,0.55 -0.39,0.67 -0.06,0.03 -0.11,0.05 -0.16,0.05 -0.03,-0.05 -0.05,-0.11 -0.05,-0.19 0,-0.25 0.17,-0.55 0.39,-0.67 0.06,-0.03 0.11,-0.05 0.16,-0.05 0.03,0.04 0.05,0.11 0.05,0.19 z"
               id="path2906" />
          </g>
          <g
             id="g2918">
            <path
               fill="#a6a6a6"
               d="m 54.18,83.31 -0.33,-0.17 v 0 c -0.14,-0.06 -0.32,-0.04 -0.51,0.07 -0.43,0.25 -0.78,0.85 -0.78,1.35 0,0.26 0.1,0.44 0.25,0.52 l 0.23,0.11 0.05,-0.08 c 0.08,-0.02 0.16,-0.05 0.25,-0.1 0.43,-0.25 0.78,-0.85 0.78,-1.35 0,-0.07 -0.01,-0.14 -0.02,-0.2 z"
               id="path2910" />
            <path
               fill="#5c5c5c"
               d="m 54.36,83.79 c 0,0.5 -0.35,1.1 -0.78,1.35 -0.43,0.25 -0.78,0.05 -0.78,-0.45 0,-0.49 0.35,-1.1 0.78,-1.35 0.44,-0.25 0.78,-0.05 0.78,0.45 z"
               id="path2912" />
            <path
               fill="#a6a6a6"
               d="m 53.97,84.01 c 0,0.25 -0.17,0.55 -0.39,0.67 -0.15,0.08 -0.28,0.06 -0.34,-0.04 0.05,0 0.1,-0.02 0.16,-0.05 0.21,-0.12 0.39,-0.42 0.39,-0.67 0,-0.08 -0.02,-0.14 -0.05,-0.19 0.14,0 0.23,0.1 0.23,0.28 z"
               id="path2914" />
            <path
               fill="#4a4a4a"
               d="m 53.79,83.92 c 0,0.25 -0.17,0.55 -0.39,0.67 -0.06,0.03 -0.11,0.05 -0.16,0.05 -0.03,-0.05 -0.05,-0.11 -0.05,-0.19 0,-0.25 0.17,-0.55 0.39,-0.67 0.06,-0.03 0.11,-0.05 0.16,-0.05 0.04,0.05 0.05,0.11 0.05,0.19 z"
               id="path2916" />
          </g>
          <g
             id="g2928">
            <path
               fill="#a6a6a6"
               d="m 58.14,81.02 -0.33,-0.17 v 0 c -0.14,-0.06 -0.32,-0.04 -0.51,0.07 -0.43,0.25 -0.78,0.85 -0.78,1.35 0,0.26 0.1,0.44 0.25,0.52 L 57,82.9 57.05,82.82 c 0.08,-0.01 0.16,-0.04 0.25,-0.09 0.43,-0.25 0.78,-0.85 0.78,-1.35 0,-0.08 -0.01,-0.14 -0.02,-0.2 z"
               id="path2920" />
            <path
               fill="#5c5c5c"
               d="m 58.33,81.5 c 0,0.5 -0.35,1.1 -0.78,1.35 -0.43,0.25 -0.78,0.05 -0.78,-0.45 0,-0.5 0.35,-1.1 0.78,-1.35 0.43,-0.25 0.78,-0.05 0.78,0.45 z"
               id="path2922" />
            <path
               fill="#a6a6a6"
               d="m 57.94,81.72 c 0,0.25 -0.17,0.55 -0.39,0.67 -0.15,0.08 -0.28,0.06 -0.34,-0.04 0.05,0 0.11,-0.02 0.16,-0.05 0.22,-0.12 0.39,-0.43 0.39,-0.67 0,-0.08 -0.02,-0.14 -0.05,-0.19 0.14,0 0.23,0.1 0.23,0.28 z"
               id="path2924" />
            <path
               fill="#4a4a4a"
               d="m 57.76,81.63 c 0,0.25 -0.17,0.55 -0.39,0.67 -0.06,0.03 -0.11,0.05 -0.16,0.05 -0.03,-0.05 -0.05,-0.11 -0.05,-0.19 0,-0.25 0.17,-0.55 0.39,-0.67 0.06,-0.03 0.11,-0.05 0.16,-0.05 0.03,0.05 0.05,0.11 0.05,0.19 z"
               id="path2926" />
          </g>
          <g
             id="g2938">
            <path
               fill="#a6a6a6"
               d="m 62.1,78.73 -0.33,-0.17 v 0 c -0.14,-0.06 -0.32,-0.04 -0.51,0.07 -0.43,0.25 -0.78,0.85 -0.78,1.35 0,0.26 0.1,0.44 0.25,0.52 l 0.23,0.11 0.05,-0.08 c 0.08,-0.01 0.16,-0.05 0.25,-0.09 0.43,-0.25 0.78,-0.85 0.78,-1.35 0,-0.07 -0.01,-0.14 -0.02,-0.2 z"
               id="path2930" />
            <path
               fill="#5c5c5c"
               d="m 62.29,79.21 c 0,0.5 -0.35,1.1 -0.78,1.35 -0.43,0.25 -0.78,0.05 -0.78,-0.45 0,-0.5 0.35,-1.1 0.78,-1.35 0.43,-0.25 0.78,-0.05 0.78,0.45 z"
               id="path2932" />
            <path
               fill="#a6a6a6"
               d="m 61.9,79.43 c 0,0.25 -0.17,0.55 -0.39,0.67 -0.15,0.09 -0.28,0.06 -0.34,-0.04 0.05,0 0.1,-0.02 0.16,-0.05 0.21,-0.12 0.39,-0.43 0.39,-0.67 0,-0.08 -0.02,-0.14 -0.05,-0.19 0.14,0 0.23,0.1 0.23,0.28 z"
               id="path2934" />
            <path
               fill="#4a4a4a"
               d="m 61.72,79.34 c 0,0.25 -0.17,0.55 -0.39,0.67 -0.06,0.03 -0.11,0.05 -0.16,0.05 -0.03,-0.05 -0.05,-0.11 -0.05,-0.19 0,-0.25 0.18,-0.55 0.39,-0.67 0.06,-0.03 0.11,-0.05 0.16,-0.05 0.03,0.05 0.05,0.12 0.05,0.19 z"
               id="path2936" />
          </g>
          <g
             id="g2948">
            <path
               fill="#a6a6a6"
               d="m 66.06,76.45 -0.33,-0.17 v 0 c -0.14,-0.06 -0.32,-0.04 -0.51,0.07 -0.43,0.25 -0.78,0.85 -0.78,1.35 0,0.26 0.1,0.44 0.26,0.52 l 0.23,0.11 0.05,-0.08 c 0.08,-0.02 0.16,-0.05 0.25,-0.1 C 65.65,77.89 66,77.29 66,76.8 66,76.72 65.99,76.66 65.98,76.6 Z"
               id="path2940" />
            <path
               fill="#5c5c5c"
               d="m 66.25,76.92 c 0,0.5 -0.35,1.1 -0.78,1.35 -0.43,0.25 -0.78,0.05 -0.78,-0.45 0,-0.5 0.35,-1.1 0.78,-1.35 0.43,-0.25 0.78,-0.04 0.78,0.45 z"
               id="path2942" />
            <path
               fill="#a6a6a6"
               d="m 65.86,77.15 c 0,0.25 -0.17,0.55 -0.39,0.67 -0.15,0.08 -0.28,0.06 -0.34,-0.04 0.05,0 0.11,-0.02 0.16,-0.05 0.21,-0.12 0.39,-0.43 0.39,-0.67 0,-0.08 -0.02,-0.14 -0.05,-0.19 0.14,-0.01 0.23,0.09 0.23,0.28 z"
               id="path2944" />
            <path
               fill="#4a4a4a"
               d="m 65.68,77.06 c 0,0.25 -0.17,0.55 -0.39,0.67 -0.06,0.03 -0.11,0.05 -0.16,0.05 -0.03,-0.05 -0.05,-0.11 -0.05,-0.19 0,-0.25 0.17,-0.55 0.39,-0.68 0.06,-0.03 0.11,-0.05 0.16,-0.05 0.04,0.06 0.05,0.12 0.05,0.2 z"
               id="path2946" />
          </g>
          <g
             id="g2958">
            <path
               fill="#a6a6a6"
               d="M 70.03,74.16 69.7,73.99 v 0 c -0.14,-0.06 -0.32,-0.04 -0.52,0.07 -0.43,0.25 -0.78,0.85 -0.78,1.35 0,0.26 0.1,0.44 0.26,0.52 l 0.23,0.11 0.05,-0.08 c 0.08,-0.01 0.16,-0.05 0.25,-0.09 0.43,-0.25 0.78,-0.85 0.78,-1.35 0,-0.07 -0.01,-0.14 -0.02,-0.2 z"
               id="path2950" />
            <path
               fill="#5c5c5c"
               d="m 70.22,74.63 c 0,0.5 -0.35,1.1 -0.78,1.35 -0.43,0.25 -0.78,0.05 -0.78,-0.45 0,-0.5 0.35,-1.1 0.78,-1.35 0.43,-0.24 0.78,-0.04 0.78,0.45 z"
               id="path2952" />
            <path
               fill="#a6a6a6"
               d="m 69.83,74.86 c 0,0.25 -0.17,0.55 -0.39,0.68 -0.15,0.08 -0.28,0.06 -0.34,-0.04 0.05,0 0.1,-0.02 0.16,-0.05 0.21,-0.12 0.39,-0.43 0.39,-0.67 0,-0.08 -0.02,-0.14 -0.05,-0.19 0.13,-0.02 0.23,0.09 0.23,0.27 z"
               id="path2954" />
            <path
               fill="#4a4a4a"
               d="m 69.65,74.77 c 0,0.25 -0.17,0.55 -0.39,0.67 -0.06,0.03 -0.11,0.05 -0.16,0.05 -0.03,-0.05 -0.05,-0.11 -0.05,-0.19 0,-0.25 0.17,-0.55 0.39,-0.68 0.06,-0.03 0.11,-0.05 0.16,-0.05 0.03,0.06 0.05,0.12 0.05,0.2 z"
               id="path2956" />
          </g>
          <g
             id="g2968">
            <path
               fill="#a6a6a6"
               d="M 73.99,71.87 73.66,71.7 v 0 c -0.14,-0.06 -0.32,-0.04 -0.51,0.07 -0.43,0.25 -0.78,0.85 -0.78,1.35 0,0.26 0.1,0.44 0.26,0.52 l 0.23,0.11 0.05,-0.08 c 0.08,-0.02 0.16,-0.05 0.25,-0.1 0.43,-0.25 0.78,-0.85 0.78,-1.35 0,-0.08 -0.01,-0.14 -0.02,-0.2 z"
               id="path2960" />
            <path
               fill="#5c5c5c"
               d="m 74.18,72.34 c 0,0.5 -0.35,1.1 -0.78,1.35 -0.43,0.25 -0.78,0.05 -0.78,-0.45 0,-0.5 0.35,-1.1 0.78,-1.35 0.43,-0.24 0.78,-0.04 0.78,0.45 z"
               id="path2962" />
            <path
               fill="#a6a6a6"
               d="m 73.79,72.57 c 0,0.25 -0.17,0.55 -0.39,0.67 -0.15,0.08 -0.28,0.06 -0.34,-0.04 0.05,0 0.1,-0.02 0.16,-0.05 0.21,-0.12 0.39,-0.43 0.39,-0.67 0,-0.08 -0.02,-0.14 -0.05,-0.19 0.14,0 0.23,0.1 0.23,0.28 z"
               id="path2964" />
            <path
               fill="#4a4a4a"
               d="m 73.61,72.48 c 0,0.25 -0.17,0.55 -0.39,0.67 -0.06,0.03 -0.11,0.05 -0.16,0.05 -0.03,-0.05 -0.05,-0.11 -0.05,-0.19 0,-0.25 0.17,-0.55 0.39,-0.67 0.06,-0.04 0.11,-0.05 0.16,-0.05 0.04,0.05 0.05,0.11 0.05,0.19 z"
               id="path2966" />
          </g>
          <g
             id="g2978">
            <path
               fill="#a6a6a6"
               d="m 77.96,69.58 -0.33,-0.17 v 0 c -0.14,-0.06 -0.32,-0.04 -0.51,0.07 -0.43,0.25 -0.78,0.85 -0.78,1.35 0,0.26 0.1,0.44 0.26,0.52 l 0.23,0.11 0.05,-0.08 c 0.08,-0.01 0.16,-0.04 0.25,-0.09 0.43,-0.25 0.78,-0.85 0.78,-1.35 0,-0.07 -0.01,-0.14 -0.02,-0.2 z"
               id="path2970" />
            <path
               fill="#5c5c5c"
               d="m 78.14,70.06 c 0,0.5 -0.35,1.1 -0.78,1.35 -0.43,0.25 -0.78,0.05 -0.78,-0.45 0,-0.5 0.35,-1.1 0.78,-1.35 0.43,-0.25 0.78,-0.05 0.78,0.45 z"
               id="path2972" />
            <path
               fill="#a6a6a6"
               d="m 77.75,70.28 c 0,0.25 -0.17,0.55 -0.39,0.67 -0.15,0.08 -0.28,0.06 -0.34,-0.04 0.05,0 0.11,-0.02 0.16,-0.05 0.22,-0.12 0.39,-0.42 0.39,-0.67 0,-0.08 -0.02,-0.14 -0.05,-0.19 0.14,0 0.23,0.1 0.23,0.28 z"
               id="path2974" />
            <path
               fill="#4a4a4a"
               d="m 77.58,70.19 c 0,0.25 -0.17,0.55 -0.39,0.67 -0.06,0.03 -0.11,0.05 -0.16,0.05 -0.03,-0.05 -0.05,-0.11 -0.05,-0.19 0,-0.25 0.17,-0.55 0.39,-0.67 0.06,-0.03 0.11,-0.05 0.16,-0.05 0.03,0.05 0.05,0.11 0.05,0.19 z"
               id="path2976" />
          </g>
          <g
             id="g2988">
            <path
               fill="#a6a6a6"
               d="m 81.92,67.29 -0.33,-0.17 v 0 c -0.14,-0.06 -0.32,-0.04 -0.51,0.07 -0.43,0.25 -0.78,0.85 -0.78,1.35 0,0.26 0.1,0.44 0.26,0.52 l 0.22,0.11 0.05,-0.08 c 0.08,-0.01 0.16,-0.04 0.25,-0.09 0.43,-0.25 0.78,-0.85 0.78,-1.35 0,-0.07 -0.01,-0.14 -0.02,-0.2 z"
               id="path2980" />
            <path
               fill="#5c5c5c"
               d="m 82.11,67.77 c 0,0.5 -0.35,1.1 -0.78,1.35 -0.43,0.25 -0.78,0.05 -0.78,-0.45 0,-0.5 0.35,-1.1 0.78,-1.35 0.43,-0.25 0.78,-0.05 0.78,0.45 z"
               id="path2982" />
            <path
               fill="#a6a6a6"
               d="m 81.72,67.99 c 0,0.25 -0.17,0.55 -0.39,0.67 -0.15,0.08 -0.28,0.06 -0.34,-0.04 0.05,0 0.1,-0.02 0.16,-0.05 0.21,-0.12 0.39,-0.42 0.39,-0.67 0,-0.08 -0.02,-0.14 -0.05,-0.19 0.14,0 0.23,0.1 0.23,0.28 z"
               id="path2984" />
            <path
               fill="#4a4a4a"
               d="m 81.54,67.9 c 0,0.25 -0.17,0.55 -0.39,0.67 -0.06,0.04 -0.11,0.05 -0.16,0.05 -0.03,-0.05 -0.05,-0.11 -0.05,-0.19 0,-0.25 0.18,-0.55 0.39,-0.67 0.06,-0.04 0.11,-0.05 0.16,-0.05 0.03,0.05 0.05,0.12 0.05,0.19 z"
               id="path2986" />
          </g>
          <g
             id="g2998">
            <path
               fill="#a6a6a6"
               d="m 85.89,65 -0.33,-0.17 v 0 c -0.14,-0.06 -0.32,-0.04 -0.51,0.07 -0.43,0.25 -0.78,0.85 -0.78,1.35 0,0.26 0.1,0.44 0.25,0.52 l 0.23,0.11 0.05,-0.08 c 0.08,-0.02 0.16,-0.05 0.25,-0.1 0.43,-0.25 0.78,-0.85 0.78,-1.35 0,-0.07 -0.01,-0.14 -0.02,-0.2 z"
               id="path2990" />
            <path
               fill="#5c5c5c"
               d="m 86.07,65.48 c 0,0.5 -0.35,1.1 -0.78,1.35 -0.43,0.25 -0.78,0.05 -0.78,-0.45 0,-0.5 0.35,-1.1 0.78,-1.35 0.44,-0.25 0.78,-0.05 0.78,0.45 z"
               id="path2992" />
            <path
               fill="#a6a6a6"
               d="m 85.69,65.7 c 0,0.25 -0.17,0.55 -0.39,0.67 -0.15,0.08 -0.28,0.06 -0.34,-0.04 0.05,0 0.1,-0.02 0.16,-0.05 0.22,-0.12 0.39,-0.42 0.39,-0.67 0,-0.08 -0.02,-0.14 -0.05,-0.19 0.13,0 0.23,0.1 0.23,0.28 z"
               id="path2994" />
            <path
               fill="#4a4a4a"
               d="m 85.51,65.61 c 0,0.25 -0.17,0.55 -0.39,0.67 -0.06,0.03 -0.11,0.05 -0.16,0.05 -0.03,-0.05 -0.05,-0.11 -0.05,-0.19 0,-0.25 0.17,-0.55 0.39,-0.67 0.06,-0.03 0.11,-0.05 0.16,-0.05 0.03,0.05 0.05,0.11 0.05,0.19 z"
               id="path2996" />
          </g>
          <g
             id="g3008">
            <path
               fill="#a6a6a6"
               d="m 89.85,62.71 -0.33,-0.17 v 0 c -0.14,-0.06 -0.32,-0.04 -0.51,0.07 -0.43,0.25 -0.78,0.85 -0.78,1.35 0,0.26 0.1,0.44 0.26,0.52 l 0.22,0.11 0.05,-0.08 c 0.08,-0.01 0.16,-0.04 0.25,-0.09 0.43,-0.25 0.78,-0.85 0.78,-1.35 0,-0.07 -0.01,-0.14 -0.02,-0.2 z"
               id="path3000" />
            <path
               fill="#5c5c5c"
               d="m 90.04,63.19 c 0,0.5 -0.35,1.1 -0.78,1.35 -0.43,0.25 -0.78,0.05 -0.78,-0.45 0,-0.5 0.35,-1.1 0.78,-1.35 0.43,-0.25 0.78,-0.05 0.78,0.45 z"
               id="path3002" />
            <path
               fill="#a6a6a6"
               d="m 89.65,63.42 c 0,0.25 -0.17,0.55 -0.39,0.67 -0.15,0.08 -0.28,0.06 -0.34,-0.04 0.05,0 0.11,-0.02 0.16,-0.05 0.22,-0.12 0.39,-0.42 0.39,-0.67 0,-0.08 -0.02,-0.14 -0.05,-0.19 0.13,-0.01 0.23,0.09 0.23,0.28 z"
               id="path3004" />
            <path
               fill="#4a4a4a"
               d="m 89.47,63.33 c 0,0.25 -0.17,0.55 -0.39,0.67 -0.06,0.03 -0.11,0.05 -0.16,0.05 -0.03,-0.05 -0.05,-0.11 -0.05,-0.19 0,-0.25 0.17,-0.55 0.39,-0.67 0.06,-0.03 0.11,-0.05 0.16,-0.05 0.03,0.04 0.05,0.11 0.05,0.19 z"
               id="path3006" />
          </g>
          <g
             id="g3018">
            <path
               fill="#a6a6a6"
               d="m 93.81,60.43 -0.33,-0.17 v 0 c -0.14,-0.06 -0.32,-0.04 -0.51,0.07 -0.43,0.25 -0.78,0.85 -0.78,1.35 0,0.26 0.1,0.44 0.26,0.52 l 0.22,0.11 0.05,-0.08 c 0.08,-0.02 0.16,-0.05 0.25,-0.1 0.43,-0.25 0.78,-0.85 0.78,-1.35 0,-0.08 -0.01,-0.14 -0.02,-0.2 z"
               id="path3010" />
            <path
               fill="#5c5c5c"
               d="m 94,60.9 c 0,0.5 -0.35,1.1 -0.78,1.35 -0.43,0.25 -0.78,0.05 -0.78,-0.45 0,-0.5 0.35,-1.1 0.78,-1.35 C 93.65,60.2 94,60.41 94,60.9 Z"
               id="path3012" />
            <path
               fill="#a6a6a6"
               d="m 93.61,61.13 c 0,0.25 -0.17,0.55 -0.39,0.67 -0.15,0.08 -0.28,0.06 -0.34,-0.04 0.05,0 0.1,-0.02 0.16,-0.05 0.21,-0.12 0.39,-0.42 0.39,-0.67 0,-0.08 -0.02,-0.14 -0.05,-0.19 0.14,-0.01 0.23,0.1 0.23,0.28 z"
               id="path3014" />
            <path
               fill="#4a4a4a"
               d="m 93.43,61.04 c 0,0.25 -0.17,0.55 -0.39,0.67 -0.06,0.03 -0.11,0.05 -0.16,0.05 -0.03,-0.05 -0.05,-0.11 -0.05,-0.19 0,-0.25 0.18,-0.55 0.39,-0.67 0.06,-0.03 0.11,-0.05 0.16,-0.05 0.03,0.05 0.05,0.11 0.05,0.19 z"
               id="path3016" />
          </g>
          <g
             id="g3028">
            <path
               fill="#a6a6a6"
               d="m 97.78,58.14 -0.33,-0.17 v 0 c -0.14,-0.06 -0.32,-0.04 -0.51,0.07 -0.43,0.25 -0.78,0.85 -0.78,1.35 0,0.26 0.1,0.44 0.25,0.52 l 0.23,0.11 0.05,-0.08 c 0.08,-0.01 0.16,-0.04 0.25,-0.09 0.43,-0.25 0.78,-0.85 0.78,-1.35 0,-0.07 -0.01,-0.14 -0.02,-0.2 z"
               id="path3020" />
            <path
               fill="#5c5c5c"
               d="m 97.96,58.61 c 0,0.5 -0.35,1.1 -0.78,1.35 -0.43,0.25 -0.78,0.05 -0.78,-0.45 0,-0.5 0.35,-1.1 0.78,-1.35 0.43,-0.24 0.78,-0.04 0.78,0.45 z"
               id="path3022" />
            <path
               fill="#a6a6a6"
               d="m 97.57,58.84 c 0,0.25 -0.17,0.55 -0.39,0.67 -0.15,0.08 -0.28,0.06 -0.34,-0.04 0.05,0 0.1,-0.02 0.16,-0.05 0.21,-0.12 0.39,-0.42 0.39,-0.67 0,-0.08 -0.02,-0.14 -0.05,-0.19 0.14,0 0.23,0.1 0.23,0.28 z"
               id="path3024" />
            <path
               fill="#4a4a4a"
               d="m 97.39,58.75 c 0,0.25 -0.17,0.55 -0.39,0.67 -0.06,0.03 -0.11,0.05 -0.16,0.05 -0.03,-0.05 -0.05,-0.11 -0.05,-0.19 0,-0.25 0.18,-0.55 0.39,-0.67 0.06,-0.03 0.11,-0.05 0.16,-0.05 0.04,0.05 0.05,0.11 0.05,0.19 z"
               id="path3026" />
          </g>
          <g
             id="g3064">
            <polygon
               fill="#ff8800"
               points="99.11,60.77 99.11,80.16 50.8,108.04 50.81,88.66 52.71,83.06 97.21,57.36 "
               id="polygon3030" />
            <polygon
               fill="#ffa500"
               points="64.76,77.46 64.76,80.07 60.05,82.79 60.05,83.36 65.15,80.42 65.15,77.24 "
               id="polygon3032" />
            <polygon
               fill="#eb7600"
               points="64.76,80.07 64.76,77.46 60.05,80.18 60.05,82.79 "
               id="polygon3034" />
            <polygon
               fill="#ffa500"
               points="58.52,83.68 53.22,86.73 52.94,87.47 58.91,84.03 58.91,80.84 58.52,81.07 "
               id="polygon3036" />
            <polygon
               fill="#eb7600"
               points="58.52,81.07 54.5,83.39 53.22,86.73 58.52,83.68 "
               id="polygon3038" />
            <polygon
               fill="#ffa500"
               points="95.59,59.66 96.87,61.53 91.29,64.75 91.29,65.33 97.26,61.88 95.7,59.6 "
               id="polygon3040" />
            <polygon
               fill="#eb7600"
               points="96.87,61.53 95.59,59.66 91.29,62.14 91.29,64.75 "
               id="polygon3042" />
            <polygon
               fill="#ffa500"
               points="71,73.86 71,76.47 66.29,79.19 66.29,79.76 71.39,76.82 71.39,73.64 "
               id="polygon3044" />
            <polygon
               fill="#eb7600"
               points="71,76.47 71,73.86 66.29,76.58 66.29,79.19 "
               id="polygon3046" />
            <polygon
               fill="#ffa500"
               points="77.24,70.26 77.24,72.87 72.53,75.58 72.53,76.16 77.63,73.22 77.63,70.03 "
               id="polygon3048" />
            <polygon
               fill="#eb7600"
               points="77.24,72.87 77.24,70.26 72.53,72.97 72.53,75.58 "
               id="polygon3050" />
            <polygon
               fill="#ffa500"
               points="83.48,66.65 83.48,69.26 78.77,71.98 78.77,72.55 83.87,69.61 83.87,66.43 "
               id="polygon3052" />
            <polygon
               fill="#eb7600"
               points="83.48,69.26 83.48,66.65 78.77,69.37 78.77,71.98 "
               id="polygon3054" />
            <polygon
               fill="#ffa500"
               points="89.72,63.05 89.72,65.66 85.01,68.38 85.01,68.95 90.11,66.01 90.11,62.83 "
               id="polygon3056" />
            <polygon
               fill="#eb7600"
               points="89.72,65.66 89.72,63.05 85.01,65.77 85.01,68.38 "
               id="polygon3058" />
            <polygon
               fill="#ffa500"
               points="49.8,88.07 51.7,82.48 52.71,83.06 50.81,88.66 "
               id="polygon3060" />
            <polygon
               fill="#ffb833"
               points="52.71,83.06 51.7,82.48 96.21,56.78 97.21,57.36 "
               id="polygon3062" />
          </g>
        </g>
        <g
           id="g3158">
          <polygon
             fill="#ff8800"
             points="66.91,65.57 66.91,49.9 80.76,41.9 80.76,57.58 "
             id="polygon3068" />
          <polygon
             opacity="0.2"
             points="66.91,65.57 66.91,49.9 80.76,41.9 80.76,57.58 "
             id="polygon3070" />
          <polygon
             fill="#ff8800"
             points="103.44,68.63 103.44,65.7 98.14,62.63 94.87,47.24 79.39,38.34 65.32,46.47 79.2,55.86 84.07,70.75 84.07,93.7 98.14,85.58 98.14,69.14 "
             id="polygon3072" />
          <g
             id="g3088">
            <polygon
               fill="#ffa500"
               points="95.31,61.32 86.19,66.59 86.03,65.84 94.39,61.02 92.43,51.78 93.19,51.34 "
               id="polygon3074" />
            <path
               fill="#0d0d0d"
               d="m 94.39,61.02 c -2.09,2.68 -8.36,4.83 -8.36,4.83 l -1.96,-9.24 8.36,-4.83 c 0,0 2.16,4.24 1.96,9.24 z"
               id="path3076" />
            <polygon
               fill="#75c425"
               points="91.09,54.5 85.11,57.95 84.99,57.4 90.97,53.94 "
               id="polygon3078" />
            <polygon
               fill="#75c425"
               points="91.39,55.87 85.41,59.33 85.29,58.77 91.27,55.32 "
               id="polygon3080" />
            <polygon
               fill="#75c425"
               points="92.55,61.45 86.56,64.9 86.45,64.35 92.43,60.89 "
               id="polygon3082" />
            <polygon
               fill="#75c425"
               points="92.37,60.26 86.38,63.71 85.9,61.2 91.88,57.75 "
               id="polygon3084" />
            <polygon
               fill="#75c425"
               points="89.5,58.4 85.72,60.58 85.6,60.03 89.39,57.85 "
               id="polygon3086" />
          </g>
          <polygon
             fill="#ffa500"
             points="89.38,73.82 84.07,70.75 98.14,62.63 103.44,65.7 "
             id="polygon3090" />
          <g
             id="g3100">
            <polygon
               points="95.56,64.52 98.4,66.16 99.18,65.71 96.34,64.07 "
               id="polygon3092" />
            <polygon
               points="96.66,63.88 99.5,65.52 100.28,65.07 97.44,63.43 "
               id="polygon3094" />
            <polygon
               fill="#a62626"
               points="96.06,64.45 98.9,63.71 98.9,64.17 96.84,65.36 96.06,64.91 "
               id="polygon3096" />
            <polygon
               fill="#d63a3a"
               points="98.9,63.71 96.84,64.9 96.06,64.45 98.12,63.26 "
               id="polygon3098" />
          </g>
          <g
             id="g3138">
            <polygon
               fill="#1c4b94"
               points="87.14,71 86.35,70.54 87.14,70.08 87.94,70.54 "
               id="polygon3102" />
            <polygon
               fill="#d63a3a"
               points="88.51,70.21 87.72,69.75 88.51,69.29 89.3,69.75 "
               id="polygon3104" />
            <polygon
               fill="#1c4b94"
               points="89.86,69.43 89.07,68.97 89.86,68.51 90.65,68.97 "
               id="polygon3106" />
            <polygon
               fill="#d63a3a"
               points="88.47,71.76 87.68,71.31 88.47,70.85 89.27,71.31 "
               id="polygon3108" />
            <polygon
               fill="#1c4b94"
               points="89.84,70.97 89.05,70.52 89.84,70.06 90.63,70.52 "
               id="polygon3110" />
            <polygon
               fill="#d63a3a"
               points="91.19,70.2 90.4,69.74 91.19,69.28 91.98,69.74 "
               id="polygon3112" />
            <polygon
               fill="#d63a3a"
               points="89.83,72.55 89.04,72.09 89.83,71.63 90.62,72.09 "
               id="polygon3114" />
            <polygon
               fill="#25a4c4"
               points="91.2,71.76 90.41,71.3 91.2,70.84 91.99,71.3 "
               id="polygon3116" />
            <polygon
               fill="#1c4b94"
               points="92.54,70.98 91.75,70.52 92.54,70.07 93.34,70.52 "
               id="polygon3118" />
            <polygon
               fill="#1c4b94"
               points="92.02,68.18 91.22,67.72 92.02,67.26 92.81,67.72 "
               id="polygon3120" />
            <polygon
               fill="#d63a3a"
               points="93.38,67.39 92.59,66.93 93.38,66.47 94.18,66.93 "
               id="polygon3122" />
            <polygon
               fill="#1c4b94"
               points="94.73,66.61 93.94,66.16 94.73,65.7 95.52,66.16 "
               id="polygon3124" />
            <polygon
               fill="#d63a3a"
               points="93.35,68.95 92.55,68.49 93.35,68.03 94.14,68.49 "
               id="polygon3126" />
            <polygon
               fill="#1c4b94"
               points="94.71,68.16 93.92,67.7 94.71,67.24 95.51,67.7 "
               id="polygon3128" />
            <polygon
               fill="#d63a3a"
               points="96.06,67.38 95.27,66.92 96.06,66.47 96.85,66.92 "
               id="polygon3130" />
            <polygon
               fill="#d63a3a"
               points="94.7,69.73 93.91,69.27 94.7,68.82 95.49,69.27 "
               id="polygon3132" />
            <polygon
               fill="#25a4c4"
               points="96.07,68.94 95.28,68.48 96.07,68.03 96.86,68.48 "
               id="polygon3134" />
            <polygon
               fill="#1c4b94"
               points="97.42,68.16 96.62,67.71 97.42,67.25 98.21,67.71 "
               id="polygon3136" />
          </g>
          <polygon
             fill="#ffa500"
             points="77.76,90.06 84.07,93.7 84.07,77.26 89.38,76.75 89.38,73.82 84.07,70.75 80.8,55.37 65.32,46.47 65.32,61.58 66.34,62.17 66.34,65.25 66.91,65.57 66.91,50.35 75.98,55.59 75.98,68.45 76.63,68.08 77.76,68.73 "
             id="polygon3140" />
          <polygon
             fill="#ff8800"
             points="89.38,76.75 89.38,73.82 103.44,65.7 103.44,68.63 "
             id="polygon3142" />
          <g
             id="g3156">
            <path
               opacity="0.3"
               d="m 77.6,47.02 c 1.06,0.61 2.78,0.61 3.84,0 1.06,-0.61 1.06,-1.6 0,-2.21 -1.06,-0.61 -2.78,-0.61 -3.84,0 -1.06,0.6 -1.06,1.6 0,2.21 z"
               id="path3144" />
            <path
               fill="#0d0d0d"
               d="m 81.89,44.5 v 1.21 h -0.01 c 0,0.35 -0.23,0.7 -0.69,0.96 -0.92,0.53 -2.42,0.53 -3.34,0 -0.46,-0.27 -0.69,-0.62 -0.69,-0.96 V 44.5 Z"
               id="path3146" />
            <path
               fill="#232323"
               d="m 77.85,45.47 c 0.92,0.53 2.42,0.53 3.34,0 0.92,-0.53 0.92,-1.4 0,-1.93 -0.92,-0.53 -2.42,-0.53 -3.34,0 -0.92,0.53 -0.92,1.4 0,1.93 z"
               id="path3148" />
            <path
               fill="#a62626"
               d="m 79.52,45.57 c -0.53,0 -1.03,-0.12 -1.41,-0.34 -0.43,-0.25 -0.66,-0.59 -0.66,-0.97 V 41.5 c 0,-1.14 0.93,-2.07 2.07,-2.07 1.14,0 2.07,0.93 2.07,2.07 v 2.76 c 0,0.38 -0.23,0.72 -0.66,0.97 -0.38,0.22 -0.88,0.34 -1.41,0.34 z m 0,-5.62 c -0.85,0 -1.55,0.69 -1.55,1.55 v 2.76 c 0,0.18 0.15,0.37 0.4,0.51 0.3,0.17 0.72,0.27 1.15,0.27 0.43,0 0.85,-0.1 1.15,-0.27 0.25,-0.15 0.4,-0.33 0.4,-0.51 V 41.5 c 0,-0.85 -0.7,-1.55 -1.55,-1.55 z"
               id="path3150" />
            <path
               fill="#d63a3a"
               d="m 79.52,39.95 c -0.85,0 -1.55,0.69 -1.55,1.55 v 2.76 c 0,0.18 0.15,0.37 0.4,0.51 0.3,0.17 0.72,0.27 1.15,0.27 0.43,0 0.85,-0.1 1.15,-0.27 0.25,-0.15 0.4,-0.33 0.4,-0.51 V 41.5 c 0,-0.85 -0.7,-1.55 -1.55,-1.55 z"
               id="path3152" />
            <path
               fill="#f5b400"
               d="m 80.1,42.68 c 0,0.66 -0.26,1.2 -0.58,1.2 -0.32,0 -0.58,-0.54 -0.58,-1.2 0,-0.66 0.26,-1.2 0.58,-1.2 0.32,0 0.58,0.54 0.58,1.2 z"
               id="path3154" />
          </g>
        </g>
        <g
           id="g3232">
          <g
             id="g3164">
            <polygon
               fill="#ffdaab"
               points="64.21,61.69 69.99,65 75.59,61.77 69.82,58.45 "
               id="polygon3160" />
            <polygon
               fill="#9c805f"
               points="72.37,63.62 73.22,63.13 67.44,59.81 66.59,60.31 "
               id="polygon3162" />
          </g>
          <polygon
             fill="#f5cb95"
             points="69.99,71.13 69.99,65 64.21,61.69 64.21,67.81 "
             id="polygon3166" />
          <polygon
             fill="#d1ad7f"
             points="69.99,65 69.99,71.13 75.59,67.9 75.59,61.77 "
             id="polygon3168" />
          <polygon
             fill="#705c44"
             points="73.22,64.99 73.22,63.13 72.37,63.62 72.37,65.49 "
             id="polygon3170" />
          <g
             id="g3190">
            <polygon
               fill="#ebebeb"
               points="73.59,65.34 75.19,64.41 75.19,62.69 73.59,63.62 "
               id="polygon3172" />
            <polygon
               fill="#9e9e9e"
               points="73.82,63.86 75.04,63.16 75.04,63 73.82,63.7 "
               id="polygon3174" />
            <polygon
               fill="#9e9e9e"
               points="73.82,64.29 75.04,63.58 75.04,63.42 73.82,64.13 "
               id="polygon3176" />
            <polygon
               fill="#9e9e9e"
               points="73.82,64.71 75.04,64 75.04,63.84 73.82,64.55 "
               id="polygon3178" />
            <polygon
               fill="#9e9e9e"
               points="73.82,65.07 74.51,64.67 74.51,64.51 73.82,64.91 "
               id="polygon3180" />
            <polygon
               fill="#9c8469"
               points="70.52,69.32 72.79,68.01 72.79,67.8 70.52,69.11 "
               id="polygon3182" />
            <polygon
               fill="#9c8469"
               points="70.52,70.04 72.79,68.73 72.79,68.52 70.52,69.83 "
               id="polygon3184" />
            <polygon
               fill="#9c8469"
               points="70.52,70.4 72.79,69.09 72.79,68.88 70.52,70.19 "
               id="polygon3186" />
            <polygon
               fill="#9c8469"
               points="70.52,69.69 71.66,69.03 71.66,68.82 70.52,69.47 "
               id="polygon3188" />
          </g>
          <g
             id="g3230">
            <polygon
               fill="#ebebeb"
               points="73.59,66.47 75.19,65.54 75.19,64.72 73.59,65.65 "
               id="polygon3192" />
            <g
               fill="#424242"
               id="g3228">
              <polygon
                 points="74.57,65.23 74.57,65.61 74.61,65.59 74.61,65.2 "
                 id="polygon3194" />
              <polygon
                 points="74.96,65 74.96,65.38 74.99,65.36 74.99,64.98 "
                 id="polygon3196" />
              <polygon
                 points="74.04,65.53 74.04,65.91 74.08,65.89 74.08,65.51 "
                 id="polygon3198" />
              <polygon
                 points="73.94,65.59 73.94,65.97 73.98,65.95 73.98,65.57 "
                 id="polygon3200" />
              <polygon
                 points="75.06,64.94 75.06,65.32 75.13,65.29 75.13,64.9 "
                 id="polygon3202" />
              <polygon
                 points="74.65,65.18 74.65,65.56 74.71,65.52 74.71,65.14 "
                 id="polygon3204" />
              <polygon
                 points="74.45,65.29 74.45,65.68 74.47,65.67 74.47,65.29 "
                 id="polygon3206" />
              <polygon
                 points="74.83,65.08 74.83,65.46 74.84,65.45 74.84,65.07 "
                 id="polygon3208" />
              <polygon
                 points="74.39,65.33 74.39,65.71 74.4,65.71 74.4,65.32 "
                 id="polygon3210" />
              <polygon
                 points="74.33,65.37 74.33,65.75 74.34,65.74 74.34,65.36 "
                 id="polygon3212" />
              <polygon
                 points="74.88,65.04 74.88,65.43 74.9,65.42 74.9,65.04 "
                 id="polygon3214" />
              <polygon
                 points="74.14,65.47 74.14,65.86 74.15,65.85 74.15,65.47 "
                 id="polygon3216" />
              <polygon
                 points="73.87,65.63 73.87,66.01 73.88,66 73.88,65.62 "
                 id="polygon3218" />
              <polygon
                 points="74.51,65.26 74.51,65.64 74.53,65.63 74.53,65.25 "
                 id="polygon3220" />
              <polygon
                 points="74.76,65.11 74.76,65.5 74.78,65.49 74.78,65.1 "
                 id="polygon3222" />
              <polygon
                 points="74.21,65.43 74.21,65.81 74.28,65.78 74.28,65.39 "
                 id="polygon3224" />
              <polygon
                 points="73.73,65.71 73.73,66.09 73.79,66.06 73.79,65.67 "
                 id="polygon3226" />
            </g>
          </g>
        </g>
        <g
           id="g3306">
          <g
             id="g3238">
            <polygon
               fill="#ffdaab"
               points="56.11,66.64 61.89,69.96 67.49,66.73 61.71,63.41 "
               id="polygon3234" />
            <polygon
               fill="#9c805f"
               points="64.26,68.58 65.12,68.09 59.34,64.77 58.49,65.27 "
               id="polygon3236" />
          </g>
          <polygon
             fill="#f5cb95"
             points="61.89,76.09 61.89,69.96 56.11,66.64 56.11,72.77 "
             id="polygon3240" />
          <polygon
             fill="#d1ad7f"
             points="61.89,69.96 61.89,76.09 67.49,72.85 67.49,66.73 "
             id="polygon3242" />
          <polygon
             fill="#705c44"
             points="65.12,69.95 65.12,68.09 64.26,68.58 64.26,70.44 "
             id="polygon3244" />
          <g
             id="g3264">
            <polygon
               fill="#ebebeb"
               points="65.49,70.3 67.09,69.37 67.09,67.65 65.49,68.57 "
               id="polygon3246" />
            <polygon
               fill="#9e9e9e"
               points="65.71,68.82 66.93,68.12 66.93,67.96 65.71,68.66 "
               id="polygon3248" />
            <polygon
               fill="#9e9e9e"
               points="65.71,69.24 66.93,68.54 66.93,68.38 65.71,69.08 "
               id="polygon3250" />
            <polygon
               fill="#9e9e9e"
               points="65.71,69.67 66.93,68.96 66.93,68.8 65.71,69.51 "
               id="polygon3252" />
            <polygon
               fill="#9e9e9e"
               points="65.71,70.03 66.41,69.63 66.41,69.47 65.71,69.87 "
               id="polygon3254" />
            <polygon
               fill="#9c8469"
               points="62.42,74.28 64.69,72.97 64.69,72.76 62.42,74.07 "
               id="polygon3256" />
            <polygon
               fill="#9c8469"
               points="62.42,74.99 64.69,73.69 64.69,73.48 62.42,74.78 "
               id="polygon3258" />
            <polygon
               fill="#9c8469"
               points="62.42,75.36 64.69,74.05 64.69,73.84 62.42,75.15 "
               id="polygon3260" />
            <polygon
               fill="#9c8469"
               points="62.42,74.64 63.55,73.99 63.55,73.78 62.42,74.43 "
               id="polygon3262" />
          </g>
          <g
             id="g3304">
            <polygon
               fill="#ebebeb"
               points="65.49,71.43 67.09,70.5 67.09,69.68 65.49,70.61 "
               id="polygon3266" />
            <g
               fill="#424242"
               id="g3302">
              <polygon
                 points="66.46,70.19 66.46,70.57 66.5,70.55 66.5,70.16 "
                 id="polygon3268" />
              <polygon
                 points="66.85,69.96 66.85,70.34 66.89,70.32 66.89,69.94 "
                 id="polygon3270" />
              <polygon
                 points="65.94,70.49 65.94,70.87 65.97,70.85 65.97,70.47 "
                 id="polygon3272" />
              <polygon
                 points="65.83,70.55 65.83,70.93 65.87,70.91 65.87,70.53 "
                 id="polygon3274" />
              <polygon
                 points="66.96,69.9 66.96,70.28 67.02,70.24 67.02,69.86 "
                 id="polygon3276" />
              <polygon
                 points="66.55,70.14 66.55,70.52 66.61,70.48 66.61,70.1 "
                 id="polygon3278" />
              <polygon
                 points="66.35,70.25 66.35,70.63 66.36,70.63 66.36,70.24 "
                 id="polygon3280" />
              <polygon
                 points="66.72,70.04 66.72,70.42 66.74,70.41 66.74,70.03 "
                 id="polygon3282" />
              <polygon
                 points="66.28,70.29 66.28,70.67 66.3,70.66 66.3,70.28 "
                 id="polygon3284" />
              <polygon
                 points="66.23,70.32 66.23,70.7 66.24,70.7 66.24,70.31 "
                 id="polygon3286" />
              <polygon
                 points="66.78,70 66.78,70.39 66.8,70.38 66.8,69.99 "
                 id="polygon3288" />
              <polygon
                 points="66.03,70.43 66.03,70.81 66.05,70.81 66.05,70.42 "
                 id="polygon3290" />
              <polygon
                 points="65.76,70.59 65.76,70.97 65.78,70.96 65.78,70.58 "
                 id="polygon3292" />
              <polygon
                 points="66.41,70.22 66.41,70.6 66.43,70.59 66.43,70.21 "
                 id="polygon3294" />
              <polygon
                 points="66.66,70.07 66.66,70.46 66.68,70.44 66.68,70.06 "
                 id="polygon3296" />
              <polygon
                 points="66.11,70.39 66.11,70.77 66.18,70.73 66.18,70.35 "
                 id="polygon3298" />
              <polygon
                 points="65.62,70.67 65.62,71.05 65.69,71.02 65.69,70.63 "
                 id="polygon3300" />
            </g>
          </g>
        </g>
        <g
           id="g3380">
          <g
             id="g3312">
            <polygon
               fill="#ffdaab"
               points="46.38,71.67 52.16,74.99 57.76,71.76 51.98,68.44 "
               id="polygon3308" />
            <polygon
               fill="#9c805f"
               points="54.53,73.61 55.39,73.12 49.61,69.8 48.76,70.29 "
               id="polygon3310" />
          </g>
          <polygon
             fill="#f5cb95"
             points="52.16,81.12 52.16,74.99 46.38,71.67 46.38,77.8 "
             id="polygon3314" />
          <polygon
             fill="#d1ad7f"
             points="52.16,74.99 52.16,81.12 57.76,77.88 57.76,71.76 "
             id="polygon3316" />
          <polygon
             fill="#705c44"
             points="55.39,74.98 55.39,73.12 54.53,73.61 54.53,75.47 "
             id="polygon3318" />
          <g
             id="g3338">
            <polygon
               fill="#ebebeb"
               points="55.76,75.33 57.36,74.4 57.36,72.68 55.76,73.6 "
               id="polygon3320" />
            <polygon
               fill="#9e9e9e"
               points="55.98,73.85 57.2,73.14 57.2,72.98 55.98,73.69 "
               id="polygon3322" />
            <polygon
               fill="#9e9e9e"
               points="55.98,74.27 57.2,73.57 57.2,73.41 55.98,74.11 "
               id="polygon3324" />
            <polygon
               fill="#9e9e9e"
               points="55.98,74.69 57.2,73.99 57.2,73.83 55.98,74.54 "
               id="polygon3326" />
            <polygon
               fill="#9e9e9e"
               points="55.98,75.05 56.68,74.65 56.68,74.5 55.98,74.9 "
               id="polygon3328" />
            <polygon
               fill="#9c8469"
               points="52.69,79.31 54.96,78 54.96,77.79 52.69,79.1 "
               id="polygon3330" />
            <polygon
               fill="#9c8469"
               points="52.69,80.02 54.96,78.71 54.96,78.5 52.69,79.81 "
               id="polygon3332" />
            <polygon
               fill="#9c8469"
               points="52.69,80.39 54.96,79.08 54.96,78.87 52.69,80.18 "
               id="polygon3334" />
            <polygon
               fill="#9c8469"
               points="52.69,79.67 53.82,79.02 53.82,78.81 52.69,79.46 "
               id="polygon3336" />
          </g>
          <g
             id="g3378">
            <polygon
               fill="#ebebeb"
               points="55.76,76.46 57.36,75.53 57.36,74.71 55.76,75.64 "
               id="polygon3340" />
            <g
               fill="#424242"
               id="g3376">
              <polygon
                 points="56.73,75.21 56.73,75.6 56.77,75.57 56.77,75.19 "
                 id="polygon3342" />
              <polygon
                 points="57.12,74.99 57.12,75.37 57.16,75.35 57.16,74.97 "
                 id="polygon3344" />
              <polygon
                 points="56.2,75.52 56.2,75.9 56.24,75.88 56.24,75.5 "
                 id="polygon3346" />
              <polygon
                 points="56.1,75.58 56.1,75.96 56.14,75.94 56.14,75.55 "
                 id="polygon3348" />
              <polygon
                 points="57.23,74.93 57.23,75.31 57.29,75.27 57.29,74.89 "
                 id="polygon3350" />
              <polygon
                 points="56.82,75.16 56.82,75.55 56.88,75.51 56.88,75.13 "
                 id="polygon3352" />
              <polygon
                 points="56.62,75.28 56.62,75.66 56.63,75.65 56.63,75.27 "
                 id="polygon3354" />
              <polygon
                 points="56.99,75.06 56.99,75.45 57.01,75.44 57.01,75.05 "
                 id="polygon3356" />
              <polygon
                 points="56.55,75.32 56.55,75.7 56.57,75.69 56.57,75.31 "
                 id="polygon3358" />
              <polygon
                 points="56.49,75.35 56.49,75.73 56.51,75.72 56.51,75.34 "
                 id="polygon3360" />
              <polygon
                 points="57.05,75.03 57.05,75.41 57.06,75.4 57.06,75.02 "
                 id="polygon3362" />
              <polygon
                 points="56.3,75.46 56.3,75.84 56.32,75.83 56.32,75.45 "
                 id="polygon3364" />
              <polygon
                 points="56.03,75.62 56.03,76 56.05,75.99 56.05,75.61 "
                 id="polygon3366" />
              <polygon
                 points="56.68,75.25 56.68,75.63 56.7,75.62 56.7,75.23 "
                 id="polygon3368" />
              <polygon
                 points="56.93,75.1 56.93,75.48 56.95,75.47 56.95,75.09 "
                 id="polygon3370" />
              <polygon
                 points="56.38,75.42 56.38,75.8 56.44,75.76 56.44,75.38 "
                 id="polygon3372" />
              <polygon
                 points="55.89,75.7 55.89,76.08 55.96,76.04 55.96,75.66 "
                 id="polygon3374" />
            </g>
          </g>
        </g>
      </g>
    </g>
  </g>
</svg>
