<svg xmlns="http://www.w3.org/2000/svg" viewbox="0 0 200 200">
<defs>
<symbol id="bee" viewBox="0 0 510 510" preserveAspectRatio="xMidYMid">
	<g>
   <g fill="#2C2F38" id="svg_2">
    <path d="m83.292,-123.495c-2.777,-0.005 -5.391,-1.315 -7.058,-3.536c-1.667,-2.222 -2.193,-5.097 -1.421,-7.765l24.013,-82.448c0.738,-3.031 0.242,-6.231 -1.379,-8.897c-1.548,-2.476 -4.036,-4.217 -6.892,-4.823l-28.759,-4.487c-3.119,-0.484 -5.743,-2.596 -6.881,-5.541s-0.616,-6.273 1.368,-8.728c1.984,-2.455 5.128,-3.664 8.246,-3.171l29.306,4.59c7.715,1.536 14.453,6.19 18.621,12.862c4.184,6.818 5.416,15.044 3.414,22.789l-24.108,82.793c-1.097,3.766 -4.547,6.358 -8.47,6.362z" id="svg_3"/>
    <path d="m246.184,-43.258c-4.343,-0.006 -8.036,-3.171 -8.707,-7.461l-4.59,-29.306c-0.69,-2.648 -2.386,-4.921 -4.728,-6.336c-2.759,-1.649 -6.074,-2.09 -9.168,-1.22l-82.091,23.849c-3.03,0.883 -6.301,0.08 -8.579,-2.104c-2.278,-2.184 -3.217,-5.418 -2.462,-8.483c0.754,-3.064 3.087,-5.493 6.119,-6.37l82.362,-23.923c7.801,-2.142 16.139,-0.984 23.06,3.203c6.567,4.029 11.2,10.568 12.823,18.099l4.694,29.858c0.397,2.55 -0.341,5.147 -2.02,7.107c-1.679,1.961 -4.131,3.088 -6.713,3.087l0,0z" id="svg_4"/>
   </g>
   <g>
    <path d="m232.866,158.896c-1.059,34.957 -22.157,60.557 -49.699,77.241c-23.837,15.965 -53.708,20.037 -80.949,11.034c18.68,-7.865 33.345,-23.008 40.607,-41.931c2.408,-6.231 4.096,-12.718 5.032,-19.332c11.299,-75.211 -49.523,-150.334 -105.754,-183.261c-7.668,-5.099 -15.726,-9.585 -24.099,-13.418c10.112,0.483 20.175,1.722 30.102,3.708c6.533,0.971 13.241,2.207 20.039,3.884c8.642,1.933 17.161,4.38 25.512,7.327c3.354,1.148 6.797,2.383 10.152,3.708c57.997,22.687 114.317,67.266 127.117,129.148c1.432,7.205 2.083,14.545 1.94,21.892z" fill="#D1D4D1" id="svg_6"/>
    <path d="m147.857,185.908c-0.935,6.615 -2.624,13.101 -5.032,19.332c-7.262,18.923 -21.927,34.066 -40.607,41.931c-7.61,3.403 -15.617,5.835 -23.834,7.239c-62.676,11.299 -91.719,-37.606 -103.724,-69.385c-3.221,-8.215 -5.732,-16.691 -7.503,-25.335c0,0 -27.542,-81.302 19.244,-143.978l0.177,-0.177c9.973,-7.574 18.854,-16.485 26.394,-26.483c0.177,-0.088 0.265,-0.265 0.441,-0.353c0.706,-0.53 2.295,-0.265 4.326,0.53c0.088,-0.088 0.088,0 0.177,0l0.088,0c8.373,3.833 16.431,8.319 24.099,13.418c56.231,32.927 117.053,108.05 105.754,183.261z" fill="#BDC3C7" id="svg_7"/>
    <path d="m12.971,-10.947c-7.54,9.998 -16.422,18.909 -26.394,26.483c7.514,-10.021 16.399,-18.936 26.394,-26.483z" fill="#BDC3C7" id="svg_8"/>
    <path d="m13.324,-11.389c-0.088,0.177 -0.265,0.265 -0.353,0.441c-9.995,7.547 -18.881,16.462 -26.394,26.483l-0.177,0.177c-62.588,46.786 -143.978,19.244 -143.978,19.244c-8.578,-1.766 -16.994,-4.246 -25.159,-7.415c-31.691,-12.005 -80.86,-41.048 -69.561,-103.901c1.404,-8.189 3.836,-16.167 7.239,-23.746l0,-0.088c7.918,-18.644 23.043,-33.291 41.931,-40.607c6.231,-2.409 12.718,-4.097 19.332,-5.032c75.211,-11.299 150.334,49.523 183.172,105.754c5.099,7.668 9.585,15.726 13.418,24.099l0,0.177c0.795,2.119 1.06,3.708 0.53,4.414z" fill="#BDC3C7" id="svg_9"/>
    <path d="m12.795,-15.979c-3.833,-8.373 -8.319,-16.431 -13.418,-24.099c-32.839,-56.232 -107.962,-117.054 -183.173,-105.755c-6.615,0.935 -13.101,2.623 -19.332,5.032c-18.888,7.316 -34.013,21.963 -41.931,40.607c-9.015,-27.24 -4.943,-57.116 11.034,-80.949c16.596,-27.63 42.284,-48.728 77.153,-49.788c7.382,-0.087 14.751,0.623 21.981,2.119c61.97,12.712 106.549,69.12 129.059,127.206l0,0.088c1.324,3.354 2.56,6.621 3.708,9.975l0.088,0.088c2.947,8.351 5.394,16.87 7.327,25.512c1.623,6.547 2.891,13.178 3.796,19.862c2.068,9.914 3.308,19.983 3.708,30.102z" fill="#D1D4D1" id="svg_10"/>
   </g>
   <g fill="#2C2F38">
    <path d="m-185.895,218.244c-25.011,4.739 -47.931,17.131 -65.592,35.464c18.331,-17.667 30.721,-40.591 35.458,-65.605l30.134,30.141z" id="svg_12"/>
    <path d="m-56.679,206.211l0,0.088c-20.079,11.867 -42.061,20.169 -64.971,24.541c-3.392,-27.186 -15.793,-52.453 -35.222,-71.768c-19.292,-19.462 -44.57,-31.868 -71.768,-35.222c4.407,-22.955 12.77,-44.969 24.717,-65.059c37.145,5.402 71.531,22.719 97.986,49.346c26.656,26.46 43.95,60.893 49.258,98.074z" id="svg_13"/>
    <path d="m68.144,-3.179c-6.797,-1.677 -13.506,-2.913 -20.039,-3.884c-9.927,-1.985 -19.99,-3.224 -30.102,-3.708l-0.088,0c-0.088,0 -0.088,-0.088 -0.177,0c-2.03,-0.794 -3.619,-1.059 -4.326,-0.53c-0.177,0.088 -0.265,0.265 -0.441,0.353c0.088,-0.177 0.265,-0.265 0.353,-0.441c0.53,-0.706 0.265,-2.295 -0.53,-4.414l0,-0.177c-0.4,-10.119 -1.64,-20.188 -3.708,-30.102c-0.905,-6.684 -2.173,-13.315 -3.796,-19.862l0.088,0c32.308,5.119 57.646,30.458 62.766,62.765l0,0z" id="svg_14"/>
   </g>
   <g fill="#F0C419">
    <path d="m146.268,-72.122c-0.971,24.806 -5.738,50.229 -19.245,63.735c-6.704,6.76 -14.567,12.262 -23.216,16.243c-3.354,-1.324 -6.797,-2.56 -10.152,-3.708c-8.351,-2.947 -16.87,-5.394 -25.512,-7.327c-5.118,-32.308 -30.457,-57.646 -62.764,-62.764l-0.088,0c-1.933,-8.642 -4.38,-17.161 -7.327,-25.512l-0.088,-0.088c-1.148,-3.354 -2.383,-6.621 -3.708,-9.975l0,-0.088c4.088,-8.657 9.643,-16.542 16.419,-23.305c13.506,-13.506 38.93,-18.273 63.735,-19.156c17.061,-0.36 34.123,0.643 51.023,3.001c9.427,0.805 17.046,8.021 18.361,17.39c2.137,17.097 2.993,34.33 2.562,51.554z" id="svg_16"/>
    <path d="m-121.65,230.84c-34.428,6.179 -65.589,-0.265 -86.157,-20.833c-20.568,-20.568 -27.012,-51.641 -20.833,-86.157c27.198,3.354 52.476,15.76 71.768,35.222c19.43,19.316 31.83,44.582 35.222,71.768z" id="svg_17"/>
    <path d="m-32.844,159.69c1.772,8.644 4.282,17.12 7.503,25.335l-0.088,0c-9.91,7.808 -20.352,14.917 -31.25,21.274l0,-0.088c-5.309,-37.181 -22.603,-71.615 -49.258,-98.074c-26.455,-26.628 -60.842,-43.945 -97.986,-49.346c6.274,-10.929 13.356,-21.375 21.186,-31.25c8.165,3.169 16.58,5.65 25.159,7.415c0,0 81.39,27.542 143.978,-19.244c-46.786,62.676 -19.244,143.978 -19.244,143.978z" id="svg_18"/>
   </g>
  </g>
</symbol>
</defs>
<path fill="none" stroke="lightgrey"
  d="M20,50 C20,-50 180,150 180,50 C180-50 20,150 20,50 z" />
<use href="#bee" width="30" height="30">
<!--
  <animateMotion dur="10s"
    repeatCount="indefinite"
    rotate="0"
    path="M20,50 C20,-50 180,150 180,50 C180-50 20,150 20,50 z" />
		-->
</use>
</svg>
