<svg xmlns="http://www.w3.org/2000/svg" fill="#ffffff" preserveAspectRatio="none" height="17" width="24"
  viewBox="0 0 30 23">
  <g fill-rule="nonzero">
    <circle cx="14.5" cy="20.5" r="2.5"></circle>
    <circle cx="22.5" cy="20.5" r="2.5"></circle>
    <path
      d="M27.357 3.283H9.381c-.04 0-.082.011-.123.011l-.457-2.242C8.72.46 8.303.103 7.524 0H.967C-.527.006-.568 3.616 2.848 3.15l3.305-.028.586 2.696v.006l1.78 8.635C8.52 15.856 9.71 17 11.163 17h14.414c1.453 0 2.643-1.144 2.643-2.541L30 5.824c0-1.397-1.19-2.541-2.643-2.541zM11.912 14.465l-.058.005c-.487.058-.944-.27-1.008-.724l-1.02-6.801c-.07-.466.288-.897.791-.954l.06-.006c.485-.058.942.27 1.007.724l1.02 6.801c.07.466-.288.897-.792.955zm4.606.023l-.065.005c-.492.035-.931-.316-.966-.776l-.58-6.835c-.042-.466.34-.88.843-.909l.065-.005c.492-.035.931.316.966.776l.58 6.835c.042.472-.34.88-.843.909zm5.338-.817c-.006.466-.422.84-.92.834h-.065c-.498-.006-.902-.391-.896-.857l.117-6.853c.006-.465.422-.839.92-.833h.064c.498.006.903.39.897.856l-.117 6.853zM27.17 6.98l-1.19 6.779c-.076.448-.539.764-1.025.7l-.058-.005c-.504-.069-.85-.506-.768-.971l1.184-6.779c.076-.448.539-.764 1.025-.701l.059.006c.51.069.855.506.773.971z">
    </path>
  </g>
</svg>
