<svg>
<path fill="currentColor" d="M89.5,3.4C89.3,3.3,89.1,3.1,89,3c-0.2-0.2-0.5-0.4-0.7-0.5c-0.4-0.3-0.9-0.5-1.3-0.6
  c-0.1-0.1-0.3-0.1-0.4-0.1c-0.6-0.2-1.2-0.2-1.8-0.2H66.3H52.1h-7.7H30.1H11.7C8,1.5,5,4.5,5,8.2v18.4l0,0v32.2h86.4V26.6l0,0V8.2
  c0-0.7-0.1-1.4-0.3-2C90.8,5.1,90.2,4.2,89.5,3.4z"></path><path fill="none" d="M59.3,64.6h-22c-2,0-2.6,0.6-2.7,1.4h0v0.1v0.1h0c0.1,0.8,0.7,1.4,2.7,1.4h22c2,0,2.4-0.6,2.6-1.4h0v-0.1V66h0
  C61.8,65.2,61.3,64.6,59.3,64.6z"></path><path d="M96.4,65.9C96.2,64.2,95.2,63,91,63H5.7c-4.2,0-5.5,1.3-5.7,2.9h0v0.2v0.2h0c0.2,1.6,1.6,2.9,5.7,2.9H91
  c4.2,0,5.2-1.3,5.4-2.9h0v-0.2L96.4,65.9L96.4,65.9z M61.9,66.1L61.9,66.1L61.9,66.1c-0.1,0.9-0.6,1.5-2.6,1.5h-22
  c-2,0-2.6-0.6-2.7-1.4h0v-0.1V66h0c0.1-0.8,0.7-1.4,2.7-1.4h22C61.3,64.6,61.8,65.2,61.9,66.1L61.9,66.1L61.9,66.1z"></path><path d="M92.9,8.2c0-4.5-3.7-8.2-8.2-8.2h-73C7.2,0,3.6,3.7,3.6,8.2v52.2h89.3V8.2z M91.4,58.9H5V8.2c0-3.7,3-6.7,6.7-6.7h73
  c0.6,0,1.2,0.1,1.8,0.2c0.2,0,0.3,0.1,0.4,0.1c0.5,0.2,0.9,0.4,1.3,0.6C88.5,2.7,88.8,2.8,89,3c0.2,0.1,0.3,0.3,0.5,0.4
  c0.8,0.8,1.3,1.7,1.7,2.7c0.2,0.6,0.3,1.3,0.3,2V58.9z">
</path>
</svg>