<svg viewBox="0 0 27 31" xmlns="http://www.w3.org/2000/svg">
<rect fill="#ccc" stroke="#333" stroke-width=".7" width="20.749941" 
  height="26.691616" x="2.7700462" y="0.35027146" ry="2.9567075"/>
<path fill="#fff" stroke="#333" stroke-width=".7" d="M 2.5722259,2.8124281 A 2.2184138,2.2184138 0 0 0 0.35027964,5.0379069 V 25.657144 c 0,0.08831 0.007065,0.173093 0.0176625,0.257873 a 3.4335958,3.4335958 0 0 0 -0.0176625,0.328523 v 0.339121 c 0,1.872228 1.51191256,3.387673 3.39120576,3.387673 H 22.870005 a 3.3806082,3.3806082 0 0 0 3.384141,-3.391206 v -0.469823 a 2.2431413,2.2431413 0 0 0 0.04239,-0.452161 V 5.0379069 c 0,-1.2293121 -0.989102,-2.2254788 -2.225479,-2.2254788 H 23.212658 A 2.2219463,2.2219463 0 0 0 20.98718,5.0379069 V 22.8594 c -4.934911,1.928748 -10.06411,1.67794 -15.3240114,0 V 5.0379069 c 0,-1.2293121 -0.9891017,-2.2254788 -2.2254787,-2.2254788 z"/>
</svg>