<?xml version="1.0" encoding="UTF-8" standalone="no"?>
<svg width="425" height="1090.9" style="enable-background:new 0 0 425 1090.9" xml:space="preserve" xmlns="http://www.w3.org/2000/svg">
  <rect style="fill:#f55;stroke:#000;stroke-width:.198437" width="5.874" height="7.556" x=".784" y=".099" ry=".837"/>
<path style="fill:#ff2a2a;stroke:#000;stroke-width:.198437" d="M.728.796a.628.628 0 0 0-.629.63v5.837c0 .025.002.049.005.073a.972.972 0 0 0-.005.093v.096c0 .53.428.959.96.959h5.415a.957.957 0 0 0 .958-.96v-.133a.635.635 0 0 0 .012-.128V1.426c0-.348-.28-.63-.63-.63h-.243a.629.629 0 0 0-.63.63v5.045c-1.397.546-2.849.475-4.338 0V1.426c0-.348-.28-.63-.63-.63z"/>

  <g id="colors" >
    <path fill="#2dd086" d="M189.5 306.1c-.1-.1-.3-1.9-2.2-2.1-.4-2.4-3.1-2.8-3.1-2.8h-15.3c-3.2 0-3.9 1.9-4 2.9-1.9.3-2.2 2.1-2.2 2.1v22c0 4.9 4.2 4.9 4.2 4.9h18.8c4.2 0 3.8-4.5 3.8-4.5s.1-22.4 0-22.5z" id="path10257"/>
    <path fill="#2dd086" d="M261.9 306.5c-.1-.1-.3-1.9-2.2-2.1-.4-2.4-3.1-2.8-3.1-2.8h-15.3c-3.2 0-3.9 1.9-4 2.9-1.9.3-2.2 2.1-2.2 2.1v22c0 4.9 4.2 4.9 4.2 4.9h18.8c4.2 0 3.8-4.5 3.8-4.5s.1-22.4 0-22.5z" id="path10259"/>
    <path fill="#2dd086" d="M226.3 677.4c-.1-.1-.3-1.9-2.2-2.1-.4-2.4-3.1-2.8-3.1-2.8h-15.3c-3.2 0-3.9 1.9-4 2.9-1.9.3-2.2 2.1-2.2 2.1v22c0 4.9 4.2 4.9 4.2 4.9h18.8c4.2 0 3.8-4.5 3.8-4.5s.1-22.5 0-22.5z" id="path10261"/>
    <path fill="#2dd086" d="M288.6 306.5c-.1-.1-.3-1.9-2.2-2.1-.4-2.4-3.1-2.8-3.1-2.8H268c-3.2 0-3.9 1.9-4 2.9-1.9.3-2.2 2.1-2.2 2.1v22c0 4.9 4.2 4.9 4.2 4.9h18.8c4.2 0 3.8-4.5 3.8-4.5s.1-22.4 0-22.5z" id="path10263"/>
    <path fill="#2dd086" d="M189.5 471.2c-.1-.1-.3-1.9-2.2-2.1-.4-2.4-3.1-2.8-3.1-2.8h-15.3c-3.2 0-3.9 1.9-4 2.9-1.9.3-2.2 2.1-2.2 2.1v22c0 4.9 4.2 4.9 4.2 4.9h18.8c4.2 0 3.8-4.5 3.8-4.5s.1-22.4 0-22.5z" id="path10265"/>
    <path fill="#2dd086" d="M162.8 471.2c-.1-.1-.3-1.9-2.2-2.1-.4-2.4-3.1-2.8-3.1-2.8h-15.3c-3.2 0-3.9 1.9-4 2.9-1.9.3-2.2 2.1-2.2 2.1v22c0 4.9 4.2 4.9 4.2 4.9H159c4.2 0 3.8-4.5 3.8-4.5s.1-22.4 0-22.5z" id="path10267"/>
    <path fill="#2dd086" d="M261.9 471.6c-.1-.1-.3-1.9-2.2-2.1-.4-2.4-3.1-2.8-3.1-2.8h-15.3c-3.2 0-3.9 1.9-4 2.9-1.9.3-2.2 2.1-2.2 2.1v22c0 4.9 4.2 4.9 4.2 4.9h18.8c4.2 0 3.8-4.5 3.8-4.5s.1-22.4 0-22.5z" id="path10269"/>
    <path fill="#2dd086" d="M288.6 471.6c-.1-.1-.3-1.9-2.2-2.1-.4-2.4-3.1-2.8-3.1-2.8H268c-3.2 0-3.9 1.9-4 2.9-1.9.3-2.2 2.1-2.2 2.1v22c0 4.9 4.2 4.9 4.2 4.9h18.8c4.2 0 3.8-4.5 3.8-4.5s.1-22.4 0-22.5z" id="path10271"/>
    <path d="M162.8 307c-.1-.1-.3-1.9-2.2-2.1-.4-2.4-3.1-2.8-3.1-2.8h-15.3c-3.2 0-3.9 1.9-4 2.9-1.9.3-2.2 2.1-2.2 2.1v22c0 4.9 4.2 4.9 4.2 4.9H159c4.2 0 3.8-4.5 3.8-4.5s.1-22.4 0-22.5z" id="path10273" style="fill:#fc0"/>
  </g>
  <g fill="#bdbdbd">
    <path d="M158.9 540.1h-18.7s-4.7-.1-4.7-5.4v-22c.1-.9.9-2.5 3.1-2.5 2 0 3 .9 3 2.6V531c.2.5 1.6 3.1 7.6 3.1 6.5 0 8.2-2.9 8.3-3.2v-18.1c0-.9.7-2.6 2.7-2.6 1.5 0 2.4.8 2.9 2.3v.1c.1.5.1 3.4.1 22.6 0 .1.2 2.3-1.2 3.7-.7.8-1.8 1.2-3.1 1.2zm-22.4-27.3v21.9c0 4.3 3.6 4.4 3.7 4.4h18.7c1 0 1.8-.3 2.4-.9 1.1-1.1.9-3 .9-3 0-8.5.1-21.2 0-22.3v-.1c-.2-.7-.6-1.6-1.9-1.6-1.7 0-1.8 1.6-1.8 1.6V531c0 .8-2.4 4.1-9.3 4.1-7.2 0-8.5-3.7-8.5-3.8v-18.5c0-.6 0-1.6-2-1.6-1.8 0-2.2 1.4-2.2 1.6z"/>
    <path d="M137.7 511.3c0-.1-.1-1.5 1-2.6.8-.8 2-1.3 3.5-1.3h15.3c1.2.2 3.6 1.3 3.6 3.8l-1-.2c0-2-2.4-2.6-2.7-2.7h-15.2c-1.3 0-2.2.3-2.8 1-.6.7-.7 1.6-.7 1.8zm48 28.8H167s-4.7-.1-4.7-5.4v-22c.1-.9.9-2.5 3.1-2.5 2 0 3 .9 3 2.6V531c.2.5 1.6 3.1 7.6 3.1 6.5 0 8.2-2.9 8.3-3.2v-18.1c0-.9.7-2.6 2.7-2.6 1.5 0 2.4.8 2.9 2.3v.1c.1.5.1 3.4.1 22.6 0 .1.2 2.3-1.2 3.7-.8.8-1.8 1.2-3.1 1.2zm-22.5-27.3v21.9c0 4.3 3.6 4.4 3.7 4.4h18.7c1 0 1.8-.3 2.4-.9 1.1-1.1.9-3 .9-3 0-8.5.1-21.2 0-22.3v-.1c-.2-.7-.6-1.6-1.9-1.6-1.7 0-1.8 1.6-1.8 1.6V531c0 .8-2.4 4.1-9.3 4.1-7.2 0-8.5-3.7-8.5-3.8v-18.5c0-.6 0-1.6-2-1.6-1.8 0-2.1 1.4-2.2 1.6z"/>
    <path d="M164.4 511.3c0-.1-.1-1.5 1-2.6.8-.8 2-1.3 3.5-1.3h15.3c1.2.2 3.6 1.3 3.6 3.8l-1-.2c0-2-2.4-2.6-2.7-2.7H169c-1.3 0-2.2.3-2.8 1-.6.7-.7 1.6-.7 1.8zm93.5 28.8h-18.7s-4.7-.1-4.7-5.4v-22c.1-.9.9-2.5 3.1-2.5 2 0 3 .9 3 2.6V531c.2.5 1.6 3.1 7.6 3.1 6.5 0 8.2-2.9 8.3-3.2v-18.1c0-.9.7-2.6 2.7-2.6 1.5 0 2.4.8 2.9 2.3v.1c.1.5.1 3.4.1 22.6 0 .1.2 2.3-1.2 3.7-.7.8-1.8 1.2-3.1 1.2zm-22.4-27.3v21.9c0 4.3 3.6 4.4 3.7 4.4h18.7c1 0 1.8-.3 2.4-.9 1.1-1.1.9-3 .9-3 0-8.5.1-21.2 0-22.3v-.1c-.2-.7-.6-1.6-1.9-1.6-1.7 0-1.8 1.6-1.8 1.6V531c0 .8-2.4 4.1-9.3 4.1-7.2 0-8.5-3.7-8.5-3.8v-18.5c0-.6 0-1.6-2-1.6-1.8 0-2.2 1.4-2.2 1.6z"/>
    <path d="M236.7 511.3c0-.1-.1-1.5 1-2.6.8-.8 2-1.3 3.5-1.3h15.3c1.2.2 3.6 1.3 3.6 3.8l-1-.2c0-2-2.4-2.6-2.7-2.7h-15.2c-1.3 0-2.2.3-2.8 1-.6.7-.7 1.6-.7 1.8zm47.9 28.8h-18.7s-4.7-.1-4.7-5.4v-22c.1-.9.9-2.5 3.1-2.5 2 0 3 .9 3 2.6V531c.2.5 1.6 3.1 7.6 3.1 6.5 0 8.2-2.9 8.3-3.2v-18.1c0-.9.7-2.6 2.7-2.6 1.5 0 2.4.8 2.9 2.3v.1c.1.5.1 3.4.1 22.6 0 .1.2 2.3-1.2 3.7-.7.8-1.7 1.2-3.1 1.2zm-22.4-27.3v21.9c0 4.3 3.6 4.4 3.7 4.4h18.7c1 0 1.8-.3 2.4-.9 1.1-1.1.9-3 .9-3 0-8.5.1-21.2 0-22.3v-.1c-.2-.7-.6-1.6-1.9-1.6-1.7 0-1.8 1.6-1.8 1.6V531c0 .8-2.4 4.1-9.3 4.1-7.2 0-8.5-3.7-8.5-3.8v-18.5c0-.6 0-1.6-2-1.6-1.8 0-2.1 1.4-2.2 1.6z"/>
    <path d="M263.4 511.3c0-.1-.1-1.5 1-2.6.8-.8 2-1.3 3.5-1.3h15.3c1.2.2 3.6 1.3 3.6 3.8l-1-.2c0-2-2.4-2.6-2.7-2.7h-15.2c-1.3 0-2.2.3-2.8 1-.6.7-.7 1.6-.7 1.8zm-104.5-94.6h-18.7s-4.7-.1-4.7-5.4v-22c.1-.9.9-2.5 3.1-2.5 2 0 3 .9 3 2.6v18.2c.2.5 1.6 3.1 7.6 3.1 6.5 0 8.2-2.9 8.3-3.2v-18.1c0-.9.7-2.6 2.7-2.6 1.5 0 2.4.8 2.9 2.3v.1c.1.5.1 3.4.1 22.6 0 .1.2 2.3-1.2 3.7-.7.8-1.8 1.2-3.1 1.2zm-22.4-27.3v21.9c0 4.3 3.6 4.4 3.7 4.4h18.7c1 0 1.8-.3 2.4-.9 1.1-1.1.9-3 .9-3 0-8.5.1-21.2 0-22.3v-.1c-.2-.7-.6-1.6-1.9-1.6-1.7 0-1.8 1.6-1.8 1.6v18.2c0 .8-2.4 4.1-9.3 4.1-7.2 0-8.5-3.7-8.5-3.8v-18.5c0-.6 0-1.6-2-1.6-1.8-.1-2.2 1.3-2.2 1.6z"/>
    <path d="M137.7 387.8c0-.1-.1-1.5 1-2.6.8-.8 2-1.3 3.5-1.3h15.3c1.2.2 3.6 1.3 3.6 3.8l-1-.2c0-2-2.4-2.6-2.7-2.7h-15.2c-1.3 0-2.2.3-2.8 1-.6.7-.7 1.6-.7 1.8zm48 28.9H167s-4.7-.1-4.7-5.4v-22c.1-.9.9-2.5 3.1-2.5 2 0 3 .9 3 2.6v18.2c.2.5 1.6 3.1 7.6 3.1 6.5 0 8.2-2.9 8.3-3.2v-18.1c0-.9.7-2.6 2.7-2.6 1.5 0 2.4.8 2.9 2.3v.1c.1.5.1 3.4.1 22.6 0 .1.2 2.3-1.2 3.7-.8.8-1.8 1.2-3.1 1.2zm-22.5-27.3v21.9c0 4.3 3.6 4.4 3.7 4.4h18.7c1 0 1.8-.3 2.4-.9 1.1-1.1.9-3 .9-3 0-8.5.1-21.2 0-22.3v-.1c-.2-.7-.6-1.6-1.9-1.6-1.7 0-1.8 1.6-1.8 1.6v18.2c0 .8-2.4 4.1-9.3 4.1-7.2 0-8.5-3.7-8.5-3.8v-18.5c0-.6 0-1.6-2-1.6-1.8-.1-2.1 1.3-2.2 1.6z"/>
    <path d="M164.4 387.8c0-.1-.1-1.5 1-2.6.8-.8 2-1.3 3.5-1.3h15.3c1.2.2 3.6 1.3 3.6 3.8l-1-.2c0-2-2.4-2.6-2.7-2.7H169c-1.3 0-2.2.3-2.8 1-.6.7-.7 1.6-.7 1.8zm93.5 28.9h-18.7s-4.7-.1-4.7-5.4v-22c.1-.9.9-2.5 3.1-2.5 2 0 3 .9 3 2.6v18.2c.2.5 1.6 3.1 7.6 3.1 6.5 0 8.2-2.9 8.3-3.2v-18.1c0-.9.7-2.6 2.7-2.6 1.5 0 2.4.8 2.9 2.3v.1c.1.5.1 3.4.1 22.6 0 .1.2 2.3-1.2 3.7-.7.8-1.8 1.2-3.1 1.2zm-22.4-27.3v21.9c0 4.3 3.6 4.4 3.7 4.4h18.7c1 0 1.8-.3 2.4-.9 1.1-1.1.9-3 .9-3 0-8.5.1-21.2 0-22.3v-.1c-.2-.7-.6-1.6-1.9-1.6-1.7 0-1.8 1.6-1.8 1.6v18.2c0 .8-2.4 4.1-9.3 4.1-7.2 0-8.5-3.7-8.5-3.8v-18.5c0-.6 0-1.6-2-1.6-1.8-.1-2.2 1.3-2.2 1.6z"/>
    <path d="M236.7 387.8c0-.1-.1-1.5 1-2.6.8-.8 2-1.3 3.5-1.3h15.3c1.2.2 3.6 1.3 3.6 3.8l-1-.2c0-2-2.4-2.6-2.7-2.7h-15.2c-1.3 0-2.2.3-2.8 1-.6.7-.7 1.6-.7 1.8zm47.9 28.9h-18.7s-4.7-.1-4.7-5.4v-22c.1-.9.9-2.5 3.1-2.5 2 0 3 .9 3 2.6v18.2c.2.5 1.6 3.1 7.6 3.1 6.5 0 8.2-2.9 8.3-3.2v-18.1c0-.9.7-2.6 2.7-2.6 1.5 0 2.4.8 2.9 2.3v.1c.1.5.1 3.4.1 22.6 0 .1.2 2.3-1.2 3.7-.7.8-1.7 1.2-3.1 1.2zm-22.4-27.3v21.9c0 4.3 3.6 4.4 3.7 4.4h18.7c1 0 1.8-.3 2.4-.9 1.1-1.1.9-3 .9-3 0-8.5.1-21.2 0-22.3v-.1c-.2-.7-.6-1.6-1.9-1.6-1.7 0-1.8 1.6-1.8 1.6v18.2c0 .8-2.4 4.1-9.3 4.1-7.2 0-8.5-3.7-8.5-3.8v-18.5c0-.6 0-1.6-2-1.6-1.8-.1-2.1 1.3-2.2 1.6z"/>
    <path d="M263.4 387.8c0-.1-.1-1.5 1-2.6.8-.8 2-1.3 3.5-1.3h15.3c1.2.2 3.6 1.3 3.6 3.8l-1-.2c0-2-2.4-2.6-2.7-2.7h-15.2c-1.3 0-2.2.3-2.8 1-.6.7-.7 1.6-.7 1.8zm-104.5-12.3h-18.7s-4.7-.1-4.7-5.4v-22c.1-.9.9-2.5 3.1-2.5 2 0 3 .9 3 2.6v18.2c.2.5 1.6 3.1 7.6 3.1 6.5 0 8.2-2.9 8.3-3.2v-18.1c0-.9.7-2.6 2.7-2.6 1.5 0 2.4.8 2.9 2.3v.1c.1.5.1 3.4.1 22.6 0 .1.2 2.3-1.2 3.7-.7.8-1.8 1.2-3.1 1.2zm-22.4-27.3v21.9c0 4.3 3.6 4.4 3.7 4.4h18.7c1 0 1.8-.3 2.4-.9 1.1-1.1.9-3 .9-3 0-8.5.1-21.2 0-22.3v-.1c-.2-.7-.6-1.6-1.9-1.6-1.7 0-1.8 1.6-1.8 1.6v18.2c0 .8-2.4 4.1-9.3 4.1-7.2 0-8.5-3.7-8.5-3.8v-18.5c0-.6 0-1.6-2-1.6-1.8 0-2.2 1.4-2.2 1.6z"/>
    <path d="M137.7 346.7c0-.1-.1-1.5 1-2.6.8-.8 2-1.3 3.5-1.3h15.3c1.2.2 3.6 1.3 3.6 3.8l-1-.2c0-2-2.4-2.6-2.7-2.7h-15.2c-1.3 0-2.2.3-2.8 1-.6.7-.7 1.6-.7 1.8zm48 28.8H167s-4.7-.1-4.7-5.4v-22c.1-.9.9-2.5 3.1-2.5 2 0 3 .9 3 2.6v18.2c.2.5 1.6 3.1 7.6 3.1 6.5 0 8.2-2.9 8.3-3.2v-18.1c0-.9.7-2.6 2.7-2.6 1.5 0 2.4.8 2.9 2.3v.1c.1.5.1 3.4.1 22.6 0 .1.2 2.3-1.2 3.7-.8.8-1.8 1.2-3.1 1.2zm-22.5-27.3v21.9c0 4.3 3.6 4.4 3.7 4.4h18.7c1 0 1.8-.3 2.4-.9 1.1-1.1.9-3 .9-3 0-8.5.1-21.2 0-22.3v-.1c-.2-.7-.6-1.6-1.9-1.6-1.7 0-1.8 1.6-1.8 1.6v18.2c0 .8-2.4 4.1-9.3 4.1-7.2 0-8.5-3.7-8.5-3.8v-18.5c0-.6 0-1.6-2-1.6-1.8 0-2.1 1.4-2.2 1.6z"/>
    <path d="M164.4 346.7c0-.1-.1-1.5 1-2.6.8-.8 2-1.3 3.5-1.3h15.3c1.2.2 3.6 1.3 3.6 3.8l-1-.2c0-2-2.4-2.6-2.7-2.7H169c-1.3 0-2.2.3-2.8 1-.6.7-.7 1.6-.7 1.8zm93.5 28.8h-18.7s-4.7-.1-4.7-5.4v-22c.1-.9.9-2.5 3.1-2.5 2 0 3 .9 3 2.6v18.2c.2.5 1.6 3.1 7.6 3.1 6.5 0 8.2-2.9 8.3-3.2v-18.1c0-.9.7-2.6 2.7-2.6 1.5 0 2.4.8 2.9 2.3v.1c.1.5.1 3.4.1 22.6 0 .1.2 2.3-1.2 3.7-.7.8-1.8 1.2-3.1 1.2zm-22.4-27.3v21.9c0 4.3 3.6 4.4 3.7 4.4h18.7c1 0 1.8-.3 2.4-.9 1.1-1.1.9-3 .9-3 0-8.5.1-21.2 0-22.3v-.1c-.2-.7-.6-1.6-1.9-1.6-1.7 0-1.8 1.6-1.8 1.6v18.2c0 .8-2.4 4.1-9.3 4.1-7.2 0-8.5-3.7-8.5-3.8v-18.5c0-.6 0-1.6-2-1.6-1.8 0-2.2 1.4-2.2 1.6z"/>
    <path d="M236.7 346.7c0-.1-.1-1.5 1-2.6.8-.8 2-1.3 3.5-1.3h15.3c1.2.2 3.6 1.3 3.6 3.8l-1-.2c0-2-2.4-2.6-2.7-2.7h-15.2c-1.3 0-2.2.3-2.8 1-.6.7-.7 1.6-.7 1.8zm47.9 28.8h-18.7s-4.7-.1-4.7-5.4v-22c.1-.9.9-2.5 3.1-2.5 2 0 3 .9 3 2.6v18.2c.2.5 1.6 3.1 7.6 3.1 6.5 0 8.2-2.9 8.3-3.2v-18.1c0-.9.7-2.6 2.7-2.6 1.5 0 2.4.8 2.9 2.3v.1c.1.5.1 3.4.1 22.6 0 .1.2 2.3-1.2 3.7-.7.8-1.7 1.2-3.1 1.2zm-22.4-27.3v21.9c0 4.3 3.6 4.4 3.7 4.4h18.7c1 0 1.8-.3 2.4-.9 1.1-1.1.9-3 .9-3 0-8.5.1-21.2 0-22.3v-.1c-.2-.7-.6-1.6-1.9-1.6-1.7 0-1.8 1.6-1.8 1.6v18.2c0 .8-2.4 4.1-9.3 4.1-7.2 0-8.5-3.7-8.5-3.8v-18.5c0-.6 0-1.6-2-1.6-1.8 0-2.1 1.4-2.2 1.6z"/>
    <path d="M263.4 346.7c0-.1-.1-1.5 1-2.6.8-.8 2-1.3 3.5-1.3h15.3c1.2.2 3.6 1.3 3.6 3.8l-1-.2c0-2-2.4-2.6-2.7-2.7h-15.2c-1.3 0-2.2.3-2.8 1-.6.7-.7 1.6-.7 1.8zM158.9 581.3h-18.7s-4.7-.1-4.7-5.4v-22c.1-.9.9-2.5 3.1-2.5 2 0 3 .9 3 2.6v18.2c.2.5 1.6 3.1 7.6 3.1 6.5 0 8.2-2.9 8.3-3.2V554c0-.9.7-2.6 2.7-2.6 1.5 0 2.4.8 2.9 2.3v.1c.1.5.1 3.4.1 22.6 0 .1.2 2.3-1.2 3.7-.7.8-1.8 1.2-3.1 1.2zM136.5 554v21.9c0 4.3 3.6 4.4 3.7 4.4h18.7c1 0 1.8-.3 2.4-.9 1.1-1.1.9-3 .9-3 0-8.5.1-21.2 0-22.3v-.1c-.2-.7-.6-1.6-1.9-1.6-1.7 0-1.8 1.6-1.8 1.6v18.2c0 .8-2.4 4.1-9.3 4.1-7.2 0-8.5-3.7-8.5-3.8V554c0-.6 0-1.6-2-1.6-1.8-.1-2.2 1.3-2.2 1.6z"/>
    <path d="M137.7 552.4c0-.1-.1-1.5 1-2.6.8-.8 2-1.3 3.5-1.3h15.3c1.2.2 3.6 1.3 3.6 3.8l-1-.2c0-2-2.4-2.6-2.7-2.7h-15.2c-1.3 0-2.2.3-2.8 1-.6.7-.7 1.6-.7 1.8zm48 28.9H167s-4.7-.1-4.7-5.4v-22c.1-.9.9-2.5 3.1-2.5 2 0 3 .9 3 2.6v18.2c.2.5 1.6 3.1 7.6 3.1 6.5 0 8.2-2.9 8.3-3.2V554c0-.9.7-2.6 2.7-2.6 1.5 0 2.4.8 2.9 2.3v.1c.1.5.1 3.4.1 22.6 0 .1.2 2.3-1.2 3.7-.8.8-1.8 1.2-3.1 1.2zM163.2 554v21.9c0 4.3 3.6 4.4 3.7 4.4h18.7c1 0 1.8-.3 2.4-.9 1.1-1.1.9-3 .9-3 0-8.5.1-21.2 0-22.3v-.1c-.2-.7-.6-1.6-1.9-1.6-1.7 0-1.8 1.6-1.8 1.6v18.2c0 .8-2.4 4.1-9.3 4.1-7.2 0-8.5-3.7-8.5-3.8V554c0-.6 0-1.6-2-1.6-1.8-.1-2.1 1.3-2.2 1.6z"/>
    <path d="M164.4 552.4c0-.1-.1-1.5 1-2.6.8-.8 2-1.3 3.5-1.3h15.3c1.2.2 3.6 1.3 3.6 3.8l-1-.2c0-2-2.4-2.6-2.7-2.7H169c-1.3 0-2.2.3-2.8 1-.6.7-.7 1.6-.7 1.8zm93.5 28.9h-18.7s-4.7-.1-4.7-5.4v-22c.1-.9.9-2.5 3.1-2.5 2 0 3 .9 3 2.6v18.2c.2.5 1.6 3.1 7.6 3.1 6.5 0 8.2-2.9 8.3-3.2V554c0-.9.7-2.6 2.7-2.6 1.5 0 2.4.8 2.9 2.3v.1c.1.5.1 3.4.1 22.6 0 .1.2 2.3-1.2 3.7-.7.8-1.8 1.2-3.1 1.2zM235.5 554v21.9c0 4.3 3.6 4.4 3.7 4.4h18.7c1 0 1.8-.3 2.4-.9 1.1-1.1.9-3 .9-3 0-8.5.1-21.2 0-22.3v-.1c-.2-.7-.6-1.6-1.9-1.6-1.7 0-1.8 1.6-1.8 1.6v18.2c0 .8-2.4 4.1-9.3 4.1-7.2 0-8.5-3.7-8.5-3.8V554c0-.6 0-1.6-2-1.6-1.8-.1-2.2 1.3-2.2 1.6z"/>
    <path d="M236.7 552.4c0-.1-.1-1.5 1-2.6.8-.8 2-1.3 3.5-1.3h15.3c1.2.2 3.6 1.3 3.6 3.8l-1-.2c0-2-2.4-2.6-2.7-2.7h-15.2c-1.3 0-2.2.3-2.8 1-.6.7-.7 1.6-.7 1.8zm47.9 28.9h-18.7s-4.7-.1-4.7-5.4v-22c.1-.9.9-2.5 3.1-2.5 2 0 3 .9 3 2.6v18.2c.2.5 1.6 3.1 7.6 3.1 6.5 0 8.2-2.9 8.3-3.2V554c0-.9.7-2.6 2.7-2.6 1.5 0 2.4.8 2.9 2.3v.1c.1.5.1 3.4.1 22.6 0 .1.2 2.3-1.2 3.7-.7.8-1.7 1.2-3.1 1.2zM262.2 554v21.9c0 4.3 3.6 4.4 3.7 4.4h18.7c1 0 1.8-.3 2.4-.9 1.1-1.1.9-3 .9-3 0-8.5.1-21.2 0-22.3v-.1c-.2-.7-.6-1.6-1.9-1.6-1.7 0-1.8 1.6-1.8 1.6v18.2c0 .8-2.4 4.1-9.3 4.1-7.2 0-8.5-3.7-8.5-3.8V554c0-.6 0-1.6-2-1.6-1.8-.1-2.1 1.3-2.2 1.6z"/>
    <path d="M263.4 552.4c0-.1-.1-1.5 1-2.6.8-.8 2-1.3 3.5-1.3h15.3c1.2.2 3.6 1.3 3.6 3.8l-1-.2c0-2-2.4-2.6-2.7-2.7h-15.2c-1.3 0-2.2.3-2.8 1-.6.7-.7 1.6-.7 1.8zm-104.5 70h-18.7s-4.7-.1-4.7-5.4v-22c.1-.9.9-2.5 3.1-2.5 2 0 3 .9 3 2.6v18.2c.2.5 1.6 3.1 7.6 3.1 6.5 0 8.2-2.9 8.3-3.2v-18.1c0-.9.7-2.6 2.7-2.6 1.5 0 2.4.8 2.9 2.3v.1c.1.5.1 3.4.1 22.6 0 .1.2 2.3-1.2 3.7-.7.8-1.8 1.2-3.1 1.2zm-22.4-27.3V617c0 4.3 3.6 4.4 3.7 4.4h18.7c1 0 1.8-.3 2.4-.9 1.1-1.1.9-3 .9-3 0-8.5.1-21.2 0-22.3v-.1c-.2-.7-.6-1.6-1.9-1.6-1.7 0-1.8 1.6-1.8 1.6v18.2c0 .8-2.4 4.1-9.3 4.1-7.2 0-8.5-3.7-8.5-3.8v-18.5c0-.6 0-1.6-2-1.6-1.8 0-2.2 1.4-2.2 1.6z"/>
    <path d="M137.7 593.6c0-.1-.1-1.5 1-2.6.8-.8 2-1.3 3.5-1.3h15.3c1.2.2 3.6 1.3 3.6 3.8l-1-.2c0-2-2.4-2.6-2.7-2.7h-15.2c-1.3 0-2.2.3-2.8 1-.6.7-.7 1.6-.7 1.8zm48 28.8H167s-4.7-.1-4.7-5.4v-22c.1-.9.9-2.5 3.1-2.5 2 0 3 .9 3 2.6v18.2c.2.5 1.6 3.1 7.6 3.1 6.5 0 8.2-2.9 8.3-3.2v-18.1c0-.9.7-2.6 2.7-2.6 1.5 0 2.4.8 2.9 2.3v.1c.1.5.1 3.4.1 22.6 0 .1.2 2.3-1.2 3.7-.8.8-1.8 1.2-3.1 1.2zm-22.5-27.3V617c0 4.3 3.6 4.4 3.7 4.4h18.7c1 0 1.8-.3 2.4-.9 1.1-1.1.9-3 .9-3 0-8.5.1-21.2 0-22.3v-.1c-.2-.7-.6-1.6-1.9-1.6-1.7 0-1.8 1.6-1.8 1.6v18.2c0 .8-2.4 4.1-9.3 4.1-7.2 0-8.5-3.7-8.5-3.8v-18.5c0-.6 0-1.6-2-1.6-1.8 0-2.1 1.4-2.2 1.6z"/>
    <path d="M164.4 593.6c0-.1-.1-1.5 1-2.6.8-.8 2-1.3 3.5-1.3h15.3c1.2.2 3.6 1.3 3.6 3.8l-1-.2c0-2-2.4-2.6-2.7-2.7H169c-1.3 0-2.2.3-2.8 1-.6.7-.7 1.6-.7 1.8zm93.5 28.8h-18.7s-4.7-.1-4.7-5.4v-22c.1-.9.9-2.5 3.1-2.5 2 0 3 .9 3 2.6v18.2c.2.5 1.6 3.1 7.6 3.1 6.5 0 8.2-2.9 8.3-3.2v-18.1c0-.9.7-2.6 2.7-2.6 1.5 0 2.4.8 2.9 2.3v.1c.1.5.1 3.4.1 22.6 0 .1.2 2.3-1.2 3.7-.7.8-1.8 1.2-3.1 1.2zm-22.4-27.3V617c0 4.3 3.6 4.4 3.7 4.4h18.7c1 0 1.8-.3 2.4-.9 1.1-1.1.9-3 .9-3 0-8.5.1-21.2 0-22.3v-.1c-.2-.7-.6-1.6-1.9-1.6-1.7 0-1.8 1.6-1.8 1.6v18.2c0 .8-2.4 4.1-9.3 4.1-7.2 0-8.5-3.7-8.5-3.8v-18.5c0-.6 0-1.6-2-1.6-1.8 0-2.2 1.4-2.2 1.6z"/>
    <path d="M236.7 593.6c0-.1-.1-1.5 1-2.6.8-.8 2-1.3 3.5-1.3h15.3c1.2.2 3.6 1.3 3.6 3.8l-1-.2c0-2-2.4-2.6-2.7-2.7h-15.2c-1.3 0-2.2.3-2.8 1-.6.7-.7 1.6-.7 1.8zm47.9 28.8h-18.7s-4.7-.1-4.7-5.4v-22c.1-.9.9-2.5 3.1-2.5 2 0 3 .9 3 2.6v18.2c.2.5 1.6 3.1 7.6 3.1 6.5 0 8.2-2.9 8.3-3.2v-18.1c0-.9.7-2.6 2.7-2.6 1.5 0 2.4.8 2.9 2.3v.1c.1.5.1 3.4.1 22.6 0 .1.2 2.3-1.2 3.7-.7.8-1.7 1.2-3.1 1.2zm-22.4-27.3V617c0 4.3 3.6 4.4 3.7 4.4h18.7c1 0 1.8-.3 2.4-.9 1.1-1.1.9-3 .9-3 0-8.5.1-21.2 0-22.3v-.1c-.2-.7-.6-1.6-1.9-1.6-1.7 0-1.8 1.6-1.8 1.6v18.2c0 .8-2.4 4.1-9.3 4.1-7.2 0-8.5-3.7-8.5-3.8v-18.5c0-.6 0-1.6-2-1.6-1.8 0-2.1 1.4-2.2 1.6z"/>
    <path d="M263.4 593.6c0-.1-.1-1.5 1-2.6.8-.8 2-1.3 3.5-1.3h15.3c1.2.2 3.6 1.3 3.6 3.8l-1-.2c0-2-2.4-2.6-2.7-2.7h-15.2c-1.3 0-2.2.3-2.8 1-.6.7-.7 1.6-.7 1.8zm-104.5 70h-18.7s-4.7-.1-4.7-5.4v-22c.1-.9.9-2.5 3.1-2.5 2 0 3 .9 3 2.6v18.2c.2.5 1.6 3.1 7.6 3.1 6.5 0 8.2-2.9 8.3-3.2v-18.1c0-.9.7-2.6 2.7-2.6 1.5 0 2.4.8 2.9 2.3v.1c.1.5.1 3.4.1 22.6 0 .1.2 2.3-1.2 3.7-.7.8-1.8 1.2-3.1 1.2zm-22.4-27.3v21.9c0 4.3 3.6 4.4 3.7 4.4h18.7c1 0 1.8-.3 2.4-.9 1.1-1.1.9-3 .9-3 0-8.5.1-21.2 0-22.3v-.1c-.2-.7-.6-1.6-1.9-1.6-1.7 0-1.8 1.6-1.8 1.6v18.2c0 .8-2.4 4.1-9.3 4.1-7.2 0-8.5-3.7-8.5-3.8v-18.5c0-.6 0-1.6-2-1.6-1.8 0-2.2 1.3-2.2 1.6z"/>
    <path d="M137.7 634.8c0-.1-.1-1.5 1-2.6.8-.8 2-1.3 3.5-1.3h15.3c1.2.2 3.6 1.3 3.6 3.8l-1-.2c0-2-2.4-2.6-2.7-2.7h-15.2c-1.3 0-2.2.3-2.8 1-.6.7-.7 1.6-.7 1.8zm48 28.8H167s-4.7-.1-4.7-5.4v-22c.1-.9.9-2.5 3.1-2.5 2 0 3 .9 3 2.6v18.2c.2.5 1.6 3.1 7.6 3.1 6.5 0 8.2-2.9 8.3-3.2v-18.1c0-.9.7-2.6 2.7-2.6 1.5 0 2.4.8 2.9 2.3v.1c.1.5.1 3.4.1 22.6 0 .1.2 2.3-1.2 3.7-.8.8-1.8 1.2-3.1 1.2zm-22.5-27.3v21.9c0 4.3 3.6 4.4 3.7 4.4h18.7c1 0 1.8-.3 2.4-.9 1.1-1.1.9-3 .9-3 0-8.5.1-21.2 0-22.3v-.1c-.2-.7-.6-1.6-1.9-1.6-1.7 0-1.8 1.6-1.8 1.6v18.2c0 .8-2.4 4.1-9.3 4.1-7.2 0-8.5-3.7-8.5-3.8v-18.5c0-.6 0-1.6-2-1.6-1.8 0-2.1 1.3-2.2 1.6z"/>
    <path d="M164.4 634.8c0-.1-.1-1.5 1-2.6.8-.8 2-1.3 3.5-1.3h15.3c1.2.2 3.6 1.3 3.6 3.8l-1-.2c0-2-2.4-2.6-2.7-2.7H169c-1.3 0-2.2.3-2.8 1-.6.7-.7 1.6-.7 1.8zm93.5 28.8h-18.7s-4.7-.1-4.7-5.4v-22c.1-.9.9-2.5 3.1-2.5 2 0 3 .9 3 2.6v18.2c.2.5 1.6 3.1 7.6 3.1 6.5 0 8.2-2.9 8.3-3.2v-18.1c0-.9.7-2.6 2.7-2.6 1.5 0 2.4.8 2.9 2.3v.1c.1.5.1 3.4.1 22.6 0 .1.2 2.3-1.2 3.7-.7.8-1.8 1.2-3.1 1.2zm-22.4-27.3v21.9c0 4.3 3.6 4.4 3.7 4.4h18.7c1 0 1.8-.3 2.4-.9 1.1-1.1.9-3 .9-3 0-8.5.1-21.2 0-22.3v-.1c-.2-.7-.6-1.6-1.9-1.6-1.7 0-1.8 1.6-1.8 1.6v18.2c0 .8-2.4 4.1-9.3 4.1-7.2 0-8.5-3.7-8.5-3.8v-18.5c0-.6 0-1.6-2-1.6-1.8 0-2.2 1.3-2.2 1.6z"/>
    <path d="M236.7 634.8c0-.1-.1-1.5 1-2.6.8-.8 2-1.3 3.5-1.3h15.3c1.2.2 3.6 1.3 3.6 3.8l-1-.2c0-2-2.4-2.6-2.7-2.7h-15.2c-1.3 0-2.2.3-2.8 1-.6.7-.7 1.6-.7 1.8zm47.9 28.8h-18.7s-4.7-.1-4.7-5.4v-22c.1-.9.9-2.5 3.1-2.5 2 0 3 .9 3 2.6v18.2c.2.5 1.6 3.1 7.6 3.1 6.5 0 8.2-2.9 8.3-3.2v-18.1c0-.9.7-2.6 2.7-2.6 1.5 0 2.4.8 2.9 2.3v.1c.1.5.1 3.4.1 22.6 0 .1.2 2.3-1.2 3.7-.7.8-1.7 1.2-3.1 1.2zm-22.4-27.3v21.9c0 4.3 3.6 4.4 3.7 4.4h18.7c1 0 1.8-.3 2.4-.9 1.1-1.1.9-3 .9-3 0-8.5.1-21.2 0-22.3v-.1c-.2-.7-.6-1.6-1.9-1.6-1.7 0-1.8 1.6-1.8 1.6v18.2c0 .8-2.4 4.1-9.3 4.1-7.2 0-8.5-3.7-8.5-3.8v-18.5c0-.6 0-1.6-2-1.6-1.8 0-2.1 1.3-2.2 1.6z"/>
    <path d="M263.4 634.8c0-.1-.1-1.5 1-2.6.8-.8 2-1.3 3.5-1.3h15.3c1.2.2 3.6 1.3 3.6 3.8l-1-.2c0-2-2.4-2.6-2.7-2.7h-15.2c-1.3 0-2.2.3-2.8 1-.6.7-.7 1.6-.7 1.8zm-104.5 69.9h-18.7s-4.7-.1-4.7-5.4v-22c.1-.9.9-2.5 3.1-2.5 2 0 3 .9 3 2.6v18.2c.2.5 1.6 3.1 7.6 3.1 6.5 0 8.2-2.9 8.3-3.2v-18.1c0-.9.7-2.6 2.7-2.6 1.5 0 2.4.8 2.9 2.3v.1c.1.5.1 3.4.1 22.6 0 .1.2 2.3-1.2 3.7-.7.8-1.8 1.2-3.1 1.2zm-22.4-27.2v21.9c0 4.3 3.6 4.4 3.7 4.4h18.7c1 0 1.8-.3 2.4-.9 1.1-1.1.9-3 .9-3 0-8.5.1-21.2 0-22.3v-.1c-.2-.7-.6-1.6-1.9-1.6-1.7 0-1.8 1.6-1.8 1.6v18.2c0 .8-2.4 4.1-9.3 4.1-7.2 0-8.5-3.7-8.5-3.8v-18.5c0-.6 0-1.6-2-1.6-1.8-.1-2.2 1.3-2.2 1.6z"/>
    <path d="M137.7 675.9c0-.1-.1-1.5 1-2.6.8-.8 2-1.3 3.5-1.3h15.3c1.2.2 3.6 1.3 3.6 3.8l-1-.2c0-2-2.4-2.6-2.7-2.7h-15.2c-1.3 0-2.2.3-2.8 1-.6.7-.7 1.6-.7 1.8zm48 28.8H167s-4.7-.1-4.7-5.4v-22c.1-.9.9-2.5 3.1-2.5 2 0 3 .9 3 2.6v18.2c.2.5 1.6 3.1 7.6 3.1 6.5 0 8.2-2.9 8.3-3.2v-18.1c0-.9.7-2.6 2.7-2.6 1.5 0 2.4.8 2.9 2.3v.1c.1.5.1 3.4.1 22.6 0 .1.2 2.3-1.2 3.7-.8.8-1.8 1.2-3.1 1.2zm-22.5-27.2v21.9c0 4.3 3.6 4.4 3.7 4.4h18.7c1 0 1.8-.3 2.4-.9 1.1-1.1.9-3 .9-3 0-8.5.1-21.2 0-22.3v-.1c-.2-.7-.6-1.6-1.9-1.6-1.7 0-1.8 1.6-1.8 1.6v18.2c0 .8-2.4 4.1-9.3 4.1-7.2 0-8.5-3.7-8.5-3.8v-18.5c0-.6 0-1.6-2-1.6-1.8-.1-2.1 1.3-2.2 1.6z"/>
    <path d="M164.4 675.9c0-.1-.1-1.5 1-2.6.8-.8 2-1.3 3.5-1.3h15.3c1.2.2 3.6 1.3 3.6 3.8l-1-.2c0-2-2.4-2.6-2.7-2.7H169c-1.3 0-2.2.3-2.8 1-.6.7-.7 1.6-.7 1.8zm93.5 28.8h-18.7s-4.7-.1-4.7-5.4v-22c.1-.9.9-2.5 3.1-2.5 2 0 3 .9 3 2.6v18.2c.2.5 1.6 3.1 7.6 3.1 6.5 0 8.2-2.9 8.3-3.2v-18.1c0-.9.7-2.6 2.7-2.6 1.5 0 2.4.8 2.9 2.3v.1c.1.5.1 3.4.1 22.6 0 .1.2 2.3-1.2 3.7-.7.8-1.8 1.2-3.1 1.2zm-22.4-27.2v21.9c0 4.3 3.6 4.4 3.7 4.4h18.7c1 0 1.8-.3 2.4-.9 1.1-1.1.9-3 .9-3 0-8.5.1-21.2 0-22.3v-.1c-.2-.7-.6-1.6-1.9-1.6-1.7 0-1.8 1.6-1.8 1.6v18.2c0 .8-2.4 4.1-9.3 4.1-7.2 0-8.5-3.7-8.5-3.8v-18.5c0-.6 0-1.6-2-1.6-1.8-.1-2.2 1.3-2.2 1.6z"/>
    <path d="M236.7 675.9c0-.1-.1-1.5 1-2.6.8-.8 2-1.3 3.5-1.3h15.3c1.2.2 3.6 1.3 3.6 3.8l-1-.2c0-2-2.4-2.6-2.7-2.7h-15.2c-1.3 0-2.2.3-2.8 1-.6.7-.7 1.6-.7 1.8zm47.9 28.8h-18.7s-4.7-.1-4.7-5.4v-22c.1-.9.9-2.5 3.1-2.5 2 0 3 .9 3 2.6v18.2c.2.5 1.6 3.1 7.6 3.1 6.5 0 8.2-2.9 8.3-3.2v-18.1c0-.9.7-2.6 2.7-2.6 1.5 0 2.4.8 2.9 2.3v.1c.1.5.1 3.4.1 22.6 0 .1.2 2.3-1.2 3.7-.7.8-1.7 1.2-3.1 1.2zm-22.4-27.2v21.9c0 4.3 3.6 4.4 3.7 4.4h18.7c1 0 1.8-.3 2.4-.9 1.1-1.1.9-3 .9-3 0-8.5.1-21.2 0-22.3v-.1c-.2-.7-.6-1.6-1.9-1.6-1.7 0-1.8 1.6-1.8 1.6v18.2c0 .8-2.4 4.1-9.3 4.1-7.2 0-8.5-3.7-8.5-3.8v-18.5c0-.6 0-1.6-2-1.6-1.8-.1-2.1 1.3-2.2 1.6z"/>
    <path d="M263.4 675.9c0-.1-.1-1.5 1-2.6.8-.8 2-1.3 3.5-1.3h15.3c1.2.2 3.6 1.3 3.6 3.8l-1-.2c0-2-2.4-2.6-2.7-2.7h-15.2c-1.3 0-2.2.3-2.8 1-.6.7-.7 1.6-.7 1.8z"/>
    <g fill="#e2a62a">
      <path d="M158.9 334.4h-18.7s-4.7-.1-4.7-5.4v-22c.1-.9.9-2.5 3.1-2.5 2 0 3 .9 3 2.6v18.2c.2.5 1.6 3.1 7.6 3.1 6.5 0 8.2-2.9 8.3-3.2V307c0-.9.7-2.6 2.7-2.6 1.5 0 2.4.8 2.9 2.3v.1c.1.5.1 3.4.1 22.6 0 .1.2 2.3-1.2 3.7-.7.8-1.8 1.3-3.1 1.3zm-22.4-27.3V329c0 4.3 3.6 4.4 3.7 4.4h18.7c1 0 1.8-.3 2.4-.9 1.1-1.1.9-3 .9-3 0-8.5.1-21.2 0-22.3v-.1c-.2-.7-.6-1.6-1.9-1.6-1.7 0-1.8 1.6-1.8 1.6v18.2c0 .8-2.4 4.1-9.3 4.1-7.2 0-8.5-3.7-8.5-3.8V307c0-.6 0-1.6-2-1.6-1.8 0-2.2 1.4-2.2 1.7z"/>
      <path d="M137.7 305.5c0-.1-.1-1.5 1-2.6.8-.8 2-1.3 3.5-1.3h15.3c1.2.2 3.6 1.3 3.6 3.8l-1-.2c0-2-2.4-2.6-2.7-2.7h-15.2c-1.3 0-2.2.3-2.8 1-.6.7-.7 1.6-.7 1.8z"/>
    </g>
    <g fill="#29ab70">
      <path d="M185.7 333.9H167s-4.7-.1-4.7-5.4v-22c.1-.9.9-2.5 3.1-2.5 2 0 3 .9 3 2.6v18.2c.2.5 1.6 3.1 7.6 3.1 6.5 0 8.2-2.9 8.3-3.2v-18.1c0-.9.7-2.6 2.7-2.6 1.5 0 2.4.8 2.9 2.3v.1c.1.5.1 3.4.1 22.6 0 .1.2 2.3-1.2 3.7-.8.8-1.8 1.2-3.1 1.2zm-22.5-27.3v21.9c0 4.3 3.6 4.4 3.7 4.4h18.7c1 0 1.8-.3 2.4-.9 1.1-1.1.9-3 .9-3 0-8.5.1-21.2 0-22.3v-.1c-.2-.7-.6-1.6-1.9-1.6-1.7 0-1.8 1.6-1.8 1.6v18.2c0 .8-2.4 4.1-9.3 4.1-7.2 0-8.5-3.7-8.5-3.8v-18.5c0-.6 0-1.6-2-1.6-1.8 0-2.1 1.3-2.2 1.6z"/>
      <path d="M164.4 305.1c0-.1-.1-1.5 1-2.6.8-.8 2-1.3 3.5-1.3h15.3c1.2.2 3.6 1.3 3.6 3.8l-1-.2c0-2-2.4-2.6-2.7-2.7H169c-1.3 0-2.2.3-2.8 1-.6.7-.7 1.6-.7 1.8z"/>
      <path d="M257.9 333.9h-18.7s-4.7-.1-4.7-5.4v-22c.1-.9.9-2.5 3.1-2.5 2 0 3 .9 3 2.6v18.2c.2.5 1.6 3.1 7.6 3.1 6.5 0 8.2-2.9 8.3-3.2v-18.1c0-.9.7-2.6 2.7-2.6 1.5 0 2.4.8 2.9 2.3v.1c.1.5.1 3.4.1 22.6 0 .1.2 2.3-1.2 3.7-.7.8-1.8 1.2-3.1 1.2zm-22.4-27.3v21.9c0 4.3 3.6 4.4 3.7 4.4h18.7c1 0 1.8-.3 2.4-.9 1.1-1.1.9-3 .9-3 0-8.5.1-21.2 0-22.3v-.1c-.2-.7-.6-1.6-1.9-1.6-1.7 0-1.8 1.6-1.8 1.6v18.2c0 .8-2.4 4.1-9.3 4.1-7.2 0-8.5-3.7-8.5-3.8v-18.5c0-.6 0-1.6-2-1.6-1.8 0-2.2 1.3-2.2 1.6z"/>
      <path d="M236.7 305.1c0-.1-.1-1.5 1-2.6.8-.8 2-1.3 3.5-1.3h15.3c1.2.2 3.6 1.3 3.6 3.8l-1-.2c0-2-2.4-2.6-2.7-2.7h-15.2c-1.3 0-2.2.3-2.8 1-.6.7-.7 1.6-.7 1.8z"/>
      <path d="M222.2 704.7h-18.7s-4.7-.1-4.7-5.4v-22c.1-.9.9-2.5 3.1-2.5 2 0 3 .9 3 2.6v18.2c.2.5 1.6 3.1 7.6 3.1 6.5 0 8.2-2.9 8.3-3.2v-18.1c0-.9.7-2.6 2.7-2.6 1.5 0 2.4.8 2.9 2.3v.1c.1.5.1 3.4.1 22.6 0 .1.2 2.3-1.2 3.7-.7.8-1.7 1.2-3.1 1.2zm-22.4-27.2v21.9c0 4.3 3.6 4.4 3.7 4.4h18.7c1 0 1.8-.3 2.4-.9 1.1-1.1.9-3 .9-3 0-8.5.1-21.2 0-22.3v-.1c-.2-.7-.6-1.6-1.9-1.6-1.7 0-1.8 1.6-1.8 1.6v18.2c0 .8-2.4 4.1-9.3 4.1-7.2 0-8.5-3.7-8.5-3.8v-18.5c0-.6 0-1.6-2-1.6-1.8-.1-2.1 1.3-2.2 1.6z"/>
      <path d="M201 675.9c0-.1-.1-1.5 1-2.6.8-.8 2-1.3 3.5-1.3h15.3c1.2.2 3.6 1.3 3.6 3.8l-1-.2c0-2-2.4-2.6-2.7-2.7h-15.2c-1.3 0-2.2.3-2.8 1-.6.7-.7 1.6-.7 1.8z"/>
      <path d="M284.6 333.9h-18.7s-4.7-.1-4.7-5.4v-22c.1-.9.9-2.5 3.1-2.5 2 0 3 .9 3 2.6v18.2c.2.5 1.6 3.1 7.6 3.1 6.5 0 8.2-2.9 8.3-3.2v-18.1c0-.9.7-2.6 2.7-2.6 1.5 0 2.4.8 2.9 2.3v.1c.1.5.1 3.4.1 22.6 0 .1.2 2.3-1.2 3.7-.7.8-1.7 1.2-3.1 1.2zm-22.4-27.3v21.9c0 4.3 3.6 4.4 3.7 4.4h18.7c1 0 1.8-.3 2.4-.9 1.1-1.1.9-3 .9-3 0-8.5.1-21.2 0-22.3v-.1c-.2-.7-.6-1.6-1.9-1.6-1.7 0-1.8 1.6-1.8 1.6v18.2c0 .8-2.4 4.1-9.3 4.1-7.2 0-8.5-3.7-8.5-3.8v-18.5c0-.6 0-1.6-2-1.6-1.8 0-2.1 1.3-2.2 1.6z"/>
      <path d="M263.4 305.1c0-.1-.1-1.5 1-2.6.8-.8 2-1.3 3.5-1.3h15.3c1.2.2 3.6 1.3 3.6 3.8l-1-.2c0-2-2.4-2.6-2.7-2.7h-15.2c-1.3 0-2.2.3-2.8 1-.6.7-.7 1.6-.7 1.8z"/>
      <path d="M185.7 499H167s-4.7-.1-4.7-5.4v-22c.1-.9.9-2.5 3.1-2.5 2 0 3 .9 3 2.6v18.2c.2.5 1.6 3.1 7.6 3.1 6.5 0 8.2-2.9 8.3-3.2v-18.1c0-.9.7-2.6 2.7-2.6 1.5 0 2.4.8 2.9 2.3v.1c.1.5.1 3.4.1 22.6 0 .1.2 2.3-1.2 3.7-.8.8-1.8 1.2-3.1 1.2zm-22.5-27.3v21.9c0 4.3 3.6 4.4 3.7 4.4h18.7c1 0 1.8-.3 2.4-.9 1.1-1.1.9-3 .9-3 0-8.5.1-21.2 0-22.3v-.1c-.2-.7-.6-1.6-1.9-1.6-1.7 0-1.8 1.6-1.8 1.6v18.2c0 .8-2.4 4.1-9.3 4.1-7.2 0-8.5-3.7-8.5-3.8v-18.5c0-.6 0-1.6-2-1.6-1.8-.1-2.1 1.3-2.2 1.6z"/>
      <path d="M164.4 470.1c0-.1-.1-1.5 1-2.6.8-.8 2-1.3 3.5-1.3h15.3c1.2.2 3.6 1.3 3.6 3.8l-1-.2c0-2-2.4-2.6-2.7-2.7H169c-1.3 0-2.2.3-2.8 1-.6.7-.7 1.6-.7 1.8z"/>
      <path d="M158.9 499h-18.7s-4.7-.1-4.7-5.4v-22c.1-.9.9-2.5 3.1-2.5 2 0 3 .9 3 2.6v18.2c.2.5 1.6 3.1 7.6 3.1 6.5 0 8.2-2.9 8.3-3.2v-18.1c0-.9.7-2.6 2.7-2.6 1.5 0 2.4.8 2.9 2.3v.1c.1.5.1 3.4.1 22.6 0 .1.2 2.3-1.2 3.7-.7.8-1.8 1.2-3.1 1.2zm-22.4-27.3v21.9c0 4.3 3.6 4.4 3.7 4.4h18.7c1 0 1.8-.3 2.4-.9 1.1-1.1.9-3 .9-3 0-8.5.1-21.2 0-22.3v-.1c-.2-.7-.6-1.6-1.9-1.6-1.7 0-1.8 1.6-1.8 1.6v18.2c0 .8-2.4 4.1-9.3 4.1-7.2 0-8.5-3.7-8.5-3.8v-18.5c0-.6 0-1.6-2-1.6-1.8-.1-2.2 1.3-2.2 1.6z"/>
      <path d="M137.7 470.1c0-.1-.1-1.5 1-2.6.8-.8 2-1.3 3.5-1.3h15.3c1.2.2 3.6 1.3 3.6 3.8l-1-.2c0-2-2.4-2.6-2.7-2.7h-15.2c-1.3 0-2.2.3-2.8 1-.6.7-.7 1.6-.7 1.8z"/>
      <path d="M257.9 499h-18.7s-4.7-.1-4.7-5.4v-22c.1-.9.9-2.5 3.1-2.5 2 0 3 .9 3 2.6v18.2c.2.5 1.6 3.1 7.6 3.1 6.5 0 8.2-2.9 8.3-3.2v-18.1c0-.9.7-2.6 2.7-2.6 1.5 0 2.4.8 2.9 2.3v.1c.1.5.1 3.4.1 22.6 0 .1.2 2.3-1.2 3.7-.7.8-1.8 1.2-3.1 1.2zm-22.4-27.3v21.9c0 4.3 3.6 4.4 3.7 4.4h18.7c1 0 1.8-.3 2.4-.9 1.1-1.1.9-3 .9-3 0-8.5.1-21.2 0-22.3v-.1c-.2-.7-.6-1.6-1.9-1.6-1.7 0-1.8 1.6-1.8 1.6v18.2c0 .8-2.4 4.1-9.3 4.1-7.2 0-8.5-3.7-8.5-3.8v-18.5c0-.6 0-1.6-2-1.6-1.8-.1-2.2 1.3-2.2 1.6z"/>
      <path d="M236.7 470.1c0-.1-.1-1.5 1-2.6.8-.8 2-1.3 3.5-1.3h15.3c1.2.2 3.6 1.3 3.6 3.8l-1-.2c0-2-2.4-2.6-2.7-2.7h-15.2c-1.3 0-2.2.3-2.8 1-.6.7-.7 1.6-.7 1.8z"/>
      <path d="M284.6 499h-18.7s-4.7-.1-4.7-5.4v-22c.1-.9.9-2.5 3.1-2.5 2 0 3 .9 3 2.6v18.2c.2.5 1.6 3.1 7.6 3.1 6.5 0 8.2-2.9 8.3-3.2v-18.1c0-.9.7-2.6 2.7-2.6 1.5 0 2.4.8 2.9 2.3v.1c.1.5.1 3.4.1 22.6 0 .1.2 2.3-1.2 3.7-.7.8-1.7 1.2-3.1 1.2zm-22.4-27.3v21.9c0 4.3 3.6 4.4 3.7 4.4h18.7c1 0 1.8-.3 2.4-.9 1.1-1.1.9-3 .9-3 0-8.5.1-21.2 0-22.3v-.1c-.2-.7-.6-1.6-1.9-1.6-1.7 0-1.8 1.6-1.8 1.6v18.2c0 .8-2.4 4.1-9.3 4.1-7.2 0-8.5-3.7-8.5-3.8v-18.5c0-.6 0-1.6-2-1.6-1.8-.1-2.1 1.3-2.2 1.6z"/>
      <path d="M263.4 470.1c0-.1-.1-1.5 1-2.6.8-.8 2-1.3 3.5-1.3h15.3c1.2.2 3.6 1.3 3.6 3.8l-1-.2c0-2-2.4-2.6-2.7-2.7h-15.2c-1.3 0-2.2.3-2.8 1-.6.7-.7 1.6-.7 1.8z"/>
    </g>
  </g>
  <path d="M151.6 524.7h-4.3l-1 3h-1.8l4.1-11.3h1.9l4.1 11.3h-1.9zm-3.9-1.5h3.4l-1.6-4.8h-.1zm25.4 3.2c-.9-1.1-1.4-2.5-1.4-4.3 0-1.8.5-3.3 1.4-4.3.9-1.1 2.1-1.6 3.7-1.6 1.2 0 2.3.4 3.2 1.1.9.7 1.4 1.7 1.5 2.8h-1.7c-.2-.7-.5-1.2-1-1.7-.5-.4-1.2-.6-1.9-.6-1 0-1.8.4-2.4 1.2-.6.8-.9 1.8-.9 3.1s.3 2.4.9 3.1c.6.8 1.4 1.2 2.4 1.2.7 0 1.4-.2 1.9-.6.5-.4.9-.9 1-1.5h1.7c-.2 1.1-.7 2-1.5 2.7-.9.7-1.9 1-3.2 1-1.6 0-2.8-.6-3.7-1.6zm75.2-10c1.7 0 3 .5 3.9 1.5.9 1 1.4 2.4 1.4 4.1 0 1.8-.5 3.2-1.4 4.2-.9 1-2.2 1.5-3.9 1.5h-4.1v-11.3zm-2.3 9.7h2.1c1.2 0 2.1-.4 2.7-1.1.7-.7 1-1.7 1-3s-.3-2.3-1-3c-.7-.7-1.6-1.1-2.7-1.1H246Zm25.6 1.6v-11.3h7v1.6h-5.3v3.5h4.8v1.5h-4.8v4.7zm-120-126.5h-4.3l-1 3h-1.8l4.1-11.3h1.9l4.1 11.3h-1.9zm-3.9-1.4h3.4l-1.6-4.8h-.1zm25.4 3.1c-.9-1.1-1.4-2.5-1.4-4.3 0-1.8.5-3.3 1.4-4.3.9-1.1 2.1-1.6 3.7-1.6 1.2 0 2.3.4 3.2 1.1.9.7 1.4 1.7 1.5 2.8h-1.7c-.2-.7-.5-1.2-1-1.7-.5-.4-1.2-.6-1.9-.6-1 0-1.8.4-2.4 1.2-.6.8-.9 1.8-.9 3.1s.3 2.4.9 3.1c.6.8 1.4 1.2 2.4 1.2.7 0 1.4-.2 1.9-.6.5-.4.9-.9 1-1.5h1.7c-.2 1.1-.7 2-1.5 2.7-.9.7-1.9 1-3.2 1-1.6 0-2.8-.5-3.7-1.6zm75.2-9.9c1.7 0 3 .5 3.9 1.5.9 1 1.4 2.4 1.4 4.1 0 1.8-.5 3.2-1.4 4.2-.9 1-2.2 1.5-3.9 1.5h-4.1V393Zm-2.3 9.6h2.1c1.2 0 2.1-.4 2.7-1.1.7-.7 1-1.7 1-3s-.3-2.3-1-3c-.7-.7-1.6-1.1-2.7-1.1H246Zm25.6 1.6V393h7v1.6h-5.3v3.5h4.8v1.5h-4.8v4.7h-1.7zm-120-44.1h-4.3l-1 3h-1.8l4.1-11.3h1.9l4.1 11.3h-1.9zm-3.9-1.5h3.4l-1.6-4.8h-.1zm25.4 3.2c-.9-1.1-1.4-2.5-1.4-4.3 0-1.8.5-3.3 1.4-4.3.9-1.1 2.1-1.6 3.7-1.6 1.2 0 2.3.4 3.2 1.1.9.7 1.4 1.7 1.5 2.8h-1.7c-.2-.7-.5-1.2-1-1.7-.5-.4-1.2-.6-1.9-.6-1 0-1.8.4-2.4 1.2-.6.8-.9 1.8-.9 3.1s.3 2.4.9 3.1c.6.8 1.4 1.2 2.4 1.2.7 0 1.4-.2 1.9-.6.5-.4.9-.9 1-1.5h1.7c-.2 1.1-.7 2-1.5 2.7-.9.7-1.9 1-3.2 1-1.6 0-2.8-.6-3.7-1.6zm75.2-10c1.7 0 3 .5 3.9 1.5.9 1 1.4 2.4 1.4 4.1 0 1.8-.5 3.2-1.4 4.2-.9 1-2.2 1.5-3.9 1.5h-4.1v-11.3zm-2.3 9.7h2.1c1.2 0 2.1-.4 2.7-1.1.7-.7 1-1.7 1-3s-.3-2.3-1-3c-.7-.7-1.6-1.1-2.7-1.1H246Zm25.6 1.6v-11.3h7v1.6h-5.3v3.5h4.8v1.5h-4.8v4.7zm-120 202.8h-4.3l-1 3h-1.8l4.1-11.3h1.9l4.1 11.3h-1.9zm-3.9-1.5h3.4l-1.6-4.8h-.1zm25.4 3.1c-.9-1.1-1.4-2.5-1.4-4.3 0-1.8.5-3.3 1.4-4.3.9-1.1 2.1-1.6 3.7-1.6 1.2 0 2.3.4 3.2 1.1.9.7 1.4 1.7 1.5 2.8h-1.7c-.2-.7-.5-1.2-1-1.7-.5-.4-1.2-.6-1.9-.6-1 0-1.8.4-2.4 1.2-.6.8-.9 1.8-.9 3.1s.3 2.4.9 3.1c.6.8 1.4 1.2 2.4 1.2.7 0 1.4-.2 1.9-.6.5-.4.9-.9 1-1.5h1.7c-.2 1.1-.7 2-1.5 2.7-.9.7-1.9 1-3.2 1-1.6 0-2.8-.5-3.7-1.6zm75.2-9.9c1.7 0 3 .5 3.9 1.5.9 1 1.4 2.4 1.4 4.1 0 1.8-.5 3.2-1.4 4.2-.9 1-2.2 1.5-3.9 1.5h-4.1v-11.3zm-2.3 9.7h2.1c1.2 0 2.1-.4 2.7-1.1.7-.7 1-1.7 1-3s-.3-2.3-1-3c-.7-.7-1.6-1.1-2.7-1.1H246Zm25.6 1.5v-11.3h7v1.6h-5.3v3.5h4.8v1.5h-4.8v4.7zm-120 38.2h-4.3l-1 3h-1.8l4.1-11.3h1.9l4.1 11.3h-1.9zm-3.9-1.5h3.4l-1.6-4.8h-.1zm25.4 3.2c-.9-1.1-1.4-2.5-1.4-4.3 0-1.8.5-3.3 1.4-4.3.9-1.1 2.1-1.6 3.7-1.6 1.2 0 2.3.4 3.2 1.1.9.7 1.4 1.7 1.5 2.8h-1.7c-.2-.7-.5-1.2-1-1.7-.5-.4-1.2-.6-1.9-.6-1 0-1.8.4-2.4 1.2-.6.8-.9 1.8-.9 3.1s.3 2.4.9 3.1c.6.8 1.4 1.2 2.4 1.2.7 0 1.4-.2 1.9-.6.5-.4.9-.9 1-1.5h1.7c-.2 1.1-.7 2-1.5 2.7-.9.7-1.9 1-3.2 1-1.6 0-2.8-.6-3.7-1.6zm75.2-10c1.7 0 3 .5 3.9 1.5.9 1 1.4 2.4 1.4 4.1 0 1.8-.5 3.2-1.4 4.2-.9 1-2.2 1.5-3.9 1.5h-4.1v-11.3zm-2.3 9.7h2.1c1.2 0 2.1-.4 2.7-1.1.7-.7 1-1.7 1-3s-.3-2.3-1-3c-.7-.7-1.6-1.1-2.7-1.1H246Zm25.6 1.6v-11.3h7v1.6h-5.3v3.5h4.8v1.5h-4.8v4.7zm-120 38.2h-4.3l-1 3h-1.8l4.1-11.3h1.9l4.1 11.3h-1.9zm-3.9-1.5h3.4l-1.6-4.8h-.1zm25.4 3.1c-.9-1.1-1.4-2.5-1.4-4.3 0-1.8.5-3.3 1.4-4.3.9-1.1 2.1-1.6 3.7-1.6 1.2 0 2.3.4 3.2 1.1.9.7 1.4 1.7 1.5 2.8h-1.7c-.2-.7-.5-1.2-1-1.7-.5-.4-1.2-.6-1.9-.6-1 0-1.8.4-2.4 1.2-.6.8-.9 1.8-.9 3.1s.3 2.4.9 3.1c.6.8 1.4 1.2 2.4 1.2.7 0 1.4-.2 1.9-.6.5-.4.9-.9 1-1.5h1.7c-.2 1.1-.7 2-1.5 2.7-.9.7-1.9 1-3.2 1-1.6 0-2.8-.5-3.7-1.6zm75.2-9.9c1.7 0 3 .5 3.9 1.5.9 1 1.4 2.4 1.4 4.1 0 1.8-.5 3.2-1.4 4.2-.9 1-2.2 1.5-3.9 1.5h-4.1v-11.3zm-2.3 9.7h2.1c1.2 0 2.1-.4 2.7-1.1.7-.7 1-1.7 1-3s-.3-2.3-1-3c-.7-.7-1.6-1.1-2.7-1.1H246Zm25.6 1.6v-11.3h7v1.6h-5.3v3.5h4.8v1.5h-4.8v4.7zm-120 38.1h-4.3l-1 3h-1.8l4.1-11.3h1.9l4.1 11.3h-1.9zm-3.9-1.5h3.4l-1.6-4.8h-.1zm25.4 3.2c-.9-1.1-1.4-2.5-1.4-4.3 0-1.8.5-3.3 1.4-4.3.9-1.1 2.1-1.6 3.7-1.6 1.2 0 2.3.4 3.2 1.1.9.7 1.4 1.7 1.5 2.8h-1.7c-.2-.7-.5-1.2-1-1.7-.5-.4-1.2-.6-1.9-.6-1 0-1.8.4-2.4 1.2-.6.8-.9 1.8-.9 3.1s.3 2.4.9 3.1c.6.8 1.4 1.2 2.4 1.2.7 0 1.4-.2 1.9-.6.5-.4.9-.9 1-1.5h1.7c-.2 1.1-.7 2-1.5 2.7-.9.7-1.9 1-3.2 1-1.6 0-2.8-.5-3.7-1.6zm75.2-10c1.7 0 3 .5 3.9 1.5.9 1 1.4 2.4 1.4 4.1 0 1.8-.5 3.2-1.4 4.2-.9 1-2.2 1.5-3.9 1.5h-4.1V681Zm-2.3 9.7h2.1c1.2 0 2.1-.4 2.7-1.1.7-.7 1-1.7 1-3s-.3-2.3-1-3c-.7-.7-1.6-1.1-2.7-1.1H246Zm25.6 1.6V681h7v1.6h-5.3v3.5h4.8v1.5h-4.8v4.7z" fill="#333"/>
  <path d="M151.6 318.9h-4.3l-1 3h-1.8l4.1-11.3h1.9l4.1 11.3h-1.9zm-3.9-1.4h3.4l-1.6-4.8h-.1zm25.4 2.7c-.9-1.1-1.4-2.5-1.4-4.3 0-1.8.5-3.3 1.4-4.3.9-1.1 2.1-1.6 3.7-1.6 1.2 0 2.3.4 3.2 1.1.9.7 1.4 1.7 1.5 2.8h-1.7c-.2-.7-.5-1.2-1-1.7-.5-.4-1.2-.6-1.9-.6-1 0-1.8.4-2.4 1.2-.6.8-.9 1.8-.9 3.1s.3 2.4.9 3.1c.6.8 1.4 1.2 2.4 1.2.7 0 1.4-.2 1.9-.6.5-.4.9-.9 1-1.5h1.7c-.2 1.1-.7 2-1.5 2.7-.9.7-1.9 1-3.2 1-1.6-.1-2.8-.6-3.7-1.6zm75.2-10c1.7 0 3 .5 3.9 1.5.9 1 1.4 2.4 1.4 4.1 0 1.8-.5 3.2-1.4 4.2-.9 1-2.2 1.5-3.9 1.5h-4.1v-11.3zm-2.3 9.7h2.1c1.2 0 2.1-.4 2.7-1.1.7-.7 1-1.7 1-3s-.3-2.3-1-3c-.7-.7-1.6-1.1-2.7-1.1H246ZM209.6 691c-.9-1.1-1.4-2.5-1.4-4.3 0-1.8.5-3.3 1.4-4.3.9-1.1 2.1-1.6 3.7-1.6 1.2 0 2.3.4 3.2 1.1.9.7 1.4 1.7 1.5 2.8h-1.7c-.2-.7-.5-1.2-1-1.7-.5-.4-1.2-.6-1.9-.6-1 0-1.8.4-2.4 1.2-.6.8-.9 1.8-.9 3.1s.3 2.4.9 3.1c.6.8 1.4 1.2 2.4 1.2.7 0 1.4-.2 1.9-.6.5-.4.9-.9 1-1.5h1.7c-.2 1.1-.7 2-1.5 2.7-.9.7-1.9 1-3.2 1-1.6 0-2.8-.5-3.7-1.6zm62-369.5v-11.3h7v1.6h-5.3v3.5h4.8v1.5h-4.8v4.7zm-98.5 163.7c-.9-1.1-1.4-2.5-1.4-4.3 0-1.8.5-3.3 1.4-4.3.9-1.1 2.1-1.6 3.7-1.6 1.2 0 2.3.4 3.2 1.1.9.7 1.4 1.7 1.5 2.8h-1.7c-.2-.7-.5-1.2-1-1.7-.5-.4-1.2-.6-1.9-.6-1 0-1.8.4-2.4 1.2-.6.8-.9 1.8-.9 3.1s.3 2.4.9 3.1c.6.8 1.4 1.2 2.4 1.2.7 0 1.4-.2 1.9-.6.5-.4.9-.9 1-1.5h1.7c-.2 1.1-.7 2-1.5 2.7-.9.7-1.9 1-3.2 1-1.6 0-2.8-.5-3.7-1.6zm-21.2-1.7h-4.3l-1 3h-1.8l4.1-11.3h1.9l4.1 11.3H153Zm-3.8-1.4h3.4l-1.6-4.8h-.1zm100.2-6.8c1.7 0 3 .5 3.9 1.5.9 1 1.4 2.4 1.4 4.1 0 1.8-.5 3.2-1.4 4.2-.9 1-2.2 1.5-3.9 1.5h-4.1v-11.3zm-2.3 9.6h2.1c1.2 0 2.1-.4 2.7-1.1.7-.7 1-1.7 1-3s-.3-2.3-1-3c-.7-.7-1.6-1.1-2.7-1.1H246Zm25.6 1.6v-11.3h7v1.6h-5.3v3.5h4.8v1.5h-4.8v4.7z" fill="#f3f3f3"/>
  <g id="numbers">
      <g id="g11131">
        <g id="g11129" fill="#333">
          <path d="m128.1 316.6-1.7 1.1v-1l1.7-1.2h1v6.4h-1z" id="path11111"/>
          <path d="M125.9 358.5c0-.6.2-1.1.6-1.5.4-.4.9-.6 1.6-.6.6 0 1.1.2 1.5.5.4.3.6.8.6 1.3 0 .3-.1.7-.3 1-.2.3-.6.8-1.1 1.3l-1.4 1.5v.1h2.9v.9H126v-.7l2.2-2.3c.4-.4.7-.8.9-1 .1-.2.2-.5.2-.7 0-.3-.1-.5-.3-.7-.2-.2-.5-.3-.8-.3-.4 0-.6.1-.9.3-.2.2-.3.5-.3.8z" id="path11113"/>
          <path d="M127.2 400.5h.8c.3 0 .6-.1.8-.3.2-.2.3-.4.3-.7 0-.3-.1-.5-.3-.7-.2-.2-.5-.3-.8-.3-.3 0-.6.1-.8.3-.2.2-.3.4-.4.8h-1c0-.6.2-1 .6-1.4.4-.3.9-.5 1.6-.5.6 0 1.1.2 1.5.5.4.3.6.7.6 1.2 0 .4-.1.7-.3 1-.2.3-.5.4-.8.5v.1c.4.1.8.2 1 .5.3.3.4.6.4 1.1 0 .5-.2 1-.7 1.4-.4.4-1 .5-1.7.5s-1.2-.2-1.7-.5c-.4-.3-.7-.8-.7-1.4h1c0 .3.2.6.4.7.3.2.6.3 1 .3s.7-.1 1-.3c.3-.2.4-.5.4-.8 0-.3-.1-.6-.4-.8-.2-.2-.6-.3-1-.3h-.8z" id="path11115"/>
          <path d="M128.7 485.3h-3.1v-.9c.5-.9 1.4-2.3 2.7-4.3h1.4v4.3h.9v.9h-.9v1.2h-1zm-2.2-.9h2.2V481h-.1c-.7 1.1-1.4 2.2-2.1 3.4z" id="path11117"/>
          <path d="M126.5 527.3c-.4-.4-.6-.8-.7-1.4h1c0 .3.2.6.4.8.2.2.5.3.9.3s.7-.1 1-.4c.3-.3.4-.6.4-1s-.1-.7-.4-1c-.2-.3-.6-.4-1-.4-.6 0-1 .2-1.3.7h-.8l.3-3.7h3.8v.9h-3l-.2 1.9h.1c.3-.4.8-.6 1.4-.6.6 0 1.1.2 1.5.6.4.4.6.9.6 1.6 0 .7-.2 1.2-.6 1.6-.4.4-1 .6-1.7.6s-1.3-.1-1.7-.5z" id="path11119"/>
          <path d="M126 567.7c-.3-.5-.4-1.2-.4-2 0-1.1.2-1.9.7-2.5.4-.6 1.1-.9 1.9-.9.6 0 1.1.2 1.5.5.4.3.6.7.7 1.3h-1c-.1-.3-.2-.5-.4-.6-.2-.2-.5-.2-.8-.2-.5 0-.9.2-1.2.6-.3.4-.4 1-.4 1.8h.1c.3-.6.9-1 1.7-1 .6 0 1.1.2 1.5.6.4.4.6.9.6 1.5 0 .7-.2 1.2-.7 1.6-.4.4-1 .6-1.7.6-.9 0-1.6-.4-2.1-1.3zm3.1 0c.3-.3.4-.6.4-1s-.1-.7-.4-1c-.3-.3-.6-.4-1-.4s-.7.1-1 .4c-.3.3-.4.6-.4.9 0 .4.1.7.4 1 .3.3.6.4 1 .4.4.1.8 0 1-.3z" id="path11121"/>
          <path d="m129.2 604.5-3.3-.1v-.9h4.3v.9l-2.8 5.5h-1z" id="path11123"/>
          <path d="M126.3 650.8c-.4-.3-.7-.8-.7-1.4 0-.4.1-.8.4-1.1.2-.3.6-.5 1-.6v-.1c-.3-.1-.6-.3-.8-.5-.2-.3-.3-.6-.3-.9 0-.5.2-.9.6-1.3.4-.4.9-.5 1.6-.5.6 0 1.1.2 1.6.5s.6.7.6 1.3c0 .3-.1.7-.3.9-.2.3-.5.4-.8.5v.1c.4.1.7.3 1 .6.3.3.4.7.4 1.1 0 .6-.2 1-.7 1.4-.4.3-1 .5-1.8.5-.7 0-1.3-.2-1.8-.5zm2.8-.6c.3-.2.4-.5.4-.8 0-.3-.1-.6-.4-.8-.3-.2-.6-.3-1-.3s-.8.1-1 .3c-.3.2-.4.5-.4.8 0 .3.1.6.4.8.3.2.6.3 1 .3s.7-.1 1-.3zm-.2-3.1c.2-.2.3-.4.3-.7 0-.3-.1-.5-.3-.7-.2-.2-.5-.3-.9-.3s-.6.1-.9.3c-.2.2-.3.4-.3.7 0 .3.1.5.3.7.2.2.5.3.8.3.5 0 .8-.1 1-.3z" id="path11125"/>
          <path d="M126.5 692c-.4-.3-.6-.7-.7-1.3h1c.1.3.2.5.4.6.2.2.5.2.8.2.5 0 .9-.2 1.2-.6.3-.4.4-1 .4-1.8h-.1c-.3.7-.9 1-1.7 1-.6 0-1.1-.2-1.5-.6-.4-.4-.6-.9-.6-1.5 0-.7.2-1.2.7-1.6.4-.4 1-.6 1.7-.6 1 0 1.7.4 2.1 1.3.3.5.4 1.2.4 2 0 1.1-.2 1.9-.7 2.5-.4.6-1.1.9-1.9.9-.6 0-1.1-.2-1.5-.5zm2.5-3.1c.3-.2.4-.6.4-.9 0-.4-.1-.7-.4-1-.3-.3-.6-.4-1-.4s-.7.1-1 .4c-.3.3-.4.6-.4 1s.1.7.4 1c.3.3.6.4 1 .4.4-.1.7-.3 1-.5z" id="path11127"/>
        </g>
      </g>
      <g id="g11139">
        <g id="g11137" fill="#333">
          <path d="m209.6 663.3-1.7 1.1v-1l1.7-1.2h1v6.4h-1z" id="path11133"/>
          <path d="M212.9 668c-.4-.6-.6-1.4-.6-2.5s.2-1.9.6-2.5c.4-.6 1-.9 1.8-.9.7 0 1.3.3 1.7.9.4.6.6 1.4.6 2.5s-.2 1.9-.6 2.5c-.4.6-1 .9-1.8.9-.7-.1-1.3-.4-1.7-.9zm2.7-.7c.2-.4.4-1.1.4-1.9 0-.8-.1-1.4-.4-1.9-.2-.4-.6-.6-1-.6s-.8.2-1 .6c-.2.4-.4 1.1-.4 1.9 0 .8.1 1.4.4 1.9.2.4.6.6 1 .6s.8-.2 1-.6z" id="path11135"/>
        </g>
      </g>
    </g>
</svg>
