<?xml version="1.0" encoding="UTF-8" standalone="no"?>
<svg width="1000" height="400" xmlns="http://www.w3.org/2000/svg" viewBox="0 0 1000 400">
<defs>
<symbol id="temperature" viewBox="0 0 53.24 125">
  <path d="m0,75l19.88,0l0,-58.70959c0,-2.73 -1.12,-5.22 -2.92,-7.02c-1.8,-1.8 -4.29,-2.92 -7.02,-2.92c-2.73,0 -5.22,1.12 -7.02,2.92c-1.8,1.8 -2.92,4.29 -2.92,7.02l0,58.70959zm24.97,0.71041c6.87,4.81 11.36,12.790001 11.36,21.810001c0,14.7 -11.92,26.62 -26.62,26.62c-14.7,0 -26.62,-11.92 -26.62,-26.62c0,-9.22 4.69,-17.350001 11.82,-22.120001l0,-59.11c0,-4.14 1.69,-7.89 4.41,-10.62c2.72,-2.72 6.48,-4.41 10.62,-4.41c4.14,0 7.89,1.69 10.62,4.41c2.72,2.72 4.41,6.48 4.41,10.62l0,59.42z" id="path1036"/>
  <rect height="40" width="22.25" x="-1" y="35"/>
</symbol>
<symbol id="sound" viewBox="0 0 122.870 95.130">
  <path d="m 100.95,23.32 c 0,-2.09 1.69,-3.78 3.78,-3.78 2.09,0 3.78,1.69 3.78,3.78 v 48.5 c 0,2.09 -1.69,3.78 -3.78,3.78 -2.09,0 -3.78,-1.69 -3.78,-3.78 z M 0,31.82 c 0,-2.09 1.69,-3.78 3.78,-3.78 2.09,0 3.78,1.69 3.78,3.78 v 31.49 c 0,2.09 -1.69,3.78 -3.78,3.78 C 1.69,67.09 0,65.4 0,63.31 Z m 14.42,-8.5 c 0,-2.09 1.69,-3.78 3.78,-3.78 2.09,0 3.78,1.69 3.78,3.78 v 48.5 c 0,2.09 -1.69,3.78 -3.78,3.78 -2.09,0 -3.78,-1.69 -3.78,-3.78 z M 28.9,13.9 c 0,-2.08 1.67,-3.76 3.72,-3.76 2.06,0 3.72,1.68 3.72,3.76 V 81.24 C 36.34,83.32 34.67,85 32.62,85 30.56,85 28.9,83.32 28.9,81.24 Z M 43.26,3.78 C 43.26,1.69 44.95,0 47.04,0 c 2.09,0 3.78,1.69 3.78,3.78 v 87.57 c 0,2.09 -1.69,3.78 -3.78,3.78 -2.09,0 -3.78,-1.69 -3.78,-3.78 z m 43.27,28.04 c 0,-2.09 1.69,-3.78 3.78,-3.78 2.09,0 3.78,1.69 3.78,3.78 v 31.49 c 0,2.09 -1.69,3.78 -3.78,3.78 -2.09,0 -3.78,-1.69 -3.78,-3.78 z m -14.42,-8.5 c 0,-2.09 1.69,-3.78 3.78,-3.78 2.09,0 3.78,1.69 3.78,3.78 v 48.5 c 0,2.09 -1.69,3.78 -3.78,3.78 -2.09,0 -3.78,-1.69 -3.78,-3.78 z M 57.74,13.9 c 0,-2.08 1.67,-3.76 3.72,-3.76 2.06,0 3.72,1.68 3.72,3.76 v 67.34 c 0,2.08 -1.67,3.76 -3.72,3.76 -2.06,0 -3.72,-1.68 -3.72,-3.76 V 13.9 Z m 57.69,0 c 0,-2.08 1.67,-3.76 3.72,-3.76 2.06,0 3.72,1.68 3.72,3.76 v 67.34 c 0,2.08 -1.67,3.76 -3.72,3.76 -2.06,0 -3.72,-1.68 -3.72,-3.76 z"/>
</symbol>

</defs>
<use href="#temperature" x="10" width="100" height="100"/>
<use href="#sound" x="100" width="100" height="100"/>
<use href="#drop" x="200" width="100" height="100"/>
<use href="#co2" x="300" width="100" height="100"/>
<use href="#uv" x="400" width="100" height="100" />
<path fill="#fff" d="M133.735,146.855h0.771V20.152C134.506,9.023,125.483,0,114.353,0S94.201,9.023,94.201,20.152v126.703h0.771
	c-14.135,7.106-23.84,21.73-23.84,38.63c0,23.871,19.351,43.222,43.222,43.222s43.222-19.351,43.222-43.222
	C157.575,168.585,147.87,153.961,133.735,146.855z M103.374,166.073c-1.844,0.942-17.594,9.677-10.484,29.58
	c0.929,2.601-0.427,5.462-3.027,6.391c-0.556,0.199-1.123,0.293-1.682,0.293c-2.054,0-3.979-1.275-4.709-3.319
	c-8.211-22.987,6.505-37.452,15.433-41.89c2.474-1.228,5.475-0.22,6.703,2.252C106.833,161.846,105.833,164.838,103.374,166.073z
	 M124.089,56.597h-19.471V22.058c0-5.368,4.367-9.735,9.735-9.735s9.735,4.367,9.735,9.735V56.597z" />

</svg>
