<?xml version="1.0" encoding="UTF-8" standalone="no"?>
<svg xmlns:dc="http://purl.org/dc/elements/1.1/" xmlns:cc="http://creativecommons.org/ns#" xmlns:rdf="http://www.w3.org/1999/02/22-rdf-syntax-ns#" xmlns:svg="http://www.w3.org/2000/svg" xmlns="http://www.w3.org/2000/svg" xmlns:xlink="http://www.w3.org/1999/xlink" xmlns:sodipodi="http://sodipodi.sourceforge.net/DTD/sodipodi-0.dtd" xmlns:inkscape="http://www.inkscape.org/namespaces/inkscape"  inkscape:version="0.92.1 r15371" xml:space="preserve" width="743.04651" height="810" viewBox="0 0 696.6061 759.37502" sodipodi:docname="publicdomainq-wasp.svg" inkscape:export-filename="/media/juhele/data_2TB/_GRAFIKA/Publicdomainq/publicdomainq-wasp.png" inkscape:export-xdpi="94.831207" inkscape:export-ydpi="94.831207"><title id="title8555">Wasp</title><metadata id="metadata8"><rdf:RDF><cc:Work rdf:about=""><dc:format>image/svg+xml</dc:format><dc:type rdf:resource="http://purl.org/dc/dcmitype/StillImage"/><dc:title>Wasp</dc:title><cc:license rdf:resource="http://creativecommons.org/publicdomain/zero/1.0/"/><dc:subject><rdf:Bag><rdf:li>wasp</rdf:li><rdf:li>insect</rdf:li><rdf:li>sting</rdf:li><rdf:li>predator</rdf:li><rdf:li>fly</rdf:li><rdf:li>poison</rdf:li><rdf:li>invertebrates</rdf:li><rdf:li>publicdomainq.net</rdf:li></rdf:Bag></dc:subject><dc:description>This image was adapted from a picture posted to publicdomainq.net. All of the images on these sites are in the public domain i.e. CC0. This site is only in Japanese but can be easily navigated with Google Translate.</dc:description></cc:Work><cc:License rdf:about="http://creativecommons.org/publicdomain/zero/1.0/"><cc:permits rdf:resource="http://creativecommons.org/ns#Reproduction"/><cc:permits rdf:resource="http://creativecommons.org/ns#Distribution"/><cc:permits rdf:resource="http://creativecommons.org/ns#DerivativeWorks"/></cc:License></rdf:RDF></metadata><defs id="defs6"><linearGradient gradientUnits="userSpaceOnUse" y2="3.3137" y1="3.5983" x2="1.3512" x1="1.6950001" id="c"><stop id="stop8094" offset="0" stop-color="#0c0d10"/><stop id="stop8096" offset="1" stop-color="#949393"/></linearGradient><linearGradient gradientUnits="userSpaceOnUse" y2="4.6033001" y1="4.6514001" x2="0.97194999" x1="1.2526" id="ax"><stop id="stop8099" offset="0" stop-color="#0c0d10"/><stop id="stop8101" offset=".56863" stop-color="#505051"/><stop id="stop8103" offset="1" stop-color="#949393"/></linearGradient><linearGradient gradientUnits="userSpaceOnUse" y2="5.7284002" y1="5.6535001" x2="0.34961" x1="0.64594001" id="bc"><stop id="stop8106" offset="0" stop-color="#0c0d10"/><stop id="stop8108" offset=".61177" stop-color="#505051"/><stop id="stop8110" offset="1" stop-color="#949393"/></linearGradient><linearGradient gradientUnits="userSpaceOnUse" y2="4.9352002" y1="5.1209998" x2="0.91096002" x1="0.94812" id="d"><stop id="stop8113" offset="0" stop-color="#0c0d10"/><stop id="stop8115" offset=".58823" stop-color="#505051"/><stop id="stop8117" offset="1" stop-color="#949393"/></linearGradient><linearGradient gradientUnits="userSpaceOnUse" y2="5.0728002" y1="5.7687998" x2="1.1754" x1="1.6687" id="a"><stop id="stop8120" offset="0" stop-color="#e4c913"/><stop id="stop8122" offset="1" stop-color="#d68700"/></linearGradient><linearGradient gradientUnits="userSpaceOnUse" y2="5.2480001" y1="6.1747999" x2="7.4257002" x1="6.7783999" id="b"><stop id="stop8125" offset="0" stop-color="#291a00"/><stop id="stop8127" offset="1" stop-color="#925d00"/></linearGradient><linearGradient xlink:href="#c" gradientUnits="userSpaceOnUse" y2="3.3137" y1="3.5983" x2="1.3512" x1="1.6950001" id="e"/><linearGradient xlink:href="#d" gradientUnits="userSpaceOnUse" y2="4.9352002" y1="5.1209998" x2="0.91096002" x1="0.94812" id="f"/><linearGradient xlink:href="#a" gradientUnits="userSpaceOnUse" y2="5.0728002" y1="5.7687998" x2="1.1754" x1="1.6687" id="g"/><linearGradient xlink:href="#b" gradientUnits="userSpaceOnUse" y2="5.2480001" y1="6.1747999" x2="7.4257002" x1="6.7783999" id="h"/><linearGradient xlink:href="#a" gradientUnits="userSpaceOnUse" y2="5.5201001" y1="5.5279002" x2="2.5697" x1="2.3943" id="m"/><linearGradient xlink:href="#a" gradientUnits="userSpaceOnUse" y2="4.7940998" y1="4.9886999" x2="4.6210999" x1="4.2876" id="n"/><linearGradient xlink:href="#a" gradientUnits="userSpaceOnUse" y2="4.1311002" y1="4.3527002" x2="1.7962" x1="1.8584" id="o"/><linearGradient xlink:href="#a" gradientUnits="userSpaceOnUse" y2="6.1722002" y1="6.0057001" x2="1.7130001" x1="1.9201" id="q"/><linearGradient xlink:href="#a" gradientUnits="userSpaceOnUse" y2="3.9356" y1="4.7519002" x2="2.1587999" x1="2.3340001" id="r"/><linearGradient xlink:href="#a" gradientUnits="userSpaceOnUse" y2="3.0682001" y1="3.5504999" x2="4.7772999" x1="4.8705001" id="s"/><linearGradient xlink:href="#a" gradientUnits="userSpaceOnUse" y2="4.0233002" y1="4.6661" x2="3.9221001" x1="4.0112" id="t"/><linearGradient xlink:href="#a" gradientUnits="userSpaceOnUse" y2="3.2607999" y1="3.8462" x2="4.1360002" x1="4.2149" id="u"/><linearGradient xlink:href="#a" gradientUnits="userSpaceOnUse" y2="5.3797998" y1="5.6243" x2="3.8076" x1="3.6310999" id="v"/><linearGradient xlink:href="#a" gradientUnits="userSpaceOnUse" y2="5.3369002" y1="5.6117001" x2="0.85437" x1="1.0713" id="w"/><linearGradient xlink:href="#a" gradientUnits="userSpaceOnUse" y2="6.0212002" y1="6.1602998" x2="0.89418" x1="0.66768003" id="x"/><linearGradient xlink:href="#d" gradientUnits="userSpaceOnUse" y2="5.1027002" y1="5.3397002" x2="0.58627999" x1="0.77152002" id="y"/><linearGradient xlink:href="#c" gradientUnits="userSpaceOnUse" y2="3.786" y1="4.073" x2="1.0474" x1="1.387" id="z"/><linearGradient xlink:href="#a" gradientUnits="userSpaceOnUse" y2="5.9927001" y1="6.0710001" x2="3.77" x1="3.6087" id="ab"/><linearGradient xlink:href="#a" gradientUnits="userSpaceOnUse" y2="6.6697998" y1="6.7789001" x2="3.5632" x1="3.3361001" id="ac"/><linearGradient xlink:href="#a" gradientUnits="userSpaceOnUse" y2="6.3720002" y1="6.4412999" x2="2.5453999" x1="2.3986001" id="ad"/><linearGradient xlink:href="#a" gradientUnits="userSpaceOnUse" y2="5.4369001" y1="5.7164998" x2="7.6792002" x1="7.0679002" id="ae"/><linearGradient xlink:href="#a" gradientUnits="userSpaceOnUse" y2="6.2342" y1="6.2972002" x2="3.7047999" x1="3.5481999" id="af"/><linearGradient xlink:href="#a" gradientUnits="userSpaceOnUse" y2="6.9096999" y1="7.0187998" x2="0.84188002" x1="0.59201998" id="ag"/><linearGradient xlink:href="#a" gradientUnits="userSpaceOnUse" y2="6.4401999" y1="6.4944" x2="3.6466" x1="3.4993999" id="ah"/><linearGradient xlink:href="#a" gradientUnits="userSpaceOnUse" y2="4.5063" y1="5.0541" x2="2.2521" x1="2.7133999" id="ai"/><linearGradient xlink:href="#a" gradientUnits="userSpaceOnUse" y2="5.6248002" y1="6.131" x2="4.796" x1="4.6448998" id="aj"/><linearGradient xlink:href="#a" gradientUnits="userSpaceOnUse" y2="6.3443999" y1="6.4047999" x2="4.8046999" x1="4.6292" id="ak"/><linearGradient xlink:href="#a" gradientUnits="userSpaceOnUse" y2="2.7297001" y1="3.6068001" x2="5.9591999" x1="5.4619999" id="al"/><linearGradient xlink:href="#a" gradientUnits="userSpaceOnUse" y2="7.0033002" y1="7.1044002" x2="4.9949999" x1="4.6870999" id="am"/><linearGradient xlink:href="#a" gradientUnits="userSpaceOnUse" y2="6.0261998" y1="6.8898001" x2="6.3685999" x1="5.5626001" id="an"/><linearGradient xlink:href="#a" gradientUnits="userSpaceOnUse" y2="7.2224002" y1="7.8663001" x2="6.8994999" x1="6.2681999" id="ao"/><linearGradient xlink:href="#a" gradientUnits="userSpaceOnUse" y2="8.5204" y1="8.6590996" x2="7.3525" x1="7.1908998" id="ap"/><linearGradient xlink:href="#a" gradientUnits="userSpaceOnUse" y2="8.0394001" y1="8.2446003" x2="7.1322999" x1="6.8403001" id="aq"/><linearGradient xlink:href="#a" gradientUnits="userSpaceOnUse" y2="8.3290005" y1="8.4889002" x2="7.2851" x1="7.0325999" id="ar"/><linearGradient xlink:href="#a" gradientUnits="userSpaceOnUse" y2="8.6416998" y1="8.8824997" x2="7.7501998" x1="7.3586001" id="as"/><linearGradient xlink:href="#a" gradientUnits="userSpaceOnUse" y2="5.9496002" y1="5.9966002" x2="2.5497" x1="2.3873" id="at"/><linearGradient xlink:href="#a" gradientUnits="userSpaceOnUse" y2="6.5783" y1="6.6315999" x2="4.8502998" x1="4.6641002" id="av"/><linearGradient xlink:href="#a" gradientUnits="userSpaceOnUse" y2="6.6754999" y1="6.7161999" x2="0.83503002" x1="0.68829" id="aw"/><linearGradient xlink:href="#a" gradientUnits="userSpaceOnUse" y2="3.8487" y1="4.2893" x2="7.6241999" x1="6.6409998" id="ay"/><linearGradient xlink:href="#a" gradientUnits="userSpaceOnUse" y2="6.7866998" y1="6.8322001" x2="4.8741999" x1="4.7017999" id="az"/><linearGradient xlink:href="#b" gradientUnits="userSpaceOnUse" y2="4.2337999" y1="5.7420998" x2="1.1858" x1="1.5072" id="ba"/><linearGradient xlink:href="#a" gradientUnits="userSpaceOnUse" y2="6.2017999" y1="6.2361002" x2="2.5904" x1="2.4481001" id="bb"/><linearGradient xlink:href="#b" gradientUnits="userSpaceOnUse" y2="3.2518001" y1="5.1508999" x2="3.4202001" x1="2.8859" id="bd"/><linearGradient xlink:href="#b" gradientUnits="userSpaceOnUse" y2="2.8461001" y1="4.8023" x2="5.6766" x1="4.3965998" id="be"/><linearGradient xlink:href="#a" gradientUnits="userSpaceOnUse" y2="6.4313998" y1="6.4686999" x2="0.85374999" x1="0.69168001" id="bf"/><linearGradient xlink:href="#a" gradientUnits="userSpaceOnUse" y2="6.5458999" y1="6.5808001" x2="0.83564001" x1="0.67742997" id="bg"/><linearGradient xlink:href="#a" gradientUnits="userSpaceOnUse" y2="6.5812998" y1="6.6444001" x2="2.6909001" x1="2.3764999" id="bh"/><linearGradient xlink:href="#b" gradientUnits="userSpaceOnUse" y2="4.1423998" y1="5.4094" x2="2.0920999" x1="1.8358001" id="bi"/><linearGradient xlink:href="#b" gradientUnits="userSpaceOnUse" y2="5.2262998" y1="5.8122001" x2="5.1492" x1="4.9735999" id="bj"/><linearGradient xlink:href="#b" gradientUnits="userSpaceOnUse" y2="4.1108999" y1="5.0577998" x2="6.3175998" x1="5.6961999" id="bk"/><linearGradient xlink:href="#a" gradientUnits="userSpaceOnUse" y2="6.0702" y1="6.0981998" x2="2.5752001" x1="2.4321001" id="bl"/><linearGradient xlink:href="#b" gradientUnits="userSpaceOnUse" y2="4.5314999" y1="5.3369999" x2="4.3365998" x1="4.1936002" id="bm"/><linearGradient xlink:href="#a" gradientUnits="userSpaceOnUse" y2="4.6608" y1="4.8182998" x2="7.8704" x1="6.9197001" id="bn"/><linearGradient xlink:href="#b" gradientUnits="userSpaceOnUse" y2="4.7839999" y1="5.2340002" x2="6.9366999" x1="6.6171999" id="i"/><linearGradient xlink:href="#a" gradientUnits="userSpaceOnUse" y2="3.0913999" y1="4.0100999" x2="7.1489" x1="6.2396998" id="j"/><linearGradient xlink:href="#a" gradientUnits="userSpaceOnUse" x2="1.6588" x1="2.1953001" id="k"/><linearGradient xlink:href="#b" gradientUnits="userSpaceOnUse" y2="4.428" y1="5.5201998" x2="2.8550999" x1="3.0534" id="p"/><linearGradient xlink:href="#a" gradientUnits="userSpaceOnUse" y2="4.8347001" y1="5.2609" x2="2.0174999" x1="2.0388" id="aa"/><linearGradient xlink:href="#b" gradientUnits="userSpaceOnUse" y2="4.3870001" y1="4.9566002" x2="6.5688" x1="6.2575002" id="au"/><radialGradient gradientUnits="userSpaceOnUse" r="0.6814" cy="4.6438999" cx="1.6442" id="l"><stop id="stop8189" offset="0" stop-color="#0c0d10"/><stop id="stop8191" offset=".54902" stop-color="#0c0d10"/><stop id="stop8193" offset="1" stop-color="#fff"/></radialGradient></defs><sodipodi:namedview pagecolor="#ffffff" bordercolor="#666666" borderopacity="1" objecttolerance="10" gridtolerance="10" guidetolerance="10" inkscape:pageopacity="0" inkscape:pageshadow="2" inkscape:window-width="1920" inkscape:window-height="1125" id="namedview4" showgrid="false" inkscape:zoom="0.72541387" inkscape:cx="653.76044" inkscape:cy="349.86647" inkscape:window-x="0" inkscape:window-y="0" inkscape:window-maximized="1" inkscape:current-layer="g10" fit-margin-top="5" fit-margin-left="5" fit-margin-bottom="5" fit-margin-right="5"/><g id="g10" inkscape:groupmode="layer" inkscape:label="ink_ext_XXXXXX" transform="matrix(1.25,0,0,-1.25,5.7741816,739.15395)"><g id="g8374" transform="matrix(66.801978,0,0,-66.801978,-0.87018491,587.57249)"><path id="path8198" d="M 1.29474,3.55006 C 1.31982,3.60989 1.34998,3.63434 1.41108,3.65308 1.52626,3.55719 1.62716,3.47415 1.67093,3.42501 1.75138,3.33469 1.64154,3.25893 1.61632,3.30534 1.5825,3.36755 1.43983,3.44833 1.29474,3.55006 Z" inkscape:connector-curvature="0" style="fill:#23201d"/><path id="path8200" d="M 2.23924,3.06769 C 2.36566,3.11465 2.45873,3.25986 2.6125,3.27434 2.66502,3.27928 2.68926,3.31968 2.71272,3.34021 L 2.70536,3.35206 2.69482,3.37006 2.65738,3.39144 2.62366,3.38852 2.56842,3.36425 2.5462,3.36216 2.52397,3.36007 C 2.48241,3.35617 2.46088,3.31646 2.47188,3.29246 2.38266,3.24074 2.35073,3.18675 2.23855,3.15177 2.04922,3.09275 1.90133,3.03672 1.67166,3.01057 1.56607,2.99852 1.49608,2.97371 1.40782,2.95098 1.34973,2.93603 1.28666,2.92489 1.2144,2.92235 1.13602,2.91958 1.05508,2.92843 0.97959,2.92012 0.85637,2.90653 0.76968,2.87413 0.67629,2.83428 0.56008,2.7847 0.45829,2.70789 0.3851,2.64048 L 0.31412,2.56737 C 0.25599,2.48878 0.1856,2.41331 0.25427,2.31917 0.27261,2.29402 0.29687,2.27274 0.34866,2.25549 0.38251,2.24422 0.43042,2.24129 0.46773,2.24348 0.44525,2.22713 0.41636,2.21479 0.39102,2.19965 0.21223,2.09288 0.13647,1.91861 0.0866,1.78265 0.05161,1.68727 0.01566,1.58963 0.00471,1.494 -0.01223,1.34598 0.01743,1.18435 0.08104,1.03924 0.10989,0.97344 0.13739,0.90008 0.27221,0.86339 0.31309,0.85226 0.35873,0.84591 0.40547,0.84491 0.51867,0.84251 0.60715,0.87363 0.69078,0.90267 1.00382,1.01138 1.25989,1.23349 1.43119,1.44682 1.63702,1.70317 1.80824,1.96862 2.01653,2.22349 2.24664,2.50506 2.49156,2.78825 2.75105,3.06088 2.85517,3.17029 2.9451,3.26367 2.94572,3.26804 L 2.91989,3.2907 C 2.85427,3.29361 2.84863,3.31881 2.78301,3.32171 L 2.77565,3.33356 2.74031,3.33633 2.73857,3.31753 C 2.75127,3.24573 2.69237,3.23248 2.64167,3.18461 2.59667,3.14211 2.52132,3.10574 2.4956,3.06391 L 2.44395,3.0515 2.09675,2.94253 1.84061,2.85203 c 0.11498,0.066 0.2512,0.15692 0.39863,0.21563 z M 1.41863,2.84844 C 1.47335,2.86268 1.45511,2.8309 1.52678,2.87305 1.51853,2.87488 1.50245,2.88629 1.50491,2.8929 1.48074,2.87695 1.45197,2.86214 1.41862,2.84845 Z M 1.45569,2.81222 C 1.30967,2.68557 0.86206,2.52993 0.6957,2.47896 L 0.73224,2.44783 0.84731,2.479 c 0.31861,0.09068 0.6494,0.18898 0.8782,0.33415 0.09575,0.06075 0.20098,0.11091 0.29666,0.17281 L 2.12662,3.05302 C 2.09777,3.06254 2.03003,3.03569 1.92649,3.00989 1.78885,2.97558 1.62704,2.90698 1.54177,2.87073 1.49442,2.8506 1.48681,2.83912 1.4557,2.81223 Z M 2.26516,3.13608 C 2.13709,3.10197 2.02823,3.05953 1.89999,3.02979 1.82905,3.01333 1.78788,3.00867 1.71749,2.9918 1.68294,2.98352 1.4582,2.91076 1.54093,2.87875 1.65759,2.932 1.76732,2.98523 1.91713,3.01914 2.04679,3.04849 2.16154,3.0904 2.26515,3.13607 Z M 1.1389,2.31416 C 1.14083,2.26485 1.17124,2.2333 1.18832,2.19673 1.23028,2.17403 1.26072,2.1051 1.2785,2.07646 1.29628,2.04782 1.32595,2.06405 1.35691,2.08891 1.56228,2.25382 1.67078,2.4521 1.91974,2.60338 1.94011,2.61575 1.94747,2.62634 1.95842,2.64212 L 1.94081,2.63689 C 1.73859,2.50814 1.38804,2.42508 1.13889,2.31416 Z M 1.95621,2.66072 C 2.12053,2.75598 2.32998,2.91559 2.44988,3.02804 1.76749,2.82365 1.6793,2.73432 1.31125,2.5476 1.17598,2.48051 1.0258,2.42 0.87247,2.36336 L 1.00877,2.32832 C 1.03666,2.32818 1.07767,2.32746 1.1163,2.31963 1.36482,2.44305 1.77369,2.53651 1.95621,2.66072 Z M 1.57841,2.02315 C 1.63328,1.93481 1.48399,1.82036 1.52953,1.72103 1.56072,1.73525 1.5853,1.75922 1.60567,1.78572 1.93482,2.21415 2.28177,2.64818 2.64997,3.06568 2.38232,2.93407 2.23303,2.80334 2.18823,2.76889 2.14343,2.73444 2.11662,2.68791 2.06588,2.6585 2.10852,2.56549 1.60229,2.03846 1.57842,2.02315 Z M 1.93609,2.59858 C 1.62096,2.39394 1.48591,2.12917 1.33391,2.05669 1.32083,2.04829 1.30034,2.01458 1.29106,2.00016 1.20517,1.86656 0.99471,1.72808 0.97747,1.58959 0.97697,1.58559 0.93221,1.49829 0.99512,1.50421 1.0254,1.50706 1.05272,1.55825 1.06944,1.57391 1.08153,1.59522 1.15165,1.65985 1.20742,1.70546 1.31192,1.79095 1.43877,1.88877 1.50546,1.98493 1.52295,2.01574 1.58142,2.06161 1.6088,2.09244 1.68122,2.17394 2.06322,2.57221 2.03997,2.66233 1.97622,2.65633 1.97088,2.62117 1.9361,2.59858 Z M 0.9001,1.28008 C 0.82987,1.20136 0.78969,1.12136 0.71946,1.03975 0.68741,1.00251 0.66179,0.96372 0.66837,0.91858 0.87249,0.99184 1.29131,1.25136 1.2671,1.4353 1.1429,1.40789 0.95499,1.34158 0.9001,1.28007 Z M 0.74261,1.10169 C 0.75986,1.12654 0.76396,1.14878 0.71206,1.15847 0.59093,1.1811 0.52945,1.1483 0.3979,1.21599 0.45795,1.27231 0.48353,1.32204 0.5782,1.35614 0.6532,1.38315 0.69232,1.41721 0.73182,1.45828 0.70382,1.50335 0.57792,1.53056 0.53513,1.5841 0.49234,1.63764 0.48458,1.69139 0.42387,1.73923 0.34911,1.7322 0.25358,1.71241 0.19543,1.68674 0.2316,1.71505 0.34184,1.74376 0.40733,1.74992 0.42404,1.75016 0.49922,1.77556 0.52661,1.78685 0.63498,1.8315 1.17289,2.16007 1.15755,2.20841 1.14078,2.23541 1.13032,2.29059 1.09445,2.30999 1.05915,2.31521 1.02839,2.32259 0.99451,2.3194 0.96805,2.33183 0.89442,2.35206 0.84723,2.35342 0.72397,2.31348 0.61273,2.25983 0.49808,2.2476 0.43592,2.19658 0.36266,2.16563 0.31991,2.11323 0.10229,1.81864 -0.05346,1.43484 0.07925,1.09086 0.10046,1.0359 0.1426,0.94205 0.24418,0.89604 0.34008,0.8526 0.52072,0.85883 0.59547,0.89663 0.64874,0.92357 0.63399,0.96379 0.67969,1.01381 0.70685,1.04353 0.72147,1.07127 0.7426,1.10171 Z M 0.65372,1.36999 0.71426,1.34294 C 0.75449,1.32745 0.77055,1.33336 0.81095,1.33726 0.85135,1.34116 0.87326,1.32933 0.91023,1.32995 0.9472,1.33057 0.96571,1.34877 0.99914,1.36521 0.98517,1.3877 0.93853,1.4204 0.96075,1.43956 0.98586,1.46122 0.98002,1.47688 0.96179,1.50108 0.88219,1.49359 0.82881,1.46786 0.75605,1.45559 0.73579,1.42581 0.69187,1.39615 0.65373,1.36999 Z M 0.76424,1.1564 C 0.81202,1.19075 0.82591,1.24988 0.90313,1.30905 0.8395,1.34628 0.78485,1.30714 0.7124,1.33039 0.67538,1.34227 0.63857,1.35779 0.628,1.3568 0.53257,1.34782 0.46309,1.25541 0.42507,1.21752 0.58305,1.14979 0.6401,1.20106 0.76423,1.15641 Z M 1.39142,2.63245 C 1.2156,2.56693 1.02512,2.51375 0.85756,2.468 L 0.62291,2.40926 C 0.51703,2.3766 0.42244,2.32628 0.39506,2.306 0.38626,2.31509 0.45391,2.35848 0.55002,2.39391 0.60297,2.41342 0.66043,2.43196 0.71774,2.4431 L 0.67887,2.47351 C 0.43266,2.39581 0.34428,2.38899 0.28807,2.38475 0.56999,2.42445 1.05351,2.60793 1.34818,2.76821 1.38922,2.79053 1.4197,2.81749 1.45862,2.84088 1.42987,2.85037 1.38996,2.83579 1.37026,2.82727 1.19963,2.75346 0.72914,2.7073 0.52948,2.70833 0.83533,2.72859 1.13973,2.77129 1.39133,2.85257 1.51028,2.891 1.5593,2.9651 1.69354,2.99589 1.61822,2.99901 1.46477,2.95574 1.39219,2.93614 1.21825,2.88916 1.09034,2.92707 0.95278,2.9057 0.58406,2.84844 0.38563,2.64572 0.27094,2.46857 0.22984,2.40507 0.23659,2.32081 0.33777,2.27638 0.39118,2.25293 0.44383,2.24922 0.49431,2.25587 0.61589,2.27189 0.7497,2.33376 0.84827,2.36978 0.99328,2.42277 1.34679,2.55382 1.39143,2.63246 Z M 1.1307,1.8662 c 0.03472,0.047 0.13922,0.12609 0.15526,0.17333 L 1.272,2.06363 C 1.24051,2.10209 1.23233,2.14487 1.18653,2.18067 0.89632,1.96518 0.65534,1.81628 0.48747,1.75556 0.47036,1.74937 0.45369,1.74483 0.43843,1.7413 0.50821,1.69327 0.50821,1.63856 0.54694,1.58771 0.58925,1.53217 0.70676,1.51133 0.74342,1.46484 0.81681,1.47529 0.8751,1.50221 0.93899,1.51281 0.95677,1.65788 1.03658,1.73879 1.1307,1.86619 Z M 1.37316,1.51676 C 1.4129,1.55415 1.42396,1.59246 1.46466,1.63148 1.49555,1.66109 1.50591,1.69505 1.50032,1.71402 1.4713,1.81246 1.53933,1.86648 1.5593,1.96128 1.5134,1.95802 1.45928,1.88929 1.43433,1.87162 1.2994,1.71902 1.19881,1.68975 1.12286,1.59703 1.08403,1.54962 1.06384,1.49792 0.99341,1.48805 0.99332,1.46473 0.99637,1.44496 0.98388,1.43164 0.97139,1.41832 1.00205,1.39822 1.01771,1.3729 1.11267,1.43108 1.32536,1.47179 1.37316,1.51677 Z" inkscape:connector-curvature="0"/><path id="path8202" d="M 1.41863,2.84844 C 1.47335,2.86268 1.45511,2.8309 1.52678,2.87305 1.51853,2.87488 1.50245,2.88629 1.50491,2.8929 1.48074,2.87695 1.45197,2.86214 1.41862,2.84845 Z M 1.45569,2.81222 C 1.30967,2.68557 0.86206,2.52993 0.6957,2.47896 L 0.73224,2.44783 0.84731,2.479 c 0.31861,0.09069 0.6494,0.18898 0.8782,0.33415 0.09575,0.06075 0.20098,0.11091 0.29667,0.17281 L 2.12662,3.05302 C 2.09777,3.06254 2.03003,3.03569 1.92649,3.00989 1.78885,2.97558 1.62705,2.90698 1.54177,2.87073 1.49442,2.8506 1.48681,2.83912 1.4557,2.81223 Z M 2.26516,3.13608 C 2.13709,3.10197 2.02823,3.05953 1.9,3.02979 1.82906,3.01333 1.78789,3.00867 1.7175,2.9918 1.68295,2.98352 1.45821,2.91076 1.54094,2.87875 1.6576,2.932 1.76733,2.98523 1.91714,3.01914 2.04681,3.04849 2.16155,3.0904 2.26516,3.13607 Z M 1.1389,2.31416 C 1.14083,2.26485 1.17124,2.2333 1.18832,2.19673 1.23028,2.17403 1.26072,2.1051 1.2785,2.07646 1.29628,2.04782 1.32595,2.06405 1.35691,2.08891 1.56228,2.25382 1.67078,2.4521 1.91974,2.60338 1.94011,2.61575 1.94747,2.62634 1.95842,2.64212 L 1.94081,2.63689 C 1.73859,2.50814 1.38804,2.42507 1.13889,2.31416 Z M 1.95621,2.66072 C 2.12053,2.75598 2.32998,2.91559 2.44988,3.02804 1.76749,2.82365 1.6793,2.73432 1.31125,2.5476 1.17598,2.48051 1.0258,2.42 0.87247,2.36336 L 1.00877,2.32832 C 1.03666,2.32818 1.07767,2.32746 1.1163,2.31963 1.36482,2.44305 1.77369,2.53651 1.95621,2.66072 Z M 1.57841,2.02315 C 1.63328,1.93481 1.48399,1.82036 1.52953,1.72103 1.56072,1.73525 1.5853,1.75922 1.60567,1.78572 1.93482,2.21415 2.28177,2.64818 2.64997,3.06568 2.38232,2.93407 2.23303,2.80334 2.18823,2.76889 2.14343,2.73444 2.11662,2.68791 2.06588,2.6585 2.10852,2.56549 1.60229,2.03846 1.57842,2.02315 Z M 1.93609,2.59858 C 1.62096,2.39394 1.48591,2.12917 1.33391,2.05669 1.32083,2.04829 1.30034,2.01458 1.29106,2.00016 1.20517,1.86656 0.99471,1.72808 0.97747,1.58959 0.97697,1.58559 0.93221,1.49829 0.99512,1.50421 1.0254,1.50706 1.05272,1.55825 1.06944,1.57391 1.08153,1.59522 1.15165,1.65985 1.20742,1.70546 1.31192,1.79095 1.43877,1.88877 1.50546,1.98493 1.52295,2.01574 1.58142,2.06162 1.6088,2.09244 1.68122,2.17394 2.06322,2.57221 2.03997,2.66233 1.97622,2.65633 1.97088,2.62117 1.9361,2.59858 Z M 0.9001,1.28008 C 0.82987,1.20136 0.78969,1.12136 0.71946,1.03975 0.68741,1.00251 0.66179,0.96372 0.66837,0.91859 0.87249,0.99185 1.29131,1.25137 1.2671,1.43531 1.1429,1.4079 0.95499,1.34159 0.9001,1.28008 Z M 0.74261,1.10169 C 0.75986,1.12654 0.76396,1.14878 0.71206,1.15847 0.59093,1.1811 0.52945,1.1483 0.3979,1.21599 0.45795,1.27231 0.48353,1.32204 0.5782,1.35614 0.6532,1.38315 0.69232,1.41721 0.73182,1.45828 0.70382,1.50335 0.57792,1.53056 0.53513,1.5841 0.49234,1.63764 0.48458,1.69139 0.42387,1.73923 0.34911,1.7322 0.25358,1.71241 0.19543,1.68674 0.2316,1.71506 0.34184,1.74376 0.40733,1.74993 0.42404,1.75017 0.49922,1.77557 0.52661,1.78686 0.63498,1.83151 1.17289,2.16008 1.15755,2.20842 1.14078,2.23542 1.13032,2.2906 1.09445,2.31 1.05915,2.31522 1.02839,2.3226 0.99451,2.31941 0.96805,2.33184 0.89442,2.35207 0.84723,2.35343 0.72397,2.31349 0.61273,2.25984 0.49808,2.24761 0.43592,2.19659 0.36266,2.16564 0.31991,2.11324 0.10229,1.81865 -0.05346,1.43485 0.07925,1.09087 0.10046,1.03591 0.1426,0.94206 0.24418,0.89605 0.34008,0.85261 0.52072,0.85884 0.59547,0.89664 0.64874,0.92358 0.63399,0.9638 0.67969,1.01382 0.70685,1.04354 0.72147,1.07128 0.7426,1.10172 Z M 0.65372,1.36999 0.71426,1.34294 C 0.75449,1.32745 0.77055,1.33336 0.81095,1.33726 0.85135,1.34116 0.87326,1.32933 0.91023,1.32995 0.9472,1.33057 0.96571,1.34877 0.99914,1.36521 0.98517,1.3877 0.93853,1.4204 0.96075,1.43956 0.98586,1.46122 0.98002,1.47688 0.96179,1.50108 0.88219,1.49359 0.82881,1.46786 0.75605,1.45559 0.73579,1.42581 0.69187,1.39615 0.65373,1.36999 Z M 0.76424,1.1564 C 0.81202,1.19075 0.82591,1.24988 0.90313,1.30905 0.8395,1.34628 0.78485,1.30714 0.7124,1.33039 0.67538,1.34227 0.63857,1.35779 0.628,1.3568 0.53257,1.34782 0.46309,1.25541 0.42507,1.21752 0.58305,1.14979 0.6401,1.20106 0.76423,1.15641 Z M 1.39142,2.63245 C 1.2156,2.56693 1.02512,2.51375 0.85756,2.468 L 0.62291,2.40926 C 0.51703,2.3766 0.42244,2.32628 0.39506,2.306 0.38626,2.31509 0.45391,2.35848 0.55002,2.39391 0.60297,2.41342 0.66043,2.43196 0.71774,2.4431 L 0.67887,2.47351 C 0.43266,2.39581 0.34428,2.38899 0.28807,2.38475 0.56999,2.42445 1.05351,2.60793 1.34818,2.76821 1.38922,2.79053 1.4197,2.81749 1.45862,2.84088 1.42987,2.85037 1.38996,2.83579 1.37026,2.82727 1.19963,2.75346 0.72914,2.7073 0.52948,2.70833 0.83533,2.72859 1.13973,2.77129 1.39133,2.85257 1.51028,2.891 1.5593,2.9651 1.69354,2.99589 1.61822,2.99901 1.46477,2.95574 1.39219,2.93614 1.21825,2.88916 1.09034,2.92707 0.95278,2.9057 0.58406,2.84844 0.38563,2.64572 0.27094,2.46857 0.22984,2.40507 0.23659,2.32081 0.33777,2.27638 0.39118,2.25293 0.44383,2.24922 0.49431,2.25587 0.61589,2.27189 0.7497,2.33376 0.84827,2.36978 0.99328,2.42277 1.34679,2.55382 1.39143,2.63247 Z M 1.1307,1.8662 c 0.03472,0.047 0.13922,0.12609 0.15526,0.17333 L 1.272,2.06363 C 1.24051,2.10209 1.23233,2.14487 1.18653,2.18067 0.89632,1.96518 0.65534,1.81628 0.48747,1.75556 0.47036,1.74937 0.45369,1.74483 0.43843,1.7413 0.50821,1.69327 0.50821,1.63856 0.54694,1.58771 0.58925,1.53217 0.70676,1.51133 0.74342,1.46484 0.81681,1.47529 0.8751,1.50221 0.93899,1.51281 0.95677,1.65788 1.03658,1.73879 1.1307,1.86619 Z M 1.37316,1.51676 C 1.4129,1.55415 1.42396,1.59246 1.46466,1.63148 1.49555,1.66109 1.50591,1.69505 1.50032,1.71402 1.4713,1.81246 1.53933,1.86649 1.5593,1.96128 1.5134,1.95802 1.45928,1.88929 1.43433,1.87162 1.2994,1.71902 1.19881,1.68975 1.12286,1.59703 1.08403,1.54962 1.06384,1.49792 0.99341,1.48805 0.99332,1.46473 0.99637,1.44496 0.98388,1.43164 0.97139,1.41832 1.00205,1.39822 1.01771,1.3729 1.11267,1.43108 1.32536,1.47179 1.37316,1.51677 Z" inkscape:connector-curvature="0" style="fill:#fdae00;fill-opacity:0.50196043"/><path id="path8204" d="M 3.84409,5.12001 C 3.7767,5.39008 3.78257,5.66399 3.81846,5.93667 L 3.7764,5.91665 c 0.0421,0.18193 1.7e-4,0.14966 0.0077,0.29876 L 3.74766,6.1848 3.71137,6.45983 3.687,6.41355 C 3.65394,6.49205 3.67311,6.58732 3.63696,6.63619 3.6276,6.61182 3.6244,6.59478 3.60981,6.58604 3.54796,6.68869 3.5118,6.73201 3.51009,6.7941 3.53473,6.80442 3.60285,6.84608 3.60493,6.97505 3.6054,6.96013 3.51673,6.85503 3.44759,6.89327 3.36218,6.99174 3.25052,6.85045 3.3434,6.77141 3.37399,6.68767 3.44138,6.62669 3.46991,6.54948 L 3.43654,6.55163 C 3.46842,6.49937 3.50133,6.4475 3.51693,6.38872 L 3.48015,6.38772 3.58637,6.17155 3.55543,6.17639 C 3.56143,6.13413 3.56916,6.09506 3.58114,6.06262 3.59983,6.01201 3.62103,5.96826 3.62979,5.91559 3.61639,5.91506 3.60816,5.92032 3.59475,5.92444 3.67116,5.56079 3.63111,5.40809 3.7274,5.10711 L 3.68327,5.10898 C 3.62931,5.15188 3.57065,5.20631 3.49538,5.22969 3.4337,5.24884 3.26302,5.27445 3.18023,5.27445 c 0,0.34209 -0.41947,0.34839 -0.65947,0.23238 -0.01043,0.12141 0.04259,0.29224 0.04259,0.41209 L 2.54901,5.9167 c 0.02151,0.0604 0.01456,0.08794 0.0203,0.14088 L 2.55418,6.05601 C 2.57011,6.08235 2.58131,6.14012 2.5912,6.17354 L 2.57872,6.17569 c 0.02931,0.04376 0.024,0.09638 0.01254,0.14565 L 2.5736,6.31842 C 2.54595,6.37188 2.53882,6.42918 2.55849,6.47818 2.56092,6.48423 2.55039,6.48083 2.54509,6.48465 2.58493,6.52367 2.73046,6.50502 2.708,6.61168 2.69015,6.59485 2.64217,6.54415 2.58081,6.57633 2.58568,6.60623 2.56966,6.62603 2.53274,6.63574 2.55037,6.66814 2.60603,6.68852 2.6431,6.6916 2.56595,6.77665 2.45262,6.64625 2.43676,6.57247 L 2.42309,6.59034 C 2.36826,6.47517 2.43366,6.37112 2.44944,6.2579 L 2.42938,6.25622 C 2.43315,6.2227 2.43737,6.19976 2.43572,6.17334 L 2.42059,6.1818 C 2.41764,6.14236 2.41658,6.08732 2.43083,6.05385 L 2.41935,6.05989 C 2.41766,6.02781 2.41232,6.00687 2.40637,5.98261 L 2.39336,5.99313 C 2.29769,5.85029 2.31762,5.60936 2.31707,5.43932 L 2.23836,5.42152 C 2.21024,5.62099 2.20071,5.71309 2.20688,5.91368 2.23055,5.9995 2.22264,6.20427 2.17703,6.2638 2.11668,6.21578 2.05632,6.1723 1.99595,6.13338 2.05916,6.25281 2.10863,6.24464 2.1585,6.3191 1.64326,6.41793 1.61355,5.90412 1.41747,5.75992 1.27031,5.65082 1.19362,5.50405 1.11752,5.3445 L 1.10541,5.54591 C 1.0645,5.57876 1.08688,5.54158 1.037,5.64022 1.00433,5.70479 0.93121,5.84092 0.91328,5.85112 0.9189,5.86239 0.91552,5.89273 0.91421,5.90929 0.9015,6.07069 0.85378,6.1592 0.85378,6.27268 0.85682,6.31967 0.87212,6.37055 0.87345,6.402 L 0.8538,6.38339 C 0.88621,6.43335 0.85388,6.50273 0.85173,6.55724 0.84821,6.54901 0.83784,6.54765 0.82945,6.54207 0.85922,6.57822 0.84227,6.64512 0.84227,6.68769 0.83538,6.67838 0.83339,6.6786 0.82311,6.67437 0.84352,6.70142 0.83679,6.7499 0.82328,6.80661 0.69595,6.81991 0.72788,7.06062 0.90654,7.02515 0.8616,7.07072 0.82336,7.09535 0.75408,7.07439 0.74269,7.09771 0.70994,7.10748 0.67457,7.10684 0.68611,7.15162 0.74082,7.15648 0.78209,7.1649 0.5529,7.2554 0.61057,7.01103 0.63935,6.89577 l -0.01767,5e-4 C 0.6378,6.83704 0.66428,6.76482 0.67673,6.73387 L 0.66029,6.72416 c 0.00972,-0.03069 0.017,-0.05648 0.017,-0.08843 L 0.66144,6.63535 C 0.67389,6.60038 0.66274,6.55144 0.68926,6.52302 0.67572,6.53197 0.67554,6.52548 0.6678,6.53094 0.67449,6.49328 0.68186,6.43796 0.67918,6.40034 0.67919,6.39438 0.67079,6.42482 0.6489,6.42871 0.65599,6.39085 0.66025,6.29381 0.66099,6.26105 0.66788,6.12657 0.68339,5.99336 0.73811,5.87609 0.76019,5.8305 0.7827,5.79599 0.81091,5.77489 0.8189,5.72513 0.86563,5.66091 0.88691,5.61476 0.90819,5.56861 0.93173,5.5153 0.9556,5.47189 L 1.01458,5.10857 C 0.94579,5.10952 0.90348,5.12831 0.87249,5.14279 0.86301,5.15263 0.84714,5.14172 0.84428,5.13192 0.80354,5.14424 0.7325,5.30202 0.67442,5.46722 0.67056,5.4782 0.65768,5.47686 0.64052,5.47058 0.58447,5.63582 0.53432,5.82629 0.55282,5.8508 0.55777,5.97024 0.36947,6.03212 0.3663,5.8892 0.34921,5.77945 0.42745,5.5896 0.49491,5.41492 0.48527,5.40198 0.47407,5.38273 0.48152,5.36501 0.54743,5.20831 0.63053,5.06863 0.7033,5.01293 0.72583,4.9881 0.763,4.98303 0.81259,4.96882 0.81481,4.9298 0.84324,4.94262 1.00061,4.92158 0.98902,4.78766 0.97841,4.67323 1.00734,4.54206 1.00647,4.47882 0.97888,4.36207 0.97888,4.29294 c 0,-0.02602 0.00717,-0.03285 0.0212,-0.0538 C 1.029,3.88544 1.02386,3.67603 1.25626,3.50822 1.29787,3.49627 1.2872,3.53529 1.29573,3.5243 1.42638,3.41765 1.56757,3.35503 1.60137,3.28644 1.63241,3.22347 1.80332,3.3135 1.69213,3.4409 1.64816,3.49127 1.55209,3.57264 1.43896,3.66186 1.43155,3.667 1.47392,3.67889 1.45196,3.69673 1.29239,3.82618 1.19102,3.98547 1.18209,4.19536 1.19257,4.19679 1.20116,4.19492 1.20326,4.21314 1.25163,4.15364 1.29358,4.11048 1.35917,4.06164 1.41667,3.99193 1.50439,3.94887 1.59612,3.95772 1.62885,3.94126 1.66394,3.93189 1.6922,3.9288 1.88006,3.65302 2.18979,3.37445 2.5303,3.23337 2.72435,3.15297 2.93176,3.1309 3.14264,3.12838 3.31496,3.12632 3.72147,3.43073 3.91169,3.5576 3.88623,2.61574 4.76309,2.58743 5.51048,2.69438 5.75012,2.72866 5.9963,2.74334 6.21846,2.84829 6.29472,2.88432 6.35577,2.926 6.38256,2.96982 6.47995,2.98915 6.60709,3.03871 6.63615,3.08986 6.83591,3.20025 7.22875,3.35409 7.27463,3.59615 7.30154,3.62012 7.32514,3.64941 7.3478,3.68399 7.51625,3.75105 7.77999,4.23174 7.73094,4.36005 7.73745,4.38234 7.74606,4.3983 7.74937,4.43862 7.87896,4.61808 7.90427,4.85481 7.89211,5.07738 7.88879,5.11368 7.87583,5.13215 7.84887,5.14056 7.796,5.37988 7.72837,5.60203 7.60215,5.80187 7.48297,5.99057 7.41178,6.08315 7.3248,6.28907 7.33389,5.97252 7.20117,5.95589 6.98555,5.74165 6.94137,5.69774 6.90986,5.6544 6.87161,5.61188 6.74951,5.54003 6.59188,5.46514 6.46526,5.39953 6.38602,5.40439 6.35655,5.39497 6.28023,5.3673 6.25399,5.38204 6.24253,5.38404 6.21625,5.36968 6.08299,5.35082 5.74114,5.30524 5.51094,5.19469 5.41806,5.24094 5.25986,5.17834 5.12959,5.12874 5.10072,5.13772 5.04442,5.10477 5.01464,5.09299 4.90359,5.04903 4.81653,4.99107 4.67581,4.89963 c -0.01153,0.022 -0.01715,0.03741 -0.0445,0.06274 0.05906,0.08816 0.09358,0.1684 0.1544,0.25474 0.09921,0.00151 0.16354,0.0248 0.21628,0.058 0.11205,0.07054 0.20456,0.15265 0.31263,0.2233 0.05687,0.03718 0.11174,0.06439 0.1812,0.0853 0.02906,0.00875 0.05428,0.03018 0.10094,0.08152 0.02431,0.02675 0.04453,0.05733 0.05435,0.08501 0.0048,0.01355 0.00599,0.02563 0.00215,0.03491 0.06245,0 0.11288,0.02313 0.15385,0.05908 0.12678,0.11124 0.17578,0.33163 0.24015,0.48126 0.04026,0.09358 0.08569,0.18603 0.14766,0.27872 0.0703,0.10512 0.17149,0.19778 0.24509,0.3916 C 6.43946,7.00518 6.42725,7.02626 6.42241,7.033 6.64742,7.27652 6.8245,7.58795 6.95363,7.9673 6.95931,7.98277 6.96281,7.99544 6.9555,8.01092 6.98708,8.04675 7.17098,8.25124 7.18972,8.29633 L 7.16204,8.29243 C 7.20114,8.3648 7.28781,8.38823 7.33293,8.48373 7.33577,8.48943 7.30451,8.47701 7.3078,8.48277 7.35512,8.55124 7.38879,8.54033 7.3864,8.56201 7.46849,8.57773 7.53708,8.58809 7.61199,8.59461 7.77928,8.49327 7.84483,8.86554 7.64958,8.79965 7.64989,8.87111 7.60641,8.9483 7.54932,8.98176 7.58018,8.90138 7.61348,8.80522 7.58754,8.77407 7.54426,8.70946 7.39689,8.7484 7.31719,8.69505 7.30793,8.73229 7.30717,8.74665 7.30967,8.77391 7.25952,8.70987 7.22087,8.63094 7.16702,8.54086 7.16336,8.55255 7.15971,8.56625 7.15604,8.57794 7.12512,8.56968 7.02864,8.37127 7.0023,8.33031 L 6.98534,8.36255 C 6.97398,8.2842 6.88739,8.15666 6.81211,8.06017 6.80778,8.07077 6.80907,8.08028 6.80836,8.09291 6.79456,8.08441 6.78897,8.07349 6.78166,8.06284 6.6059,7.64206 6.41566,7.32627 6.20794,7.13719 6.19663,7.14013 6.19176,7.14791 6.18045,7.15086 6.01701,7.03511 5.83069,6.59389 5.77693,6.40472 5.73702,6.2643 5.72195,6.08377 5.63937,5.9606 5.60303,5.90639 5.55957,5.89155 5.50578,5.86942 5.48715,5.88222 5.49372,5.88662 5.47335,5.88299 5.42852,5.87501 5.35644,5.83102 5.29639,5.8061 5.17208,5.75453 5.039,5.7508 4.91424,5.70564 4.86797,5.68889 4.83186,5.66704 4.80091,5.63108 4.79302,5.8479 4.80895,6.06782 4.83126,6.28465 L 4.79693,6.26013 C 4.81808,6.33989 4.84346,6.48042 4.83968,6.51858 L 4.80707,6.50065 C 4.83785,6.57258 4.85706,6.65697 4.88784,6.72891 L 4.85924,6.72446 C 4.86099,6.75645 4.91412,6.92558 4.91742,6.92481 4.9072,6.91842 4.89699,6.90939 4.88677,6.90712 4.90018,6.96094 4.92394,7.02546 4.94886,7.08433 5.07122,7.17001 4.93214,7.34251 4.82886,7.22437 4.76045,7.24002 4.70401,7.28643 4.64536,7.32452 4.66948,7.24894 4.70902,7.18277 4.78745,7.13172 4.77535,7.04809 4.73276,7.02194 4.72065,6.93831 l -0.0265,0.0335 C 4.6911,6.89833 4.69374,6.82045 4.67313,6.74892 4.66402,6.75716 4.65313,6.7565 4.64402,6.76474 4.64402,6.66843 4.64566,6.61666 4.64038,6.52859 4.62786,6.53174 4.60999,6.55242 4.59746,6.56035 4.61347,6.46097 4.62373,6.35338 4.6424,6.254 4.62674,6.25719 4.62395,6.26947 4.60829,6.27267 4.67216,6.00253 4.68815,5.78109 4.68815,5.53325 4.59066,5.54624 4.47923,5.31388 4.42695,5.14399 4.42295,5.27094 4.23135,5.38481 4.14656,5.23575 4.01502,5.23514 3.97163,5.15257 3.84406,5.12003 Z M 5.21637,4.94628 C 5.30574,4.96743 5.50164,4.97469 5.53938,5.08323 5.74096,5.14755 5.95967,5.20304 6.15323,5.22949 6.11164,5.1952 5.77058,5.03399 5.70261,4.99803 5.69183,5.00735 5.686,5.00876 5.67409,5.00345 5.0832,4.73936 5.02225,4.63033 4.77163,4.44087 L 4.71281,4.41549 c -0.03836,0 -0.07935,0.03199 -0.10995,0.06815 C 4.55906,4.53542 4.55105,4.56935 4.56188,4.63661 4.62853,4.65213 4.6582,4.67946 4.68086,4.73385 4.8156,4.77921 5.0201,4.85489 5.14751,4.90595 5.18773,4.92207 5.20401,4.92166 5.21638,4.94628 Z" inkscape:connector-curvature="0"/><path id="path8206" d="M 7.7242,4.4271 C 7.52031,4.36434 7.32948,4.40512 7.09683,4.42983 7.27038,4.3739 7.65626,4.1355 7.7242,4.4271 Z" inkscape:connector-curvature="0" style="fill:#4d3700"/><path id="path8208" d="M 2.56971,5.04176 C 2.5564,5.15991 2.47354,5.27764 2.47354,5.36413 c 0,0.03707 0.02322,0.07342 0.02322,0.11432 0,0.14088 0.04001,0.27648 0.0408,0.41737 C 2.47854,5.81832 2.37484,5.86978 2.39732,5.95938 2.33317,5.8856 2.33636,5.49859 2.33302,5.36964 2.42973,5.27147 2.50653,5.16086 2.56971,5.04176 Z" inkscape:connector-curvature="0" style="fill:url(#m)"/><path id="path8210" d="M 1.51722,5.83751 C 1.57809,5.8618 1.61669,5.88297 1.66142,5.90159 1.71268,5.95876 1.75865,6.01166 1.96485,6.11784 2.00628,6.24225 2.07068,6.24666 2.11584,6.30427 1.71919,6.34033 1.65855,5.98226 1.51722,5.83751 Z" inkscape:connector-curvature="0" style="fill:url(#q)"/><path id="path8212" d="M 2.43833,6.03244 C 2.43786,5.99055 2.3857,5.9002 2.45522,5.88564 2.53254,5.86945 2.54694,5.98386 2.55133,6.04049 2.48146,6.07673 2.49262,5.99828 2.43834,6.03243 Z" inkscape:connector-curvature="0" style="fill:url(#at)"/><path id="path8214" d="M 2.57159,6.15657 C 2.52674,6.16881 2.49076,6.10732 2.43715,6.15657 2.43575,6.11611 2.43684,6.08855 2.44239,6.07145 2.46576,5.99955 2.48059,6.09334 2.53916,6.06301 2.55525,6.08319 2.5654,6.12218 2.57159,6.15657 Z" inkscape:connector-curvature="0" style="fill:url(#bl)"/><path id="path8216" d="M 2.44819,6.16649 C 2.49104,6.13309 2.5208,6.18716 2.56521,6.17809 2.5903,6.21737 2.58266,6.24661 2.57947,6.29585 2.51433,6.30487 2.50827,6.24455 2.44987,6.23837 2.45115,6.21354 2.45293,6.1893 2.44819,6.16648 Z" inkscape:connector-curvature="0" style="fill:url(#bb)"/><path id="path8218" d="M 2.53353,6.4625 C 2.48533,6.47557 2.45115,6.50545 2.42855,6.54894 2.3895,6.46013 2.44957,6.34999 2.46896,6.26432 2.48764,6.27641 2.50713,6.30342 2.55444,6.31605 2.54545,6.34798 2.51175,6.39124 2.53353,6.46249 Z" inkscape:connector-curvature="0" style="fill:url(#ad)"/><path id="path8220" d="M 3.72441,6.17332 C 3.72168,6.22269 3.69302,6.35275 3.68886,6.38698 3.66452,6.31618 3.61042,6.35761 3.52853,6.35611 3.55698,6.29865 3.5821,6.21493 3.60908,6.16825 3.63658,6.16214 3.69205,6.14439 3.72441,6.17332 Z" inkscape:connector-curvature="0" style="fill:url(#af)"/><path id="path8222" d="M 4.62746,6.5106 C 4.64281,6.42117 4.64611,6.33691 4.66592,6.25015 4.68527,6.23855 4.75547,6.24064 4.77481,6.25495 4.79533,6.31858 4.80549,6.42731 4.80645,6.4766 4.74472,6.45797 4.68922,6.46278 4.62747,6.5106 Z" inkscape:connector-curvature="0" style="fill:url(#ak)"/><path id="path8224" d="M 3.63505,6.57477 C 3.60509,6.4976 3.54717,6.5162 3.48209,6.51639 3.50216,6.48791 3.52886,6.4299 3.54222,6.38885 3.60057,6.38762 3.645,6.35973 3.66394,6.40616 3.65096,6.45488 3.6353,6.52717 3.63506,6.57477 Z" inkscape:connector-curvature="0" style="fill:url(#ah)"/><path id="path8226" d="M 2.51326,6.6273 C 2.51736,6.63993 2.54934,6.68486 2.61389,6.69861 2.50074,6.73668 2.36844,6.52681 2.52611,6.48909 2.58194,6.53392 2.69745,6.52089 2.69895,6.58405 2.66721,6.54041 2.62777,6.55344 2.57406,6.54957 2.55355,6.54809 2.53197,6.5263 2.50097,6.54557 2.47865,6.55943 2.48444,6.61105 2.52408,6.61221 2.47423,6.57884 2.52555,6.54533 2.55078,6.5712 2.56497,6.58574 2.56419,6.61303 2.51325,6.62731 Z" inkscape:connector-curvature="0" style="fill:url(#bh)"/><path id="path8228" d="M 0.69264,6.64192 C 0.7019,6.63353 0.74331,6.62039 0.75497,6.65639 0.76663,6.69239 0.83746,6.6039 0.80726,6.78778 0.70484,6.78305 0.76822,6.72818 0.68586,6.70681 0.69523,6.6837 0.6903,6.66453 0.69264,6.64192 Z" inkscape:connector-curvature="0" style="fill:url(#aw)"/><path id="path8230" d="M 2.17022,6.23297 C 1.96937,6.05781 1.83425,6.06289 1.70255,5.89862 1.6417,5.82273 1.69633,5.73302 1.71232,5.64653 1.72251,5.59144 1.72077,5.52262 1.72736,5.46556 1.75336,5.24031 2.05397,5.4592 2.14136,5.33928 L 2.21242,5.40577 C 2.2111,5.45203 2.15588,5.78203 2.18216,5.92768 2.20011,6.0237 2.19481,6.14324 2.17023,6.23297 Z" inkscape:connector-curvature="0" style="fill:url(#k)"/><path id="path8232" d="M 2.65604,4.29564 C 2.6408,4.46052 2.57719,4.80104 2.5695,5.00539 2.49158,5.13552 2.41215,5.2553 2.33003,5.34354 2.33003,5.21017 2.3094,4.57841 2.43147,4.324 2.46131,4.2618 2.49891,4.22146 2.54884,4.21889 2.58871,4.21684 2.64991,4.24352 2.65604,4.29564 Z" inkscape:connector-curvature="0" style="fill:url(#ai)"/><path id="path8234" d="M 2.59284,4.97448 C 2.60658,5.11705 2.4952,5.24877 2.4952,5.36728 2.4952,5.4062 2.51958,5.44139 2.51958,5.48335 2.68392,5.55564 2.86643,5.57916 3.03703,5.50379 2.8301,5.42004 2.67086,5.14921 2.59284,4.97449 Z" inkscape:connector-curvature="0" style="fill:#4d3400"/><path id="path8236" d="M 4.16891,5.21766 C 4.10708,4.65664 4.1635,4.89791 4.12226,4.50073 4.19482,4.60315 4.3545,4.94592 4.40895,5.10371 4.42313,5.22406 4.24588,5.36778 4.1689,5.21766 Z" inkscape:connector-curvature="0" style="fill:url(#bm)"/><path id="path8238" d="M 4.3993,5.00643 C 4.32599,4.81568 4.22368,4.61708 4.14326,4.48187 4.06823,4.35573 4.08792,4.28722 4.25401,4.2762 c 0.1339,0.17247 0.20624,0.37859 0.29209,0.57603 0.0223,0.0513 0.05005,0.09858 0.07954,0.14614 0.0866,0.13967 0.21489,0.33057 0.21489,0.40372 0,0.07625 -0.09331,0.10447 -0.15335,0.10447 C 4.54605,5.47892 4.44999,5.13831 4.3993,5.00643 Z" inkscape:connector-curvature="0" style="fill:url(#n)"/><path id="path8240" d="M 4.70898,5.5336 4.78247,5.51817 C 4.77558,5.75832 4.77312,5.99774 4.79779,6.23765 4.75272,6.21732 4.70547,6.20974 4.64315,6.22621 4.69921,6.02058 4.7028,5.76955 4.70898,5.5336 Z" inkscape:connector-curvature="0" style="fill:url(#aj)"/><path id="path8242" d="M 5.30405,5.51954 C 5.23804,5.60286 5.25018,5.7229 5.33071,5.80138 5.19704,5.72843 5.05291,5.74653 4.91589,5.68291 4.85676,5.65545 4.80134,5.61624 4.80134,5.58734 4.79994,5.56412 4.80157,5.53053 4.80273,5.50732 4.85475,5.47712 4.89346,5.38988 4.7921,5.2372 c 0.08469,0 0.14741,0.0223 0.20526,0.05893 0.11108,0.07035 0.19232,0.15139 0.30668,0.22342 z" inkscape:connector-curvature="0" style="fill:url(#bj)"/><path id="path8244" d="m 3.76274,4.12074 c 0,0.26028 -0.09488,0.73324 -0.09488,0.97958 C 3.58433,5.15624 3.56197,5.19964 3.4311,5.22346 L 3.17872,5.24969 C 3.13893,4.90891 2.94421,4.60576 2.67564,4.28958 2.67374,4.27709 2.67131,4.26658 2.66511,4.2541 2.66154,4.02599 2.79667,3.90312 2.79667,3.77249 c 0,-0.14585 -0.17172,-0.37648 -0.2534,-0.51601 0.20727,-0.06964 0.38704,-0.10344 0.60507,-0.0983 0.11614,0 0.46548,0.22381 0.55434,0.29393 0.02648,0.29691 0.03,0.3703 0.06005,0.66864 z" inkscape:connector-curvature="0" style="fill:url(#bd)"/><path id="path8246" d="M 4.24202,4.25312 C 4.06009,4.26884 4.0542,4.36241 4.0956,4.46249 4.1328,4.75413 4.08925,4.85301 4.1439,5.21639 3.9659,5.2139 4.01715,5.0888 3.6913,5.08711 3.69744,4.77281 3.79407,4.46178 3.79407,4.12569 3.77477,3.90917 3.74292,3.69254 3.73143,3.47301 4.05424,3.66159 4.22725,3.88665 4.24203,4.25313 Z" inkscape:connector-curvature="0" style="fill:url(#t)"/><path id="path8248" d="M 4.42344,4.34795 C 4.31694,4.2259 4.31326,4.22144 4.25197,4.12554 4.20443,3.81394 4.08877,3.71738 3.93489,3.57271 3.92745,3.10808 4.13667,2.87215 4.41092,2.75909 4.3356,2.9606 4.30127,3.09583 4.30434,3.24834 4.30757,3.40884 4.34787,3.56661 4.3971,3.71843 4.412,3.76436 4.41858,3.81105 4.42016,3.85815 4.42114,3.88749 4.38833,4.04674 4.38425,4.12714 4.38064,4.19844 4.42246,4.27386 4.42343,4.34795 Z" inkscape:connector-curvature="0" style="fill:url(#u)"/><path id="path8250" d="M 4.48932,2.73248 C 4.62535,2.70062 4.75834,2.68096 4.88685,2.67912 5.15852,3.05779 5.0632,3.77851 4.72441,3.9396 4.72441,3.78881 4.76846,3.68742 4.79563,3.59162 4.81138,3.5361 4.83417,3.48304 4.82485,3.42441 4.80458,3.29689 4.71771,3.24504 4.72583,3.06705 4.73008,2.97395 4.71044,2.9196 4.65236,2.87178 4.59428,2.82396 4.51832,2.82442 4.48931,2.73247 Z" inkscape:connector-curvature="0" style="fill:url(#s)"/><path id="path8252" d="M 5.51268,3.00814 C 5.51261,2.98662 5.51393,2.96506 5.51393,2.94356 5.51393,2.80138 5.5759,2.75486 5.67128,2.73583 5.38414,2.70585 5.14174,2.66939 4.91278,2.67736 5.15041,3.03075 5.13897,3.77835 4.70119,3.97841 4.70119,3.85309 4.73495,3.71177 4.77165,3.58383 4.79098,3.51644 4.80783,3.4695 4.79921,3.42398 4.77827,3.31332 4.68542,3.23794 4.70053,3.06972 4.70299,2.95577 4.66582,2.90878 4.63243,2.88867 4.53211,2.82825 4.51426,2.851 4.46587,2.7398 L 4.43414,2.75138 C 4.36697,2.91854 4.32844,3.07162 4.33072,3.24071 4.33261,3.38081 4.36252,3.53257 4.42738,3.71422 4.44201,3.76625 4.44673,3.81326 4.44607,3.85769 4.44474,3.94667 4.40868,4.03623 4.41181,4.12366 4.41494,4.21109 4.44575,4.29908 4.44575,4.39228 4.35575,4.33203 4.32319,4.25604 4.25998,4.18335 v 0.06964 c 0.14887,0.186 0.21886,0.3773 0.31197,0.58875 L 4.61738,4.936 C 4.68451,4.8835 4.70659,4.68284 4.56558,4.66234 4.55454,4.66074 4.5474,4.65117 4.54312,4.63786 4.53172,4.56244 4.54515,4.51543 4.58569,4.47082 4.62623,4.42621 4.67541,4.39151 4.71374,4.39162 4.74337,4.3917 4.76805,4.40591 4.7855,4.41983 5.08529,4.65892 5.30924,4.83142 5.684,4.97903 L 5.69252,4.84783 C 5.5329,4.7287 5.33837,4.46108 5.41632,4.286 5.45638,4.19602 5.54501,4.2182 5.68808,4.2182 5.73395,4.18749 5.79952,4.047 5.81323,3.99012 5.58892,3.80053 5.65721,3.72292 5.80419,3.53192 5.6771,3.55756 5.54222,3.56232 5.4124,3.57527 5.02505,3.61391 5.28824,3.34911 5.41255,3.23334 5.46853,3.18121 5.51301,3.11775 5.51267,3.00818 Z" inkscape:connector-curvature="0" style="fill:url(#be)"/><path id="path8254" d="M 6.35198,2.97548 C 6.25228,2.84798 5.90922,2.75546 5.74638,2.74867 c -0.15057,0 -0.20923,0.07002 -0.20923,0.19997 0,0.01912 -3.5e-4,0.03827 -5.2e-4,0.05737 C 5.53547,3.13877 5.48954,3.20403 5.4334,3.25281 5.32959,3.34303 5.06928,3.58784 5.41156,3.55426 5.54172,3.54149 5.68883,3.5305 5.81592,3.50352 5.93901,3.47738 6.0793,3.49431 6.1764,3.39703 6.32141,3.25175 6.24242,3.11797 6.35198,2.97548 Z" inkscape:connector-curvature="0" style="fill:url(#al)"/><path id="path8256" d="M 6.599,3.08898 C 6.63219,3.08268 6.47609,2.99126 6.37306,2.99357 6.24495,3.15127 6.37972,3.211 6.18904,3.42535 L 6.23637,3.57074 C 6.27313,3.53226 6.29214,3.47276 6.31533,3.41611 6.37272,3.27591 6.48854,3.187 6.599,3.08898 Z" inkscape:connector-curvature="0" style="fill:#4d3700"/><path id="path8258" d="M 7.1756,3.57226 C 7.0982,3.58128 7.00263,3.69121 6.96159,3.7398 7.08428,3.73802 7.21221,3.66763 7.32533,3.68306 7.34103,3.70328 7.253,3.56323 7.1756,3.57225 Z" inkscape:connector-curvature="0" style="fill:#4d3500"/><path id="path8260" d="M 6.56998,4.34463 6.55689,4.361 C 6.68663,4.43104 6.95158,4.42656 7.01052,4.42055 7.04973,4.41655 7.08256,4.41057 7.10341,4.40272 7.28841,4.33308 7.50716,4.17635 7.70832,4.31103 7.70505,4.16446 7.47599,3.77714 7.3429,3.70701 7.20236,3.70701 7.07189,3.7641 6.9366,3.76913 L 6.82592,3.87338 c 0,0.1658 -0.15987,0.34126 -0.23221,0.44926 L 6.57049,4.34585 Z" inkscape:connector-curvature="0" style="fill:url(#ay)"/><path id="path8262" d="m 6.91313,4.72024 c 0,0.1446 0.20804,0.26199 0.3368,0.27594 C 7.39998,5.01243 7.53509,4.97715 7.68476,5.00847 7.76927,5.02616 7.81678,5.07454 7.85561,5.10645 7.86141,5.08004 7.86262,5.05778 7.86401,5.03345 7.8769,4.80834 7.85373,4.66427 7.73209,4.45703 7.56764,4.3727 7.25216,4.45795 7.04805,4.45105 7.05245,4.46498 6.95977,4.66035 6.91313,4.72024 Z" inkscape:connector-curvature="0" style="fill:url(#bn)"/><path id="path8264" d="M 6.99237,5.20478 C 7.44621,5.20012 7.41431,5.80432 7.39003,6.09007 7.5149,5.8777 7.74515,5.5623 7.75477,5.37889 7.75477,5.14795 7.52913,5.06335 7.32499,5.0745 7.2037,5.08112 7.08462,5.12463 6.99238,5.20478 Z" inkscape:connector-curvature="0" style="fill:url(#ae)"/><path id="path8266" d="M 7.77123,5.34669 C 7.79336,5.26936 7.81137,5.20407 7.82543,5.12271 7.66327,4.97186 7.59809,5.0381 7.23339,5.01662 L 7.12874,5.09612 C 7.54666,4.94279 7.79662,5.20481 7.77122,5.34669 Z" inkscape:connector-curvature="0" style="fill:#4d3500"/><path id="path8268" d="M 6.53465,5.20478 C 6.71905,5.11418 6.79908,5.18961 6.89403,5.13489 7.01927,5.06271 6.86143,4.88263 6.80927,4.81317 6.68481,4.89648 6.5701,5.05141 6.53465,5.20478 Z" inkscape:connector-curvature="0" style="fill:url(#i)"/><path id="path8270" d="M 7.32686,6.08365 C 7.33714,5.9568 7.29658,5.63198 7.17192,5.51171 7.11144,5.45336 7.00078,5.42141 6.93887,5.47411 6.91465,5.49474 6.90006,5.52397 6.89559,5.5762 c 0,0.0367 0.04131,0.08879 0.09317,0.13942 0.14554,0.14208 0.26279,0.19561 0.3381,0.36802 z" inkscape:connector-curvature="0" style="fill:#925e00"/><path id="path8272" d="M 6.81415,5.55432 C 6.82948,5.56334 6.85455,5.58075 6.87098,5.58761 6.87727,5.44288 6.97851,5.39306 7.11854,5.44464 7.19366,5.47231 7.24876,5.55767 7.28584,5.66363 7.35079,5.84921 7.35124,6.00534 7.34351,6.19894 7.39016,6.0394 7.39117,5.85702 7.37692,5.67548 7.35547,5.4023 7.23435,5.22387 6.96223,5.22711 6.83601,5.32363 6.81292,5.36949 6.81415,5.55433 Z" inkscape:connector-curvature="0" style="fill:url(#h)"/><path id="path8274" d="M 6.51763,5.40129 C 6.61011,5.44922 6.69713,5.49644 6.79109,5.54138 6.7806,5.34994 6.84654,5.29145 6.9631,5.19678 7.04442,5.13074 7.12908,5.07589 7.20918,5.00837 7.0974,4.98834 6.91783,4.88683 6.89537,4.74189 6.8737,4.75878 6.85551,4.78161 6.82592,4.79851 6.8772,4.87507 6.97108,4.95879 6.9652,5.0591 6.9629,5.09832 6.94411,5.13484 6.90025,5.15728 6.79599,5.21062 6.68746,5.14004 6.52544,5.23366 6.51208,5.28717 6.51486,5.34775 6.51763,5.40127 Z" inkscape:connector-curvature="0" style="fill:#925f00"/><path id="path8276" d="M 6.23379,5.28603 C 6.2605,5.34168 6.23438,5.36781 6.28491,5.34447 6.34114,5.35565 6.36355,5.3767 6.40983,5.37533 6.34233,5.34859 6.28387,5.30655 6.23379,5.28603 Z" inkscape:connector-curvature="0" style="fill:#926700"/><path id="path8278" d="M 6.23379,5.35567 C 6.21093,5.31232 6.23335,5.29688 6.17459,5.25621 5.99036,5.2292 5.87929,5.20473 5.54457,5.10752 c 0,0.03611 -0.00246,0.05696 -0.01546,0.07646 0.0872,0.05961 0.61754,0.16676 0.70467,0.17169 z" inkscape:connector-curvature="0" style="fill:#927200"/><path id="path8280" d="m 6.02693,4.91247 c 0.01906,0.01241 0.07914,0.05009 0.07914,0.07177 0,0.08587 -0.05624,0.17921 0.01161,0.19732 C 6.14187,4.85038 6.33262,4.59232 6.52102,4.38371 6.5827,4.3066 6.63853,4.22599 6.69367,4.14399 6.72249,4.10112 6.79269,3.95049 6.79724,3.8959 6.61085,4.05081 6.34558,3.97851 6.21193,4.0072 c 0,0.10007 0.11474,0.13367 0.11474,0.19937 0,0.0657 -0.05847,0.18567 -0.10114,0.22259 C 6.14049,4.50272 5.92832,4.44202 5.94561,4.7132 l 0.00343,0.03488 c 0.00946,0.07051 0.0342,0.13594 0.07789,0.1644 z" inkscape:connector-curvature="0" style="fill:#926e00"/><path id="path8282" d="M 6.99486,8.3082 C 7.04079,8.24878 7.06514,8.27254 7.14914,8.27309 7.08291,8.18043 6.997,8.09058 6.92702,8.00635 6.88499,7.97586 6.86407,7.99004 6.8235,8.04181 6.88514,8.13088 6.95357,8.20364 6.99487,8.3082 Z" inkscape:connector-curvature="0" style="fill:url(#aq)"/><path id="path8284" d="M 7.574,8.94167 C 7.61744,8.89965 7.63476,8.83585 7.63385,8.77626 7.78996,8.82916 7.75889,8.60084 7.65974,8.60023 7.64118,8.60012 7.6082,8.60975 7.59793,8.63714 7.59467,8.61828 7.60175,8.61105 7.58145,8.60856 L 7.37608,8.58255 C 7.34184,8.59836 7.3189,8.61536 7.32219,8.67344 7.36319,8.71819 7.50955,8.70353 7.57125,8.73151 7.57338,8.71897 7.57262,8.70125 7.58261,8.69395 7.57857,8.7555 7.60941,8.73417 7.61529,8.79457 7.6132,8.8447 7.59273,8.89334 7.57401,8.94168 Z" inkscape:connector-curvature="0" style="fill:url(#as)"/><path id="path8286" d="M 7.18045,8.51976 C 7.19692,8.55584 7.26691,8.66646 7.29034,8.69854 7.31437,8.64416 7.28575,8.60072 7.36299,8.56687 7.32771,8.53582 7.31336,8.52039 7.28575,8.48103 7.25833,8.48155 7.19976,8.48098 7.18045,8.51977 Z" inkscape:connector-curvature="0" style="fill:url(#ap)"/><path id="path8288" d="M 7.14803,8.54103 C 7.16577,8.4746 7.23042,8.45642 7.30196,8.4664 7.2811,8.42299 7.16639,8.34244 7.13681,8.29323 7.08633,8.29154 7.03816,8.2769 7.01572,8.31693 7.03332,8.36481 7.12103,8.50425 7.14804,8.54104 Z" inkscape:connector-curvature="0" style="fill:url(#ar)"/><path id="path8290" d="M 4.87535,6.88782 C 4.85785,6.83514 4.84405,6.77999 4.83233,6.72346 4.80887,6.70386 4.72402,6.72104 4.70055,6.73942 4.71097,6.79489 4.71564,6.85381 4.71638,6.91508 4.76055,6.87751 4.78657,6.84084 4.81784,6.84146 4.84911,6.84208 4.8638,6.86353 4.87534,6.88782 Z" inkscape:connector-curvature="0" style="fill:url(#az)"/><path id="path8292" d="M 4.66497,6.51553 C 4.6623,6.58077 4.67362,6.66116 4.66903,6.72443 4.71485,6.69375 4.7807,6.66784 4.85212,6.70211 L 4.78336,6.49585 C 4.74906,6.48542 4.69287,6.49272 4.66497,6.51554 Z" inkscape:connector-curvature="0" style="fill:url(#av)"/><path id="path8294" d="M 4.68436,7.27839 C 4.74441,7.23543 4.76251,7.22068 4.82655,7.20739 4.82189,7.20618 4.8368,7.17126 4.84764,7.17005 4.81938,7.22639 4.91959,7.27144 4.95867,7.21112 4.99775,7.1508 4.93551,7.07752 4.88006,7.11512 4.89245,7.08483 4.91409,7.07977 4.91849,7.08053 4.89465,7.01581 4.87139,6.94594 4.85379,6.90017 4.8177,6.82939 4.77485,6.89861 4.74504,6.92634 c 0,0.07524 0.05385,0.14021 0.06589,0.21148 -0.04165,0.02315 -0.11164,0.0845 -0.12657,0.14057 z" inkscape:connector-curvature="0" style="fill:url(#am)"/><path id="path8296" d="M 6.39721,7.05336 C 6.36676,7.06796 6.34342,7.09385 6.30399,7.08748 6.27066,7.08209 6.26773,7.10216 6.23728,7.11676 6.47219,7.35396 6.65691,7.66227 6.79592,8.03531 6.81099,8.02427 6.8177,8.01209 6.82575,8.00188 6.8499,7.97123 6.89803,7.95451 6.93042,7.97889 6.79732,7.6014 6.61822,7.295 6.39721,7.05336 Z" inkscape:connector-curvature="0" style="fill:url(#ao)"/><path id="path8298" d="M 3.58659,6.14496 C 3.65624,6.14607 3.69244,6.10634 3.75887,6.16246 3.75264,6.08305 3.79207,6.05523 3.74741,5.91281 3.71728,5.90129 3.68714,5.90129 3.65701,5.91281 3.63834,6.03034 3.59275,6.02945 3.58659,6.14495 Z" inkscape:connector-curvature="0" style="fill:url(#ab)"/><path id="path8300" d="M 3.48901,6.54661 C 3.42732,6.67265 3.39857,6.67837 3.37809,6.73396 3.35998,6.78319 3.41865,6.76473 3.40644,6.80851 3.38996,6.78632 3.37172,6.78301 3.35711,6.79034 3.30645,6.81575 3.3299,6.90786 3.38666,6.90666 3.42096,6.90594 3.44844,6.86574 3.4231,6.83703 3.44862,6.83798 3.44998,6.87372 3.44801,6.87808 3.49776,6.85094 3.53942,6.88022 3.57498,6.91103 3.5565,6.83968 3.51213,6.8199 3.48014,6.80656 3.50867,6.69735 3.5444,6.66761 3.59287,6.56997 3.57896,6.53873 3.53167,6.53766 3.48901,6.5466 Z" inkscape:connector-curvature="0" style="fill:url(#ac)"/><path id="path8302" d="M 1.56103,5.36826 C 1.5599,5.32277 1.4324,5.14257 1.35605,5.07804 1.30297,5.03318 1.23125,5.09308 1.23125,5.15499 c 0,0.06191 0.04122,0.12658 0.0853,0.16769 0.04408,0.04111 0.08558,0.04918 0.11618,0.0848 C 1.49649,5.4817 1.44522,5.5699 1.50653,5.6905 1.43059,5.65751 1.38905,5.6583 1.34576,5.65745 1.35739,5.70101 1.4901,5.78643 1.53153,5.80834 1.50181,5.74345 1.52992,5.7008 1.61287,5.68814 1.5654,5.58917 1.56376,5.47822 1.56104,5.36825 Z" inkscape:connector-curvature="0" style="fill:url(#g)"/><path id="path8304" d="M 1.00463,4.27715 0.99744,4.29942 c 0,0.07547 0.08407,0.71136 0.22967,0.49401 C 1.17531,4.55973 1.15227,4.48084 1.17813,4.24393 1.14703,4.26475 1.01807,4.36595 1.00464,4.27715 Z" inkscape:connector-curvature="0" style="fill:url(#ax)"/><path id="path8306" d="M 1.52952,3.99545 C 1.28552,4.04429 1.27576,4.39828 1.29839,4.58519 1.31945,4.75916 1.43811,5.28445 1.71622,5.21117 2.05964,5.12068 1.89817,3.92166 1.52952,3.99545 Z" inkscape:connector-curvature="0" style="fill:url(#l)"/><path id="path8308" d="M 2.15553,5.31619 2.24023,5.3996 C 2.26714,5.4043 2.28992,5.41241 2.31682,5.41712 2.31661,5.39824 2.31477,5.36866 2.31263,5.32744 2.30531,5.18611 2.27305,3.96499 2.64412,4.22777 2.64842,3.9805 2.77162,3.8962 2.77162,3.7666 2.77162,3.66373 2.57991,3.36399 2.5172,3.27036 2.25814,3.38603 2.06068,3.4971 1.72118,3.92795 2.23257,3.92087 2.35058,4.90305 2.15551,5.31617 v 1e-5 z" inkscape:connector-curvature="0" style="fill:url(#r)"/><path id="path8310" d="M 5.21921,4.96728 C 5.21939,5.02858 5.19516,5.07916 5.14779,5.11906 5.27125,5.15675 5.40084,5.2146 5.49516,5.17799 5.52254,5.16668 5.53572,5.10923 5.52471,5.08498 5.46208,4.9902 5.31909,4.992 5.2192,4.96728 Z" inkscape:connector-curvature="0" style="fill:#926800"/><path id="path8312" d="M 5.11238,5.11256 C 5.17415,5.0721 5.19967,5.01765 5.19249,4.95102 5.03103,4.87262 4.8667,4.81849 4.68767,4.76132 4.69897,4.80093 4.69271,4.8368 4.68366,4.87869 4.80192,4.96546 4.98503,5.06874 5.11238,5.11257 Z" inkscape:connector-curvature="0" style="fill:#926100"/><path id="path8314" d="M 6.14717,3.99763 C 6.29969,3.96211 6.41758,3.98065 6.53234,3.97039 6.68108,3.9571 6.79894,3.877 6.90258,3.77291 7.01607,3.65893 7.11602,3.47978 7.2414,3.56213 7.20123,3.45239 7.07473,3.35941 6.99095,3.30781 6.9078,3.34904 6.82378,3.29617 6.82136,3.20586 L 6.62853,3.10386 C 6.48869,3.22611 6.40915,3.26064 6.33416,3.43655 6.30943,3.49457 6.29052,3.54914 6.24243,3.59989 6.2619,3.7627 6.2284,3.8463 6.14715,3.99761 Z" inkscape:connector-curvature="0" style="fill:url(#j)"/><path id="path8316" d="M 6.51093,4.42154 C 6.44901,4.4794 6.25821,4.72134 6.19442,4.92216 6.24228,4.90733 6.28627,4.82035 6.35263,4.80867 6.42234,4.79009 6.48945,4.79116 6.54339,4.75292 6.61675,4.70091 6.63189,4.59711 6.56968,4.52853 6.54789,4.5045 6.52285,4.47912 6.51093,4.42154 Z" inkscape:connector-curvature="0" style="fill:url(#au)"/><path id="path8318" d="M 6.35685,4.83794 C 6.26335,4.86784 6.2569,4.93533 6.1837,4.95251 6.15946,5.0329 6.13472,5.11027 6.14275,5.19068 6.24742,5.27825 6.36093,5.33234 6.49478,5.38949 6.48737,5.24026 6.52839,5.10441 6.61336,4.98086 6.67237,4.89504 6.75058,4.8288 6.8581,4.74945 6.93687,4.67445 6.98717,4.54959 7.0233,4.45032 6.85885,4.45032 6.69758,4.44122 6.54581,4.37619 L 6.54703,4.37332 6.5296,4.39511 C 6.52808,4.44687 6.55483,4.47971 6.58367,4.50974 6.65618,4.58522 6.65461,4.71955 6.56302,4.77817 6.50515,4.81522 6.4245,4.81632 6.35684,4.83795 Z" inkscape:connector-curvature="0" style="fill:#926000"/><path id="path8320" d="M 5.78681,5.85887 C 5.74955,5.82861 5.70129,5.80844 5.63694,5.80464 5.60683,5.82954 5.56535,5.83518 5.52659,5.85581 5.58544,5.8712 5.62696,5.90044 5.65959,5.943 5.75586,6.06852 5.77227,6.25101 5.81334,6.39913 5.88817,6.66904 6.02103,6.92735 6.18734,7.11135 6.21286,7.09911 6.257,7.05349 6.29997,7.05581 6.35708,7.0589 6.37841,7.01559 6.40458,7.0095 6.36106,6.87593 6.2907,6.78621 6.17328,6.61769 6.11351,6.53191 6.06413,6.43916 6.02043,6.34344 5.95621,6.20277 5.91051,5.95933 5.78682,5.85887 Z" inkscape:connector-curvature="0" style="fill:url(#an)"/><path id="path8322" d="M 5.47469,5.59937 C 5.42289,5.57889 5.38982,5.5671 5.3221,5.53155 5.24217,5.63783 5.28513,5.73324 5.37801,5.82062 5.42443,5.84526 5.45071,5.85812 5.47393,5.86239 5.51186,5.82215 5.63004,5.80353 5.63004,5.76193 5.63004,5.75115 5.60646,5.72097 5.57943,5.68921 5.5444,5.64806 5.52466,5.61911 5.47469,5.59937 Z" inkscape:connector-curvature="0" style="fill:#926a00"/><path id="path8324" d="M 6.09471,4.03233 C 6.18273,3.90243 6.28986,3.69298 6.16412,3.44049 6.0527,3.52138 5.91176,3.49872 5.83283,3.52727 5.74909,3.621 5.69172,3.69294 5.69198,3.7692 5.69221,3.83863 5.73692,3.90779 5.8397,3.98637 5.80814,4.07512 5.76685,4.16063 5.71131,4.2414 5.58251,4.2414 5.47779,4.22023 5.43815,4.29392 5.35897,4.44111 5.57922,4.74087 5.69679,4.81958 5.73274,4.41349 5.93918,4.30043 6.09471,4.03235 Z" inkscape:connector-curvature="0" style="fill:#926100"/><path id="path8326" d="M 5.71037,4.98312 6.06305,5.15949 C 6.04258,5.11968 6.07828,5.05056 6.0817,4.99356 6.0817,4.97187 6.03133,4.95877 5.99477,4.92457 5.96057,4.89259 5.93517,4.82284 5.92341,4.75037 5.92123,4.73695 5.91952,4.72343 5.91831,4.71005 5.90122,4.52095 6.00943,4.46914 6.17307,4.4233 6.23255,4.40663 6.30345,4.259 6.30345,4.21816 6.30345,4.16757 6.18734,4.10887 6.18734,4.00923 6.17225,4.01721 6.14416,4.01296 6.13174,4.02934 5.93011,4.36074 5.73574,4.42328 5.71037,4.98311 Z" inkscape:connector-curvature="0" style="fill:url(#bk)"/><path id="path8328" d="M 1.92188,4.9919 C 1.91298,5.04416 1.89104,5.0929 1.87121,5.14099 1.94957,5.25797 2.07985,5.16629 2.12309,5.07118 2.14195,5.02969 2.18512,4.88513 2.11505,4.86213 2.04498,4.83913 1.99925,4.96171 1.92188,4.9919 Z" inkscape:connector-curvature="0" style="fill:url(#aa)"/><path id="path8330" d="M 0.67985,6.62032 C 0.70216,6.62075 0.74764,6.58922 0.7619,6.62624 0.77616,6.66326 0.81198,6.64473 0.82797,6.65072 0.83321,6.61258 0.82925,6.57794 0.81678,6.5555 0.80431,6.53306 0.79363,6.56236 0.76191,6.52084 0.71806,6.46345 0.68056,6.59143 0.67984,6.62032 Z" inkscape:connector-curvature="0" style="fill:url(#bg)"/><path id="path8332" d="M 0.69694,6.50865 C 0.71996,6.49091 0.73516,6.483 0.74572,6.48389 0.77272,6.48617 0.77361,6.52809 0.828,6.52687 0.85066,6.50825 0.85632,6.37734 0.81982,6.39532 0.78332,6.4133 0.76792,6.38156 0.73104,6.37709 0.6891,6.372 0.69667,6.48157 0.69694,6.50864 Z" inkscape:connector-curvature="0" style="fill:url(#bf)"/><path id="path8334" d="M 1.29347,5.60361 C 1.33657,5.64428 1.41342,5.62103 1.46516,5.64585 1.42721,5.5399 1.46075,5.50476 1.41346,5.42391 1.39885,5.39893 1.31734,5.36982 1.28594,5.33078 1.22766,5.25834 1.16373,5.15015 1.24235,5.06832 1.27381,5.03558 1.32592,5.0218 1.37232,5.05903 1.45346,5.12413 1.58757,5.30519 1.5896,5.37886 1.58313,5.50231 1.58967,5.59395 1.64426,5.70878 1.56988,5.71065 1.51034,5.74217 1.56445,5.82561 L 1.65002,5.86879 C 1.63084,5.76483 1.65913,5.73711 1.68005,5.65381 1.72463,5.45215 1.66615,5.37153 1.62297,5.24609 1.287,5.1835 1.14615,4.30192 1.33983,4.10703 1.28673,4.14436 1.23455,4.21286 1.20259,4.2443 1.17259,4.40701 1.19586,4.56136 1.25287,4.79854 1.10719,4.99095 1.03976,4.67384 1.02132,4.56917 0.96833,4.94154 1.08835,5.29449 1.29347,5.60363 Z" inkscape:connector-curvature="0" style="fill:url(#ba)"/><path id="path8336" d="M 0.68198,6.37552 C 0.73625,6.29843 0.79431,6.40703 0.83169,6.36421 0.84324,6.35664 0.82527,6.28253 0.83284,6.22618 0.84985,6.09962 0.89351,5.99041 0.89625,5.85894 0.89863,5.82147 0.82867,5.77451 0.79962,5.80992 0.7626,5.85506 0.66321,6.08274 0.68198,6.37553 Z" inkscape:connector-curvature="0" style="fill:url(#x)"/><path id="path8338" d="M 0.82608,5.77566 C 0.84984,5.77372 0.89436,5.79749 0.90944,5.83005 0.92746,5.78707 1.0558,5.59875 1.0558,5.55178 1.0558,5.54589 1.05193,5.53789 1.03768,5.52279 1.07906,5.54162 1.08039,5.52953 1.08261,5.51366 L 1.10083,5.31028 C 1.07056,5.24637 1.04919,5.18248 1.03185,5.1186 1.01475,5.22197 1.00349,5.32899 0.98639,5.43237 0.97489,5.47584 0.98372,5.49416 1.00366,5.50434 0.99455,5.50075 0.97932,5.49182 0.96958,5.48444 0.96248,5.49999 0.91662,5.60025 0.90418,5.62425 L 0.82609,5.77567 Z" inkscape:connector-curvature="0" style="fill:url(#w)"/><path id="path8340" d="M 1.42093,3.67912 C 1.34047,3.67083 1.27697,3.62062 1.26819,3.53275 1.01346,3.70833 1.0499,3.98926 1.01685,4.27126 1.05335,4.32625 1.1465,4.24448 1.16607,4.22778 c 0,-0.23226 0.07381,-0.40768 0.25486,-0.54866 z" inkscape:connector-curvature="0" style="fill:url(#z)"/><path id="path8342" d="M 0.83639,4.96427 C 0.87082,4.99977 0.87809,5.0621 0.87298,5.11447 0.91957,5.10015 0.97576,5.08515 1.02268,5.08562 1.01573,5.03644 1.00666,4.99448 1.0027,4.94171 0.96349,4.94473 0.89298,4.94867 0.83639,4.96426 Z" inkscape:connector-curvature="0" style="fill:url(#f)"/><path id="path8344" d="M 0.62126,5.46199 C 0.58991,5.43754 0.55315,5.42465 0.52009,5.41899 0.44499,5.60659 0.3743,5.80221 0.3988,5.89365 0.40341,5.96295 0.47034,5.95088 0.50505,5.90175 0.52044,5.87997 0.52442,5.85974 0.5257,5.83243 0.50672,5.80214 0.56213,5.62453 0.62126,5.46199 Z" inkscape:connector-curvature="0" style="fill:url(#bc)"/><path id="path8346" d="M 0.50713,5.38871 C 0.56017,5.39723 0.61029,5.4181 0.65068,5.45398 0.71709,5.27706 0.80076,5.10604 0.84492,5.10577 0.85067,5.05573 0.84132,5.0159 0.81898,4.9884 0.78506,5.00038 0.74968,5.00791 0.72986,5.02976 0.65406,5.09165 0.5716,5.23415 0.50714,5.38871 Z" inkscape:connector-curvature="0" style="fill:url(#y)"/><path id="path8348" d="M 1.92978,4.5384 C 2.00953,4.40117 2.02357,4.24681 1.98321,4.0943 1.91211,4.09401 1.85191,4.05076 1.85386,3.97504 1.78892,3.94955 1.71482,3.94548 1.6311,3.96958 1.80901,4.03493 1.89819,4.28988 1.92978,4.5384 Z" inkscape:connector-curvature="0" style="fill:url(#o)"/><path id="path8350" d="M 2.00448,4.08811 C 2.04927,4.25688 2.02881,4.42616 1.93394,4.57411 1.94905,4.71711 1.94542,4.85484 1.92907,4.94942 1.99969,4.90925 2.02254,4.81788 2.11593,4.83199 2.21411,4.84682 2.17432,5.0294 2.14937,5.08273 2.1029,5.1821 1.94075,5.29294 1.85144,5.17437 1.8465,5.17215 1.79034,5.24441 1.65941,5.25115 1.6746,5.30712 1.69615,5.35477 1.71729,5.41371 1.78939,5.20302 2.06298,5.46364 2.14057,5.28674 2.26845,4.99523 2.23648,4.36446 2.00447,4.0881 Z" inkscape:connector-curvature="0" style="fill:url(#bi)"/><path id="path8352" d="M 1.8761,3.98472 C 1.87929,4.04678 1.93427,4.07392 1.99036,4.07205 1.95633,4.03489 1.91829,4.00512 1.8761,3.98472 Z" inkscape:connector-curvature="0" style="fill:#0c4d00"/><path id="path8354" d="M 2.6345,4.62265 C 2.70915,4.58926 2.74853,4.51747 2.76897,4.4416 L 2.6716,4.32108 C 2.66499,4.42227 2.6494,4.52244 2.63451,4.62265 Z" inkscape:connector-curvature="0" style="fill:#926900"/><path id="path8356" d="M 2.78459,4.46259 C 2.75998,4.54341 2.71281,4.61524 2.63097,4.64656 2.61689,4.74253 2.60417,4.83863 2.60133,4.93579 2.68298,5.11017 2.82765,5.39082 3.05947,5.48567 3.30717,5.28778 2.9965,4.75063 2.78459,4.46259 Z" inkscape:connector-curvature="0" style="fill:url(#p)"/><path id="path8358" d="M 0.72465,7.02746 C 0.69528,6.96869 0.64579,7.03362 0.67006,7.08719 0.71045,7.09393 0.74206,7.07443 0.73505,7.04465 0.77956,7.05121 0.78006,7.08354 0.85224,7.04814 0.73582,7.03158 0.6788,6.90986 0.76091,6.80395 0.72039,6.79737 0.72575,6.75887 0.69754,6.74178 0.68623,6.76571 0.66423,6.82163 0.64763,6.88248 L 0.66469,6.88234 C 0.63019,6.94047 0.58166,7.18669 0.72135,7.16672 0.64099,7.17442 0.62081,6.99171 0.69195,6.99034 0.71037,6.98999 0.72749,7.00479 0.72464,7.02744 Z" inkscape:connector-curvature="0" style="fill:url(#ag)"/><path id="path8360" d="M 3.817,5.11415 C 3.79844,5.11081 3.77818,5.10851 3.75583,5.10756 3.65199,5.40413 3.69263,5.62875 3.62166,5.88965 3.68079,5.87811 3.73761,5.88039 3.79212,5.89652 3.75227,5.6627 3.75891,5.3469 3.817,5.11415 Z" inkscape:connector-curvature="0" style="fill:url(#v)"/><path id="path8362" d="m 7.66188,4.77531 c 0.02415,0 0.08128,0.00193 0.08128,-0.03482 0,-0.09089 -0.25742,-0.15152 -0.19381,-0.02699 0.02051,0.04013 0.0605,0.06181 0.11253,0.06181 z" inkscape:connector-curvature="0" style="fill:#4d3b00"/><path id="path8364" d="M 7.33854,3.93401 C 7.33428,3.94395 7.338,3.95615 7.35342,3.96518 7.36884,3.97421 7.44907,4.00262 7.47237,3.99859 7.50595,3.99279 7.50203,3.96479 7.48406,3.94274 7.46609,3.92069 7.43984,3.91775 7.41084,3.91662 7.3901,3.91582 7.34876,3.91017 7.33853,3.93401 Z" inkscape:connector-curvature="0" style="fill:#4d3200"/><path id="path8366" d="M 4.21885,3.13161 C 4.05556,3.16537 3.82894,3.37789 3.67134,3.34661 3.61752,3.33593 3.556,3.39567 3.51435,3.42195 L 3.50983,3.44473 3.50235,3.47909 3.51678,3.52894 3.5511,3.53624 3.62606,3.51513 3.64884,3.51965 3.67162,3.52416 C 3.71421,3.53262 3.77251,3.4731 3.78531,3.4284 3.91842,3.37306 4.00018,3.29307 4.13864,3.27446 4.3723,3.2431 4.56438,3.20174 4.80414,3.24074 4.91438,3.25865 5.00362,3.24198 5.10796,3.23547 5.17663,3.23119 5.24626,3.23519 5.31623,3.25711 5.39212,3.28088 5.45925,3.32527 5.53779,3.33857 5.66598,3.36025 5.77815,3.33676 5.90374,3.30308 6.06,3.26117 6.22899,3.16784 6.36221,3.08006 L 6.49884,2.98182 C 6.62874,2.86962 6.7671,2.76717 6.79347,2.58258 6.80052,2.53326 6.79831,2.48835 6.76652,2.4403 6.74574,2.40889 6.70379,2.38654 6.66682,2.37669 L 6.78064,2.33022 C 7.05038,2.21404 7.28878,1.94594 7.46614,1.73344 7.59057,1.58436 7.71807,1.43179 7.82028,1.27355 7.97846,1.02863 8.1062,0.74373 8.18632,0.4745 8.22265,0.35243 8.26751,0.218 8.17682,0.10684 8.14932,0.07313 8.11278,0.0458 8.07006,0.02714 7.9666,-0.01804 7.85399,0.00264 7.74792,0.02154 7.35087,0.0923 6.898,0.37606 6.53275,0.67572 6.09389,1.03581 5.67858,1.42391 5.23885,1.78059 4.75303,2.17464 4.25183,2.56607 3.74716,2.93431 3.54464,3.08208 3.37081,3.20783 3.36603,3.21501 3.36085,3.24109 3.36727,3.22902 3.36838,3.26282 3.42689,3.29158 3.40792,3.33636 3.46645,3.36512 L 3.46193,3.38789 3.49229,3.40542 3.51201,3.37416 C 3.56919,3.24778 3.63697,3.24668 3.73037,3.18388 3.8133,3.12813 3.91868,3.0938 3.98293,3.0322 L 4.04313,3.0299 C 4.14509,3.01221 4.32506,2.9941 4.47235,2.97111 4.51932,2.96377 4.65661,2.93248 4.79872,2.91058 4.6278,2.98078 4.41309,3.08555 4.21886,3.13162 Z m 0.97763,-0.074 C 5.13165,3.06191 5.17926,3.01462 5.07176,3.06009 5.0777,3.06619 5.08176,3.09138 5.07311,3.10169 5.11103,3.08342 5.15216,3.06874 5.19648,3.05761 Z M 5.19669,2.98273 C 5.45493,2.82092 6.02285,2.71942 6.22733,2.69335 6.23113,2.67029 6.22929,2.6476 6.22313,2.62728 l -0.1375,0.0111 C 5.70071,2.67655 5.29709,2.72319 4.94369,2.88636 4.7958,2.95464 4.64924,3.00153 4.50029,3.07179 L 4.3382,3.14762 C 4.35601,3.17423 4.44513,3.15329 4.5667,3.14711 4.7283,3.13888 4.94547,3.08125 5.06001,3.05071 5.12361,3.03376 5.14176,3.01704 5.1967,2.98273 Z M 4.12886,3.2382 C 4.28134,3.22683 4.42387,3.19437 4.57228,3.19048 L 4.77934,3.1923 C 4.81958,3.19079 5.09955,3.14897 5.05304,3.06464 4.89282,3.11261 4.7391,3.16307 4.5665,3.1662 4.41711,3.16891 4.2696,3.19835 4.12885,3.2382 Z M 5.97171,2.25294 C 6.01734,2.16861 6.01925,2.10405 6.03847,2.03581 6.02109,1.98209 6.05895,1.85412 6.06987,1.79908 6.07988,1.74867 6.03748,1.7608 5.98463,1.79174 5.63415,1.9969 5.34206,2.29383 4.96394,2.46004 4.933,2.47364 4.91594,2.48893 4.89054,2.51172 L 4.91202,2.50923 C 5.22481,2.36427 5.63223,2.35063 5.97171,2.25294 Z m -1.097,0.29114 C 4.62956,2.646 4.28035,2.84069 4.06016,2.9879 4.89434,2.88893 5.06266,2.76943 5.58614,2.58634 5.77706,2.52164 5.97558,2.47354 6.17333,2.43312 6.14546,2.4101 6.10719,2.37242 6.07967,2.3242 6.05375,2.31384 6.01613,2.29774 5.98756,2.27042 5.63664,2.38954 5.16471,2.39964 4.87471,2.54408 Z M 5.84091,1.59981 C 5.8746,1.43005 6.12416,1.29012 6.17715,1.1051 6.13433,1.11792 6.0883,1.14965 6.04379,1.1872 5.32419,1.7944 4.58258,2.40463 3.837,2.97912 4.21367,2.85305 4.47889,2.6855 4.55389,2.64333 4.62856,2.60134 4.69868,2.53198 4.77439,2.50051 4.824,2.32727 5.80389,1.61712 5.84091,1.59982 H 5.8409 Z M 4.95328,2.44598 C 5.44454,2.21327 5.82537,1.81322 6.03711,1.74545 6.05741,1.73595 6.10898,1.68621 6.13152,1.66512 6.34027,1.46968 6.6701,1.3112 6.81941,1.08257 6.82371,1.07595 6.9495,0.94413 6.88502,0.93133 6.85398,0.92517 6.77924,1.00207 6.74854,1.02258 6.71675,1.05433 6.58907,1.13851 6.4931,1.19562 6.31324,1.30268 6.10063,1.42256 5.94583,1.56146 5.89987,1.60736 5.80111,1.66396 5.74588,1.7063 5.59982,1.81826 4.85986,2.35511 4.79491,2.51641 4.86025,2.52937 4.89906,2.47167 4.95328,2.44598 Z M 7.18937,0.58566 C 7.33071,0.47764 7.44518,0.35653 7.5893,0.2436 7.65507,0.19206 7.71631,0.13559 7.75357,0.05663 7.49238,0.1068 6.85145,0.39494 6.69716,0.71573 6.83957,0.71433 7.07893,0.67007 7.18937,0.58566 Z M 7.5081,0.34025 C 7.46808,0.37613 7.44286,0.41236 7.48204,0.44764 7.57346,0.53 7.66245,0.49668 7.72026,0.65925 7.60998,0.73299 7.53826,0.80805 7.417,0.83151 7.32094,0.85009 7.25163,0.89367 7.17522,0.94898 7.15804,1.03559 7.2495,1.12745 7.238,1.23379 7.22705,1.33506 7.18206,1.43411 7.19277,1.5373 7.26937,1.5525 7.37769,1.55363 7.4567,1.53119 7.39567,1.5661 7.26506,1.57476 7.19793,1.56143 7.18209,1.55579 7.08741,1.57157 7.05096,1.58077 6.90677,1.61715 6.08815,1.97921 6.05599,2.06676 6.04569,2.11865 6.00239,2.21605 6.01725,2.26198 6.04521,2.28365 6.06686,2.30733 6.10158,2.31421 6.11434,2.3449 6.16368,2.40594 6.20647,2.42539 6.36005,2.40239 6.5156,2.35176 6.63449,2.37264 6.74164,2.30867 6.83986,2.28277 6.9302,2.2094 7.41687,1.78873 7.93152,1.19428 8.13835,0.56266 8.17139,0.46175 8.22228,0.28726 8.17161,0.17235 8.12094,0.05744 7.94901,0.00883 7.84281,0.04582 7.76713,0.07218 7.74223,0.14575 7.65142,0.214 7.59746,0.25455 7.55711,0.29631 7.50809,0.34026 Z M 7.33312,0.8276 C 7.32813,0.80884 7.31363,0.77968 7.30257,0.75975 7.27988,0.71887 7.25919,0.72306 7.21768,0.71501 7.17617,0.70696 7.16709,0.67895 7.13195,0.66658 7.09681,0.65421 7.06202,0.67836 7.01497,0.69411 7.00639,0.73734 7.01852,0.80973 6.97934,0.83417 6.93505,0.86178 6.92544,0.89047 6.9192,0.93812 7.00079,0.95431 7.0754,0.93006 7.1552,0.93564 7.20277,0.89248 7.27234,0.85812 7.33313,0.8276 Z M 7.43528,0.4252 C 7.3576,0.46612 7.28776,0.56136 7.15869,0.63369 7.18234,0.71993 7.27104,0.67338 7.31638,0.73913 7.33955,0.77271 7.35901,0.8124 7.36985,0.81455 7.46765,0.83396 7.62144,0.70244 7.69342,0.65196 7.61094,0.47975 7.50834,0.54598 7.43529,0.4252 Z M 5.42965,2.70115 C 5.65694,2.65385 5.88608,2.63278 6.08665,2.61601 6.17819,2.60836 6.27215,2.6133 6.3624,2.60156 6.49274,2.5846 6.62953,2.53358 6.6746,2.50913 6.67408,2.52774 6.56913,2.57679 6.44526,2.60198 L 6.24124,2.62453 C 6.24678,2.64706 6.24955,2.66905 6.24831,2.69022 6.55309,2.64782 6.64223,2.66833 6.69883,2.68154 6.39724,2.64653 5.76898,2.78222 5.33948,2.94712 5.27967,2.97008 5.22526,3.00474 5.1664,3.03029 5.18414,3.05681 5.23545,3.04658 5.26206,3.03927 5.49248,2.97601 5.97649,3.06852 6.16206,3.14275 5.8568,3.06608 5.5313,3.028 5.21804,3.07453 5.06994,3.09653 4.95287,3.20442 4.79783,3.20792 4.86521,3.24055 5.0502,3.22287 5.13686,3.21597 5.34456,3.19943 5.42762,3.31015 5.57671,3.32386 5.97631,3.36059 6.35669,3.08878 6.63423,2.82992 6.7337,2.73715 6.80844,2.59176 6.75663,2.47967 6.72928,2.42051 6.68365,2.39511 6.63008,2.38806 6.50108,2.3711 6.31654,2.42747 6.1898,2.45277 6.00334,2.49001 5.54699,2.58397 5.42963,2.70116 Z M 6.4102,1.49612 C 6.33256,1.56323 6.15886,1.65944 6.09843,1.73376 6.09537,1.74919 6.092,1.76441 6.0883,1.7797 6.08072,1.85639 6.04723,1.93191 6.05558,2.00926 6.534,1.7491 6.90238,1.58402 7.11763,1.54197 7.13956,1.5377 7.15951,1.53603 7.17716,1.53559 7.15815,1.4288 7.21077,1.33598 7.22348,1.23568 7.23737,1.12611 7.14762,1.04811 7.15807,0.95595 7.07946,0.94702 6.99909,0.97154 6.9292,0.96631 6.77307,1.20591 6.62068,1.31418 6.41019,1.49612 Z M 6.51973,0.8154 C 6.44664,0.8644 6.39946,0.92537 6.32389,0.97677 6.26655,1.01578 6.22421,1.06963 6.21119,1.10382 6.14363,1.28133 6.02811,1.34826 5.91828,1.5018 5.9643,1.51293 6.08098,1.416 6.12128,1.39508 6.39413,1.18524 6.51626,1.1721 6.67641,1.04239 6.75829,0.97606 6.82687,0.89571 6.90218,0.90454 6.92468,0.86502 6.94085,0.83038 6.96533,0.81232 6.98981,0.79426 6.9805,0.74903 6.99022,0.7004 6.84554,0.7646 6.60765,0.75646 6.51973,0.81539 Z" inkscape:connector-curvature="0"/><path id="path8368" d="M 5.19648,3.05761 C 5.13166,3.0619 5.17926,3.01462 5.07176,3.06009 5.0777,3.06618 5.08176,3.09139 5.0731,3.10169 5.11103,3.08341 5.15216,3.06873 5.19648,3.05761 Z m 2e-4,-0.07488 C 5.45493,2.82091 6.02285,2.71941 6.22732,2.69335 6.23113,2.6703 6.22928,2.64759 6.22313,2.62728 l -0.1375,0.0111 C 5.70071,2.67653 5.29709,2.72318 4.94369,2.88635 4.7958,2.95463 4.64923,3.00152 4.50029,3.07177 L 4.33821,3.1476 C 4.35601,3.17421 4.44513,3.15327 4.56669,3.14708 4.72829,3.13886 4.94546,3.08123 5.06,3.05069 5.1236,3.03374 5.14176,3.01702 5.19669,2.98271 h -1e-5 z M 4.12885,3.23821 C 4.28133,3.22684 4.42386,3.19438 4.57228,3.19049 L 4.77934,3.19231 C 4.81959,3.1908 5.09956,3.14898 5.05304,3.06465 4.89282,3.11262 4.7391,3.16307 4.56651,3.16621 4.41712,3.16893 4.26961,3.19836 4.12886,3.23821 Z M 5.97169,2.25295 C 6.01732,2.16862 6.01924,2.10406 6.03845,2.03582 6.02107,1.98209 6.05893,1.85412 6.06985,1.79909 6.07985,1.74868 6.03745,1.76081 5.98461,1.79175 5.63412,1.99691 5.34203,2.29384 4.96392,2.46005 4.93298,2.47364 4.91592,2.48893 4.89052,2.51172 L 4.912,2.50924 C 5.22478,2.36427 5.63221,2.35063 5.97169,2.25294 h -10e-6 z M 4.8747,2.54408 C 4.62954,2.646 4.28033,2.84069 4.06014,2.98791 4.89433,2.88894 5.06264,2.76944 5.58612,2.58634 5.77705,2.52164 5.97556,2.47353 6.17331,2.43312 6.14544,2.41011 6.10717,2.37243 6.07965,2.32421 6.05373,2.31384 6.0161,2.29774 5.98754,2.27043 5.63662,2.38956 5.16469,2.39966 4.87469,2.54409 Z M 5.8409,1.59981 C 5.87459,1.43005 6.12415,1.29012 6.17714,1.10511 6.13432,1.11791 6.08829,1.14965 6.04378,1.1872 5.32419,1.7944 4.58257,2.40463 3.83699,2.97912 4.21365,2.85306 4.47888,2.68551 4.55388,2.64333 4.62855,2.60134 4.69867,2.53198 4.77437,2.50051 4.82399,2.32727 5.80387,1.61712 5.84089,1.59982 h 1e-5 z M 4.95326,2.44599 C 5.44452,2.21328 5.82536,1.81322 6.0371,1.74545 6.0574,1.73595 6.10897,1.68621 6.1315,1.66512 6.34026,1.46969 6.67008,1.31121 6.81939,1.08257 6.8237,1.07596 6.94949,0.94414 6.88501,0.93134 6.85397,0.92518 6.77923,1.00208 6.74853,1.02259 6.71674,1.05434 6.58906,1.13852 6.49309,1.19563 6.31322,1.30269 6.10062,1.42257 5.94582,1.56146 5.89985,1.60737 5.8011,1.66396 5.74586,1.7063 5.5998,1.81826 4.85984,2.35511 4.79489,2.5164 4.86023,2.52937 4.89904,2.47166 4.95326,2.44598 Z M 7.18935,0.58567 C 7.33068,0.47765 7.44517,0.35654 7.58928,0.24361 7.65505,0.19207 7.71629,0.13559 7.75354,0.05664 7.49235,0.1068 6.85143,0.39495 6.69713,0.71574 6.83954,0.71433 7.0789,0.67008 7.18934,0.58567 Z M 7.50808,0.34026 C 7.46806,0.37615 7.44284,0.41237 7.48202,0.44766 7.57344,0.53002 7.66243,0.4967 7.72024,0.65927 7.60997,0.733 7.53824,0.80807 7.41698,0.83153 7.32092,0.85011 7.25161,0.89369 7.1752,0.94901 7.15801,1.03562 7.24948,1.12748 7.23798,1.23381 7.22703,1.33508 7.18203,1.43414 7.19274,1.53732 7.26935,1.55253 7.37765,1.55364 7.45667,1.53121 7.39564,1.56611 7.26503,1.57478 7.1979,1.56146 7.18205,1.55581 7.08738,1.57159 7.05094,1.58079 6.90675,1.61718 6.08812,1.97923 6.05597,2.06678 6.04567,2.11866 6.00237,2.21606 6.01723,2.26199 6.04519,2.28367 6.06684,2.30734 6.10156,2.31423 6.11433,2.34492 6.16366,2.40596 6.20645,2.4254 6.36003,2.4024 6.51558,2.35178 6.63447,2.37265 6.74162,2.30868 6.83984,2.28278 6.93019,2.20941 7.41686,1.78874 7.93152,1.19428 8.13834,0.56266 8.17138,0.46175 8.22227,0.28726 8.1716,0.17235 8.12093,0.05744 7.949,0.00884 7.8428,0.04581 7.76712,0.07217 7.74222,0.14575 7.65141,0.21399 7.59745,0.25454 7.5571,0.2963 7.50808,0.34025 Z M 7.3331,0.82761 C 7.32811,0.80885 7.3136,0.7797 7.30254,0.75976 7.27985,0.71888 7.25916,0.72307 7.21765,0.71503 7.17614,0.70699 7.16706,0.67896 7.13192,0.66659 7.09678,0.65422 7.06199,0.67837 7.01493,0.69413 7.00636,0.73735 7.01849,0.80974 6.9793,0.83417 6.935,0.86179 6.9254,0.89048 6.91916,0.93813 7.00074,0.95432 7.07535,0.93007 7.15515,0.93565 7.20273,0.89249 7.27229,0.85813 7.33309,0.8276 Z M 7.43526,0.42521 C 7.35758,0.46614 7.28774,0.56138 7.15867,0.63371 7.18232,0.71995 7.27102,0.6734 7.31635,0.73915 7.33952,0.77273 7.35898,0.81242 7.36982,0.81457 7.46762,0.83398 7.62141,0.70246 7.69339,0.65199 7.61091,0.47977 7.5083,0.54601 7.43526,0.42521 Z M 5.42963,2.70116 C 5.65692,2.65385 5.88606,2.63279 6.08663,2.61602 6.17817,2.60837 6.27213,2.61331 6.36238,2.60157 6.49272,2.58461 6.62951,2.53359 6.67459,2.50914 6.67407,2.52775 6.56912,2.5768 6.44525,2.60199 L 6.24123,2.62454 C 6.24677,2.64708 6.24955,2.66906 6.2483,2.69024 6.55308,2.64783 6.64222,2.66834 6.69882,2.68155 6.39722,2.64655 5.76896,2.78223 5.33948,2.94713 5.27967,2.97009 5.22525,3.00475 5.16639,3.0303 5.18413,3.05682 5.23544,3.04659 5.26205,3.03928 5.49247,2.97603 5.97648,3.06853 6.16205,3.14275 5.85679,3.06609 5.53129,3.02801 5.21803,3.07453 5.06992,3.09653 4.95286,3.20442 4.79781,3.20792 4.86519,3.24055 5.05018,3.22287 5.13685,3.21597 5.34456,3.19943 5.42762,3.31015 5.5767,3.32386 5.9763,3.36059 6.35667,3.08878 6.63422,2.82992 6.73368,2.73714 6.80843,2.59177 6.75661,2.47968 6.72926,2.42051 6.68364,2.39511 6.63006,2.38807 6.50106,2.3711 6.31651,2.42747 6.18977,2.45278 6.00331,2.49001 5.54696,2.58398 5.42961,2.70116 Z M 6.41019,1.49612 C 6.33254,1.56323 6.15884,1.65944 6.09841,1.73375 6.09535,1.74918 6.09198,1.7644 6.08828,1.7797 6.08071,1.85637 6.04721,1.9319 6.05557,2.00925 6.53399,1.7491 6.90236,1.58401 7.11762,1.54197 7.13955,1.53768 7.15951,1.53603 7.17716,1.53558 7.15815,1.42879 7.21077,1.33598 7.22348,1.23568 7.23737,1.12611 7.14761,1.04811 7.15807,0.95594 7.07945,0.94702 6.99909,0.97153 6.9292,0.96631 6.77307,1.20592 6.62068,1.31418 6.4102,1.49611 Z M 6.51972,0.8154 C 6.44662,0.86439 6.39945,0.92537 6.32388,0.97677 6.26654,1.01579 6.22419,1.06963 6.21119,1.10382 6.14362,1.28132 6.0281,1.34826 5.91828,1.5018 5.9643,1.51294 6.08098,1.416 6.12128,1.39509 6.39413,1.18524 6.51626,1.17211 6.67641,1.0424 6.7583,0.97607 6.82687,0.89572 6.90217,0.90455 6.92468,0.86503 6.94084,0.83039 6.96532,0.81233 6.9898,0.79427 6.98048,0.74904 6.99021,0.70041 6.84553,0.76461 6.60764,0.75647 6.51972,0.8154 Z" inkscape:connector-curvature="0" style="fill:#fdb300;fill-opacity:0.50196043"/><path id="path8370" d="M 1.61419,4.19402 C 1.51118,4.21464 1.50706,4.36408 1.51661,4.44299 1.5255,4.51643 1.5756,4.7382 1.69301,4.70726 1.83799,4.66906 1.76983,4.16287 1.61419,4.19402 Z" inkscape:connector-curvature="0" style="fill:#ffffff"/><path id="path8372" d="M 1.29474,3.55006 C 1.31982,3.60989 1.34998,3.63434 1.41108,3.65308 1.52626,3.55719 1.62716,3.47415 1.67093,3.42501 1.75138,3.33469 1.64154,3.25893 1.61632,3.30534 1.5825,3.36755 1.43983,3.44833 1.29474,3.55006 Z" inkscape:connector-curvature="0" style="fill:url(#e)"/></g></g></svg>