<svg id="jSvgRecipeBookButton" width="25" height="20" viewBox="0 0 25 20" xmlns="http://www.w3.org/2000/svg"
  xmlns:xlink="http://www.w3.org/1999/xlink">
  <g>
    <defs>
      <path id="a" d="M.106.557h20.813v19.34H.106z"></path>
    </defs>
    <g fill="none" fill-rule="evenodd">
      <path fill="#FFF" d="M2.636 8.978v1.055h5.272V8.978H3.972z"></path>
      <path fill="#FFF" d="M5.8 6.87H4.744v5.272h1.054V8.205z"></path>
      <g transform="translate(4.117 .13)">
        <mask id="b" fill="#fff">
          <use xlink:href="#a"></use>
        </mask>
        <path
          d="M20.884 6.324C20.572 2.982 18.14.557 15.098.557a5.781 5.781 0 0 0-4.926 2.762C9.137 1.596 7.357.557 5.363.557 3.012.557 1.03 2.009.106 4.21c.34-.07 1.685-2.078 2.045-2.078 2.9 0 12.433 6.125 12.433 9.024 0 2.035-8.411 4.782-11.027 2.904l6.61 5.837 7.575-6.576c1.493-1.316 2.516-2.979 2.96-4.806.307-1.266.206-2.044.182-2.191"
          fill="#FFF" mask="url(#b)"></path>
      </g>
      <path
        d="M5.272 13.723a4.23 4.23 0 0 1-4.217-4.217c0-1.818 1.167-3.372 2.787-3.962a4.175 4.175 0 0 1 1.43-.256A4.23 4.23 0 0 1 9.49 9.506a4.23 4.23 0 0 1-2.678 3.92c-.477.19-.996.297-1.539.297zM20.583 9.75c0-2.9-10.726-6.446-13-7.583-2.166-1.084-3.021 2.103-3.36 2.172C1.82 4.83 0 6.965 0 9.506c0 2.9 2.373 5.271 5.272 5.271a5.22 5.22 0 0 0 2.402-.587C10.289 16.068 19.5 15.035 19.5 13"
        fill="#FFF"></path>
    </g>
    <path
      d="M5.272 13.723a4.23 4.23 0 0 1-4.217-4.217c0-1.818 1.167-3.372 2.787-3.962a4.175 4.175 0 0 1 1.43-.256A4.23 4.23 0 0 1 9.49 9.506a4.23 4.23 0 0 1-2.678 3.92c-.477.19-.996.297-1.539.297zM20.583 9.75c0-2.9-10.726-6.446-13-7.583-2.166-1.084-3.021 2.103-3.36 2.172C1.82 4.83 0 6.965 0 9.506c0 2.9 2.373 5.271 5.272 5.271a5.22 5.22 0 0 0 2.402-.587C10.289 16.068 19.5 15.035 19.5 13"
      fill="#FFF"></path>
  </g>
</svg>
