<?xml version="1.0" encoding="UTF-8" standalone="no"?>
<svg xmlns="http://www.w3.org/2000/svg" viewBox="0 0 800 800">
  <path
     d="m 800,41.803859 q 0,49.821051 -85.3257,135.146751 l -137.43737,137.43735 81.88976,427.20115 0.57266,3.43594 q 0,8.01718 -5.15391,13.17108 L 617.89548,794.8461 Q 612.74158,800 604.7244,800 592.69864,800 588.11739,789.69219 L 431.20972,460.41517 290.90909,600.71583 q 38.94058,136.29203 38.94058,144.30922 0,8.01718 -5.1539,13.17108 L 288.04581,794.8461 Q 282.8919,800 274.87472,800 q -10.30781,0 -16.03434,-9.1625 L 170.07874,630.49391 9.7351463,541.73228 Q 0,536.57838 0,525.69791 0,517.68073 5.1539015,512.52682 L 41.803865,475.30423 q 5.1539,-5.1539 13.171079,-5.1539 8.017182,0 144.309236,38.94058 L 339.58483,368.79026 10.307803,211.88261 Q 0,207.30136 0,195.27559 0,187.25841 5.1539015,182.10451 L 41.803865,145.45454 q 5.1539,-5.1539 13.171079,-5.1539 2.290624,0 3.435936,0.57266 L 485.61202,222.76306 623.04939,85.325699 Q 708.37509,0 758.19613,0 776.5211,0 788.26056,11.73944 800,23.47888 800,41.803859 Z"
   />
</svg>